<svg version="1.1" xmlns="http://www.w3.org/2000/svg" xmlns:xlink="http://www.w3.org/1999/xlink" width="243.3102" height="767.96266" viewBox="0,0,243.3102,767.96266"><g transform="translate(-112.7137,280.73694)"><g data-paper-data="{&quot;isPaintingLayer&quot;:true}" fill="#ffffff" fill-rule="nonzero" stroke="none" stroke-width="0" stroke-linecap="butt" stroke-linejoin="miter" stroke-miterlimit="10" stroke-dasharray="" stroke-dashoffset="0" style="mix-blend-mode: normal"><path d="M121.30318,208.58731v-52.16309h9v52.16309z"/><path d="M199.38126,208.5873v-52.16309h9v52.16309z"/><path d="M268.94579,208.06493v-52.16309h9v52.16309z"/><path d="M347.0239,207.37003v-52.16309h9v52.16309z"/><path d="M119.27707,351.76745v-52.16309h9v52.16309z"/><path d="M197.35515,351.76743v-52.16309h9v52.16309z"/><path d="M266.91969,351.24506v-52.16309h9v52.16309z"/><path d="M344.99779,350.55016v-52.16309h9v52.16309z"/><path d="M116.07994,61.67088v-52.16309h9v52.16309z"/><path d="M194.15802,61.67087v-52.16309h9v52.16309z"/><path d="M263.72256,61.1485v-52.16309h9v52.16309z"/><path d="M341.80066,60.45359v-52.16309h9v52.16309z"/><path d="M115.91083,62.74v-52.16309h9v52.16309z"/><path d="M193.98891,62.73999v-52.16309h9v52.16309z"/><path d="M263.55345,62.21762v-52.16309h9v52.16309z"/><path d="M341.63155,61.52271v-52.16309h9v52.16309z"/><path d="M112.7137,-227.35655v-52.16309h9v52.16309z"/><path d="M190.79178,-227.35658v-52.16309h9v52.16309z"/><path d="M260.35632,-227.87893v-52.16309h9v52.16309z"/><path d="M338.43442,-228.57384v-52.16309h9v52.16309z"/><path d="M119.92833,355.13864v-52.16309h9v52.16309z"/><path d="M198.00641,355.13861v-52.16309h9v52.16309z"/><path d="M267.57094,354.61626v-52.16309h9v52.16309z"/><path d="M345.64905,353.92135v-52.16309h9v52.16309z"/><path d="M119.77257,483.85453v-52.16309h9v52.16309z"/><path d="M197.85065,483.85451v-52.16309h9v52.16309z"/><path d="M267.41519,483.33214v-52.16309h9v52.16309z"/><path d="M345.49329,482.63724v-52.16309h9v52.16309z"/><path d="M120.42383,487.22572v-52.16309h9v52.16309z"/><path d="M198.50191,487.22569v-52.16309h9v52.16309z"/><path d="M268.06644,486.70334v-52.16309h9v52.16309z"/><path d="M346.14455,486.00843v-52.16309h9v52.16309z"/><path d="M117.26506,-73.66799v-52.16309h9v52.16309z"/><path d="M195.34314,-73.66801v-52.16309h9v52.16309z"/><path d="M264.90768,-74.19038v-52.16309h9v52.16309z"/><path d="M342.98578,-74.88528v-52.16309h9v52.16309z"/><path d="M117.91632,-70.2968v-52.16309h9v52.16309z"/><path d="M195.9944,-70.29683v-52.16309h9v52.16309z"/><path d="M265.55893,-70.81918v-52.16309h9v52.16309z"/><path d="M343.63704,-71.51409v-52.16309h9v52.16309z"/></g></g></svg>