<svg version="1.1" xmlns="http://www.w3.org/2000/svg" xmlns:xlink="http://www.w3.org/1999/xlink" width="168.97854" height="243.83359" viewBox="0,0,168.97854,243.83359"><g transform="translate(-137.39996,-69.34277)"><g data-paper-data="{&quot;isPaintingLayer&quot;:true}" fill="#000000" fill-rule="nonzero" stroke="none" stroke-width="0.5" stroke-linecap="butt" stroke-linejoin="miter" stroke-miterlimit="10" stroke-dasharray="" stroke-dashoffset="0" style="mix-blend-mode: normal"><path d="M303.99826,312.23109c-1.60046,1.92055 -3.52101,0.32009 -3.52101,0.32009l-1.3268,-1.10566c-1.27113,-1.05928 -8.2456,-6.69306 -8.52879,-7.81053c-0.46798,-1.84665 1.45385,-3.52176 2.18077,-5.28264c2.34067,-1.24626 6.39102,-3.33614 7.50976,-6.00902c2.0879,-4.98842 0.76702,-12.4738 0.76702,-17.76375c0,-4.81154 0.46646,-9.93916 0.01493,-14.72721c-0.6913,-7.3306 -3.49995,-14.82668 -5.813,-21.76583c-1.76414,-5.29243 -3.02286,-11.45585 -5.45065,-16.44847c-1.4099,-2.89938 -3.57424,-5.36674 -5.35235,-8.05607c-4.40803,-6.667 -9.11709,-13.61016 -15.16531,-18.95547c-2.42907,-2.14677 -5.31584,-3.71197 -7.95953,-5.58811c-1.24793,-0.88562 -2.35511,-2.00673 -3.73357,-2.67118c-2.87978,-1.38813 -6.14588,-1.76319 -9.21411,-2.66099c-2.03583,-0.59571 -4.02641,-1.39628 -6.05925,-2.0032c-0.45643,0.4903 -1.10751,0.79696 -1.83022,0.79696c-1.03474,0 -1.92265,-0.62863 -2.30266,-1.52482c-0.53401,0.00272 -1.2493,0.00709 -2.02404,0.01212c-0.62092,0.18864 -1.24507,0.36202 -1.87234,0.51872c-4.71794,1.17861 -9.78011,0.35705 -14.51652,0.97525c-1.6361,0.21355 -3.16717,0.97412 -4.80077,1.20602c-1.69932,0.24123 -8.5352,0.26096 -10.32434,0.28017l-3.16718,0.03385c-0.01038,0.00013 -0.02078,0.00019 -0.03119,0.00019c-1.38071,0 -2.5,-1.11929 -2.5,-2.5c0,-0.99801 0.58479,-1.85943 1.43041,-2.26029l4.42369,-2.21185l0.0253,0.0506c0.14453,-0.08004 0.29154,-0.15623 0.44129,-0.22816c1.65165,-0.79338 3.6544,-0.27416 5.48247,-0.39905c5.05319,-0.34523 10.06812,-0.35766 15.13082,-0.39348c3.14798,-0.02227 6.79867,-0.35335 10.20482,-0.30103c6.5702,-2.26321 12.73039,-6.32206 18.37275,-10.07988c3.86742,-2.5757 7.07148,-5.37347 10.63425,-8.34657c1.08275,-0.90355 2.42867,-1.54312 3.29016,-2.65961c0.43263,-0.56069 0.22239,-1.3997 0.37554,-2.09114c1.10114,-4.97135 2.27931,-9.02646 2.26056,-14.1426c0,-6.66667 0,-13.33333 0,-20c0,-2.79264 0.62712,-5.63879 0.08107,-8.37752c-0.18087,-0.90718 -0.96696,-1.57759 -1.42665,-2.38032c-1.57337,-2.7475 -3.3582,-5.39191 -5.38456,-7.82462c-2.87568,-3.45235 -6.20078,-6.93178 -10.08709,-9.31168c-2.69153,-1.64824 -5.77688,-2.54401 -8.66059,-3.82668c-2.27174,-1.01047 -5.92735,-2.79955 -8.45867,-3.349c-2.32491,-0.50465 -4.75803,0.03228 -7.13708,0.03228c-5,0 -10,0 -15,0c-18.18318,0 -36.36637,0 -54.54955,0c-4.62578,0 -9.39299,0.31364 -14.00901,0c-2.26387,-0.15382 -4.93831,0.6101 -6.76777,-0.73223c-2.08283,-1.52824 -0.15853,-5.19759 -0.66536,-7.19939c-0.22776,-0.89958 -0.86963,-1.63957 -1.30445,-2.45935c0,0 -1.11803,-2.23607 1.11803,-3.3541c2.23607,-1.11803 3.3541,1.11803 3.3541,1.11803c0.56619,1.18222 1.38326,2.27434 1.69856,3.54665c0.28688,1.15765 0.23021,2.39595 0.06688,3.57739c-0.06555,0.47414 -1.20148,1.14082 -0.73223,1.23524c1.08301,0.2179 2.13313,-0.62109 3.23223,-0.73223c1.32956,-0.13444 2.67267,0 4.00901,0c5,0 10,0 15,0c16.51652,0 33.03303,0 49.54955,0c5,0 10,0 15,0c2.64602,0 5.34859,-0.51215 7.93799,0.03228c3.30658,0.69521 6.63255,2.35825 9.68845,3.71538c0.24964,0.11087 9.05084,4.01535 9.22832,4.12395c4.35817,2.66664 8.09991,6.50828 11.32977,10.38255c2.67201,3.20512 6.88928,7.88538 7.80796,12.14288c0.10031,0.46486 0.08107,8.38296 0.08107,9.6405c0,6.66667 0,13.33333 0,20c-0.0178,5.46063 -1.05435,10.02624 -2.39809,15.30726c-0.30127,1.18402 -0.26159,2.53996 -0.97181,3.53408c-1.11852,1.56561 -2.85577,2.57965 -4.3024,3.8483c-3.62291,3.17716 -7.10613,6.03556 -11.11471,8.71054c-3.93505,2.62591 -8.11056,5.35004 -12.48857,7.59542c2.40088,0.70027 4.82316,1.4111 5.03619,1.47344c0.48815,0.14284 9.73816,2.83866 9.98101,2.95572c1.62431,0.78296 2.96432,2.05391 4.44184,3.08752c0.27803,0.1945 8.26335,5.81621 8.3913,5.92929c6.37752,5.63633 11.37595,12.91286 16.025,19.94439c0.22788,0.34467 5.58354,8.43266 5.6781,8.62712c2.52707,5.19678 3.8618,11.54673 5.69752,17.05389c2.42769,7.28308 5.30032,15.10786 6.03973,22.80139c0.47728,4.96601 0.01493,10.28091 0.01493,15.27279c0,6.28302 1.23967,14.1574 -1.32684,20.06262c-1.37908,3.1731 -5.43171,5.87305 -8.4144,7.24568c-0.27408,0.24112 -1.06082,0.44708 -0.82223,0.72337c0.7603,0.88046 2.05516,1.10606 2.99453,1.79224c1.34585,0.98309 2.56074,2.13395 3.84111,3.20092l1.3268,1.10566c0,0 1.92055,1.60046 0.32009,3.52101z"/></g></g></svg>