<svg version="1.1" xmlns="http://www.w3.org/2000/svg" xmlns:xlink="http://www.w3.org/1999/xlink" width="205.5" height="143.5" viewBox="0,0,205.5,143.5"><g transform="translate(-129,-119)"><g data-paper-data="{&quot;isPaintingLayer&quot;:true}" fill-opacity="0.53226" fill="#543e3e" fill-rule="nonzero" stroke="none" stroke-width="0" stroke-linecap="butt" stroke-linejoin="miter" stroke-miterlimit="10" stroke-dasharray="" stroke-dashoffset="0" style="mix-blend-mode: normal"><path d="M325,180c0,33.68937 -38.0558,61 -85,61c-46.9442,0 -85,-27.31063 -85,-61c0,-33.68937 38.0558,-61 85,-61c46.9442,0 85,27.31063 85,61z"/><path d="M234,215c0,26.23353 -23.50505,47.5 -52.5,47.5c-28.99495,0 -52.5,-21.26647 -52.5,-47.5c0,-26.23353 23.50505,-47.5 52.5,-47.5c28.99495,0 52.5,21.26647 52.5,47.5z"/><path d="M267.5,164.5c0,19.60611 -26.4152,35.5 -59,35.5c-32.5848,0 -59,-15.89389 -59,-35.5c0,-19.60611 26.4152,-35.5 59,-35.5c32.5848,0 59,15.89389 59,35.5z"/><path d="M208.5,199.5c0,11.32184 22.1619,20.5 49.5,20.5c27.3381,0 49.5,-9.17816 49.5,-20.5c0,-11.32184 -22.1619,-20.5 -49.5,-20.5c-27.3381,0 -49.5,9.17816 -49.5,20.5z"/><path d="M164.5,230c0,12.42641 38.0558,22.5 85,22.5c46.9442,0 85,-10.07359 85,-22.5c0,-12.42641 -38.0558,-22.5 -85,-22.5c-46.9442,0 -85,10.07359 -85,22.5z"/><path d="M298.5,174.5c0,5.79899 -8.05887,10.5 -18,10.5c-9.94113,0 -18,-4.70101 -18,-10.5c0,-5.79899 8.05887,-10.5 18,-10.5c9.94113,0 18,4.70101 18,10.5z"/></g></g></svg>