<svg version="1.1" xmlns="http://www.w3.org/2000/svg" xmlns:xlink="http://www.w3.org/1999/xlink" width="575.07508" height="513.52704" viewBox="0,0,575.07508,513.52704"><defs><linearGradient x1="240" y1="-62.26351" x2="240" y2="422.26351" gradientUnits="userSpaceOnUse" id="color-1"><stop offset="0" stop-color="#8e8e8e"/><stop offset="1" stop-color="#5f5f5f"/></linearGradient><linearGradient x1="14" y1="-38.2635" x2="14" y2="293.26352" gradientUnits="userSpaceOnUse" id="color-2"><stop offset="0" stop-color="#8e8e8e"/><stop offset="1" stop-color="#6b6b6b"/></linearGradient><linearGradient x1="453.5" y1="-33.2635" x2="453.5" y2="451.26352" gradientUnits="userSpaceOnUse" id="color-3"><stop offset="0" stop-color="#8e8e8e"/><stop offset="1" stop-color="#5f5f5f"/></linearGradient></defs><g transform="translate(47.53754,62.26352)"><g data-paper-data="{&quot;isPaintingLayer&quot;:true}" fill-rule="nonzero" stroke-linejoin="miter" stroke-miterlimit="10" stroke-dasharray="" stroke-dashoffset="0" style="mix-blend-mode: normal"><path d="M-47.53754,422.26351v-484.52702h575.07508v484.52703z" fill="url(#color-1)" stroke="none" stroke-width="0" stroke-linecap="butt"/><path d="M60.5,295.63473v-314.27338h9v314.27338z" fill="#000000" stroke="none" stroke-width="0" stroke-linecap="butt"/><path d="M-31.53754,293.26352v-331.52702h91.07508v331.52703z" fill="url(#color-2)" stroke="#ff0000" stroke-width="0" stroke-linecap="butt"/><path d="M418.46246,451.26352v-484.52702h70.07508v484.52703z" fill="url(#color-3)" stroke="#ff0000" stroke-width="0" stroke-linecap="butt"/><path d="M353.27081,-19.16959l0.42538,28.92555l0.42538,4.67913l0.55552,2.74882l0.9748,3.68524l4.54157,7.56927l4.54156,4.92002l5.29849,3.78464l5.29849,3.78464l4.92003,3.78464l5.67696,4.1631l7.56005,6.37229l7.12288,6.52931l7.12289,8.31004l2.3743,4.74859l3.56144,15.43293l-1.2508,284.418" fill="none" stroke="#000000" stroke-width="7.5" stroke-linecap="round"/></g></g></svg>