<svg version="1.1" xmlns="http://www.w3.org/2000/svg" xmlns:xlink="http://www.w3.org/1999/xlink" width="575.07508" height="484.52703" viewBox="0,0,575.07508,484.52703"><defs><linearGradient x1="240" y1="-62.2635" x2="240" y2="422.26352" gradientUnits="userSpaceOnUse" id="color-1"><stop offset="0" stop-color="#8e8e8e"/><stop offset="1" stop-color="#5f5f5f"/></linearGradient><linearGradient x1="14" y1="-38.26349" x2="14" y2="293.26353" gradientUnits="userSpaceOnUse" id="color-2"><stop offset="0" stop-color="#8e8e8e"/><stop offset="1" stop-color="#6b6b6b"/></linearGradient></defs><g transform="translate(47.53754,62.2635)"><g data-paper-data="{&quot;isPaintingLayer&quot;:true}" fill-rule="nonzero" stroke-linejoin="miter" stroke-miterlimit="10" stroke-dasharray="" stroke-dashoffset="0" style="mix-blend-mode: normal"><path d="M-47.53754,422.26352v-484.52702h575.07508v484.52703z" fill="url(#color-1)" stroke="none" stroke-width="0" stroke-linecap="butt"/><path d="M60.5,295.63473v-314.27338h9v314.27338z" fill="#000000" stroke="none" stroke-width="0" stroke-linecap="butt"/><path d="M-31.53754,293.26353v-331.52702h91.07508v331.52703z" fill="url(#color-2)" stroke="#ff0000" stroke-width="0" stroke-linecap="butt"/><path d="M414.70564,364.25857l-0.57748,-28.92291l-0.44998,-4.67683l-0.56997,-2.74586l-0.99416,-3.68006l-4.58131,-7.54528l-4.56737,-4.89607l-5.31832,-3.75673l-5.31832,-3.75673l-4.93986,-3.75872l-5.69877,-4.13319l-7.59345,-6.33245l-7.15712,-6.49176l-7.16649,-8.27247l-2.39924,-4.73604l-3.64254,-15.41399l-0.24479,-284.42064" fill="none" stroke="#000000" stroke-width="7.5" stroke-linecap="round"/></g></g></svg>