<svg version="1.1" xmlns="http://www.w3.org/2000/svg" xmlns:xlink="http://www.w3.org/1999/xlink" width="107.02451" height="262.33296" viewBox="0,0,107.02451,262.33296"><g transform="translate(-186.48774,-48.83352)"><g data-paper-data="{&quot;isPaintingLayer&quot;:true}" fill-rule="evenodd" stroke="none" stroke-width="1" stroke-linecap="butt" stroke-linejoin="miter" stroke-miterlimit="10" stroke-dasharray="" stroke-dashoffset="0" style="mix-blend-mode: normal"><path d="M192.68388,119.11975c0,1.31414 0,2.62886 0,3.94302c-0.35921,5.29209 0.01629,10.36166 1.12658,15.20874c0.41351,0.68045 0.60125,1.43132 0.56329,2.25315c-1.29939,0.64946 -2.61371,1.30682 -3.94301,1.9715c-0.69753,0.38867 -0.69753,0.67031 0,0.84493c-0.84335,0.45401 -1.78218,0.82916 -2.81643,1.12657c-0.45518,-0.1735 -0.83069,-0.45514 -1.12657,-0.84493c1.68102,-1.83857 3.46471,-3.62194 5.35122,-5.35123c0.09542,-6.48174 0.37707,-12.86603 0.84493,-19.15175z" fill="#d3d3d3" opacity="0.997"/><path d="M192.68388,123.06277c0.56329,0.37571 1.12658,0.75086 1.68986,1.12657c0,0.18757 0,0.37571 0,0.56328c-0.32096,3.48225 -0.32096,6.86196 0,10.13917c-0.93004,1.07137 -1.11785,2.19794 -0.56329,3.37972c-1.11029,-4.84708 -1.48579,-9.91666 -1.12658,-15.20874z" fill="#9a9b9a" opacity="0.837"/><path d="M194.37376,140.52466c1.12657,-0.75085 2.25314,-1.5023 3.37972,-2.25315c0.46134,1.27979 0.83649,2.59451 1.12658,3.94302c-0.60159,0.5261 -1.35245,0.71425 -2.25315,0.56329c-0.138,12.11686 0.04957,24.22753 0.56329,36.332c-0.65961,3.37859 0.65453,5.16196 3.94301,5.35123c1.51525,0.5892 3.01753,1.15248 4.5063,1.68985c0.01689,0.5616 -0.26475,0.9373 -0.84493,1.12657c-2.95162,-0.82014 -5.76806,-1.94672 -8.4493,-3.37972c-0.28164,-13.70533 -0.37571,-27.41179 -0.28164,-41.11994c-0.56329,0 -1.12657,0 -1.68986,0c-1.25917,-0.16617 -2.38575,0.02196 -3.37973,0.56329c-0.18774,0 -0.37554,0 -0.56329,0c-0.69753,-0.17462 -0.69753,-0.45626 0,-0.84493c1.32929,-0.66468 2.64362,-1.32204 3.94301,-1.9715z" fill="#0e0f0f"/><path d="M190.99403,143.3411c0.99398,-0.54132 2.12055,-0.72945 3.37973,-0.56329c-0.09384,14.459 0,28.91633 0.28164,43.37308c4.39702,1.74732 8.80924,3.43717 13.23724,5.06959c0,0.18757 0,0.37571 0,0.56329c-4.54798,-1.39076 -9.05427,-2.89304 -13.51888,-4.5063c0.47603,24.89728 0.47603,49.68191 0,74.35388c-0.52639,0.60159 -0.71414,1.35244 -0.56329,2.25314c-0.72535,-7.03039 -1.19474,-14.16554 -1.40822,-21.4049c0.09221,-33.23901 -0.37718,-66.28479 -1.40821,-99.13849z" fill="#a7a9a8"/><path d="M194.37376,134.89179c0.56583,-0.66637 1.03532,-1.41723 1.40821,-2.25315c0.32277,1.206 0.79198,2.33257 1.40822,3.37972c-0.03773,0.82183 0.14984,1.57269 0.56329,2.25314c-1.12657,0.75085 -2.25314,1.5023 -3.37972,2.25315c0.03796,-0.82183 -0.14977,-1.5727 -0.56329,-2.25315c-0.55456,-1.18178 -0.36675,-2.30835 0.56329,-3.37972z" fill="#4e4e4e"/><path d="M193.81048,263.88449c-0.15085,-0.9007 0.03689,-1.65155 0.56329,-2.25314c1.42625,0.61736 2.74039,1.36822 3.94301,2.25314c-0.939,0 -1.87743,0 -2.81643,0c0.81283,9.2824 1.56424,18.57664 2.25314,27.88271c-0.16786,1.60408 -0.35543,3.20008 -0.56329,4.78793c-2.15919,-10.69907 -3.28576,-21.5891 -3.37972,-32.67065z" fill="#353536"/><path d="M192.68388,123.06277c0,-1.31414 0,-2.62886 0,-3.94302c0.36382,-11.5119 1.30266,-22.96521 2.81644,-34.3605c0.45569,-1.00941 0.73734,-2.13598 0.84493,-3.37972c0.57399,1.12769 1.0432,2.25427 1.40821,3.37972c-0.90352,13.16683 -2.03008,26.31001 -3.37972,39.43009c-0.56329,-0.37571 -1.12658,-0.75086 -1.68986,-1.12657z" fill="#373737"/><path d="M194.37376,142.77781c0.56329,0 1.12657,0 1.68986,0c-0.09407,13.70815 0,27.41461 0.28164,41.11994c2.68124,1.433 5.49768,2.55957 8.4493,3.37972c0.58018,-0.18927 0.86182,-0.56498 0.84493,-1.12657c-0.58751,-11.46345 -2.08923,-22.72918 -4.5063,-33.79722c-0.27545,-3.55096 -1.0263,-6.93068 -2.25314,-10.13916c-0.29009,-1.34851 -0.66524,-2.66323 -1.12658,-3.94302c-0.41345,-0.68045 -0.60103,-1.43132 -0.56329,-2.25314c0.34756,-0.06252 0.6292,-0.2501 0.84493,-0.56329c5.15182,14.87021 8.15583,30.26654 9.0126,46.18953c0.10309,-1.61382 0.38473,-3.11553 0.84493,-4.5063c0,4.69387 0,9.3883 0,14.08217c-4.428,-1.63241 -8.84022,-3.32226 -13.23724,-5.06959c-0.28164,-14.45676 -0.37548,-28.91408 -0.28164,-43.37308z" fill="#c1c2c2"/><path d="M194.37376,124.75262c0,-0.18757 0,-0.37571 0,-0.56328c0.91816,-0.85957 1.38737,-1.98615 1.40821,-3.37972c1.97939,-18.0342 4.04496,-36.05938 6.19616,-54.07555c0.30418,-1.61156 0.86747,-3.11385 1.68986,-4.50629c0.3988,-0.49625 0.86859,-0.87141 1.40822,-1.12658c-1.18797,3.24903 -2.03291,6.62876 -2.53479,10.13917c-1.53215,14.63194 -2.94035,29.2774 -4.22465,43.93638c0.02141,2.52634 0.49062,4.96762 1.40821,7.32273c0.37796,0.42358 0.84718,0.61173 1.40822,0.56329c-1.18347,1.55749 -2.1219,3.24734 -2.81643,5.06958c-0.96548,-1.52819 -2.27962,-2.65476 -3.94301,-3.37972z" fill="#3f3f3f"/><path d="M195.50033,84.75926c0.19828,-4.62966 0.76156,-9.13596 1.68985,-13.51888c-0.13349,2.3337 0.24221,3.83598 1.12657,4.5063c-0.56329,0 -1.12657,0 -1.68986,0c0.6782,2.66209 1.05391,5.6661 1.12657,9.01259c-0.36502,-1.12545 -0.83422,-2.25202 -1.40821,-3.37972c-0.10759,1.24373 -0.38924,2.37031 -0.84493,3.37972z" fill="#4e4e4e" opacity="0.951"/><path d="M198.88005,142.21452c1.22684,3.20849 1.97769,6.5882 2.25314,10.13916c0,10.70245 0,21.40491 0,32.10735c-3.28847,-0.18927 -4.60262,-1.97264 -3.94301,-5.35123c-0.51371,-12.10447 -0.70129,-24.21514 -0.56329,-36.332c0.90069,0.15096 1.65156,-0.03718 2.25315,-0.56329z" fill="#4a4a4a"/><path d="M194.37376,124.18934c1.34964,-13.12008 2.4762,-26.26325 3.37972,-39.43008c1.62226,-6.01872 2.65476,-12.21489 3.09808,-18.58847c0.64497,-3.68558 2.42889,-6.12631 5.35123,-7.32273c0,0.18757 0,0.37571 0,0.56328c-0.37571,0.56328 -0.75086,1.12658 -1.12657,1.68986c-0.53962,0.25517 -1.00941,0.63032 -1.40822,1.12658c-0.82239,1.39244 -1.38568,2.89473 -1.68986,4.50629c-2.15119,18.01617 -4.21676,36.04136 -6.19616,54.07555c-0.02084,1.39357 -0.49005,2.52014 -1.40821,3.37972z" fill="#171717"/><path d="M198.88005,263.88449c0.37571,0.18757 0.75085,0.37572 1.12657,0.56329c0.94858,6.69973 1.60593,13.45917 1.9715,20.27832c0.64384,3.72671 1.77041,7.294 3.37973,10.70246c0.28052,1.67949 0.37459,3.36936 0.28164,5.06959c-2.4103,-1.00164 -4.19424,-2.6915 -5.35123,-5.06959c-1.91912,-10.48446 -2.38833,-20.99877 -1.40821,-31.54407z" fill="#2a2a2a"/><path d="M206.76607,59.97463c4.58572,-2.14275 9.46772,-3.08176 14.64546,-2.81644c0.939,0 1.87743,0 2.81643,0c0.25517,-0.53963 0.63032,-1.00941 1.12657,-1.40821c9.57588,-0.37571 19.15175,-0.37571 28.72763,0c0.81227,0.21236 1.37555,0.68157 1.68986,1.40821c1.68254,9.70205 2.99669,19.46551 3.94301,29.29092c-2.36862,-3.48112 -5.56076,-4.32604 -9.57588,-2.53478c-2.75054,3.23214 -2.93867,6.61187 -0.56329,10.13917c2.74883,1.77548 5.56528,1.86955 8.4493,0.28164c0.63314,7.22246 1.00884,14.54519 1.12657,21.96819c-10.88552,-0.53738 -21.7761,-0.63144 -32.67064,-0.28164c-6.2615,0.52443 -12.45765,1.46342 -18.58846,2.81643c-2.35848,1.08432 -4.61163,2.30497 -6.75944,3.66137c-0.27432,-0.54807 -0.55597,-1.11136 -0.84493,-1.68985c0.20617,-16.9493 1.33273,-33.84791 3.37973,-50.69583c1.03645,-3.39944 2.06952,-6.77916 3.09808,-10.13917z" fill="#404040"/><path d="M199.44334,129.25892c0.7779,-4.26352 3.21862,-7.17402 7.32273,-8.73094c9.78655,-2.4672 19.73814,-3.68784 29.8542,-3.66137c-4.33393,8.09837 -8.84023,16.17197 -13.51889,24.22134c-6.40119,0.19489 -12.59734,0.75818 -18.58846,1.68986c-1.34175,-4.5981 -3.03161,-9.10442 -5.06958,-13.51889z" fill="#4b4b4b"/><path d="M200.00663,264.44778c0.37571,-0.75085 0.75086,-1.50229 1.12657,-2.25314c-0.13463,1.10799 0.05295,2.14105 0.56329,3.09808c25.68757,8.71969 51.31713,8.62618 76.88867,-0.28164c0.27882,-1.11137 0.3729,-2.23794 0.28164,-3.37972c0.50921,0.39937 0.69678,0.96265 0.56329,1.68985c-0.09689,0.55878 0.09125,0.93394 0.56329,1.12658c-0.88943,6.70537 -1.54678,13.46481 -1.9715,20.27832c-0.96321,4.04609 -2.18386,7.98921 -3.66136,11.82903c-6.57186,0 -13.14318,0 -19.71504,0c-9.4604,0.36 -18.84814,0.73553 -28.16435,1.12657c-0.18757,0 -0.37571,0 -0.56328,0c-0.36726,-0.69008 -1.02463,-1.06556 -1.9715,-1.12657c-3.27551,-0.32829 -6.56117,-0.51603 -9.85752,-0.56329c-2.84516,0.00378 -5.47346,0.37932 -7.88601,1.12657c0,1.31431 0,2.62869 0,3.94301c-0.37571,0 -0.56329,-0.18774 -0.56329,-0.56328c0.09295,-1.70023 -0.00112,-3.39009 -0.28164,-5.06959c-1.60931,-3.40845 -2.73589,-6.97575 -3.37973,-10.70246c-0.36557,-6.81916 -1.02293,-13.57859 -1.9715,-20.27832z" fill="#404040"/><path d="M198.31676,263.88449c0.18757,0 0.37572,0 0.56329,0c-0.98012,10.54529 -0.5109,21.05961 1.40821,31.54407c1.15699,2.37808 2.94093,4.06795 5.35123,5.06959c0,0.37554 0.18757,0.56328 0.56329,0.56328c6.47104,0.56042 13.04292,0.74822 19.71504,0.56329c0,-1.31431 0,-2.6287 0,-3.94302c0.18757,0 0.37571,0 0.56328,0c0.40332,1.15829 0.77902,2.37877 1.12657,3.66137c8.26173,0.37554 16.52289,0.37554 24.78462,0c0.20222,-1.48172 0.76551,-2.70215 1.68986,-3.66137c-0.16617,1.25918 0.02196,2.38575 0.56329,3.37973c5.25716,0 10.51488,0 15.77204,0c1.25895,0.166 2.38552,-0.02175 3.37973,-0.56328c0.18757,0 0.37572,0 0.56329,0c1.32373,-0.82228 2.63843,-1.76112 3.943,-2.81644c2.53028,-7.74988 3.65685,-15.72979 3.37972,-23.93969c-0.01183,-3.32959 -0.19941,-6.6158 -0.56329,-9.85753c0.87309,-0.53005 1.81154,-0.9052 2.81644,-1.12657c-0.03267,7.77054 -0.03267,16.03227 0,24.78462c-0.09407,0.75085 -0.18758,1.5023 -0.28164,2.25315c-0.18757,-1.31414 -0.37572,-2.62886 -0.56329,-3.94302c-0.51936,3.58589 -0.89506,7.15347 -1.12658,10.70245c0.4388,-1.46297 0.72044,-1.46297 0.84493,0c0,0.18775 0,0.37554 0,0.56329c-0.4326,0.4295 -0.71425,0.99279 -0.84493,1.68986c-0.18757,-0.37554 -0.37572,-0.75104 -0.56329,-1.12658c-1.5158,3.39611 -4.05059,5.55536 -7.60436,6.4778c-18.01617,0.86358 -36.04135,1.05138 -54.07555,0.56329c-4.90622,-0.11379 -9.78767,-0.48927 -14.64546,-1.12658c-4.00384,-1.22329 -6.35106,-3.94582 -7.04108,-8.16766c-0.15659,0.51586 -0.43824,0.8914 -0.84493,1.12657c0.20786,-1.58785 0.39543,-3.18386 0.56329,-4.78793c-0.6889,-9.30607 -1.44031,-18.60031 -2.25314,-27.88271c0.939,0 1.87743,0 2.81643,0z" fill="#181616"/><path d="M201.13319,184.46105c0,-10.70245 0,-21.40491 0,-32.10735c2.41707,11.06803 3.91878,22.33376 4.5063,33.79722c-1.48877,-0.53738 -2.99105,-1.10066 -4.5063,-1.68985z" fill="#646564"/><path d="M205.07621,61.1012c0.37571,-0.56328 0.75086,-1.12658 1.12657,-1.68986c0,0.37571 0.18757,0.56329 0.56329,0.56329c-1.02857,3.36001 -2.06163,6.73973 -3.09808,10.13917c-2.04698,16.84792 -3.17355,33.74652 -3.37973,50.69583c0.28896,0.5785 0.57061,1.14178 0.84493,1.68985c0,0.18757 0,0.37572 0,0.56329c-0.56103,0.04845 -1.03025,-0.1397 -1.40822,-0.56329c-0.91759,-2.3551 -1.38681,-4.79639 -1.40821,-7.32273c1.2843,-14.65899 2.69251,-29.30444 4.22465,-43.93638c0.50189,-3.5104 1.34682,-6.89012 2.53479,-10.13917z" fill="#535353"/><path d="M201.13319,262.19464c0.52948,-7.83926 1.84364,-15.53714 3.94301,-23.09476c1.08264,-3.34367 2.11571,-6.7234 3.09808,-10.13917c0.23489,-0.70748 0.70411,-1.0832 1.40822,-1.12657c20.08625,1.47355 40.17644,1.47355 60.2717,0c0.91479,-0.07886 1.57157,0.29685 1.9715,1.12657c3.42028,10.67372 5.76693,21.56433 7.04109,32.67065c0.09126,1.14179 -0.00282,2.26835 -0.28164,3.37972c-25.57153,8.90782 -51.20109,9.00133 -76.88866,0.28164c-0.51033,-0.95702 -0.69791,-1.99008 -0.56329,-3.09808z" fill="#131313"/><path d="M205.07621,244.73274c5.97985,1.11362 12.17601,1.48933 18.58847,1.12657c-3.7622,7.1391 -7.51707,14.27369 -11.26575,21.40491c-3.5994,-0.82409 -7.16671,-1.76308 -10.70245,-2.81643c0.53455,-6.74423 1.66114,-13.31554 3.37973,-19.71504z" fill="#4b4b4b"/><path d="M194.37376,134.89179c-0.32096,-3.27721 -0.32096,-6.65693 0,-10.13917c1.66338,0.72495 2.97753,1.85152 3.94301,3.37972c-0.09689,0.55878 0.09125,0.93393 0.56329,1.12657c3.59828,10.07382 6.22657,20.40057 7.88601,30.98079c0.939,0 1.87743,0 2.81643,0c-0.60159,0.5261 -1.35245,0.71425 -2.25314,0.56329c0.60385,5.18505 1.16712,10.34871 1.68985,15.49039c21.12439,0.09407 42.15414,0.37571 63.08814,0.84493c-9.0126,0 -18.02518,0 -27.03777,0c-3.00401,0 -6.00859,0 -9.0126,0c-9.3883,0 -18.77604,0 -28.16435,0c-0.46021,1.39076 -0.74185,2.89248 -0.84493,4.5063c-0.85676,-15.92299 -3.86076,-31.31932 -9.0126,-46.18953c-0.21573,0.31319 -0.49738,0.50076 -0.84493,0.56329c-0.61623,-1.04715 -1.08545,-2.17373 -1.40822,-3.37972c-0.37289,0.83591 -0.84239,1.58679 -1.40821,2.25315z" fill="#d8d9db"/><path d="M205.07621,244.73274c1.30794,-5.24927 2.62266,-10.50699 3.94301,-15.77204c8.05951,0.65566 16.1331,1.03138 24.22134,1.12658c-3.29186,5.07973 -6.29586,10.33743 -9.0126,15.77203c-0.18757,0 -0.37571,0 -0.56328,0c-6.41246,0.36275 -12.60862,-0.01296 -18.58847,-1.12657z" fill="#666666"/><path d="M194.37376,261.63135c0.47603,-24.67196 0.47603,-49.4566 0,-74.35388c4.46461,1.61325 8.9709,3.11553 13.51888,4.5063c0,0.18757 0,0.37572 0,0.56329c-0.46809,7.601 -0.74973,15.29943 -0.84493,23.09476c0.04056,2.70829 -0.42867,5.24307 -1.40822,7.60437c0.34698,0.7886 0.53456,1.63353 0.56329,2.53479c-1.39357,4.22014 -2.2385,8.53886 -2.53479,12.95559c0.18757,-0.37571 0.37572,-0.75086 0.56329,-1.12657c0.13068,0.69679 0.41232,1.26008 0.84492,1.68987c-2.09937,7.55762 -3.41352,15.2555 -3.94301,23.09476c-0.37571,0.75085 -0.75086,1.50229 -1.12657,2.25314c-0.37571,-0.18757 -0.75085,-0.37572 -1.12657,-0.56329c-0.18757,0 -0.37572,0 -0.56329,0c-1.20262,-0.88492 -2.51676,-1.63578 -3.94301,-2.25314z" fill="#c5c6c6"/><path d="M201.13319,237.9733c0.74015,-3.56392 0.74015,-6.94363 0,-10.13916c0.99702,-0.71199 1.93603,-1.55693 2.81644,-2.53478c0.37571,-0.37571 0.75085,-0.37571 1.12657,0c-1.04489,4.35196 -2.35905,8.5766 -3.94301,12.67395z" fill="#696969"/><path d="M201.13319,192.91035c1.67691,0.32164 3.27269,0.88492 4.78794,1.68985c0.50357,9.06498 0.12787,18.07757 -1.12657,27.03778c-0.37796,0.42359 -0.84718,0.61173 -1.40821,0.56329c-0.75875,0.37796 -1.4161,0.37796 -1.97151,0c-0.28164,-9.76176 -0.37571,-19.52521 -0.28164,-29.29092z" fill="#676767"/><path d="M197.19018,231.21386c1.18684,-1.25444 2.501,-2.38102 3.94301,-3.37973c0.74015,3.19553 0.74015,6.57524 0,10.13916c-1.01279,5.34334 -2.13936,10.6005 -3.37972,15.77204c0.18532,-7.61001 -0.00225,-15.12087 -0.56329,-22.53148z" fill="#4e4f4e"/><path d="M196.62689,227.27085c-0.18645,-12.11461 0.00169,-24.13121 0.56329,-36.05036c1.41836,0.43035 2.7325,0.99365 3.94301,1.68986c-0.09407,9.76571 0,19.52916 0.28164,29.29092c0.5554,0.37796 1.21276,0.37796 1.97151,0c-2.23175,1.6831 -4.4849,3.37295 -6.75945,5.06958z" fill="#434343"/><path d="M197.19018,231.21386c0.56103,7.4106 0.7486,14.92147 0.56329,22.53148c-0.09689,2.2723 -0.37853,4.52545 -0.84493,6.75944c-0.46696,-9.86033 -0.3729,-19.62379 0.28164,-29.29092z" fill="#1b1c1b"/><path d="M196.62689,227.27085c-0.74805,-12.11292 -0.74805,-24.3171 0,-36.61364c0.34192,0.06985 0.52949,0.25742 0.56329,0.56329c-0.5616,11.91915 -0.74973,23.93575 -0.56329,36.05036z" fill="#595959"/><path d="M207.89263,192.34706c0.56329,0 1.12657,0 1.68986,0c0.70806,10.87707 0.42641,21.7671 -0.84493,32.67064c-1.05898,1.27528 -0.77733,2.21372 0.84493,2.81643c-0.70411,0.04337 -1.17333,0.41909 -1.40822,1.12657c-0.98237,3.41577 -2.01544,6.7955 -3.09808,10.13918c-0.43261,-0.42979 -0.71424,-0.99308 -0.84492,-1.68987c-0.18757,0.37571 -0.37572,0.75086 -0.56329,1.12657c0.29629,-4.41673 1.14122,-8.73545 2.53479,-12.95559c-0.02873,-0.90127 -0.21631,-1.7462 -0.56329,-2.53479c0.97955,-2.3613 1.44878,-4.89608 1.40822,-7.60437c0.0952,-7.79533 0.37684,-15.49376 0.84493,-23.09476z" fill="#dededf"/><path d="M209.5825,160.2397c20.45802,-2.2171 40.92448,-2.2171 61.39828,0c0.39937,0.50921 0.96265,0.69678 1.68985,0.56329c-0.18927,4.14466 -0.56497,8.27525 -1.12657,12.39231c0.16729,1.41498 0.54244,2.72912 1.12657,3.94301c-0.18757,0 -0.37571,0 -0.56328,0c-20.934,-0.46922 -41.96375,-0.75086 -63.08814,-0.84493c-0.52273,-5.14168 -1.08601,-10.30533 -1.68985,-15.49039c0.90069,0.15096 1.65155,-0.03718 2.25314,-0.56329z" fill="#f4f4f4"/><path d="M209.5825,192.34706c20.84162,0 41.68323,0 62.52485,0c0,0.18757 0,0.37571 0,0.56329c-0.75085,0 -1.50229,0 -2.25315,0c0.01409,11.54457 0.57738,22.90436 1.68986,34.07885c-0.69679,0.13068 -1.26007,0.41232 -1.68986,0.84493c-20.09527,1.47355 -40.18544,1.47355 -60.27169,0c-1.62226,-0.60271 -1.90391,-1.54116 -0.84493,-2.81643c1.27134,-10.90354 1.55299,-21.79356 0.84493,-32.67064z" fill="#f4f4f4"/><path d="M207.89263,191.78377c0,-0.18757 0,-0.37571 0,-0.56329c0,-4.69387 0,-9.3883 0,-14.08217c9.3883,0 18.77604,0 28.16435,0c0,0.18757 0,0.37571 0,0.56329c0,4.5063 0,9.0126 0,13.51889c-9.28973,0.5616 -18.67747,0.74918 -28.16435,0.56329z" fill="#083041"/><path d="M209.5825,83.0694c0,0.56329 0,1.12657 0,1.68986c2.25314,0 4.5063,0 6.75944,0c0,1.31414 0,2.62885 0,3.94301c-2.06557,0 -4.13059,0 -6.19616,0c0,0.56329 0,1.12658 0,1.68986c-0.5261,-0.60159 -0.71425,-1.35245 -0.56328,-2.25314c2.06557,0 4.13059,0 6.19616,0c0,-0.939 0,-1.87743 0,-2.81643c-2.25314,0 -4.5063,0 -6.75944,0c-0.15096,-0.9007 0.03718,-1.65155 0.56329,-2.25314z" fill="#9b9b9b"/><path d="M209.01921,179.39147c8.42903,-1.11756 17.0659,-1.49327 25.91119,-1.12658c0,2.25314 0,4.50631 0,6.75945c-8.0736,0 -16.14775,0 -24.22134,0c0,0.939 0,1.87743 0,2.81643c8.0736,0 16.14775,0 24.22134,0c0,0.18757 0,0.37571 0,0.56329c-8.26173,0 -16.5229,0 -24.78463,0c-0.01014,-3.05471 -0.38585,-6.0587 -1.12657,-9.01259z" fill="#31bcdc"/><path d="M209.01921,179.39147c-0.18757,0 -0.37571,0 -0.56329,0c0,-0.56329 0,-1.12658 0,-1.68986c9.0126,0 18.02518,0 27.03778,0c0,3.5673 0,7.13515 0,10.70245c-0.18757,0 -0.37571,0 -0.56329,0c0,-0.18757 0,-0.37571 0,-0.56329c0,-0.939 0,-1.87743 0,-2.81643c0,-2.25314 0,-4.50631 0,-6.75945c-8.84529,-0.3667 -17.48218,0.00902 -25.91119,1.12658z" fill="#4ba6b9"/><path d="M208.45593,179.39147c0.18757,0 0.37571,0 0.56329,0c0.74072,2.95388 1.11643,5.95788 1.12657,9.01259c-0.90352,0.44331 -1.27922,1.19417 -1.12657,2.25315c8.63688,0 17.27432,0 25.91119,0c0,-0.75085 0,-1.5023 0,-2.25315c0.18757,0 0.37571,0 0.56329,0c0,0.939 0,1.87744 0,2.81644c-9.0126,0 -18.02518,0 -27.03778,0c0,-3.94301 0,-7.88601 0,-11.82902z" fill="#2188bf"/><path d="M207.89263,53.21519c1.13502,-0.80212 2.44917,-1.17726 3.94301,-1.12657c-1.13502,0.80212 -2.44917,1.17726 -3.94301,1.12657z" fill="#818181" opacity="0.322"/><path d="M212.39893,267.26422c3.74868,-7.13121 7.50355,-14.26581 11.26575,-21.40491c0.18757,0 0.37571,0 0.56328,0c2.25314,0 4.5063,0 6.75944,0c-3.31776,6.06885 -6.79154,12.07743 -10.42081,18.02518c-0.96153,1.35697 -1.43075,2.85868 -1.40822,4.5063c-2.29483,-0.15884 -4.54797,-0.534 -6.75944,-1.12657z" fill="#5b5b5b"/><path d="M206.20278,301.06143c0,-1.31431 0,-2.62869 0,-3.94301c6.48456,-0.18481 12.86885,0.00293 19.15175,0.56329c0,1.12657 0,2.25315 0,3.37973c-6.38373,0 -12.76803,0 -19.15175,0z" fill="#ca565e"/><path d="M206.20278,297.11842c2.41256,-0.74725 5.04085,-1.1228 7.88601,-1.12657c3.29635,0.04726 6.58201,0.235 9.85752,0.56329c0.94689,0.06101 1.60425,0.43649 1.9715,1.12657c-0.18757,0 -0.37571,0 -0.56329,0c-6.2829,-0.56036 -12.66721,-0.7481 -19.15175,-0.56329z" fill="#563739"/><path d="M206.20278,59.41134c0,-0.18757 0,-0.37571 0,-0.56328c1.14179,-0.94632 2.45649,-1.60368 3.94301,-1.9715c3.23777,-0.1735 6.42993,-0.64272 9.57589,-1.40822c0.69059,0.01127 1.25387,0.19884 1.68986,0.56328c0,0.37571 0,0.75086 0,1.12657c-5.17773,-0.26531 -10.05974,0.6737 -14.64546,2.81644c-0.37571,0 -0.56329,-0.18758 -0.56329,-0.56329z" fill="#e4e4e4"/><path d="M212.96222,289.7957c0.56329,0 1.12657,0 1.68986,0c0,-1.31414 0,-2.62886 0,-3.94302c1.12657,0 2.25315,0 3.37973,0c-0.7993,0.53568 -1.73775,0.72326 -2.81643,0.56329c0,1.31414 0,2.62886 0,3.94302c-0.90069,0.15085 -1.65156,-0.03689 -2.25315,-0.56329z" fill="#999999"/><path d="M220.84823,157.98655c-0.37571,0 -0.75086,0 -1.12657,0c-4.82061,1.10066 -6.13475,-0.49512 -3.94301,-4.78793c2.42382,-3.2665 4.48883,-6.74029 6.19615,-10.42081c2.44072,-0.75085 4.88202,-0.75085 7.32273,0c-3.08737,4.95355 -5.90382,10.02312 -8.4493,15.20874z" fill="#797979"/><path d="M210.14578,90.39212c0,-0.56329 0,-1.12658 0,-1.68986c2.06557,0 4.13059,0 6.19616,0c0,-1.31414 0,-2.62885 0,-3.94301c-2.25314,0 -4.5063,0 -6.75944,0c0,-0.56329 0,-1.12657 0,-1.68986c3.00401,0 6.00858,0 9.01259,0c0,4.13059 0,8.26172 0,12.39231c-3.00401,0 -6.00858,0 -9.01259,0c0,-0.75086 0,-1.50229 0,-2.25314c2.25314,0 4.5063,0 6.75944,0c0,-0.939 0,-1.87743 0,-2.81643c-2.06557,0 -4.13059,0 -6.19616,0z" fill="#f1f1f1"/><path d="M206.76607,300.49814c0,-0.93882 0,-1.87761 0,-2.81644c5.98661,0.52362 11.9952,0.71143 18.02518,0.56329c0,0.75103 0,1.50212 0,2.25315c-6.00858,0 -12.0166,0 -18.02518,0z" fill="#e54954"/><path d="M219.15838,268.39079c-0.02253,-1.64761 0.44668,-3.14933 1.40822,-4.5063c3.62926,-5.94775 7.10305,-11.95633 10.42081,-18.02518c0.18757,0 0.37571,0 0.56329,0c2.28412,-0.1825 4.53728,0.00507 6.75944,0.56329c-4.47025,7.62747 -8.78897,15.32592 -12.95559,23.09477c-2.18105,0.14533 -4.24663,-0.23039 -6.19616,-1.12658z" fill="#4c4c4c"/><path d="M220.84823,85.88583c0.15884,0.71988 0.53455,1.28316 1.12657,1.68985c-0.09013,0.95702 0.00338,1.89602 0.28164,2.81644c0.79818,0.32558 1.2674,0.88887 1.40822,1.68986c-0.86859,-0.4512 -1.80703,-0.63876 -2.81644,-0.56328c0.06479,1.37835 0.62806,2.50493 1.68985,3.37972c-0.34756,0.06253 -0.6292,0.2501 -0.84493,0.56329c-0.37965,6.94477 -0.66129,13.89178 -0.84492,20.84162c-0.56329,0 -1.12658,0 -1.68986,0c0.04393,-6.92393 0.04393,-13.77687 0,-20.55998c0.37571,-1.50228 0.75086,-3.00401 1.12658,-4.50629c-0.37965,-0.98632 -0.56723,-1.92476 -0.56329,-2.81644c0.33741,-0.91366 0.71312,-1.75858 1.12657,-2.53478z" fill="#535353"/><path d="M212.96222,289.7957c0,-3.5673 0,-7.13516 0,-10.70246c2.07402,-0.09294 4.13903,0.00056 6.19615,0.28164c1.6048,1.44145 2.07458,3.22538 1.40822,5.35122c-0.62524,0.86576 -1.47017,1.24093 -2.53478,1.12658c-1.12657,0 -2.25315,0 -3.37973,0c0,1.31414 0,2.62886 0,3.94302c-0.56329,0 -1.12657,0 -1.68986,0z" fill="#ececec"/><path d="M215.21537,284.16283c0,-0.939 0,-1.87743 0,-2.81643c1.12657,0 2.25314,0 3.37972,0c0.24671,2.48296 -0.87985,3.42196 -3.37972,2.81643z" fill="#414141"/><path d="M210.14578,188.40404c8.26173,0 16.5229,0 24.78463,0c0,0.75085 0,1.5023 0,2.25315c-8.63688,0 -17.27433,0 -25.91119,0c-0.15264,-1.05898 0.22306,-1.80984 1.12657,-2.25315z" fill="#0588d4"/><path d="M234.93042,185.02433c0,0.939 0,1.87743 0,2.81643c-8.0736,0 -16.14775,0 -24.22134,0c0,-0.939 0,-1.87743 0,-2.81643c8.0736,0 16.14775,0 24.22134,0z" fill="#6adaf4"/><path d="M216.34194,51.52533c2.87164,-0.82071 5.87565,-1.19642 9.0126,-1.12657c-2.88178,0.73566 -5.88579,1.11136 -9.0126,1.12657z" fill="#6b6b6b" opacity="0.706"/><path d="M224.22797,57.1582c0.35994,0.33628 0.54752,0.8055 0.56329,1.40822c-1.14404,7.59142 -2.08248,15.1958 -2.81644,22.81313c1.73268,0.63877 3.42253,1.20205 5.06959,1.68986c-2.56352,-0.47428 -4.62853,0.27713 -6.19615,2.25314c-0.33628,-0.13238 -0.52385,-0.41401 -0.56329,-0.84493c1.10573,-9.12581 2.41988,-18.23247 3.94301,-27.31942z" fill="#535353"/><path d="M206.20278,301.06143c6.38373,0 12.76803,0 19.15175,0c0,-1.12657 0,-2.25315 0,-3.37973c0.18757,0 0.37571,0 0.56329,0c0,1.31431 0,2.6287 0,3.94302c-6.67213,0.18492 -13.24401,-0.00287 -19.71504,-0.56329z" fill="#73353a"/><path d="M222.5381,287.54254c-0.41064,-2.80798 0.15265,-5.34278 1.68986,-7.60437c6.81802,-2.00925 9.54095,0.52555 8.16765,7.60437c-1.67634,2.50065 -4.02356,3.34559 -7.04108,2.53479c-0.86576,-0.96154 -1.80477,-1.80647 -2.81644,-2.53479z" fill="#e9e9e9"/><path d="M224.79125,286.97926c-1.02237,-4.61163 0.66749,-6.30148 5.06958,-5.06958c1.68817,5.44867 -0.00169,7.13853 -5.06958,5.06958z" fill="#414141"/><path d="M225.35453,269.51737c4.16664,-7.76885 8.48534,-15.4673 12.95559,-23.09477c-2.22217,-0.55822 -4.47532,-0.74579 -6.75944,-0.56329c2.90882,-5.14957 5.53767,-10.40672 7.88601,-15.77203c2.62885,0 5.25716,0 7.88601,0c-2.43678,5.34053 -5.25321,10.50417 -8.4493,15.49039c5.62949,0.28164 11.26237,0.37514 16.89861,0.28164c-3.68954,6.80619 -7.53847,13.56564 -11.54738,20.27833c-0.62975,1.27585 -1.09898,2.59056 -1.40822,3.94302c-3.19214,0 -6.38372,0 -9.57588,0c-2.68294,0.15434 -5.3118,-0.03323 -7.88601,-0.56329z" fill="#5d5d5d"/><path d="M224.22797,245.85931c2.71673,-5.43459 5.72074,-10.6923 9.0126,-15.77203c2.06557,0 4.13058,0 6.19615,0c-2.34834,5.36531 -4.97721,10.62246 -7.88601,15.77203c-0.18757,0 -0.37571,0 -0.56329,0c-2.25314,0 -4.5063,0 -6.75944,0z" fill="#797979"/><path d="M226.48111,297.68171c9.31621,-0.39104 18.70395,-0.76657 28.16435,-1.12657c0,0.18775 0,0.37554 0,0.56329c-0.37571,0 -0.56329,0.18775 -0.56329,0.56329c-0.92436,0.95923 -1.48765,2.17964 -1.68986,3.66137c-8.26173,0.37554 -16.52289,0.37554 -24.78462,0c-0.34756,-1.2826 -0.72326,-2.50308 -1.12657,-3.66137z" fill="#2b2b2b"/><path d="M227.60767,157.42326c3.18764,-4.70739 6.19221,-9.58882 9.0126,-14.64546c5.82045,-0.75085 11.64145,-0.75085 17.46189,0c-2.44072,4.58965 -4.97552,9.09595 -7.60437,13.51888c-3.90471,0.36614 -7.75421,0.74185 -11.54738,1.12657c-2.44072,0 -4.88201,0 -7.32273,0z" fill="#797979"/><path d="M197.19018,71.24037c-0.72776,-8.69997 2.84009,-14.70855 10.70245,-18.02518c1.49384,0.05069 2.80798,-0.32445 3.94301,-1.12657c1.43863,-0.5002 2.94092,-0.68777 4.5063,-0.56328c3.1268,-0.01522 6.13082,-0.39092 9.0126,-1.12657c7.61056,-1.59578 15.309,-1.97151 23.09476,-1.12658c7.35371,0.80663 14.67644,1.83913 21.9682,3.09808c6.54821,2.11063 10.58529,6.52287 12.11066,13.23724c2.22949,17.97449 3.82529,35.99967 4.78795,54.07555c0,1.12657 0,2.25314 0,3.37972c-0.56329,0.37571 -1.12658,0.75086 -1.68986,1.12657c-1.5006,-19.60294 -3.65968,-39.13041 -6.4778,-58.58184c-0.41796,-2.02219 -1.45046,-3.61799 -3.09808,-4.78793c0.76776,-1.19923 0.57962,-1.48088 -0.56329,-0.84493c-0.43092,-0.62638 -0.99419,-1.00209 -1.68985,-1.12658c-1.27753,-1.10686 -2.77983,-1.76421 -4.50631,-1.9715c-3.40506,-0.36782 -6.78479,-0.83705 -10.13917,-1.40822c-0.34191,0.06984 -0.52949,0.25743 -0.56329,0.56328c-1.68535,-0.69228 -3.37521,-1.34963 -5.06958,-1.9715c-9.20016,-0.37571 -18.4009,-0.37571 -27.60106,0c-1.49553,0.65679 -2.99782,1.31359 -4.5063,1.9715c-0.43599,-0.36445 -0.99927,-0.55202 -1.68986,-0.56328c-3.14596,0.7655 -6.33811,1.23473 -9.57589,1.40822c-1.48652,0.36782 -2.80122,1.02518 -3.94301,1.9715c-2.92234,1.19642 -4.70626,3.63714 -5.35123,7.32273c-0.44331,6.37358 -1.47582,12.56975 -3.09808,18.58847c-0.07266,-3.34649 -0.44838,-6.35049 -1.12657,-9.01259c0.56329,0 1.12657,0 1.68986,0c-0.88436,-0.67031 -1.26007,-2.1726 -1.12657,-4.5063z" fill="#313131"/><path d="M197.19018,296.55514c0.40669,-0.23517 0.68834,-0.61072 0.84493,-1.12657c0.69003,4.22184 3.03724,6.94437 7.04108,8.16766c4.85778,0.6373 9.73923,1.01279 14.64546,1.12658c18.0342,0.48808 36.05938,0.30029 54.07555,-0.56329c3.55378,-0.92244 6.08856,-3.08169 7.60436,-6.4778c0.18757,0.37554 0.37572,0.75104 0.56329,1.12658c0.13068,-0.69707 0.41232,-1.26036 0.84493,-1.68986c-0.4495,6.26927 -3.64164,10.30618 -9.57587,12.11068c-19.10895,2.12714 -38.2607,2.50263 -57.45527,1.12657c-4.24718,-0.14449 -8.37776,-0.89552 -12.39231,-2.25315c-4.04834,-2.74371 -6.11392,-6.59281 -6.19616,-11.54738z" fill="#303030"/><path d="M223.66468,92.08199c1.41386,1.45723 2.91613,1.45723 4.50629,0c0.61116,-1.84363 0.70523,-3.72108 0.28164,-5.63287c-0.6292,-0.91479 -1.47412,-1.47806 -2.53478,-1.68985c-1.49102,0.74748 -2.80518,1.68591 -3.94302,2.81643c-0.59201,-0.40669 -0.96773,-0.96997 -1.12657,-1.68985c0,-0.18757 0,-0.37572 0,-0.56329c1.56762,-1.97602 3.63264,-2.72743 6.19615,-2.25314c2.45255,0.48217 3.86076,1.98445 4.22466,4.50629c0.26024,6.21756 -2.65027,8.65829 -8.73095,7.32273c-1.06181,-0.87478 -1.62508,-2.00135 -1.68985,-3.37972c1.00941,-0.07548 1.94785,0.11209 2.81644,0.56328z" fill="#eaeaea"/><path d="M221.97481,87.57568c1.13784,-1.13052 2.45199,-2.06895 3.94302,-2.81643c1.06067,0.2118 1.9056,0.77508 2.53478,1.68985c0.42359,1.9118 0.32952,3.78924 -0.28164,5.63288c-1.59016,1.45723 -3.09244,1.45723 -4.50629,0c-0.14082,-0.801 -0.61005,-1.36429 -1.40822,-1.68986c-0.27826,-0.92041 -0.37178,-1.85942 -0.28164,-2.81644z" fill="#424242"/><path d="M243.943,116.86661c3.11273,-0.18082 6.11729,0.00676 9.01259,0.56329c-0.74466,-0.09576 -1.40202,0.09182 -1.9715,0.56328c-4.56881,7.82575 -8.98104,15.71176 -13.23724,23.65805c-2.44072,0 -4.88201,0 -7.32273,0c2.59787,-6.18376 5.88353,-12.00478 9.85753,-17.4619c1.22684,-2.45312 2.44693,-4.89441 3.66137,-7.32273z" fill="#4b4b4b"/><path d="M198.31676,128.13235c0.69453,-1.82223 1.63296,-3.51208 2.81643,-5.06958c0,-0.18757 0,-0.37572 0,-0.56329c2.14781,-1.35639 4.40096,-2.57704 6.75944,-3.66137c6.13082,-1.35302 12.32697,-2.29201 18.58847,-2.81643c10.89453,-0.3498 21.78512,-0.25574 32.67064,0.28164c3.45689,0.83254 7.02475,1.48933 10.70245,1.9715c3.24003,0.96378 6.2446,2.37201 9.0126,4.22466c0,0.18757 0,0.37572 0,0.56329c1.37555,1.43525 2.31397,3.12511 2.81643,5.06958c0.09689,0.55878 -0.09125,0.93393 -0.56329,1.12657c-0.18757,0 -0.37571,0 -0.56328,0c-0.6765,-4.34181 -3.11722,-7.25231 -7.32273,-8.73094c-1.84082,-0.64778 -3.71826,-1.11756 -5.63287,-1.40822c-4.75189,-1.01561 -9.6339,-1.57889 -14.64546,-1.68985c-2.8953,-0.55653 -5.89986,-0.74411 -9.01259,-0.56329c-2.44072,0 -4.88201,0 -7.32273,0c-10.11607,-0.02648 -20.06766,1.19417 -29.8542,3.66137c-4.10411,1.55693 -6.54483,4.46742 -7.32273,8.73094c-0.18757,0 -0.37571,0 -0.56329,0c-0.47204,-0.19264 -0.66018,-0.56779 -0.56329,-1.12657z" fill="#0d0d0d"/><path d="M233.24055,94.89842c0,-3.94301 0,-7.88601 0,-11.82902c0.75085,0 1.50229,0 2.25314,0c0,3.94301 0,7.88601 0,11.82902c-0.75085,0 -1.50229,0 -2.25314,0z" fill="#f3f3f3"/><path d="M237.18356,288.10583c-0.55597,-2.70658 -0.74411,-5.52302 -0.56329,-8.4493c-0.56329,0 -1.12658,0 -1.68986,0c0,3.37973 0,6.75944 0,10.13917c2.44072,0 4.88201,0 7.32273,0c-2.51789,0.55546 -5.14675,0.74326 -7.88601,0.56329c0,-3.75543 0,-7.5103 0,-11.26574c0.939,0 1.87743,0 2.81643,0c0,3.00401 0,6.00858 0,9.01259z" fill="#919191"/><path d="M237.18356,288.10583c1.68985,0 3.37972,0 5.06958,0c0,0.56329 0,1.12658 0,1.68986c-2.44072,0 -4.88201,0 -7.32273,0c0,-3.37973 0,-6.75944 0,-10.13917c0.56329,0 1.12658,0 1.68986,0c-0.18082,2.92628 0.00732,5.74271 0.56329,8.4493z" fill="#efefef"/><path d="M233.24055,94.89842c0.75085,0 1.50229,0 2.25314,0c0,-3.94301 0,-7.88601 0,-11.82902c0.55878,4.02637 0.74636,8.15696 0.56329,12.39231c-1.07869,0.15998 -2.01713,-0.02761 -2.81643,-0.56329z" fill="#8a8a8a"/><path d="M207.89263,192.34706c0,-0.18757 0,-0.37572 0,-0.56329c9.48688,0.18589 18.87462,-0.00169 28.16435,-0.56329c2.62885,0 5.25716,0 7.88601,0c9.28973,0.5616 18.67747,0.74918 28.16435,0.56329c0,0.18757 0,0.37572 0,0.56329c-20.84162,0 -41.68323,0 -62.52485,0c-0.56329,0 -1.12657,0 -1.68986,0z" fill="#858486"/><path d="M237.74685,141.65123c4.25619,-7.9463 8.66842,-15.83231 13.23724,-23.65805c0.56948,-0.47146 1.22684,-0.65904 1.9715,-0.56328c5.01157,0.11096 9.89357,0.67425 14.64546,1.68985c-3.95541,7.33964 -8.08654,14.66236 -12.39231,21.9682c6.84957,0.37571 13.60901,0.75086 20.27832,1.12658c-12.58158,-0.1166 -25.16146,-0.30474 -37.74022,-0.56329z" fill="#5b5b5b"/><path d="M221.41152,57.1582c0,-0.37571 0,-0.75086 0,-1.12657c1.50848,-0.65792 3.01077,-1.31471 4.5063,-1.9715c9.20016,-0.37571 18.4009,-0.37571 27.60107,0c1.69437,0.62187 3.38423,1.27922 5.06958,1.9715c0,0.37571 0,0.75086 0,1.12657c-0.939,0 -1.87743,0 -2.81643,0c-0.31432,-0.72664 -0.8776,-1.19585 -1.68986,-1.40821c-9.57588,-0.37571 -19.15175,-0.37571 -28.72763,0c-0.49625,0.3988 -0.87141,0.86859 -1.12657,1.40821c-0.939,0 -1.87743,0 -2.81643,0z" fill="#1a1a1a"/><path d="M236.05699,191.22049c0,-4.5063 0,-9.0126 0,-13.51889c2.62885,0 5.25716,0 7.88601,0c0,4.5063 0,9.0126 0,13.51889c-2.62885,0 -5.25716,0 -7.88601,0z" fill="#d9dad9"/><path d="M247.32272,230.08728c4.89215,0.02028 9.77359,-0.1673 14.64546,-0.56329c1.88701,-0.09295 3.76445,0.00113 5.63287,0.28164c-0.92041,0.27826 -1.85941,0.37178 -2.81643,0.28164c-2.81643,5.25716 -5.63287,10.51487 -8.4493,15.77203c-0.18757,0 -0.37572,0 -0.56329,0c-5.63624,0.0935 -11.26912,0.00001 -16.89861,-0.28164c3.19609,-4.98622 6.01253,-10.14986 8.4493,-15.49039z" fill="#797979"/><path d="M233.24055,270.08065c3.19214,0 6.38373,0 9.57588,0c0.30925,-1.35245 0.77847,-2.66716 1.40822,-3.94302c4.00891,-6.71269 7.85785,-13.47214 11.54738,-20.27833c0.18757,0 0.37572,0 0.56329,0c6.41246,0.36275 12.60861,-0.01296 18.58847,-1.12657c1.83632,6.37528 2.96289,12.94659 3.37972,19.71504c-14.7598,4.6843 -29.78041,6.5623 -45.06295,5.63287z" fill="#4b4b4b"/><path d="M236.05699,177.70159c0,-0.18757 0,-0.37571 0,-0.56329c3.00401,0 6.00859,0 9.0126,0c0,0.18757 0,0.37571 0,0.56329c-0.55878,4.40265 -0.74691,8.90894 -0.56329,13.51889c-0.18757,0 -0.37572,0 -0.56329,0c0,-4.5063 0,-9.0126 0,-13.51889c-2.62885,0 -5.25716,0 -7.88601,0z" fill="#4c3230"/><path d="M245.63286,83.0694c0,3.94301 0,7.88601 0,11.82902c-0.56329,0 -1.12658,0 -1.68986,0c0.18138,-3.29973 -0.00619,-6.49188 -0.56329,-9.57588c-2.06557,0 -4.13059,0 -6.19615,0c0,-0.75086 0,-1.50228 0,-2.25314c2.81643,0 5.63287,0 8.4493,0z" fill="#efefef"/><path d="M243.943,289.7957c0.56329,0 1.12658,0 1.68986,0c0,-3.37973 0,-6.75944 0,-10.13917c-0.56329,0 -1.12658,0 -1.68986,0c0.60159,-0.5261 1.35245,-0.71425 2.25314,-0.56329c0,3.75543 0,7.5103 0,11.26574c-0.90069,0.15085 -1.65155,-0.03689 -2.25314,-0.56329z" fill="#adadad"/><path d="M243.943,289.7957c0,-3.37973 0,-6.75944 0,-10.13917c0.56329,0 1.12658,0 1.68986,0c0,3.37973 0,6.75944 0,10.13917c-0.56329,0 -1.12658,0 -1.68986,0z" fill="#f6f6f6"/><path d="M204.51292,142.77781c5.99112,-0.93168 12.18727,-1.49497 18.58846,-1.68986c4.67866,-8.04937 9.18496,-16.12297 13.51889,-24.22134c2.44072,0 4.88201,0 7.32273,0c-1.21444,2.42833 -2.43453,4.86962 -3.66137,7.32273c-3.97399,5.45712 -7.25965,11.27813 -9.85753,17.4619c2.44072,0 4.88201,0 7.32273,0c12.57876,0.25855 25.15865,0.44669 37.74022,0.56329c0,0.18757 0,0.37571 0,0.56329c-1.06573,5.45487 -2.19232,10.8996 -3.37973,16.33532c-12.35513,-1.31133 -24.74744,-1.87462 -37.17693,-1.68986c3.79317,-0.38472 7.64267,-0.76044 11.54738,-1.12657c2.62885,-4.42293 5.16366,-8.92923 7.60437,-13.51888c-5.82045,-0.75085 -11.64145,-0.75085 -17.46189,0c-2.82038,5.05662 -5.82495,9.93807 -9.0126,14.64546c-2.25314,0.18757 -4.5063,0.37571 -6.75944,0.56329c2.54549,-5.18562 5.36193,-10.25519 8.4493,-15.20874c-2.44072,-0.75085 -4.88202,-0.75085 -7.32273,0c-1.70732,3.68052 -3.77233,7.15431 -6.19615,10.42081c-2.19174,4.29281 -0.87761,5.8886 3.94301,4.78793c-3.84162,0.96097 -7.78463,1.14854 -11.82903,0.56329c-0.94914,-5.29828 -2.07571,-10.55543 -3.37972,-15.77203z" fill="#636363"/><path d="M243.37971,85.32255c0.55709,3.084 0.74466,6.27614 0.56329,9.57588c0.56329,0 1.12658,0 1.68986,0c0,-3.94301 0,-7.88601 0,-11.82902c0.55878,4.02637 0.74635,8.15696 0.56328,12.39231c-0.939,0 -1.87743,0 -2.81643,0c0,-3.37972 0,-6.75944 0,-10.13917z" fill="#b3b3b3"/><path d="M244.50629,191.22049c-0.18363,-4.60994 0.0045,-9.11624 0.56329,-13.51889c8.82502,0 17.64946,0 26.47449,0c0,4.5063 0,9.0126 0,13.51889c-9.0126,0 -18.02518,0 -27.03777,0z" fill="#b84c57"/><path d="M243.943,191.22049c0.18757,0 0.37572,0 0.56329,0c9.0126,0 18.02518,0 27.03777,0c0,-4.5063 0,-9.0126 0,-13.51889c-8.82501,0 -17.64946,0 -26.47449,0c0,-0.18757 0,-0.37571 0,-0.56329c9.0126,0 18.02518,0 27.03777,0c0,4.69387 0,9.3883 0,14.08217c0,0.18757 0,0.37571 0,0.56329c-9.48688,0.18589 -18.87462,-0.00169 -28.16435,-0.56329z" fill="#46090e"/><path d="M245.06957,188.40404c0,-0.18757 0,-0.37571 0,-0.56329c8.0736,0 16.14775,0 24.22133,0c0,-0.939 0,-1.87743 0,-2.81643c-8.07359,0 -16.14774,0 -24.22133,0c0,-2.25314 0,-4.50631 0,-6.75945c8.63688,0 17.27432,0 25.91119,0c0,1.31415 0,2.62886 0,3.94301c-0.96716,1.8842 -1.34288,3.94921 -1.12658,6.19615c-8.26173,0 -16.52289,0 -24.78462,0z" fill="#e34c55"/><path d="M259.71503,86.44911c0,1.87743 0,3.75543 0,5.63288c-0.55653,0.72946 -1.11981,1.48032 -1.68985,2.25314c-2.88403,1.58791 -5.70047,1.49384 -8.4493,-0.28164c-2.37538,-3.5273 -2.18725,-6.90703 0.56329,-10.13917c4.01511,-1.79125 7.20726,-0.94632 9.57588,2.53478z" fill="#ebebeb"/><path d="M247.88601,287.54254c-1.19473,-6.78873 1.43413,-9.32352 7.88601,-7.60437c1.80308,1.90729 1.42793,2.65815 -1.12657,2.25314c-0.87591,-1.3885 -2.00248,-1.67014 -3.37973,-0.84493c-1.21557,1.93489 -1.40371,3.9999 -0.56329,6.19615c0.62355,0.29403 1.28091,0.48161 1.9715,0.56329c1.23078,-0.90577 2.639,-1.46905 4.22466,-1.68986c-1.18347,3.78038 -3.62475,4.81307 -7.32273,3.09808c-0.63989,-0.64496 -1.20318,-1.30232 -1.68986,-1.97151z" fill="#e5e5e5"/><path d="M245.06957,188.40404c8.26173,0 16.52288,0 24.78462,0c-0.21631,-2.24694 0.15942,-4.31195 1.12658,-6.19615c0,2.81643 0,5.63287 0,8.4493c-8.63688,0 -17.27432,0 -25.91119,0c0,-0.75085 0,-1.5023 0,-2.25315z" fill="#ca3842"/><path d="M245.06957,187.84076c0,-0.939 0,-1.87743 0,-2.81643c8.0736,0 16.14775,0 24.22133,0c0,0.939 0,1.87743 0,2.81643c-8.07359,0 -16.14774,0 -24.22133,0z" fill="#fc6e77"/><path d="M250.70244,91.51871c-0.178,-1.95911 0.10365,-3.83711 0.84493,-5.63287c1.90053,-1.63635 3.59039,-1.44877 5.06959,0.56328c0.37572,1.87743 0.37572,3.75543 0,5.63288c-2.12641,1.571 -4.09791,1.38287 -5.91452,-0.56328z" fill="#414141"/><path d="M273.23392,298.24499c0,0.75103 0,1.50212 0,2.25315c-0.939,0 -1.87743,0 -2.81643,0c-5.06958,0 -10.13917,0 -15.20875,0c0,-0.75103 0,-1.50212 0,-2.25315c6.00858,0 12.0166,0 18.02518,0z" fill="#e54953"/><path d="M267.60104,119.11975c1.91461,0.29066 3.79205,0.76044 5.63287,1.40822c4.2055,1.47862 6.64622,4.38913 7.32273,8.73094c-0.34756,0.06253 -0.6292,0.25011 -0.84493,0.5633c-1.33217,4.40603 -2.74039,8.72475 -4.22465,12.9556c0,-0.18757 0,-0.37571 0,-0.56329c-6.66931,-0.37571 -13.42876,-0.75086 -20.27832,-1.12658c4.30577,-7.30583 8.43691,-14.62856 12.39231,-21.96819z" fill="#4b4b4b"/><path d="M256.33531,245.85931c2.81643,-5.25716 5.63287,-10.51487 8.4493,-15.77203c0.95702,0.09013 1.89601,-0.00338 2.81643,-0.28164c-1.86842,-0.28052 -3.74586,-0.37459 -5.63287,-0.28164c2.8953,-0.55653 5.89987,-0.74411 9.0126,-0.56329c1.32316,5.26843 2.63731,10.52558 3.94301,15.77204c-5.97986,1.11362 -12.17601,1.48933 -18.58847,1.12657z" fill="#656565"/><path d="M255.77203,57.1582c0.939,0 1.87743,0 2.81643,0c3.17356,0.38754 6.36571,0.66919 9.57588,0.84493c1.81266,0.50696 3.50252,1.16432 5.06959,1.9715c3.15383,10.62472 4.93777,21.51475 5.35122,32.67065c1.05616,9.36521 1.43187,18.75352 1.12657,28.16435c-0.28896,0.5785 -0.57061,1.14178 -0.84493,1.68985c-2.768,-1.85265 -5.77257,-3.26088 -9.0126,-4.22466c-3.6777,-0.48217 -7.24556,-1.13896 -10.70245,-1.9715c0.56329,0 1.12657,0 1.68986,0c0.26024,-8.13837 -0.11491,-16.21252 -1.12657,-24.22133c0,-1.87743 0,-3.75543 0,-5.63287c-0.94632,-9.82541 -2.26046,-19.58887 -3.94301,-29.29092z" fill="#404040"/><path d="M267.03775,279.65653c-2.62885,0 -5.25716,0 -7.88601,0c0,3.37973 0,6.75944 0,10.13917c2.62885,0 5.25716,0 7.88601,0c-2.70658,0.55607 -5.52303,0.74382 -8.4493,0.56329c0,-3.75543 0,-7.5103 0,-11.26574c2.92628,-0.18082 5.74272,0.00732 8.4493,0.56329z" fill="#8e8e8e"/><path d="M258.02518,94.33513c0.57005,-0.77283 1.13333,-1.52369 1.68985,-2.25314c1.01166,8.00881 1.38682,16.08296 1.12657,24.22133c-0.56329,0 -1.12657,0 -1.68986,0c-0.11773,-7.423 -0.49344,-14.74572 -1.12657,-21.96819z" fill="#535353"/><path d="M258.58845,57.1582c0,-0.37571 0,-0.75086 0,-1.12657c0.0338,-0.30586 0.22137,-0.49344 0.56329,-0.56328c3.35437,0.57118 6.7341,1.04039 10.13917,1.40822c1.72648,0.20729 3.22877,0.86464 4.50631,1.9715c0,0.18757 0,0.37571 0,0.56328c0,0.37571 -0.18757,0.56329 -0.56329,0.56329c-1.56707,-0.8072 -3.25693,-1.46455 -5.06959,-1.9715c-3.21018,-0.17575 -6.40232,-0.45739 -9.57588,-0.84493z" fill="#dfdfdf"/><path d="M267.03775,279.65653c0,0.56329 0,1.12658 0,1.68986c-1.87743,0 -3.75543,0 -5.63287,0c0,0.75085 0,1.50229 0,2.25314c1.68986,0 3.37973,0 5.06959,0c0,0.56329 0,1.12658 0,1.68986c-1.68986,0 -3.37973,0 -5.06959,0c0,0.939 0,1.87743 0,2.81643c1.87743,0 3.75543,0 5.63287,0c0,0.56329 0,1.12658 0,1.68986c-2.62885,0 -5.25716,0 -7.88601,0c0,-3.37973 0,-6.75944 0,-10.13917c2.62885,0 5.25716,0 7.88601,0z" fill="#ededed"/><path d="M254.64546,301.06143c0,-1.12657 0,-2.25315 0,-3.37973c6.29698,-0.1847 12.49314,0.00304 18.58847,0.56329c-6.00858,0 -12.0166,0 -18.02518,0c0,0.75103 0,1.50212 0,2.25315c5.06958,0 10.13917,0 15.20875,0c0,0.18775 0,0.37554 0,0.56328c-5.25716,0 -10.51488,0 -15.77204,0z" fill="#d8555d"/><path d="M254.64546,297.11842c0,-0.18775 0,-0.37554 0,-0.56329c6.57186,0 13.14318,0 19.71504,0c0,1.31431 0,2.62869 0,3.94302c-0.18757,0 -0.37572,0 -0.56329,0c0,-1.12657 0,-2.25315 0,-3.37973c-6.38373,0 -12.76803,0 -19.15176,0z" fill="#683238"/><path d="M270.41749,83.0694c0,3.94301 0,7.88601 0,11.82902c-2.25314,0 -4.5063,0 -6.75944,0c-2.9843,-2.30272 -2.9843,-4.64994 0,-7.04108c1.49046,-0.27995 2.99275,-0.37402 4.50629,-0.28165c0,-1.50228 0,-3.004 0,-4.50629c0.75085,0 1.50229,0 2.25315,0z" fill="#eeeeee"/><path d="M264.22134,92.64528c-0.12054,-0.92604 0.06759,-1.77097 0.56329,-2.53478c1.11137,-0.27883 2.23794,-0.3729 3.37972,-0.28165c0,1.12657 0,2.25314 0,3.37972c-1.38005,0.11379 -2.69419,-0.07378 -3.94301,-0.56328z" fill="#414141"/><path d="M263.65805,94.89842c2.25314,0 4.5063,0 6.75944,0c0,-3.94301 0,-7.88601 0,-11.82902c0.55878,4.02637 0.74635,8.15696 0.56329,12.39231c-2.55281,0.17913 -4.9941,-0.00845 -7.32273,-0.56329z" fill="#a3a3a3"/><path d="M269.8542,227.83413c0.42979,-0.43261 0.99307,-0.71425 1.68986,-0.84493c-1.1125,-11.17449 -1.67578,-22.53429 -1.68986,-34.07885c0.75085,0 1.50229,0 2.25315,0c0.46809,8.35242 0.74973,16.80171 0.84493,25.3479c0.17237,6.47385 1.48707,12.67001 3.94301,18.58847c1.45553,6.14883 2.76968,12.34499 3.94301,18.58846c0.37572,2.44072 0.37572,4.88201 0,7.32273c-0.37797,0.42358 -0.84718,0.61173 -1.40822,0.56329c0.13349,-0.7272 -0.05407,-1.29049 -0.56329,-1.68985c-1.27416,-11.10632 -3.62081,-21.99692 -7.04109,-32.67065c-0.39993,-0.82972 -1.05673,-1.20543 -1.9715,-1.12657z" fill="#dddddf"/><path d="M254.64546,301.06143c-0.54132,-0.99398 -0.72945,-2.12055 -0.56329,-3.37973c0,-0.37554 0.18757,-0.56329 0.56329,-0.56329c6.38373,0 12.76803,0 19.15176,0c0,1.12657 0,2.25315 0,3.37973c-0.9942,0.54154 -2.12078,0.72929 -3.37973,0.56328c0,-0.18775 0,-0.37554 0,-0.56328c0.939,0 1.87743,0 2.81643,0c0,-0.75103 0,-1.50212 0,-2.25315c-6.09533,-0.56024 -12.29149,-0.74799 -18.58847,-0.56329c0,1.12657 0,2.25315 0,3.37973z" fill="#b6555d"/><path d="M198.88005,129.25892c0.18757,0 0.37571,0 0.56329,0c2.03797,4.41447 3.72783,8.92079 5.06958,13.51889c1.30402,5.2166 2.43058,10.47375 3.37972,15.77203c4.0444,0.58525 7.9874,0.39768 11.82903,-0.56329c0.37571,0 0.75086,0 1.12657,0c2.25314,-0.18757 4.5063,-0.37571 6.75944,-0.56329c2.44072,0 4.88201,0 7.32273,0c12.42949,-0.18476 24.8218,0.37853 37.17693,1.68986c1.1874,-5.43572 2.31398,-10.88045 3.37973,-16.33531c1.48427,-4.23085 2.89248,-8.54957 4.22465,-12.9556c0.21573,-0.31319 0.49738,-0.50077 0.84493,-0.5633c0.18757,0 0.37571,0 0.56328,0c-3.59828,10.07382 -6.22656,20.40057 -7.88601,30.98079c-0.75085,0 -1.50229,0 -2.25315,0c-20.47379,-2.2171 -40.94025,-2.2171 -61.39828,0c-0.939,0 -1.87743,0 -2.81643,0c-1.65945,-10.58022 -4.28774,-20.90697 -7.88601,-30.98078z" fill="#1b1b1b"/><path d="M272.10735,192.91035c0,-0.18757 0,-0.37571 0,-0.56329c0,-0.18757 0,-0.37572 0,-0.56329c4.17958,-1.32823 8.31017,-2.82996 12.39231,-4.5063c0.75085,14.08217 0.75085,28.16435 0,42.24652c-0.5509,-0.26869 -1.02011,-0.64385 -1.40822,-1.12658c-0.15097,1.17727 0.41233,1.9287 1.68986,2.25315c0.1014,10.36842 0.38303,20.69516 0.84493,30.98078c-0.68157,0.24333 -1.24486,0.61905 -1.68986,1.12657c-1.0049,0.22137 -1.94334,0.59652 -2.81644,1.12657c-0.37572,0.18757 -0.75085,0.37572 -1.12657,0.56329c-0.47204,-0.19264 -0.66017,-0.5678 -0.56329,-1.12658c0.56104,0.04845 1.03025,-0.1397 1.40822,-0.56329c0.37572,-2.44072 0.37572,-4.88201 0,-7.32273c-1.17333,-6.24347 -2.48748,-12.43963 -3.94301,-18.58846c-2.45593,-5.91846 -3.77064,-12.11462 -3.94301,-18.58847c-0.0952,-8.54619 -0.37684,-16.99549 -0.84493,-25.3479z" fill="#c4c5c5"/><path d="M278.86679,192.91035c0.18589,10.23717 -0.0017,20.37634 -0.56329,30.41749c-1.32992,-0.52668 -2.55057,-1.27753 -3.66137,-2.25314c-0.70524,-8.81601 -0.89337,-17.64102 -0.56328,-26.47449c1.51525,-0.80494 3.11103,-1.36822 4.78794,-1.68985z" fill="#666766"/><path d="M270.98078,160.2397c0.75085,0 1.50229,0 2.25315,0c1.65945,-10.58022 4.28774,-20.90697 7.88601,-30.98078c0.47204,-0.19264 0.66017,-0.56779 0.56329,-1.12657c1.08039,-1.42285 2.39454,-2.54944 3.94302,-3.37972c0,0.939 0,1.87743 0,2.81643c-1.24373,0.78522 -2.08867,1.9118 -2.53479,3.37973c-5.99619,16.83722 -9.37591,34.11097 -10.13917,51.8224c-0.28052,-1.86843 -0.37459,-3.74586 -0.28165,-5.63287c-0.58412,-1.21388 -0.95928,-2.52803 -1.12657,-3.94301c0.56159,-4.11706 0.9373,-8.24765 1.12657,-12.39231c-0.7272,0.13349 -1.29049,-0.05408 -1.68985,-0.56329z" fill="#ddddde"/><path d="M278.86679,227.83413c-0.11942,3.05133 -0.11942,6.43104 0,10.13916c-1.37611,-3.42479 -2.50268,-6.99208 -3.37973,-10.70245c0.18757,-0.56329 0.37572,-1.12657 0.56329,-1.68986c1.08095,0.62638 2.01995,1.3778 2.81643,2.25314z" fill="#686969"/><path d="M274.3605,300.49814c0,-1.31431 0,-2.62869 0,-3.94302c1.4775,-3.83982 2.69814,-7.78294 3.66136,-11.82903c0.42472,-6.81351 1.08207,-13.57296 1.9715,-20.27832c0.37572,-0.18757 0.75085,-0.37572 1.12657,-0.56329c0.36388,3.24171 0.55146,6.52794 0.56329,9.85753c0.27714,8.2099 -0.84944,16.18982 -3.37972,23.93969c-1.30457,1.05532 -2.61928,1.99415 -3.943,2.81644z" fill="#2a2a2a"/><path d="M273.23392,59.97463c0.37572,0 0.56329,-0.18758 0.56329,-0.56329c0.47598,0.65961 0.85112,1.41104 1.12657,2.25315c0.93337,3.17074 1.7783,6.36233 2.53479,9.57588c1.54791,14.72713 2.95612,29.46667 4.22465,44.21803c0.0997,2.46157 -0.37008,4.80821 -1.40822,7.04108c-0.37797,0.42358 -0.84717,0.61173 -1.40821,0.56329c0,-0.18757 0,-0.37572 0,-0.56329c0.27432,-0.54807 0.55596,-1.11136 0.84493,-1.68985c0.3053,-9.41083 -0.07041,-18.79914 -1.12657,-28.16435c-0.41345,-11.15589 -2.19739,-22.04593 -5.35122,-32.67065z" fill="#535353"/><path d="M278.86679,227.83413c1.32823,1.14291 2.64293,2.26949 3.943,3.37973c-0.56047,7.22303 -0.7486,14.54576 -0.56329,21.96819c-1.54228,-4.9175 -2.66885,-9.98709 -3.37972,-15.20876c-0.11942,-3.70812 -0.11942,-7.08783 0,-10.13916z" fill="#4e4e4e"/><path d="M278.3035,223.32784c0.56159,-10.04115 0.74918,-20.18032 0.56329,-30.41749c1.21051,-0.69622 2.52464,-1.25952 3.943,-1.68986c0.56159,11.91915 0.74974,23.93575 0.56329,36.05036c-1.86448,-1.11643 -3.55434,-2.43059 -5.06959,-3.94301z" fill="#434343"/><path d="M274.92378,61.6645c1.71352,0.9711 2.74602,2.47339 3.09808,4.50629c2.12246,18.20769 4.18805,36.42045 6.19616,54.63884c0.02084,1.39357 0.49005,2.52014 1.40821,3.37972c0,0.18757 0,0.37571 0,0.56328c-1.54848,0.83029 -2.86263,1.95686 -3.94302,3.37972c-0.50245,-1.94447 -1.44088,-3.63432 -2.81643,-5.06958c0.56104,0.04845 1.03024,-0.1397 1.40821,-0.56329c1.03814,-2.23287 1.50792,-4.57952 1.40822,-7.04108c-1.26852,-14.75136 -2.67674,-29.49089 -4.22465,-44.21803c-0.7565,-3.21355 -1.60143,-6.40514 -2.53479,-9.57588z" fill="#3f3f3f"/><path d="M273.79721,59.41134c0,-0.18757 0,-0.37571 0,-0.56328c0.69566,0.12449 1.25894,0.5002 1.68985,1.12658c1.14291,-0.63595 1.33105,-0.3543 0.56329,0.84493c1.64761,1.16995 2.68012,2.76574 3.09808,4.78794c2.81812,19.45143 4.9772,38.9789 6.4778,58.58184c-0.91816,-0.85957 -1.38737,-1.98615 -1.40821,-3.37972c-2.00811,-18.21839 -4.07369,-36.43115 -6.19616,-54.63884c-0.35205,-2.03291 -1.38455,-3.53519 -3.09808,-4.50629c-0.27545,-0.84211 -0.65059,-1.59354 -1.12657,-2.25315z" fill="#171717"/><path d="M272.10735,191.22049c0,-4.69387 0,-9.3883 0,-14.08217c0.18757,0 0.37571,0 0.56328,0c-0.09294,1.88701 0.00113,3.76445 0.28165,5.63287c0.76326,-17.71143 4.14298,-34.98518 10.13917,-51.82239c0.44613,-1.46793 1.29105,-2.5945 2.53479,-3.37973c0.75085,2.25314 0.75085,4.50631 0,6.75944c-0.72664,-0.31432 -1.19585,-0.8776 -1.40821,-1.68986c-0.82747,1.83744 -1.48483,3.71487 -1.97151,5.63286c-0.37572,1.12657 -0.75085,2.25315 -1.12657,3.37973c-1.16544,3.40845 -1.91687,6.97575 -2.25314,10.70245c-2.41707,11.06915 -3.91878,22.33489 -4.50629,33.79722c-0.07378,0.49344 0.11378,0.86916 0.56328,1.12657c2.89754,-1.18459 5.80805,-2.31116 8.73095,-3.37972c0.28164,-13.70533 0.37571,-27.41179 0.28164,-41.11994c0.56329,0 1.12657,0 1.68986,0c0.09407,14.459 0,28.91633 -0.28164,43.37308c-4.39702,1.74732 -8.80924,3.43717 -13.23724,5.06959z" fill="#bec0bf"/><path d="M278.86679,184.46105c0,-10.70245 0,-21.40491 0,-32.10735c0.33628,-3.7267 1.08771,-7.294 2.25314,-10.70245c0.38472,0.94407 1.13616,1.31979 2.25315,1.12658c0.19885,13.53691 -0.17688,27.05579 -1.12658,40.55666c-1.14347,0.37853 -2.27004,0.75368 -3.37972,1.12658z" fill="#4a4a4a"/><path d="M274.3605,186.1509c0.58751,-11.46233 2.08922,-22.72807 4.50629,-33.79722c0,10.70245 0,21.40491 0,32.10735c-1.49947,0.56273 -3.00119,1.12601 -4.50629,1.68985z" fill="#656565"/><path d="M282.2465,253.18204c-0.18532,-7.42243 0.00282,-14.74516 0.56329,-21.96819c0.65454,9.66713 0.74861,19.43059 0.28165,29.29092c-0.51991,-2.41649 -0.80156,-4.85723 -0.84493,-7.32273z" fill="#1d1e1e"/><path d="M282.2465,138.27151c0.48668,-1.91799 1.14404,-3.79543 1.97151,-5.63286c0.21236,0.81227 0.68157,1.37555 1.40821,1.68986c0.53794,1.26515 0.91366,2.57928 1.12658,3.943c-0.90352,0.44331 -1.27923,1.19417 -1.12658,2.25315c-1.12657,-0.75085 -2.25315,-1.5023 -3.37973,-2.25315z" fill="#4e4e4e"/><path d="M283.93637,262.75792c0.44499,-0.50752 1.00828,-0.88323 1.68986,-1.12657c0.18757,0 0.37572,0 0.56329,0c-0.10984,7.71816 -0.57905,15.41659 -1.40821,23.09476c-0.1825,4.09847 -0.83931,8.04137 -1.97151,11.82903c-0.12448,-1.46297 -0.40613,-1.46297 -0.84493,0c0.23152,-3.54899 0.60723,-7.11656 1.12658,-10.70245c0.18757,1.31414 0.37572,2.62886 0.56329,3.94302c0.09407,-0.75085 0.18758,-1.5023 0.28164,-2.25315c-0.03267,-8.75235 -0.03267,-17.01408 0,-24.78462z" fill="#393939" opacity="0.975"/><path d="M274.3605,186.1509c1.5051,-0.56385 3.00681,-1.12713 4.50629,-1.68985c1.10967,-0.37289 2.23625,-0.74805 3.37972,-1.12658c0.9497,-13.50086 1.32543,-27.01974 1.12658,-40.55665c-1.11699,0.19321 -1.86844,-0.1825 -2.25315,-1.12658c0.37572,-1.12657 0.75085,-2.25315 1.12657,-3.37973c1.12657,0.75085 2.25315,1.5023 3.37973,2.25315c1.67466,0.8376 3.36451,1.68253 5.06958,2.53478c-0.33459,0.26136 -0.71031,0.35543 -1.12657,0.28165c-0.37572,0 -0.75085,0 -1.12657,0c-0.7993,-0.53568 -1.73775,-0.72326 -2.81643,-0.56329c-0.56329,0 -1.12657,0 -1.68986,0c0.09407,13.70815 0,27.41461 -0.28164,41.11994c-2.92289,1.06856 -5.83341,2.19512 -8.73095,3.37972c-0.4495,-0.25742 -0.63707,-0.63314 -0.56328,-1.12657z" fill="#0e0f0e"/><path d="M285.62623,134.32851c0.75085,-2.25314 0.75085,-4.50631 0,-6.75944c0,-0.939 0,-1.87743 0,-2.81643c0,-0.18757 0,-0.37571 0,-0.56328c0.56329,-0.37571 1.12658,-0.75086 1.68986,-1.12657c0.18419,5.1721 -0.00395,10.24167 -0.56329,15.20874c-0.21292,-1.36371 -0.58864,-2.67786 -1.12658,-3.943z" fill="#9d9d9d"/><path d="M272.10735,191.78377c0,-0.18757 0,-0.37571 0,-0.56329c4.428,-1.63241 8.84023,-3.32226 13.23724,-5.06959c0.28164,-14.45676 0.37571,-28.91408 0.28164,-43.37308c1.07869,-0.15997 2.01713,0.02761 2.81643,0.56329c-0.46921,32.2003 -0.75086,64.49579 -0.84493,96.88535c-0.24784,7.23712 -0.71706,14.37227 -1.40822,21.40491c-0.18757,0 -0.37572,0 -0.56329,0c-0.46189,-10.28561 -0.74353,-20.61236 -0.84493,-30.98078c-1.27753,-0.32445 -1.84083,-1.07588 -1.68986,-2.25315c0.38811,0.48273 0.85732,0.8579 1.40822,1.12658c0.75085,-14.08217 0.75085,-28.16435 0,-42.24652c-4.08215,1.67634 -8.21273,3.17807 -12.39231,4.5063z" fill="#a8a9a9" opacity="0.896"/><path d="M282.80979,191.22049c0.0338,-0.30586 0.22138,-0.49344 0.56329,-0.56329c0.74805,12.29655 0.74805,24.50073 0,36.61364c0.18644,-12.11461 -0.0017,-24.13121 -0.56329,-36.05036z" fill="#5d5f5e"/><path d="M285.62623,140.52466c-0.15264,-1.05898 0.22306,-1.80984 1.12658,-2.25315c0.55934,-4.96707 0.74748,-10.03664 0.56329,-15.20874c0,-1.12657 0,-2.25314 0,-3.37972c0.46754,6.09814 0.74917,12.29429 0.84492,18.58846c2.15908,1.40822 3.94302,3.19215 5.35123,5.35123c-0.29573,0.3898 -0.67144,0.67144 -1.12658,0.84493c-1.03419,-0.29741 -1.97319,-0.67256 -2.81643,-1.12657c0.41626,0.07379 0.79198,-0.02029 1.12657,-0.28165c-1.70507,-0.85225 -3.39492,-1.69718 -5.06958,-2.53478z" fill="#d4d4d4"/></g></g></svg>