<svg version="1.1" xmlns="http://www.w3.org/2000/svg" xmlns:xlink="http://www.w3.org/1999/xlink" width="94.5" height="326.80659" viewBox="0,0,94.5,326.80659"><g transform="translate(-192.75,-26.63024)"><g data-paper-data="{&quot;isPaintingLayer&quot;:true}" fill="#000000" fill-rule="nonzero" stroke="none" stroke-width="0" stroke-linecap="round" stroke-linejoin="miter" stroke-miterlimit="10" stroke-dasharray="" stroke-dashoffset="0" style="mix-blend-mode: normal"><path d="M240.75,26.63024c0,0 11.26388,0.18591 21.9417,3.1273c5.89261,1.62322 12.30218,5.40697 14.90106,7.34445c8.10847,6.04491 9.65724,24.1943 9.65724,24.1943v240.66667c0,0 -1.44604,35.31918 -7.9158,42.71875c-8.14228,9.31247 -37.0842,8.74855 -37.0842,8.74855h-4.5c0,0 -28.94192,0.56392 -37.0842,-8.74855c-6.46975,-7.39958 -7.9158,-42.71875 -7.9158,-42.71875v-240.66667c0,0 1.54877,-18.14938 9.65724,-24.1943c2.59887,-1.93747 9.00845,-5.72123 14.90105,-7.34445c10.67782,-2.94138 21.94171,-3.1273 21.94171,-3.1273z"/></g></g></svg>