<svg version="1.1" xmlns="http://www.w3.org/2000/svg" xmlns:xlink="http://www.w3.org/1999/xlink" width="116.38069" height="241.59087" viewBox="0,0,116.38069,241.59087"><g transform="translate(-181.80966,-59.20457)"><g data-paper-data="{&quot;isPaintingLayer&quot;:true}" fill-rule="evenodd" stroke="none" stroke-width="1" stroke-linecap="butt" stroke-linejoin="miter" stroke-miterlimit="10" stroke-dasharray="" stroke-dashoffset="0" style="mix-blend-mode: normal"><path d="M219.61607,60.23079c-1.37896,0.39406 -2.75852,0.78808 -4.13748,1.18214c-0.98531,0 -1.97003,0 -2.95534,0c-0.59107,0 -1.18213,0 -1.7732,0c2.8188,-0.821 5.77415,-1.21507 8.86603,-1.18214z" fill="#69a3db" opacity="0.82"/><path d="M273.40329,62.00399c-1.23593,-0.10734 -2.41806,0.08972 -3.54641,0.59107c-0.66318,-0.66803 -1.45167,-1.06209 -2.36428,-1.18213c-7.88189,-0.15953 -15.7632,-0.35659 -23.64273,-0.59107c-1.56396,-0.3927 -3.23847,-0.58977 -5.02409,-0.59107c-7.77432,0.59054 -15.55692,0.98461 -23.34719,1.18214c1.37896,-0.39406 2.75852,-0.78808 4.13748,-1.18214c18.07664,-1.8141 36.0061,-1.22304 53.78721,1.77321z" fill="#3e84d0"/><path d="M243.84987,60.82186c-1.59115,4.19493 -2.872,8.52942 -3.84195,13.00351c-1.02018,1.0213 -1.80808,2.20344 -2.36427,3.5464c-2.5209,7.79495 -4.68776,15.67573 -6.50175,23.64274c-2.07288,0.64249 -4.14162,1.33168 -6.20622,2.06874c-3.29875,0.08866 -6.45091,0.58102 -9.45709,1.47767c-1.7732,0 -3.54641,0 -5.31961,0c1.32281,-12.77026 2.20941,-25.57677 2.65981,-38.41944c-0.14245,-2.22662 0.74416,-3.80281 2.65981,-4.72854c7.79028,-0.19754 15.57288,-0.59161 23.3472,-1.18214c1.78562,0.0013 3.46012,0.19837 5.02409,0.59107z" fill="#0180f0"/><path d="M243.84987,60.82186c7.87953,0.23448 15.76083,0.43154 23.64273,0.59107c1.27848,14.54105 2.2632,29.12069 2.95534,43.73905c-3.76274,-0.29908 -7.50657,-0.79144 -11.2303,-1.47767c-9.95241,-0.48941 -19.80374,-0.39128 -29.55341,0.29554c-4.74332,-0.06502 -9.47187,0.1324 -14.18564,0.59107c3.00618,-0.89665 6.15834,-1.38901 9.45709,-1.47767c2.0646,-0.73706 4.13334,-1.42625 6.20622,-2.06874c1.81399,-7.96701 3.98085,-15.84779 6.50175,-23.64273c0.5562,-1.34297 1.34409,-2.5251 2.36427,-3.5464c0.96994,-4.47409 2.25079,-8.80858 3.84195,-13.00351z" fill="#0171d4"/><path d="M208.97684,61.41293c0.26598,1.55333 0.85705,2.93246 1.7732,4.13747c-4.50749,-0.00674 -8.64496,1.1754 -12.41243,3.54641c-0.1655,-2.49035 0.81981,-4.36203 2.95534,-5.61515c-0.35109,-0.27443 -0.74533,-0.37296 -1.18213,-0.29553c2.79576,-1.02656 5.7511,-1.61763 8.86603,-1.7732z" fill="#3985db"/><path d="M274.58542,62.00399c1.73065,0.03848 3.30703,0.43254 4.72854,1.18214c1.41325,1.24999 2.20114,2.82614 2.36428,4.72855c-0.59107,0 -1.18214,0 -1.77321,0c-3.35077,-1.64158 -6.89718,-2.42971 -10.63923,-2.36428c1.13544,-1.1582 2.515,-1.65073 4.13748,-1.47767c-0.19682,0.19701 -0.39425,0.39406 -0.59107,0.59107c1.61185,0.48373 3.18822,0.3852 4.72854,-0.29554c-0.89547,-0.93519 -1.88018,-1.72326 -2.95534,-2.36427z" fill="#3478c2"/><path d="M267.4926,61.41293c0.91261,0.12004 1.7011,0.51411 2.36428,1.18213c1.12835,-0.50135 2.31048,-0.69841 3.54641,-0.59107c0.39425,0 0.78789,0 1.18214,0c1.07515,0.64102 2.05987,1.42908 2.95534,2.36427c-1.54032,0.68073 -3.1167,0.77926 -4.72854,0.29554c0.19682,-0.19701 0.39425,-0.39406 0.59107,-0.59107c-1.62248,-0.17307 -3.00204,0.31947 -4.13748,1.47767c-0.36883,0.24641 -0.56565,0.64048 -0.59107,1.18214c0.84582,1.50055 1.83054,2.87974 2.95535,4.13747c0.39484,11.43475 0.9859,22.86193 1.7732,34.28196c-0.98531,0 -1.97003,0 -2.95534,0c-0.69214,-14.61836 -1.67686,-29.198 -2.95534,-43.73905z" fill="#0357a7"/><path d="M269.26581,65.5504c-0.12944,0.69451 0.06739,1.28558 0.59107,1.77321c5.67307,2.52321 10.00796,6.46368 13.0035,11.82137c-0.81863,-0.65833 -1.70523,-1.2494 -2.6598,-1.77321c-0.19682,0.19701 -0.39425,0.39406 -0.59107,0.59107c-0.52783,-3.48021 -2.59656,-5.35195 -6.20622,-5.61515c0.27012,-0.2447 0.46753,-0.54023 0.59107,-0.8866c-0.70278,-0.54892 -1.49067,-0.74593 -2.36427,-0.59107c-1.1248,-1.25773 -2.10953,-2.63693 -2.95535,-4.13747c0.02542,-0.54166 0.22224,-0.93573 0.59107,-1.18214z" fill="#3878bc"/><path d="M208.97684,68.50575c0,0.59107 0,1.18213 0,1.7732c-1.05683,-0.16858 -2.04215,0.02842 -2.95535,0.59107c-2.53391,1.74359 -4.89818,3.71386 -7.09282,5.91069c2.27266,-4.04433 5.62225,-6.80266 10.04817,-8.27495z" fill="#498cd0" opacity="0.988"/><path d="M208.97684,70.27895c-0.97408,10.61818 -1.76198,21.25742 -2.36428,31.91769c-0.6945,0.87123 -1.28557,1.85595 -1.7732,2.95534c-1.59056,0.90197 -3.16635,1.69046 -4.72854,2.36428c0.14954,1.37542 -0.24471,2.55755 -1.18214,3.54641c-0.39425,-1.77321 -0.78789,-3.54641 -1.18213,-5.31961c-0.68919,-8.6621 -0.78789,-17.3313 -0.29554,-26.007c0.64663,-0.93264 1.13958,-1.91778 1.47767,-2.95534c2.19464,-2.19683 4.55891,-4.1671 7.09282,-5.91069c0.9132,-0.56264 1.89852,-0.75964 2.95535,-0.59107z" fill="#0380ed"/><path d="M196.56441,71.46109c-1.33936,2.99648 -1.93043,6.14882 -1.7732,9.45709c-0.83931,-3.30909 -0.74061,-6.6585 0.29554,-10.04816c0.20215,1.25259 0.6945,1.44966 1.47767,0.59107z" fill="#50719a" opacity="0.992"/><path d="M271.63008,70.87001c0.8736,-0.15486 1.66149,0.04215 2.36427,0.59107c-0.12354,0.34637 -0.32094,0.6419 -0.59107,0.8866c3.60965,0.2632 5.67839,2.13494 6.20622,5.61515c0.19682,-0.19701 0.39425,-0.39406 0.59107,-0.59107c0.95457,0.5238 1.84117,1.11487 2.6598,1.77321c0.83104,0.27963 1.22529,0.87071 1.18214,1.77321c-0.49532,0.20197 -0.69273,0.59603 -0.59107,1.18214c0.09871,8.67127 0,17.34017 -0.29553,26.00701c-0.20806,1.0326 -0.5036,2.0179 -0.88661,2.95534c-0.49532,0.20215 -0.69273,0.59579 -0.59106,1.18214c-0.28785,0.57511 -0.58339,1.16618 -0.88661,1.77321c-0.28431,-2.52031 -0.97349,-4.88459 -2.06874,-7.09282c-1.72651,-0.5361 -3.49971,-0.73292 -5.31961,-0.59107c0,-0.19683 0,-0.39424 0,-0.59107c0,-0.19683 0,-0.39424 0,-0.59107c-0.78731,-11.42003 -1.37837,-22.84721 -1.7732,-34.28196z" fill="#0371d3"/><path d="M191.83586,71.46109c-0.05675,3.47146 -0.45099,6.82087 -1.18214,10.04816c-0.1058,-3.48978 0.28844,-6.83919 1.18214,-10.04816z" fill="#59799d" opacity="0.565"/><path d="M208.97684,61.41293c0.59107,0 1.18213,0 1.7732,0c0.59107,0 1.18213,0 1.7732,0c-1.27907,14.55181 -2.26379,29.1315 -2.95534,43.73905c1.97003,0 3.94065,0 5.91069,0c0,0.19683 0,0.39424 0,0.59107c-1.18213,0 -2.36428,0 -3.54641,0c-1.7732,0 -3.54641,0 -5.31961,0c0,-1.18214 0,-2.36427 0,-3.54641c0.6023,-10.66027 1.3902,-21.2995 2.36428,-31.91769c0,-0.59107 0,-1.18213 0,-1.7732c1.05151,-0.69137 1.64258,-1.67651 1.7732,-2.95535c-0.91616,-1.20501 -1.50722,-2.58415 -1.7732,-4.13747z" fill="#0757a7"/><path d="M283.45144,82.10031c0.91143,0.47327 1.89615,0.67027 2.95534,0.59107c-0.23347,2.17808 -0.33218,4.34536 -0.29554,6.50176c0.19682,0.19701 0.39425,0.39406 0.59107,0.59107c0.07625,-1.47926 0.66732,-2.6614 1.77321,-3.54641c0.09871,0.49254 0.19682,0.98514 0.29553,1.47767c-0.77607,7.09932 -0.77607,14.19214 0,21.27846c-0.3505,1.11239 -1.13899,1.70346 -2.36427,1.7732c-1.36537,0.29376 -2.74433,0.39188 -4.13748,0.29554c0.38301,-0.93743 0.67855,-1.92274 0.88661,-2.95534c0.29553,-8.66684 0.39424,-17.33574 0.29553,-26.00701z" fill="#024991"/><path d="M212.52325,61.41293c0.98531,0 1.97003,0 2.95534,0c-1.91565,0.92573 -2.80226,2.50193 -2.65981,4.72854c-0.45039,12.84268 -1.337,25.64918 -2.65981,38.41944c1.7732,0 3.54641,0 5.31961,0c0,0.19683 0,0.39424 0,0.59106c-1.97003,0 -3.94065,0 -5.91069,0c0.69155,-14.60755 1.67628,-29.18724 2.95534,-43.73905z" fill="#0d76d6"/><path d="M279.31397,63.18613c5.4266,0.4978 8.48065,3.45314 9.16156,8.86603c0.58929,3.52342 0.98295,7.06982 1.18214,10.63922c0.29553,11.62277 0.39424,23.24731 0.29553,34.87303c-1.18214,0 -2.36427,0 -3.54641,0c-0.37297,-2.6202 -1.5551,-3.01444 -3.54641,-1.18213c0.19446,-1.61244 -0.19919,-2.99199 -1.18213,-4.13748c-0.10167,-0.58634 0.09575,-0.97999 0.59106,-1.18214c1.39315,0.09634 2.77211,-0.00177 4.13748,-0.29554c1.22528,-0.06974 2.01377,-0.66081 2.36427,-1.7732c-0.77607,-7.08632 -0.77607,-14.17914 0,-21.27846c-0.09871,-0.49254 -0.19682,-0.98514 -0.29553,-1.47767c-1.10589,0.88501 -1.69696,2.06714 -1.77321,3.54641c-0.19682,-0.19701 -0.39425,-0.39406 -0.59107,-0.59107c-0.03665,-2.1564 0.06207,-4.32367 0.29554,-6.50176c-1.05919,0.07921 -2.04392,-0.1178 -2.95534,-0.59107c-0.10167,-0.58611 0.09575,-0.98017 0.59107,-1.18214c1.93752,-5.22415 0.55856,-9.55863 -4.13747,-13.0035c0.59107,0 1.18214,0 1.77321,0c-0.16314,-1.90241 -0.95103,-3.47855 -2.36428,-4.72855z" fill="#1f4d86"/><path d="M198.92868,76.7807c-0.33809,1.03756 -0.83104,2.0227 -1.47767,2.95534c-0.49236,8.6757 -0.39365,17.3449 0.29554,26.007c0.39425,1.77321 0.78789,3.54641 1.18213,5.31961c0.93743,-0.98886 1.33168,-2.17099 1.18214,-3.54641c1.5622,-0.67382 3.13798,-1.46231 4.72854,-2.36428c0.48763,-1.09938 1.0787,-2.0841 1.7732,-2.95534c0,1.18214 0,2.36427 0,3.54641c-2.10243,0.54378 -4.07246,1.33168 -5.91069,2.36428c-0.04433,2.59892 0.2512,5.16003 0.88661,7.68389c1.79507,4.51872 3.27274,9.14914 4.43301,13.8901c0.50596,0.94276 1.29385,1.43512 2.36428,1.47767c1.84709,0.57865 3.81712,0.77607 5.91069,0.59107c-2.84008,0.58338 -5.79542,0.78081 -8.86603,0.59107c0,-0.98531 0,-1.97003 0,-2.95534c-1.27907,-0.13063 -2.26379,-0.72169 -2.95534,-1.7732c-0.3239,-1.25661 -0.71815,-2.43875 -1.18214,-3.54641c-0.83104,-4.42356 -2.01318,-8.75786 -3.54641,-13.00351c-0.2317,-0.99241 -0.52723,-1.97771 -0.8866,-2.95534c-0.09989,-9.16451 -0.39542,-18.22784 -0.88661,-27.18914c0.55147,-1.69648 1.53678,-3.07568 2.95534,-4.13748z" fill="#1679d4"/><path d="M200.11082,63.18613c0.4368,-0.07743 0.83104,0.0211 1.18213,0.29553c-2.13553,1.25313 -3.12084,3.1248 -2.95534,5.61515c-0.59816,0.81077 -1.18923,1.59884 -1.77321,2.36427c-0.78316,0.85859 -1.27552,0.66152 -1.47767,-0.59107c-1.03615,3.38966 -1.13485,6.73907 -0.29554,10.04816c0.39425,0 0.78789,0 1.18213,0c0.49118,8.9613 0.78672,18.02463 0.88661,27.18914c0.35937,0.97763 0.6549,1.96293 0.8866,2.95534c-1.94816,0.20983 -3.91819,-0.18441 -5.91068,-1.18213c-0.62417,-13.11876 -0.62417,-26.12233 0,-39.01051c0.96817,-4.43408 3.72669,-6.99535 8.27496,-7.68388z" fill="#08498d"/><path d="M229.66423,103.96984c-4.66412,0.47817 -9.39266,1.06924 -14.18564,1.7732c0,-0.19683 0,-0.39424 0,-0.59107c0,-0.19683 0,-0.39424 0,-0.59106c4.71377,-0.45867 9.44232,-0.65609 14.18564,-0.59107z" fill="#2a4f76"/><path d="M229.66423,103.96984c9.74967,-0.68682 19.60101,-0.78494 29.55342,-0.29554c3.72373,0.68623 7.46756,1.17859 11.2303,1.47767c0.98531,0 1.97003,0 2.95534,0c0,0.19683 0,0.39424 0,0.59107c-6.11815,-0.24766 -12.22566,-0.6419 -18.32312,-1.18213c-8.45464,-0.55029 -16.92642,-0.74711 -25.41593,-0.59107z" fill="#1e588d"/><path d="M255.08017,105.15198c5.92783,0.49532 11.83851,1.1845 17.73205,2.06874c5.59564,0.3966 6.87649,3.05642 3.84195,7.97943c-0.19682,1.97003 -0.39425,3.94065 -0.59107,5.91068c-1.73597,2.00017 -2.52445,4.36445 -2.36427,7.09282c-1.22292,0.45157 -2.50376,0.74712 -3.84194,0.88661c0.59107,0.19682 1.18214,0.39424 1.77321,0.59106c-1.47767,0.09871 -2.95535,0.19682 -4.43302,0.29554c-10.70956,-1.05506 -21.4475,-1.4493 -32.21322,-1.18213c5.32552,-9.0924 12.0241,-16.97371 20.09632,-23.64274z" fill="#1a1a1b"/><path d="M229.66423,103.96984c8.48952,-0.15604 16.96129,0.04078 25.41593,0.59107c0,0.19683 0,0.39424 0,0.59106c-8.07222,6.66903 -14.77079,14.55033 -20.09632,23.64274c-5.51998,-0.09812 -11.03702,0 -16.54991,0.29554c-3.22664,1.11712 -6.57622,1.51136 -10.04816,1.18213c-1.54151,-0.81449 -2.42811,-2.09534 -2.65981,-3.84194c-0.42971,-4.60265 -1.61185,-8.93754 -3.54641,-13.0035c-0.29376,-1.56396 -0.39247,-3.14035 -0.29554,-4.72855c0.59107,0 1.18214,0 1.77321,0c-0.09635,1.39315 0.00178,2.77211 0.29554,4.13748c0.62771,-1.49481 1.12007,-3.07119 1.47767,-4.72854c1.73952,-0.43976 3.51272,-0.73529 5.31961,-0.88661c0.74238,-0.24648 1.13662,-0.73884 1.18213,-1.47767c1.18213,0 2.36428,0 3.54641,0c4.79298,-0.70396 9.52152,-1.29503 14.18564,-1.7732z" fill="#444445"/><path d="M191.83586,70.87001c-0.62417,12.88818 -0.62417,25.89175 0,39.01051c1.99249,0.99773 3.96252,1.39196 5.91068,1.18213c1.53323,4.24564 2.71537,8.57995 3.54641,13.00351c-0.03664,3.41223 0.35701,6.76123 1.18214,10.04816c-0.39425,-0.19682 -0.78789,-0.39425 -1.18214,-0.59107c-0.23051,-1.97358 -0.52605,-3.9442 -0.8866,-5.91068c-0.22638,-0.32864 -0.52192,-0.52546 -0.88661,-0.59107c-0.62357,-3.61025 -1.51018,-7.15666 -2.65981,-10.63923c-1.02018,-0.63599 -2.10361,-0.7347 -3.25088,-0.29554c-0.649,0.45512 -0.649,0.94748 0,1.47767c-0.98531,0 -1.97003,0 -2.95534,0c0,-11.42713 0,-22.85483 0,-34.28196c0,-0.59107 0,-1.18213 0,-1.7732c0.73115,-3.22729 1.12539,-6.5767 1.18214,-10.04816c0,-0.19701 0,-0.39406 0,-0.59107z" fill="#0a417b"/><path d="M206.61257,105.74305c1.7732,0 3.54641,0 5.31961,0c-0.04551,0.73883 -0.43975,1.23119 -1.18213,1.47767c-1.80689,0.15131 -3.5801,0.44685 -5.31961,0.88661c-0.3576,1.65735 -0.84995,3.23373 -1.47767,4.72854c-0.29376,-1.36537 -0.39188,-2.74433 -0.29554,-4.13748c-0.59107,0 -1.18214,0 -1.77321,0c-0.09694,1.5882 0.00178,3.16459 0.29554,4.72855c1.93456,4.06596 3.1167,8.40085 3.54641,13.0035c0.2317,1.74661 1.1183,3.02745 2.65981,3.84194c3.47194,0.32923 6.82152,-0.06501 10.04816,-1.18213c5.51289,-0.29554 11.02993,-0.39365 16.54991,-0.29554c0,0.19682 0,0.39424 0,0.59106c-8.9074,0.04255 -17.77343,0.63363 -26.59807,1.77321c-1.07043,-0.04255 -1.85832,-0.53492 -2.36428,-1.47767c-1.16027,-4.74096 -2.63793,-9.37139 -4.43301,-13.8901c-0.6354,-2.52386 -0.93094,-5.08496 -0.88661,-7.68389c1.83822,-1.0326 3.80826,-1.82049 5.91069,-2.36428z" fill="#354a5f"/><path d="M190.65372,83.28245c0,11.42713 0,22.85483 0,34.28196c0.98531,0 1.97003,0 2.95534,0c0.58871,-0.05083 1.08107,0.14659 1.47767,0.59107c0.45217,0.92561 0.35346,1.71351 -0.29554,2.36428c0.0136,-1.54919 -0.77489,-2.33768 -2.36427,-2.36428c-2.74847,0.49118 -5.50698,0.88542 -8.27496,1.18214c1.77616,-1.05033 3.7462,-1.6414 5.91069,-1.77321c-0.19505,-11.52997 0.00177,-22.95768 0.59106,-34.28196z" fill="#4273aa"/><path d="M273.40329,106.33412c1.8199,-0.14186 3.5931,0.05496 5.31961,0.59107c1.09525,2.20823 1.78443,4.57251 2.06874,7.09282c0.30322,-0.60702 0.59876,-1.1981 0.88661,-1.77321c0.98294,1.14549 1.37659,2.52505 1.18213,4.13748c-0.94157,0.50123 -1.63135,1.28912 -2.06874,2.36427c-0.55678,2.34536 -1.04915,4.70964 -1.47767,7.09282c-0.32923,1.08284 -0.9203,1.87073 -1.77321,2.36427c0.81509,-2.92579 1.30744,-5.88113 1.47767,-8.86603c-1.25838,1.93102 -2.34181,3.90165 -3.25088,5.91069c0.74652,-5.02703 1.92865,-9.953 3.54641,-14.77671c0.06502,-1.10766 -0.32863,-1.99426 -1.18214,-2.65981c-1.62603,-0.55737 -3.20182,-1.04973 -4.72854,-1.47767z" fill="#0f60ac"/><path d="M194.7912,120.51976c-1.38664,0.60466 -2.76561,1.19573 -4.13748,1.7732c-0.24648,-0.36883 -0.64072,-0.56565 -1.18213,-0.59107c-2.05101,1.03083 -4.21846,1.62189 -6.50175,1.7732c-0.19742,-1.58879 0.19624,-2.96775 1.18214,-4.13748c2.76798,-0.29672 5.52649,-0.69096 8.27496,-1.18214c1.58938,0.0266 2.37787,0.81509 2.36427,2.36428z" fill="#096fcf"/><path d="M286.40679,117.56441c1.18214,0 2.36427,0 3.54641,0c2.46653,0.32154 4.8308,1.01073 7.09282,2.06874c1.70227,2.09416 1.50545,3.96607 -0.59107,5.61515c-2.11602,-0.96049 -4.28288,-1.74898 -6.50175,-2.36428c-1.54032,-0.57689 -2.91929,-1.46348 -4.13748,-2.6598c-0.49473,-0.59757 -0.69155,-1.28735 -0.59107,-2.06874c0.20214,-0.49532 0.5958,-0.69273 1.18214,-0.59107z" fill="#2472c7"/><path d="M184.15197,119.33762c-0.9859,1.16972 -1.37955,2.54869 -1.18214,4.13748c2.2833,-0.15131 4.45075,-0.74238 6.50175,-1.7732c0.54142,0.02541 0.93566,0.22224 1.18213,0.59107c0,0.19683 0,0.39424 0,0.59107c-0.19682,0 -0.39424,0 -0.59106,0c-2.35777,0.89311 -4.72205,1.58288 -7.09282,2.06874c-1.14903,-1.27257 -1.44458,-2.75024 -0.88661,-4.43301c0.48231,-0.78199 1.17209,-1.17564 2.06874,-1.18214z" fill="#3e7cbe"/><path d="M199.51975,127.02151c0.36469,0.06561 0.66022,0.26243 0.88661,0.59107c0.36055,1.96648 0.65608,3.9371 0.8866,5.91068c0.11053,2.87082 0.60289,5.62933 1.47767,8.27496c0.29554,7.68152 0.39425,15.36541 0.29554,23.05166c-2.68759,0.6951 -5.3474,0.6951 -7.97942,0c-0.29554,-13.39597 -0.39425,-26.79372 -0.29554,-40.19264c0.78139,0.10048 1.47117,-0.09634 2.06874,-0.59107c0.8074,1.10057 1.694,2.08529 2.65981,2.95534z" fill="#191a1b"/><path d="M199.51975,127.02151c-0.9658,-0.87005 -1.85241,-1.85477 -2.65981,-2.95534c-0.59757,0.49473 -1.28735,0.69155 -2.06874,0.59107c-0.09871,13.39892 0,26.79667 0.29554,40.19265c2.63202,0.6951 5.29183,0.6951 7.97942,0c-0.34932,0.38478 -0.74297,0.77903 -1.18214,1.18214c-2.73074,0.58693 -5.48866,0.78435 -8.27496,0.59107c0,-14.97353 0,-29.94765 0,-44.92119c0.59107,-0.19683 0.98531,-0.59107 1.18214,-1.18214c0.649,-0.65077 0.7477,-1.43866 0.29554,-2.36428c-0.3966,-0.44449 -0.88897,-0.6419 -1.47767,-0.59107c-0.649,-0.53019 -0.649,-1.02254 0,-1.47767c1.14727,-0.43917 2.23069,-0.34046 3.25088,0.29554c1.14963,3.48257 2.03623,7.02898 2.65981,10.63923z" fill="#121c2a"/><path d="M285.81572,122.29296c0.19092,14.62362 -0.00591,29.2035 -0.59107,43.73905c-2.48367,0.18737 -4.84795,-0.01005 -7.09282,-0.59107c-0.67913,-8.62487 -0.77725,-17.29406 -0.29553,-26.007c1.63489,-4.84144 2.91515,-9.7674 3.84195,-14.77671c0.50536,-2.51559 1.88432,-3.30348 4.13747,-2.36427z" fill="#191a1b"/><path d="M286.40679,117.56441c-0.58634,-0.10166 -0.97999,0.09575 -1.18214,0.59107c-0.3777,0.35287 -0.57452,0.84522 -0.59107,1.47767c0.10875,0.81331 0.503,1.30567 1.18214,1.47767c0,0.39424 0,0.78789 0,1.18214c-2.25315,-0.93921 -3.63211,-0.15131 -4.13747,2.36427c-0.9268,5.00931 -2.20705,9.93527 -3.84195,14.77671c-0.48172,8.71294 -0.3836,17.38214 0.29553,26.007c-0.39425,0 -0.78789,0 -1.18214,0c-0.67913,-8.82228 -0.77784,-17.68831 -0.29553,-26.59807c1.17622,-3.13266 2.35837,-6.28483 3.54641,-9.4571c0.46458,-4.44011 1.35118,-8.7744 2.6598,-13.0035c1.99131,-1.83231 3.17345,-1.43807 3.54641,1.18213z" fill="#0e1e30"/><path d="M285.81572,121.11082c0.36469,0.06561 0.66022,0.26243 0.8866,0.59107c0.29553,15.16977 0.39425,30.34013 0.29554,45.51226c-3.34958,0 -6.69858,0 -10.04817,0c0,-0.59107 0,-1.18213 0,-1.7732c0.39425,0 0.78789,0 1.18214,0c2.24487,0.58102 4.60915,0.77844 7.09282,0.59107c0.78731,-7.08159 1.18155,-14.37183 1.18214,-21.86953c0,-7.39131 -0.19682,-14.68095 -0.59107,-21.86953c0,-0.39424 0,-0.78789 0,-1.18214z" fill="#0b365c"/><path d="M255.08017,105.15198c0,-0.19683 0,-0.39424 0,-0.59106c6.09746,0.54023 12.20497,0.93447 18.32312,1.18213c0,0.19683 0,0.39424 0,0.59107c1.52673,0.42794 3.10251,0.9203 4.72854,1.47767c0.8535,0.66554 1.24716,1.55215 1.18214,2.65981c-1.61775,4.82371 -2.79989,9.74967 -3.54641,14.77671c-0.64367,2.37019 -1.82581,4.43892 -3.54641,6.20621c-5.08437,-0.54556 -10.20716,-0.84109 -15.36777,-0.8866c-1.05919,-0.47817 -2.24133,-0.77371 -3.54641,-0.88661c-6.10456,-0.29554 -12.21206,-0.39365 -18.32312,-0.29554c0,-0.19682 0,-0.39424 0,-0.59106c10.76572,-0.26717 21.50366,0.12708 32.21322,1.18213c1.47767,-0.09871 2.95535,-0.19682 4.43302,-0.29554c-0.59107,-0.19682 -1.18214,-0.39424 -1.77321,-0.59106c1.33818,-0.13949 2.61902,-0.43503 3.84194,-0.88661c-0.16018,-2.72837 0.6283,-5.09265 2.36427,-7.09282c0.19682,-1.97003 0.39425,-3.94065 0.59107,-5.91068c3.03454,-4.92301 1.7537,-7.58282 -3.84195,-7.97943c-5.89354,-0.88424 -11.80422,-1.57343 -17.73205,-2.06874z" fill="#0c2036"/><path d="M194.7912,120.51976c-0.19682,0.59107 -0.59107,0.98531 -1.18214,1.18214c-0.58989,14.2808 -0.78671,28.66326 -0.59107,43.14798c-0.59107,0 -1.18214,0 -1.77321,0c0.16668,-14.00181 -0.03015,-27.99004 -0.59107,-41.96585c0,-0.19683 0,-0.39424 0,-0.59107c1.37187,-0.57748 2.75084,-1.16854 4.13748,-1.7732z" fill="#0c4588"/><path d="M234.98385,129.38578c6.11105,-0.09812 12.21856,0 18.32312,0.29554c1.30508,0.1129 2.48721,0.40843 3.54641,0.88661c-10.73558,-0.62713 -21.3748,-0.62713 -31.91769,0c-1.51254,-0.17851 -2.89209,0.01891 -4.13747,0.59107c-2.20705,-0.10462 -4.37449,0.09221 -6.50175,0.59107c-2.09357,0.185 -4.06359,-0.01241 -5.91069,-0.59107c8.82465,-1.13958 17.69067,-1.73065 26.59807,-1.77321z" fill="#2066a5"/><path d="M277.54076,128.20364c-0.44567,2.46948 -1.23356,4.83375 -2.36427,7.09282c-0.39306,-1.1047 -0.78671,-2.28684 -1.18214,-3.54641c-3.33776,0.76189 -6.68676,0.76189 -10.04816,0c-1.50486,1.44635 -3.08124,1.54505 -4.72854,0.29554c0.98531,-0.19682 1.97003,-0.39425 2.95534,-0.59107c-12.41539,-0.24411 -24.82782,-0.53964 -37.2373,-0.8866c10.54289,-0.62713 21.18211,-0.62713 31.91769,0c5.16062,0.04551 10.28341,0.34104 15.36777,0.8866c1.7206,-1.76729 2.90274,-3.83603 3.54641,-6.20621c0.90906,-2.00904 1.99249,-3.97966 3.25088,-5.91069c-0.17023,2.98489 -0.66259,5.94024 -1.47767,8.86603z" fill="#0e6ec5"/><path d="M202.47509,127.61258c0.69155,1.05151 1.67628,1.64257 2.95534,1.7732c0,0.98531 0,1.97003 0,2.95534c3.0706,0.18974 6.02594,-0.00769 8.86603,-0.59107c2.12725,-0.49886 4.2947,-0.69569 6.50175,-0.59107c1.7732,0 3.54641,0 5.31961,0c-2.2632,18.67953 -2.85427,37.3963 -1.7732,56.15149c-0.99063,1.13663 -1.18805,2.51559 -0.59107,4.13748c-3.96016,0.19505 -7.90022,-0.00178 -11.82137,-0.59107c-1.76198,-0.65727 -3.43647,-1.44575 -5.02408,-2.36427c-0.0993,-15.07402 -0.39484,-30.04814 -0.88661,-44.92119c-0.57984,-5.46029 -1.76197,-10.7799 -3.54641,-15.95884z" fill="#027fee"/><path d="M220.79821,131.15898c1.24538,-0.57216 2.62493,-0.76957 4.13747,-0.59107c12.40948,0.34696 24.82191,0.64249 37.2373,0.8866c-0.98531,0.19682 -1.97003,0.39425 -2.95534,0.59107c1.64731,1.24952 3.22368,1.15081 4.72854,-0.29554c3.3614,0.76189 6.7104,0.76189 10.04816,0c0.39542,1.25957 0.78908,2.44171 1.18214,3.54641c0,0.39425 0,0.78789 0,1.18214c-1.78384,-1.16027 -3.75387,-1.4558 -5.91068,-0.8866c1.2702,0.68801 2.55046,1.37719 3.84195,2.06874c0.56861,2.55283 0.17436,4.9171 -1.18214,7.09282c-0.65609,-0.90847 -1.54269,-1.30213 -2.65981,-1.18214c0.19741,-1.76789 -0.39365,-3.14684 -1.77321,-4.13747c-0.18973,-0.91497 -0.7808,-1.30922 -1.7732,-1.18214c-0.52783,16.46302 -0.82336,33.01294 -0.88661,49.64974c2.35127,1.0054 4.22319,0.41434 5.61515,-1.77321c-0.58456,-13.37055 -0.78198,-26.7683 -0.59107,-40.19264c0.98531,0 1.97003,0 2.95534,0c-0.19565,12.90893 0.00178,25.71502 0.59107,38.41944c0.33396,2.85013 -0.0597,5.50994 -1.18214,7.97942c-21.57517,0.09871 -43.05105,0.39425 -64.42644,0.88661c-0.19682,0 -0.39424,0 -0.59107,0c-1.17741,-16.34126 -1.57107,-32.89118 -1.18214,-49.64974c0.49177,14.87305 0.78731,29.84717 0.88661,44.92119c1.58761,0.91852 3.2621,1.707 5.02408,2.36427c3.92114,0.58929 7.86121,0.78612 11.82137,0.59107c-0.59698,-1.62189 -0.39956,-3.00085 0.59107,-4.13748c-1.08106,-18.75519 -0.49,-37.47196 1.7732,-56.15149c-1.7732,0 -3.54641,0 -5.31961,0z" fill="#0072d5"/><path d="M285.81572,122.29296c0.39425,7.18858 0.59107,14.47822 0.59107,21.86953c-0.00059,7.4977 -0.39483,14.78794 -1.18214,21.86953c0.58516,-14.53555 0.78198,-29.11543 0.59107,-43.73905z" fill="#0d1b2b"/><path d="M212.52325,138.2518c0,16.35308 0,32.70559 0,49.05867c0.59107,0 1.18214,0 1.77321,0c0,-16.35308 0,-32.70559 0,-49.05867c0.96463,0.19209 1.55569,0.78316 1.7732,1.7732c0.23288,2.59124 0.82395,5.05423 1.7732,7.38836c-0.61885,0.993 -1.0125,2.07701 -1.18214,3.25087c1.02255,11.19247 1.5155,22.42277 1.47767,33.6909c0.54674,0.32332 1.0391,0.71696 1.47768,1.18213c-2.59065,0.847 -5.15176,1.63549 -7.68389,2.36428c0,-1.37896 0,-2.75852 0,-4.13748c-0.59107,0 -1.18213,0 -1.7732,0c-0.04906,-14.19923 0.04965,-28.38487 0.29554,-42.55691c-0.60407,-0.50477 -1.09643,-1.09584 -1.47767,-1.7732c1.06628,-0.74947 2.24842,-1.14372 3.54641,-1.18214z" fill="#067ee6"/><path d="M275.17649,136.4786c0,0.98531 0,1.97003 0,2.95534c-0.73174,1.01309 -1.12599,2.19523 -1.18214,3.54641c-0.58988,13.68974 -0.78671,27.48113 -0.59107,41.37478c-0.58929,-12.70442 -0.78672,-25.51051 -0.59107,-38.41944c-0.98531,0 -1.97003,0 -2.95534,0c-0.19092,13.42434 0.0065,26.82209 0.59107,40.19265c-1.39197,2.18755 -3.26388,2.77861 -5.61515,1.77321c0.06324,-16.6368 0.35878,-33.18672 0.88661,-49.64974c0,16.35308 0,32.70559 0,49.05867c0.59107,0 1.18213,0 1.7732,0c0,-15.95884 0,-31.91769 0,-47.87653c1.37955,0.99063 1.97062,2.36959 1.77321,4.13747c1.11712,-0.11999 2.00372,0.27367 2.65981,1.18214c1.3565,-2.17572 1.75075,-4.54 1.18214,-7.09282c-1.29149,-0.69155 -2.57174,-1.38073 -3.84195,-2.06874c2.15681,-0.5692 4.12684,-0.27366 5.91068,0.8866z" fill="#046fcb"/><path d="M282.86037,116.38228c-1.30863,4.2291 -2.19522,8.56339 -2.6598,13.0035c-1.18804,3.17227 -2.37019,6.32444 -3.54641,9.4571c-0.48231,8.90976 -0.3836,17.77579 0.29553,26.59807c0,0.59107 0,1.18213 0,1.7732c-0.76248,-0.32981 -1.25484,-0.92088 -1.47767,-1.7732c-0.29553,-8.66683 -0.39424,-17.33603 -0.29553,-26.007c0,-0.98531 0,-1.97003 0,-2.95534c0,-0.39425 0,-0.78789 0,-1.18214c1.13072,-2.25906 1.91861,-4.62333 2.36427,-7.09282c0.85291,-0.49354 1.44398,-1.28144 1.77321,-2.36427c0.42852,-2.38318 0.92088,-4.74746 1.47767,-7.09282c0.43739,-1.07515 1.12717,-1.86305 2.06874,-2.36427z" fill="#0c457d"/><path d="M212.52325,138.2518c0.59107,0 1.18214,0 1.77321,0c0,16.35308 0,32.70559 0,49.05867c-0.59107,0 -1.18214,0 -1.77321,0c0,-16.35308 0,-32.70559 0,-49.05867z" fill="#004ca2"/><path d="M201.29295,133.52326c0.39425,0.19682 0.78789,0.39425 1.18214,0.59107c0,0.78789 0,1.57638 0,2.36427c-0.07566,1.27375 0.21988,2.45589 0.88661,3.54641c0.48881,8.37721 0.39069,16.65217 -0.29554,24.82487c0.09871,-7.68625 0,-15.37014 -0.29554,-23.05166c-0.87478,-2.64562 -1.36714,-5.40413 -1.47767,-8.27496z" fill="#0a2134"/><path d="M201.29295,124.06617c0.46399,1.10766 0.85823,2.2898 1.18214,3.54641c1.78444,5.17894 2.96657,10.49855 3.54641,15.95884c-0.38893,16.75856 0.00473,33.30848 1.18214,49.64974c-1.46821,0.51364 -3.04459,0.90788 -4.72855,1.18213c-0.71696,0.14599 -1.11121,0.54023 -1.18214,1.18213c-0.78789,0 -1.57638,0 -2.36427,0c-1.92097,0.28963 -3.59547,0.68387 -5.02408,1.18214c-0.94867,-0.35523 -1.73656,-0.9463 -2.36427,-1.7732c-0.17496,-6.90072 0.02187,-13.79612 0.59107,-20.68739c0.11348,5.74164 0.40902,11.4549 0.88661,17.14098c2.53864,0.68623 5.10032,0.78494 7.68388,0.29554c1.60238,-0.74534 2.88323,-1.82877 3.84195,-3.25088c-0.05851,-5.31016 -0.25534,-10.62977 -0.59106,-15.95884c-0.29554,-0.29554 -0.59107,-0.59107 -0.88661,-0.8866c0.92266,-0.5562 1.71114,-1.24598 2.36427,-2.06874c-2.84068,-0.97822 -5.79602,-1.47057 -8.86603,-1.47767c2.52623,-0.5225 4.98921,-1.21228 7.38836,-2.06874c0.39425,-9.06285 0.39425,-18.12629 0,-27.18914c-0.55206,-0.80267 -1.04502,-1.59116 -1.47768,-2.36427c0,-0.78789 0,-1.57638 0,-2.36427c-0.82513,-3.28693 -1.21878,-6.63593 -1.18214,-10.04816z" fill="#03498d"/><path d="M265.7194,138.2518c0.99241,-0.12708 1.58347,0.26717 1.7732,1.18214c0,15.95884 0,31.91769 0,47.87653c-0.59107,0 -1.18213,0 -1.7732,0c0,-16.35308 0,-32.70559 0,-49.05867z" fill="#004d97"/><path d="M193.60907,121.70189c0,14.97354 0,29.94765 0,44.92119c2.78629,0.19328 5.54422,-0.00414 8.27496,-0.59107c0.43917,-0.40311 0.83282,-0.79735 1.18214,-1.18214c0.68623,-8.1727 0.78435,-16.44766 0.29554,-24.82487c-0.66673,-1.09052 -0.96226,-2.27266 -0.88661,-3.54641c0.43266,0.77311 0.92561,1.5616 1.47768,2.36427c0.39425,9.06285 0.39425,18.12629 0,27.18914c-2.39915,0.85646 -4.86213,1.54623 -7.38836,2.06874c3.07001,0.00709 6.02535,0.49945 8.86603,1.47767c-0.65313,0.82277 -1.44161,1.51255 -2.36427,2.06874c0.29554,0.29554 0.59107,0.59107 0.88661,0.8866c0.33572,5.32907 0.53255,10.64868 0.59106,15.95884c-0.95872,1.42211 -2.23956,2.50554 -3.84195,3.25088c-2.58356,0.48941 -5.14524,0.39069 -7.68388,-0.29554c-0.47759,-5.68607 -0.77312,-11.39934 -0.88661,-17.14098c-0.5692,6.89127 -0.76602,13.78667 -0.59107,20.68739c0.62771,0.82691 1.4156,1.41797 2.36427,1.7732c1.42861,-0.49827 3.10311,-0.89252 5.02408,-1.18214c-0.26775,0.56625 -0.66141,1.0592 -1.18213,1.47767c-1.49895,0.10994 -2.87791,0.40547 -4.13748,0.88661c-1.78385,-0.50418 -2.86728,-1.68632 -3.25088,-3.54641c-0.29554,-23.83896 -0.39424,-47.67853 -0.29553,-71.51926c0.19682,0 0.39424,0 0.59106,0c0.56092,13.97581 0.75775,27.96404 0.59107,41.96585c0.59107,0 1.18214,0 1.77321,0c-0.19565,-14.48472 0.00118,-28.86719 0.59107,-43.14798z" fill="#18467a"/><path d="M194.20013,190.85688c-0.58752,-5.60688 -0.78435,-11.32014 -0.59107,-17.14098c3.34958,0 6.69858,0 10.04816,0c0.09812,5.12634 0,10.24912 -0.29554,15.36777c-1.82581,0.32568 -3.5003,1.01486 -5.02408,2.06874c-1.50072,0.47049 -2.87969,0.37178 -4.13748,-0.29554z" fill="#0a1f33"/><path d="M194.20013,190.85688c0,-5.51644 0,-11.03347 0,-16.54991c2.79753,-0.16372 5.55604,0.03369 8.27496,0.59106c0.68859,4.51871 0.78672,9.05043 0.29554,13.59457c-1.22292,0.45157 -2.50377,0.74712 -3.84195,0.88661c-1.28203,1.30212 -2.85781,1.79448 -4.72854,1.47767z" fill="#191a1a"/><path d="M285.22465,118.15548c-0.10048,0.78139 0.09634,1.47117 0.59107,2.06874c1.21819,1.19632 2.59715,2.08292 4.13748,2.6598c0.09871,23.84074 0,47.6803 -0.29553,71.51927c-0.3836,1.86009 -1.46703,3.04223 -3.25088,3.54641c-0.20214,-0.49532 -0.5958,-0.69273 -1.18214,-0.59107c0,-0.19682 0,-0.39424 0,-0.59107c1.1514,-0.37296 2.23483,-0.96403 3.25088,-1.7732c0.49236,-7.69157 0.39365,-15.37546 -0.29554,-23.05167c-0.20451,6.7169 -0.79558,13.21866 -1.7732,19.50526c0,-5.91069 0,-11.82136 0,-17.73205c-3.26625,-0.18974 -6.41901,0.00709 -9.4571,0.59107c-0.77785,4.84972 -0.77785,9.77508 0,14.7767c2.92047,1.69577 6.07264,2.6805 9.4571,2.95534c-0.07093,0.6419 -0.46517,1.03615 -1.18214,1.18214c-2.48012,-0.96522 -5.04122,-1.6544 -7.68389,-2.06874c-0.84582,-0.27484 -1.53501,-0.76779 -2.06874,-1.47767c-0.29553,-5.51289 -0.39365,-11.02993 -0.29553,-16.54991c2.18282,-0.44153 2.18282,-1.22942 0,-2.36427c-0.65845,-0.72287 -0.75716,-1.51077 -0.29553,-2.36427c0.91734,0.28903 1.60711,-0.10521 2.06874,-1.18214c3.34958,0 6.69858,0 10.04817,0c0.09871,-15.17213 0,-30.34249 -0.29554,-45.51226c-0.22638,-0.32864 -0.52191,-0.52546 -0.8866,-0.59107c-0.67913,-0.172 -1.07338,-0.66436 -1.18214,-1.47767c0.01655,-0.63245 0.21337,-1.1248 0.59107,-1.47767z" fill="#15477f"/><path d="M275.17649,139.43394c-0.09871,8.67097 0,17.34017 0.29553,26.007c0.22283,0.85232 0.71519,1.44339 1.47767,1.7732c-0.46163,1.07692 -1.15139,1.47117 -2.06874,1.18214c-0.46163,0.85351 -0.36292,1.6414 0.29553,2.36427c2.18282,1.13485 2.18282,1.92274 0,2.36427c-0.09812,5.51998 0,11.03702 0.29553,16.54991c0.53373,0.70988 1.22292,1.20282 2.06874,1.47767c2.64267,0.41434 5.20377,1.10353 7.68389,2.06874c0.71697,-0.14599 1.11121,-0.54024 1.18214,-1.18214c0,-0.19682 0,-0.39424 0,-0.59107c0.97762,-6.2866 1.56869,-12.78835 1.7732,-19.50526c0.68919,7.67621 0.7879,15.3601 0.29554,23.05167c-1.01605,0.80917 -2.09947,1.40024 -3.25088,1.7732c-4.1097,-0.88719 -8.04976,-2.06933 -11.82137,-3.54641c0.58988,-16.64567 0.78671,-33.39241 0.59107,-50.24081c0.05615,-1.35118 0.45039,-2.53332 1.18214,-3.54641z" fill="#04498c"/><path d="M286.40679,191.44795c0,0.19682 0,0.39424 0,0.59107c-3.38446,-0.27484 -6.53663,-1.25957 -9.4571,-2.95534c-0.77785,-5.00162 -0.77785,-9.92699 0,-14.7767c3.03809,-0.58398 6.19085,-0.78081 9.4571,-0.59107c0,5.91069 0,11.82136 0,17.73205z" fill="#161b27"/><path d="M276.94969,174.30697c2.98312,-0.09635 5.93847,0.10107 8.86603,0.59106c-1.31336,3.08301 -2.29867,7.02367 -2.95534,11.82137c0.56388,1.05565 1.05624,2.04096 1.47767,2.95534c-0.42852,0.33041 -0.92089,0.52723 -1.47767,0.59106c-1.65854,-0.92443 -3.43174,-1.31808 -5.31961,-1.18213c-0.43739,-4.91296 -0.63422,-9.83892 -0.59107,-14.7767z" fill="#19191b"/><path d="M273.99435,142.98035c0.19565,16.8484 -0.00118,33.59514 -0.59107,50.24081c-21.86953,0 -43.73906,0 -65.60858,0c21.37539,-0.49236 42.85127,-0.78789 64.42644,-0.88661c1.12244,-2.46948 1.5161,-5.12929 1.18214,-7.97942c-0.19565,-13.89365 0.00118,-27.68505 0.59107,-41.37478z" fill="#055daa"/><path d="M207.20364,193.22116c0.19682,0 0.39424,0 0.59107,0c21.86953,0 43.73906,0 65.60858,0c3.77161,1.47708 7.71167,2.65921 11.82137,3.54641c0,0.19682 0,0.39424 0,0.59107c-2.56878,0.09812 -5.12989,-0.00059 -7.68389,-0.29554c0.19682,-0.19682 0.39425,-0.39424 0.59107,-0.59107c-0.59107,-0.29554 -1.18213,-0.59107 -1.7732,-0.88661c-1.30153,0.75656 -2.58179,0.75656 -3.84195,0c-1.05151,0.89665 -0.75598,1.3896 0.8866,1.47767c-7.09282,0.39425 -14.18564,0.39425 -21.27846,0c0.78789,-0.19682 1.57638,-0.39424 2.36427,-0.59107c-0.9463,-0.16136 -1.8329,-0.4569 -2.65981,-0.88661c-5.51644,0 -11.03348,0 -16.54991,0c-1.61598,0.5095 -1.71468,1.00186 -0.29553,1.47767c-8.86603,0.39425 -17.73205,0.39425 -26.59807,0c0.59107,-0.19682 1.18213,-0.39424 1.7732,-0.59107c-0.19682,-0.19682 -0.39425,-0.39425 -0.59107,-0.59107c-3.09779,-0.11408 -5.8563,-0.21278 -8.27496,-0.29554c0.07093,-0.6419 0.46517,-1.03614 1.18214,-1.18213c1.68395,-0.27426 3.26033,-0.66849 4.72855,-1.18213z" fill="#013469"/><path d="M198.92868,195.58543c0.78789,0 1.57638,0 2.36427,0c2.41865,0.08275 5.17717,0.18146 8.27496,0.29554c0.19682,0.19682 0.39425,0.39425 0.59107,0.59107c-0.59107,0.19682 -1.18213,0.39424 -1.7732,0.59107c8.86603,0.39425 17.73205,0.39425 26.59807,0c-1.41915,-0.47581 -1.32045,-0.96817 0.29553,-1.47767c5.51644,0 11.03348,0 16.54991,0c0.82691,0.42971 1.7135,0.72525 2.65981,0.88661c-0.78789,0.19682 -1.57638,0.39424 -2.36427,0.59107c7.09282,0.39425 14.18564,0.39425 21.27846,0c-1.64258,-0.08807 -1.93811,-0.58102 -0.8866,-1.47767c1.26016,0.75656 2.54041,0.75656 3.84195,0c0.59107,0.29554 1.18213,0.59107 1.7732,0.88661c-0.19682,0.19682 -0.39425,0.39424 -0.59107,0.59107c2.55401,0.29495 5.11511,0.39365 7.68389,0.29554c0.58634,-0.10166 0.97999,0.09575 1.18214,0.59107c-0.41906,0.53432 -1.01013,0.73116 -1.77321,0.59107c-0.19682,0 -0.39425,0 -0.59107,0c-29.39855,-0.19387 -58.75514,0.00295 -88.06917,0.59106c-0.88365,-0.28903 -1.67213,-0.68268 -2.36427,-1.18213c1.25957,-0.48113 2.63853,-0.77667 4.13748,-0.88661c0.52073,-0.41848 0.91438,-0.91143 1.18213,-1.47767z" fill="#09345c"/><path d="M284.04251,198.54077c0.0396,0.86237 -0.15722,1.65026 -0.59107,2.36427c-0.19682,0 -0.39425,0 -0.59107,0c-28.86186,-0.59047 -57.82421,-0.7873 -86.88704,-0.59107c0,-0.39425 0,-0.78789 0,-1.18214c29.31403,-0.58811 58.67062,-0.78493 88.06918,-0.59106z" fill="#020a19"/><path d="M195.38227,200.90504c0.31741,23.05226 0.71106,46.10392 1.18214,69.15499c0.00059,6.90782 0.39483,13.6064 1.18214,20.09633c-0.17436,1.32104 0.02305,2.50317 0.59107,3.54641c0.50063,0.86651 1.28852,1.35945 2.36427,1.47767c26.30372,0.49118 52.50756,0.39306 78.61209,-0.29553c1.80099,0.38124 3.08124,-0.20983 3.84195,-1.77321c0.67323,-30.77456 1.363,-61.51011 2.06874,-92.20665c2.17631,-0.45808 3.65398,0.33041 4.43301,2.36427c0.03428,29.96125 -0.55678,59.90891 -1.77321,89.84238c-1.69991,5.24041 -5.34503,7.60469 -10.93477,7.09282c0.16787,-1.13189 -0.02896,-2.11662 -0.59106,-2.95534c-0.19682,0 -0.39425,0 -0.59107,0c-1.32576,-0.77548 -2.90215,-1.16913 -4.72854,-1.18214c-1.57638,0.09871 -3.15217,0.19683 -4.72854,0.29554c-0.32864,0.22638 -0.52546,0.52191 -0.59107,0.8866c-1.42507,0.60111 -2.41038,1.58643 -2.95534,2.95534c-15.17568,0.19682 -30.34663,0 -45.51226,-0.59107c-0.29849,-0.83873 -0.88956,-1.23237 -1.7732,-1.18214c0,-0.19682 0,-0.39425 0,-0.59107c-1.73065,-0.78021 -3.70068,-1.17386 -5.91069,-1.18214c-1.97003,0.09871 -3.94065,0.19683 -5.91068,0.29554c-0.53551,1.00423 -0.73234,2.08825 -0.59107,3.25088c-0.59107,0 -1.18214,0 -1.77321,0c-6.9752,-0.70632 -10.22607,-4.64639 -9.75262,-11.82137c-0.68091,-28.37068 -1.07457,-56.74196 -1.18214,-85.11383c0.99122,-2.09888 2.66572,-2.88678 5.02408,-2.36427z" fill="#3d3836"/><path d="M283.45144,212.13534c0.19682,0 0.39424,0 0.59107,0c-0.86118,26.41366 -1.45226,52.8149 -1.77321,79.20315c0,-7.28965 0,-14.57988 0,-21.86952c0,-13.00351 0,-26.00701 0,-39.01051c0.36469,-0.06561 0.66023,-0.26243 0.88661,-0.59106c0.29553,-5.90714 0.39365,-11.81782 0.29553,-17.73205z" fill="#143858"/><path d="M198.33761,269.46897c0.21101,-1.23474 0.60466,-2.41688 1.18213,-3.54641c0.46872,0.25475 0.96166,0.45217 1.47767,0.59107c1.41266,-0.45985 2.6935,-1.14963 3.84195,-2.06874c0.05733,-8.10473 -0.04078,-16.28157 -0.29554,-24.52934c-0.77489,6.40836 -1.16913,12.91011 -1.18213,19.50525c-0.19682,-0.19682 -0.39425,-0.39424 -0.59107,-0.59107c-0.27544,-7.69394 -0.27544,-15.37783 0,-23.05167c-0.30677,-0.60053 -0.79972,-0.99418 -1.47767,-1.18214c-0.80562,0.41257 -1.49481,0.41257 -2.06874,0c-0.29258,-1.16618 -0.39129,-2.34832 -0.29554,-3.54641c1.84059,0.34932 3.31826,1.33463 4.43302,2.95534c0.19682,-0.19682 0.39425,-0.39424 0.59107,-0.59106c0.29554,-8.86366 0.39424,-17.72969 0.29553,-26.59808c0.59107,0 1.18213,0 1.7732,0c0,27.38597 0,54.77253 0,82.15849c-0.59107,0 -1.18213,0 -1.7732,0c0.09871,-7.68625 0.00001,-15.37014 -0.29553,-23.05166c-1.80335,1.31453 -3.67468,2.49668 -5.61515,3.54641z" fill="#003668"/><path d="M282.2693,230.45846c0,13.0035 0,26.00701 0,39.01051c-2.51795,-0.27366 -4.48798,-1.4558 -5.91068,-3.54641c-0.35878,0.07329 -0.55561,0.27012 -0.59107,0.59107c-0.78731,-5.30484 -1.18096,-10.82187 -1.18214,-16.54991c0.09871,-5.51644 0.19682,-11.03347 0.29553,-16.54991c0.16431,0.54142 0.45985,0.93507 0.8866,1.18213c1.70168,-2.09297 3.86913,-3.47194 6.50175,-4.13748z" fill="#013561"/><path d="M196.56441,230.45846c0.52664,0.36055 1.11771,0.55738 1.77321,0.59107c0.19682,0 0.39424,0 0.59106,0c-0.09575,1.19809 0.00296,2.38023 0.29554,3.54641c0.57393,0.41257 1.26311,0.41257 2.06874,0c0.67795,0.18796 1.17091,0.58161 1.47767,1.18214c-0.27544,7.67384 -0.27544,15.35773 0,23.05167c0.19682,0.19682 0.39425,0.39424 0.59107,0.59107c0.013,-6.59514 0.40724,-13.09689 1.18213,-19.50525c0.25475,8.24776 0.35287,16.4246 0.29554,24.52934c-1.14845,0.91911 -2.42929,1.60888 -3.84195,2.06874c-0.51601,-0.1389 -1.00895,-0.33632 -1.47767,-0.59107c-0.57747,1.12953 -0.97113,2.31167 -1.18213,3.54641c-0.19682,0 -0.39425,0 -0.59107,0c0.09871,-11.23207 0,-22.46237 -0.29554,-33.6909c-0.21456,-1.79921 -0.51009,-3.57242 -0.8866,-5.31962z" fill="#023460"/><path d="M275.76756,234.59594c-0.42675,-0.24706 -0.72229,-0.64072 -0.8866,-1.18213c-0.09871,5.51644 -0.19682,11.03347 -0.29553,16.54991c0.00118,5.72805 0.39483,11.24507 1.18214,16.54991c0,7.48706 0,14.97354 0,22.4606c-0.78789,0 -1.57638,0 -2.36427,0c-0.09871,-27.18973 0,-54.37888 0.29553,-81.56743c0.41966,-0.87064 1.10884,-1.26488 2.06874,-1.18213c0,9.4571 0,18.91418 0,28.37128z" fill="#013c74"/><path d="M282.86037,202.08718c-27.97822,-0.09871 -55.95525,0 -83.9317,0.29553c0.74947,1.26548 1.14372,2.64444 1.18214,4.13748c-1.71114,6.44797 -2.20409,13.04783 -1.47767,19.80079c0.88956,1.06274 0.98826,2.14676 0.29553,3.25088c1.01604,0.62476 2.10007,1.11712 3.25088,1.47767c1.16086,-3.18291 0.86532,-6.23695 -0.88661,-9.16156c0.56034,-0.28548 1.1514,-0.3836 1.77321,-0.29554c0.18737,-5.07432 -0.01005,-10.0984 -0.59107,-15.07224c1.29681,-1.29681 2.57706,-2.57706 3.84194,-3.84195c0.71874,2.68286 1.30981,5.44137 1.77321,8.27496c0.29554,25.61217 0.39425,51.22493 0.29554,76.83888c-0.59107,0 -1.18214,0 -1.77321,0c-0.08807,0.6218 0.01005,1.21287 0.29554,1.77321c0.64131,-0.46871 1.33109,-0.86296 2.06874,-1.18214c0.49236,-22.45823 0.78789,-44.91882 0.8866,-67.38179c0.19682,22.26377 0.39425,44.52694 0.59107,66.79072c0.00295,-25.30363 0.39719,-50.52274 1.18213,-75.65674c0.19682,25.02169 0.39425,50.04397 0.59107,75.06567c0.09871,-27.09161 0.39424,-54.08393 0.8866,-80.97635c0,27.58338 0,55.16617 0,82.74956c0.59107,0 1.18213,0 1.7732,0c0,-27.38596 0,-54.77253 0,-82.15849c0.48526,1.85655 0.78081,3.82717 0.88661,5.91068c0.10285,26.31968 0.39838,52.62222 0.8866,78.90762c-0.0857,0.4563 -0.28253,0.85055 -0.59107,1.18214c1.57638,0.39425 3.15216,0.39425 4.72854,0c-1.23474,-0.92916 -1.23474,-2.01259 0,-3.25088c-0.38124,-0.67737 -0.8736,-1.26844 -1.47767,-1.77321c-0.09871,-12.51114 -0.19682,-25.02169 -0.29554,-37.53284c0.02837,-13.42434 0.42202,-26.82209 1.18213,-40.19264c-0.026,-1.04264 -0.22342,-2.02796 -0.59106,-2.95534c0.71933,-0.97408 1.21169,-2.05751 1.47767,-3.25087c0.82513,1.19809 1.80985,1.39492 2.95534,0.59106c0.19682,2.75851 0.39425,5.51644 0.59107,8.27496c0.29554,24.82428 0.39424,49.64914 0.29553,74.47461c0.59107,0 1.18214,0 1.77321,0c0.10757,1.23593 -0.08984,2.41806 -0.59107,3.54641c1.27435,1.44103 2.6533,1.53974 4.13747,0.29554c-0.29554,-0.29553 -0.59106,-0.59107 -0.8866,-0.8866c-0.39425,-26.007 -0.39425,-52.01401 0,-78.02102c0.1129,-1.30508 0.40842,-2.48722 0.8866,-3.54641c0,26.7949 0,53.59039 0,80.38529c0.9924,0.12708 1.58347,-0.26716 1.77321,-1.18214c1.17918,-26.39357 1.57343,-52.99163 1.18214,-79.79422c0.29849,26.58271 0.79085,53.18078 1.47767,79.79422c0.19682,-25.21911 0.39424,-50.43763 0.59106,-75.65674c0.87951,0.41138 1.76612,0.21397 2.65981,-0.59107c-0.21988,-2.01555 -0.21988,-4.08428 0,-6.20622c0.69273,-0.20864 1.38192,-0.11053 2.06874,0.29554c0.7217,-0.4563 1.31276,-1.04737 1.7732,-1.7732c0.64308,1.11417 1.13544,2.29629 1.47767,3.5464c-0.02778,27.16431 -0.02778,54.35346 0,81.56743c-0.78789,0 -1.57638,0 -2.36428,0c0.19682,-27.58575 0.00001,-55.16913 -0.59106,-82.74956c-0.34636,0.12354 -0.64191,0.32095 -0.88661,0.59107c-0.29554,27.38538 -0.39425,54.77134 -0.29554,82.15849c0.15309,1.76139 -0.63481,2.84481 -2.36427,3.25088c1.88078,1.02787 3.8514,1.12598 5.91068,0.29553c1.04915,-0.86118 2.23128,-1.55096 3.54641,-2.06874c-0.37001,-0.4433 -0.66554,-0.93625 -0.8866,-1.47767c-0.29495,-3.54109 -0.39365,-7.08749 -0.29554,-10.63923c0.59107,0 1.18213,0 1.7732,0c-0.19624,-23.94004 0.00059,-47.78019 0.59107,-71.51927c0.56447,-1.30626 1.45108,-1.50309 2.65981,-0.59107c0.19682,24.2338 0.39425,48.4676 0.59107,72.7014c0.1519,3.36672 0.44744,6.71631 0.8866,10.04816c-0.06384,0.55678 -0.26066,1.04915 -0.59107,1.47767c1.45108,0.91024 3.02686,1.10766 4.72855,0.59107c-0.66377,-0.61707 -1.45166,-1.01073 -2.36427,-1.18214c0.49472,-0.59757 0.69155,-1.28735 0.59107,-2.06874c0.59107,0 1.18213,0 1.7732,0c0.19209,-25.7292 -0.00473,-51.44067 -0.59107,-77.13441c0.18205,-0.86237 0.57629,-1.55214 1.18213,-2.06874c0,26.99231 0,53.98404 0,80.97636c0.78789,0 1.57638,0 2.36428,0c0.19624,-27.88069 -0.00059,-55.6609 -0.59107,-83.34063c-0.19682,0 -0.39424,0 -0.59107,0c0.39661,-0.79617 0.39661,-1.48595 0,-2.06874c0.39425,-0.39425 0.78789,-0.39425 1.18214,0c0.79676,0.93034 1.19041,2.01377 1.18214,3.25088c-0.5822,26.78544 -0.77902,53.58035 -0.59107,80.38529c0.59107,0 1.18214,0 1.77321,0c0,0.78789 0,1.57638 0,2.36428c-2.06283,-0.20628 -3.4418,0.68032 -4.13748,2.65981c0.98531,0.39425 1.97003,0.39425 2.95534,0c-0.47758,-0.18205 -0.87183,-0.47758 -1.18214,-0.8866c2.09416,-0.71401 4.06419,-0.41848 5.91069,0.8866c1.96058,0.29435 3.9306,0.39306 5.91068,0.29553c-0.20806,-1.52082 0.08748,-2.89979 0.8866,-4.13748c0.46044,0.72583 1.05151,1.3169 1.77321,1.7732c1.43866,-0.48586 2.91633,-0.68327 4.43301,-0.59106c0.16136,1.15317 -0.23229,2.03978 -1.18213,2.65981c0.78789,0.39425 1.57637,0.39425 2.36427,0c0.78789,-0.59107 0.78789,-1.18214 0,-1.77321c0.81095,-0.7341 1.40202,-1.6207 1.77321,-2.65981c0.27544,-5.70499 -0.02009,-11.41885 -0.8866,-17.14098c-0.99773,0.48763 -1.09644,1.0787 -0.29554,1.77321c-0.74829,2.35305 -1.14194,4.81602 -1.18214,7.38835c0.00946,2.41274 0.20628,4.77702 0.59107,7.09282c-0.66082,0.6348 -1.25189,1.32399 -1.77321,2.06874c-0.4037,-0.21456 -0.79794,-0.41138 -1.18213,-0.59107c0,-7.48706 0,-14.97354 0,-22.4606c0.03546,-0.32095 0.23229,-0.51778 0.59107,-0.59107c1.4227,2.09061 3.39273,3.27275 5.91068,3.54641c0,7.28965 0,14.57988 0,21.86952c-0.07802,1.94875 -1.06274,2.93347 -2.95534,2.95534c-27.01714,0.19092 -54.00945,-0.00591 -80.97635,-0.59107c-0.56802,-1.04323 -0.76543,-2.22537 -0.59107,-3.54641c0,-6.896 0,-13.79139 0,-20.68739c0.19682,0 0.39425,0 0.59107,0c1.94047,-1.04973 3.8118,-2.23188 5.61515,-3.54641c0.29554,7.68153 0.39424,15.36541 0.29553,23.05166c0.59107,0 1.18213,0 1.7732,0c0,-27.38596 0,-54.77253 0,-82.15849c-0.59107,0 -1.18213,0 -1.7732,0c0.09871,8.86839 0.00001,17.73442 -0.29553,26.59808c-0.19682,0.19682 -0.39425,0.39424 -0.59107,0.59106c-1.11476,-1.62071 -2.59243,-2.60602 -4.43302,-2.95534c-0.19682,0 -0.39424,0 -0.59106,0c-0.40488,-1.1313 -0.70042,-2.31344 -0.88661,-3.54641c-0.29554,-8.66683 -0.39425,-17.33604 -0.29554,-26.00701c28.66859,-0.19624 57.23669,0.0006 85.7049,0.59107z" fill="#045296"/><path d="M282.86037,202.08718c0.58456,3.2361 0.78139,6.58568 0.59107,10.04816c0.09812,5.91423 0,11.82491 -0.29553,17.73205c-0.22638,0.32863 -0.52192,0.52545 -0.88661,0.59106c-2.63262,0.66555 -4.80006,2.04451 -6.50175,4.13748c0,-9.4571 0,-18.91418 0,-28.37128c-0.9599,-0.08275 -1.64908,0.31149 -2.06874,1.18213c-0.29553,27.18855 -0.39424,54.37769 -0.29553,81.56743c0.78789,0 1.57638,0 2.36427,0c0.38419,0.17969 0.77843,0.37651 1.18213,0.59107c0.52132,-0.74475 1.11239,-1.43394 1.77321,-2.06874c-0.38479,-2.31581 -0.58161,-4.68008 -0.59107,-7.09282c0.04019,-2.57233 0.43385,-5.0353 1.18214,-7.38835c-0.8009,-0.6945 -0.70219,-1.28557 0.29554,-1.77321c0.86651,5.72213 1.16204,11.43599 0.8866,17.14098c-0.37119,1.0391 -0.96226,1.9257 -1.77321,2.65981c0.78789,0.59107 0.78789,1.18214 0,1.77321c-0.78789,0.39425 -1.57637,0.39425 -2.36427,0c0.94984,-0.62003 1.34349,-1.50663 1.18213,-2.65981c-1.51668,-0.0922 -2.99435,0.1052 -4.43301,0.59106c-0.7217,-0.4563 -1.31277,-1.04737 -1.77321,-1.7732c-0.79913,1.23769 -1.09466,2.61666 -0.8866,4.13748c-1.98008,0.09753 -3.95011,-0.00118 -5.91068,-0.29553c-1.8465,-1.30508 -3.81653,-1.60061 -5.91069,-0.8866c0.31031,0.40902 0.70455,0.70455 1.18214,0.8866c-0.98531,0.39425 -1.97003,0.39425 -2.95534,0c0.69569,-1.97949 2.07465,-2.86609 4.13748,-2.65981c0,-0.78789 0,-1.57638 0,-2.36428c-0.59107,0 -1.18214,0 -1.77321,0c-0.18796,-26.80494 0.00887,-53.59985 0.59107,-80.38529c0.00828,-1.23711 -0.38538,-2.32054 -1.18214,-3.25088c-0.39425,-0.39425 -0.78789,-0.39425 -1.18214,0c0.39661,0.5828 0.39661,1.27257 0,2.06874c-0.39425,0 -0.59107,0.19682 -0.59107,0.59107c-0.53433,0.41906 -0.73116,1.01014 -0.59107,1.77321c-0.60584,0.51659 -1.00008,1.20637 -1.18213,2.06874c0.58634,25.69374 0.78316,51.40521 0.59107,77.13441c-0.59107,0 -1.18213,0 -1.7732,0c0.10048,0.78139 -0.09635,1.47117 -0.59107,2.06874c0.91261,0.17141 1.7005,0.56506 2.36427,1.18214c-1.70168,0.51659 -3.27747,0.31918 -4.72855,-0.59107c0.33041,-0.42852 0.52723,-0.92089 0.59107,-1.47767c-0.43917,-3.33185 -0.7347,-6.68144 -0.8866,-10.04816c-0.19682,-24.2338 -0.39425,-48.4676 -0.59107,-72.7014c-1.20873,-0.91202 -2.09534,-0.71519 -2.65981,0.59107c-0.59047,23.73908 -0.7873,47.57923 -0.59107,71.51927c-0.59107,0 -1.18213,0 -1.7732,0c-0.09812,3.55173 0.00059,7.09814 0.29554,10.63923c0.22106,0.54142 0.51659,1.03437 0.8866,1.47767c-1.31512,0.51777 -2.49726,1.20755 -3.54641,2.06874c-2.05928,0.83045 -4.0299,0.73234 -5.91068,-0.29553c1.72947,-0.40607 2.51736,-1.48949 2.36427,-3.25088c0.59107,0 1.18213,0 1.7732,0c0.78789,0 1.57638,0 2.36428,0c-0.02778,-27.21396 -0.02778,-54.40311 0,-81.56743c-0.34223,-1.25011 -0.83459,-2.43224 -1.47767,-3.5464c-0.46044,0.72583 -1.05151,1.3169 -1.7732,1.7732c-0.68682,-0.40607 -1.37601,-0.50418 -2.06874,-0.29554c-0.21988,2.12194 -0.21988,4.19067 0,6.20622c-0.8937,0.80504 -1.7803,1.00245 -2.65981,0.59107c-0.19682,25.21911 -0.39424,50.43763 -0.59106,75.65674c-0.68682,-26.61344 -1.17918,-53.21151 -1.47767,-79.79422c0.11999,-1.11712 -0.27367,-2.00372 -1.18214,-2.65981c-0.77785,-0.31208 -1.17209,-0.01655 -1.18214,0.8866c-0.55206,0.63126 -0.74947,1.41915 -0.59107,2.36427c-0.47817,1.05919 -0.7737,2.24133 -0.8866,3.54641c-0.39425,26.007 -0.39425,52.01401 0,78.02102c0.29554,0.29553 0.59106,0.59107 0.8866,0.8866c-1.48417,1.2442 -2.86313,1.14549 -4.13747,-0.29554c0.50123,-1.12835 0.69864,-2.31048 0.59107,-3.54641c-0.59107,0 -1.18214,0 -1.77321,0c0.09871,-24.82546 0.00001,-49.65033 -0.29553,-74.4746c-0.19682,-2.75851 -0.39425,-5.51644 -0.59107,-8.27496c-1.14549,0.80385 -2.13021,0.60703 -2.95534,-0.59106c-0.26598,1.19337 -0.75834,2.27679 -1.47767,3.25087c0.36765,0.92738 0.56506,1.9127 0.59106,2.95534c-0.76012,13.37055 -1.15376,26.7683 -1.18213,40.19265c0.09871,12.51115 0.19682,25.02169 0.29554,37.53284c0.60407,0.50477 1.09643,1.09584 1.47767,1.77321c-1.23474,1.23829 -1.23474,2.32171 0,3.25088c-1.57638,0.39425 -3.15216,0.39425 -4.72854,0c0.30854,-0.33159 0.50536,-0.72583 0.59107,-1.18214c-0.48822,-26.2854 -0.78376,-52.58794 -0.8866,-78.90762c-0.1058,-2.08352 -0.40134,-4.05414 -0.88661,-5.91068c-0.41906,-0.53432 -1.01013,-0.73115 -1.7732,-0.59107c-0.49236,26.89243 -0.78789,53.88474 -0.8866,80.97635c-0.19682,-25.0217 -0.39425,-50.04397 -0.59107,-75.06567c-0.78494,25.134 -1.17918,50.35311 -1.18213,75.65674c-0.19682,-22.26377 -0.39425,-44.52695 -0.59107,-66.79072c-0.09871,22.46296 -0.39424,44.92355 -0.8866,67.38179c-0.73765,0.31917 -1.42743,0.71342 -2.06874,1.18214c-0.28548,-0.56034 -0.3836,-1.1514 -0.29554,-1.77321c0.59107,0 1.18214,0 1.77321,0c0.09871,-25.61394 0,-51.22671 -0.29554,-76.83888c-0.4634,-2.83358 -1.05447,-5.59209 -1.77321,-8.27496c-1.26488,1.26488 -2.54514,2.54514 -3.84194,3.84195c0.58102,4.97384 0.77844,9.99792 0.59107,15.07224c-0.6218,-0.08807 -1.21287,0.01005 -1.77321,0.29554c1.75193,2.92461 2.04747,5.97865 0.88661,9.16156c-1.15081,-0.36055 -2.23484,-0.85291 -3.25088,-1.47767c0.69273,-1.10412 0.59403,-2.18814 -0.29553,-3.25088c-0.72643,-6.75296 -0.23347,-13.35282 1.47767,-19.80079c-0.03842,-1.49304 -0.43267,-2.87201 -1.18214,-4.13748c27.97645,-0.29554 55.95348,-0.39424 83.9317,-0.29553z" fill="#02539c"/><path d="M213.11432,206.22466c0.76307,-0.14008 1.35414,0.05674 1.7732,0.59107c0,27.38597 0,54.77253 0,82.15849c-0.59107,0 -1.18213,0 -1.7732,0c0,-27.58339 0,-55.16618 0,-82.74956z" fill="#003869"/><path d="M257.44444,206.22466c0.19682,0 0.39424,0 0.59107,0c0.09871,27.38715 0,54.77312 -0.29553,82.15849c-0.88365,-27.10403 -1.17919,-54.29317 -0.88661,-81.56743c0,-0.39425 0.19682,-0.59107 0.59107,-0.59107z" fill="#00346a"/><path d="M233.21064,207.99786c0.39129,26.80258 -0.00296,53.40065 -1.18214,79.79422c0.39129,-27.39306 -0.00296,-54.5822 -1.18214,-81.56742c0.01005,-0.90315 0.40429,-1.19869 1.18214,-0.8866c0.90847,0.65608 1.30213,1.54269 1.18214,2.65981z" fill="#034e83"/><path d="M223.16248,288.38315c-0.20215,0.49532 -0.59579,0.69273 -1.18213,0.59107c-0.09871,-26.99291 0,-53.98522 0.29554,-80.97636c0.88069,26.74525 1.17622,53.54015 0.8866,80.38529z" fill="#00376b"/><path d="M266.90153,206.81573c0.59048,27.4829 0.78731,55.06629 0.59107,82.74956c-0.98531,0 -1.97003,0 -2.95534,0c-0.19624,-27.28962 0.00059,-54.47877 0.59107,-81.56743c0,26.99231 0,53.98404 0,80.97636c0.59107,0 1.18213,0 1.7732,0c0,-27.38596 0,-54.77253 0,-82.15849z" fill="#044e89"/><path d="M258.03551,206.22466c0.59048,27.67973 0.78731,55.45994 0.59107,83.34063c-0.78789,0 -1.57638,0 -2.36428,0c0,-26.99232 0,-53.98404 0,-80.97636c-0.14008,-0.76307 0.05674,-1.35414 0.59107,-1.77321c-0.29258,27.27426 0.00296,54.46339 0.88661,81.56743c0.29553,-27.38538 0.39424,-54.77134 0.29553,-82.15849z" fill="#00427e"/><path d="M223.16248,288.38315c0.28963,-26.84514 -0.00591,-53.64004 -0.8866,-80.38529c-0.29554,26.99113 -0.39425,53.98345 -0.29554,80.97636c-0.68859,-27.28667 -0.78731,-54.67263 -0.29554,-82.15849c0.82454,-0.77725 1.41561,-0.57984 1.7732,0.59107c0.49177,27.09161 0.39306,54.08394 -0.29554,80.97636z" fill="#02447c"/><path d="M266.90153,206.81573c0,27.38597 0,54.77253 0,82.15849c-0.59107,0 -1.18213,0 -1.7732,0c0,-26.99232 0,-53.98404 0,-80.97636c0.0993,-1.50781 0.69037,-1.90206 1.7732,-1.18214z" fill="#003869"/><path d="M230.84637,206.22466c1.17918,26.98522 1.57342,54.17436 1.18214,81.56742c-0.18974,0.91498 -0.7808,1.30921 -1.77321,1.18214c0,-26.7949 0,-53.59039 0,-80.38529c-0.1584,-0.94512 0.03901,-1.73301 0.59107,-2.36427z" fill="#003670"/><path d="M247.39628,206.81573c0.70219,-0.69983 1.39196,-0.69983 2.06874,0c0.29554,27.38538 0.39425,54.77134 0.29554,82.15849c-0.78789,0 -1.57638,0 -2.36427,0c0,-27.38596 0,-54.77253 0,-82.15849z" fill="#034078"/><path d="M247.98735,207.99786c0.78789,13.0963 1.18213,26.39533 1.18213,39.89711c-0.19682,13.29904 -0.39424,26.59807 -0.59106,39.89711c-0.59107,-26.59512 -0.78789,-53.19319 -0.59107,-79.79422z" fill="#003262"/><path d="M240.89453,288.97422c-0.59107,0 -1.18213,0 -1.7732,0c-0.09871,-27.38715 0,-54.77312 0.29554,-82.15849c0.2447,-0.27012 0.54024,-0.46753 0.88661,-0.59107c0.59107,27.58043 0.78789,55.16381 0.59106,82.74956z" fill="#00376b"/><path d="M282.86037,200.90504c0.19682,0 0.39425,0 0.59107,0c0.56624,3.69063 0.76307,7.43387 0.59107,11.2303c-0.19682,0 -0.39424,0 -0.59107,0c0.19032,-3.46248 -0.00651,-6.81206 -0.59107,-10.04816c-28.46821,-0.59047 -57.03632,-0.78731 -85.7049,-0.59107c-0.09871,8.67097 0,17.34017 0.29554,26.00701c0.18618,1.23297 0.48173,2.4151 0.88661,3.54641c-0.6555,-0.03369 -1.24657,-0.23052 -1.77321,-0.59107c0,-9.85134 0,-19.70208 0,-29.55341c28.76552,0 57.53045,0 86.29597,0z" fill="#194b7c"/><path d="M284.04251,198.54077c0.19682,0 0.39425,0 0.59107,0c-0.15841,0.94512 0.03901,1.73301 0.59107,2.36427c-0.70574,30.69654 -1.39551,61.43209 -2.06874,92.20665c-0.7607,1.56338 -2.04096,2.15445 -3.84195,1.77321c0,-0.19682 0,-0.39425 0,-0.59107c1.8926,-0.02187 2.87732,-1.00659 2.95534,-2.95534c0.32095,-26.38824 0.91202,-52.78949 1.77321,-79.20315c0.172,-3.79643 -0.02482,-7.53967 -0.59107,-11.2303c0.43385,-0.71401 0.63067,-1.5019 0.59107,-2.36427z" fill="#2e373f"/><path d="M195.97334,200.31398c29.06283,-0.19624 58.02517,0.00059 86.88704,0.59107c-28.76552,0 -57.53045,0 -86.29597,0c0,9.85134 0,19.70208 0,29.55341c0.37651,1.7472 0.67204,3.52041 0.8866,5.31962c0.29554,11.22852 0.39425,22.45882 0.29554,33.6909c0,6.896 0,13.79139 0,20.68739c-0.78731,-6.48993 -1.18155,-13.18851 -1.18214,-20.09633c-0.47108,-23.05107 -0.86473,-46.10273 -1.18214,-69.15499c0,-0.39425 0.19682,-0.59107 0.59107,-0.59107z" fill="#1b2f46"/><path d="M198.33761,293.70277c26.9669,0.58516 53.95921,0.78198 80.97635,0.59107c0,0.19682 0,0.39425 0,0.59107c-26.10453,0.6886 -52.30837,0.78671 -78.61209,0.29553c-1.07575,-0.11822 -1.86363,-0.61116 -2.36427,-1.47767z" fill="#223e58"/><path d="M275.76756,297.24917c-3.15217,0 -6.30492,0 -9.45709,0c-0.19682,0 -0.39425,0 -0.59107,0c0.06561,-0.36469 0.26243,-0.66022 0.59107,-0.8866c1.57638,-0.09871 3.15217,-0.19683 4.72854,-0.29554c1.8264,0.01301 3.40278,0.40666 4.72854,1.18214z" fill="#7d2c25"/><path d="M215.47859,297.84024c0,0.19682 0,0.39425 0,0.59107c-3.69418,1.15791 -7.63423,1.55214 -11.82136,1.18214c-0.10048,-0.78139 0.09634,-1.47116 0.59106,-2.06874c3.79171,-0.46695 7.53494,-0.36883 11.2303,0.29553z" fill="#ea3524"/><path d="M215.47859,297.84024c-3.69536,-0.66436 -7.43859,-0.76247 -11.2303,-0.29553c-0.49472,0.59757 -0.69154,1.28735 -0.59106,2.06874c4.18713,0.37001 8.12719,-0.02423 11.82136,-1.18214c0.88365,-0.05024 1.47472,0.34341 1.7732,1.18214c15.16563,0.59107 30.33658,0.78789 45.51226,0.59107c4.53172,0 9.06285,0 13.59457,0c-25.02169,0.78789 -50.04398,0.78789 -75.06568,0c0.59107,0 1.18214,0 1.77321,0c-0.14127,-1.16263 0.05556,-2.24665 0.59107,-3.25088c1.97003,-0.09871 3.94065,-0.19683 5.91068,-0.29554c2.21,0.00828 4.18004,0.40193 5.91069,1.18214z" fill="#ca6356" opacity="0.902"/><path d="M265.7194,297.24917c0.19682,0 0.39425,0 0.59107,0c-0.37887,0.58043 -0.77253,1.17149 -1.18214,1.77321c3.72255,0.58871 7.46638,0.78612 11.2303,0.59107c0,-0.78789 0,-1.57638 0,-2.36427c0.5621,0.83873 0.75893,1.82345 0.59106,2.95534c-0.19682,0 -0.39424,0 -0.59106,0c-4.53172,0 -9.06285,0 -13.59457,0c0.54496,-1.36892 1.53028,-2.35423 2.95534,-2.95534z" fill="#c13a2c" opacity="0.867"/><path d="M266.31047,297.24917c3.15217,0 6.30492,0 9.45709,0c0.19682,0 0.39425,0 0.59107,0c0,0.78789 0,1.57638 0,2.36427c-3.76392,0.19506 -7.50775,-0.00236 -11.2303,-0.59107c0.40961,-0.60171 0.80327,-1.19278 1.18214,-1.77321z" fill="#ec3420"/></g></g></svg>