<svg version="1.1" xmlns="http://www.w3.org/2000/svg" xmlns:xlink="http://www.w3.org/1999/xlink" width="897.5614" height="631.58434" viewBox="0,0,897.5614,631.58434"><defs><linearGradient x1="-208.7807" y1="180" x2="688.7807" y2="180" gradientUnits="userSpaceOnUse" id="color-1"><stop offset="0" stop-color="#2fbcc4"/><stop offset="1" stop-color="#31186c"/></linearGradient></defs><g transform="translate(208.7807,135.79217)"><g data-paper-data="{&quot;isPaintingLayer&quot;:true}" fill-rule="nonzero" stroke="none" stroke-width="1" stroke-linecap="butt" stroke-linejoin="miter" stroke-miterlimit="10" stroke-dasharray="" stroke-dashoffset="0" style="mix-blend-mode: normal"><path d="M-208.7807,495.79217v-631.58434h897.5614v631.58434z" fill="url(#color-1)"/><text transform="translate(120.52999,150) scale(0.5,0.5)" font-size="40" xml:space="preserve" fill="#ffffff" fill-rule="nonzero" stroke="none" stroke-width="1" stroke-linecap="butt" stroke-linejoin="miter" stroke-miterlimit="10" stroke-dasharray="" stroke-dashoffset="0" font-family="&quot;ヒラギノ角ゴ Pro W3&quot;, &quot;Hiragino Kaku Gothic Pro&quot;, Osaka, &quot;メイリオ&quot;, Meiryo, &quot;ＭＳ Ｐゴシック&quot;, &quot;MS PGothic&quot;" font-weight="normal" text-anchor="start" style="mix-blend-mode: normal"><tspan x="0" dy="0">tinyurl.com/ionbusgame</tspan><tspan x="0" dy="48px"> </tspan><tspan x="0" dy="48px">@thursdays_</tspan><tspan x="0" dy="48px">@desmosperson</tspan></text><path d="M143.72529,171.95102c-1.80396,1.34883 -3.55383,2.16716 -5.27423,2.70267c-0.426,-0.58402 -0.80285,-1.20657 -1.1289,-1.85921c0.62097,-0.23599 1.21736,-0.52717 1.781,-0.86687c-0.14746,-0.11045 -0.29327,-0.22593 -0.43582,-0.34475c-3.38672,1.60321 -7.11097,1.60321 -10.53864,0c-0.14089,0.11882 -0.28673,0.2343 -0.43582,0.34475c0.56198,0.33804 1.15674,0.62923 1.77772,0.86519c-0.32605,0.65433 -0.70453,1.27519 -1.1289,1.85924c-1.71875,-0.53551 -3.467,-1.35386 -5.27095,-2.70101c-0.36866,-3.95107 0.36866,-7.95905 3.08852,-12.06911c1.34846,-0.63257 2.79196,-1.09277 4.30099,-1.35386c0.18678,0.3347 0.40798,0.78488 0.55706,1.143c1.57294,-0.24098 3.16062,-0.24098 4.76303,0c0.14912,-0.35812 0.3654,-0.8083 0.55053,-1.143c1.5074,0.26109 2.94924,0.71961 4.29771,1.35052c2.35777,3.52099 3.52927,7.49216 3.09671,12.07245zM131.81035,167.3908c0.01802,-1.17145 -0.82578,-2.13201 -1.87278,-2.13201c-1.04697,0 -1.87277,0.96224 -1.87277,2.13201c0,1.16976 0.84382,2.13035 1.87277,2.13035c1.047,0 1.8744,-0.96059 1.87278,-2.13035zM138.73125,167.3908c0.01802,-1.17145 -0.8258,-2.13201 -1.87277,-2.13201c-1.047,0 -1.87278,0.96224 -1.87278,2.13201c0,1.16976 0.84383,2.13035 1.87278,2.13035c1.04697,0 1.87277,-0.96059 1.87277,-2.13035z" fill="#f2f2f2"/></g></g></svg>