<svg version="1.1" xmlns="http://www.w3.org/2000/svg" xmlns:xlink="http://www.w3.org/1999/xlink" width="94.52272" height="258.14584" viewBox="0,0,94.52272,258.14584"><defs><linearGradient x1="240" y1="50.9974" x2="240" y2="309.0026" gradientUnits="userSpaceOnUse" id="color-1"><stop offset="0" stop-color="#b9b9b9"/><stop offset="1" stop-color="#a1a1a1"/></linearGradient><linearGradient x1="240.02268" y1="50.85677" x2="240.02268" y2="56.85677" gradientUnits="userSpaceOnUse" id="color-2"><stop offset="0" stop-color="#000000"/><stop offset="1" stop-color="#636363"/></linearGradient><linearGradient x1="240.32728" y1="54.69769" x2="240.32728" y2="125.93047" gradientUnits="userSpaceOnUse" id="color-3"><stop offset="0" stop-color="#dadada"/><stop offset="1" stop-color="#8f8f8f"/></linearGradient><linearGradient x1="241.92728" y1="300.46656" x2="241.92728" y2="306.86656" gradientUnits="userSpaceOnUse" id="color-4"><stop offset="0" stop-color="#9a8b95"/><stop offset="1" stop-color="#f2f5fe"/></linearGradient><linearGradient x1="196.02268" y1="191.85913" x2="205.01329" y2="191.85913" gradientUnits="userSpaceOnUse" id="color-5"><stop offset="0" stop-color="#7a7a7a"/><stop offset="1" stop-color="#5c5c5c"/></linearGradient><linearGradient x1="283.76329" y1="190.35913" x2="274.77268" y2="190.35913" gradientUnits="userSpaceOnUse" id="color-6"><stop offset="0" stop-color="#7a7a7a"/><stop offset="1" stop-color="#5c5c5c"/></linearGradient><linearGradient x1="193.02268" y1="69.67281" x2="216.56829" y2="69.67281" gradientUnits="userSpaceOnUse" id="color-7"><stop offset="0" stop-color="#f9ffff"/><stop offset="1" stop-color="#a1bcb7"/></linearGradient><linearGradient x1="287.27272" y1="70.17281" x2="263.72711" y2="70.17281" gradientUnits="userSpaceOnUse" id="color-8"><stop offset="0" stop-color="#f9ffff"/><stop offset="1" stop-color="#a1bcb7"/></linearGradient><linearGradient x1="213.03417" y1="267.64331" x2="277.02361" y2="267.64331" gradientUnits="userSpaceOnUse" id="color-9"><stop offset="0" stop-color="#707070"/><stop offset="1" stop-color="#4a4a4a"/></linearGradient><linearGradient x1="240.67415" y1="289.16801" x2="240.67415" y2="303.772" gradientUnits="userSpaceOnUse" id="color-10"><stop offset="0" stop-color="#000000"/><stop offset="1" stop-color="#636363"/></linearGradient><linearGradient x1="212.27268" y1="123.35025" x2="280.52361" y2="123.35025" gradientUnits="userSpaceOnUse" id="color-11"><stop offset="0" stop-color="#9c9c9c"/><stop offset="1" stop-color="#3b3b3b"/></linearGradient></defs><g transform="translate(-192.75,-50.85677)"><g data-paper-data="{&quot;isPaintingLayer&quot;:true}" fill-rule="nonzero" stroke="none" stroke-width="0" stroke-linejoin="miter" stroke-miterlimit="10" stroke-dasharray="" stroke-dashoffset="0" style="mix-blend-mode: normal"><path d="M240.75,50.9974c0,0 11.26388,0.14677 21.9417,2.46892c5.89261,1.28149 12.30218,4.26866 14.90106,5.79825c8.10847,4.7723 9.65724,19.10076 9.65724,19.10076v190c0,0 -1.44604,27.88356 -7.9158,33.72533c-8.14228,7.35195 -37.0842,6.90675 -37.0842,6.90675h-4.5c0,0 -28.94192,0.4452 -37.0842,-6.90675c-6.46975,-5.84177 -7.9158,-33.72533 -7.9158,-33.72533v-190c0,0 1.54877,-14.32846 9.65724,-19.10076c2.59887,-1.52958 9.00845,-4.51676 14.90105,-5.79825c10.67782,-2.32214 21.94171,-2.46892 21.94171,-2.46892z" fill="url(#color-1)" stroke-linecap="round"/><path d="M215.52268,53.60677c0,0 15.83506,-2.75 23.75,-2.75c8.08159,0 24.25,2.75 24.25,2.75l3,3.25c0,0 -17.95629,-2.83234 -26.74706,-2.87381c-8.87508,-0.04186 -26.25294,2.62381 -26.25294,2.62381z" fill="url(#color-2)" stroke-linecap="round"/><path d="M207.52268,243.72941c0,0 2,-34.63703 2,-51.35643c0,-17.75151 -2,-52.24189 -2,-52.24189h65.75c0,0 -1.75,36.13159 -1.75,53.42249c0,17.24172 -1.25,50.17582 -1.25,50.17582z" fill="#d7d7d7" stroke-linecap="butt"/><path d="M236.92728,119.21915c0,0 -13.73941,-0.39952 -19.57064,0.66684c-6.35671,1.16246 -17.12936,6.04448 -17.12936,6.04448c0,0 2.53695,-38.19486 13.35751,-59.31004c6.63125,-12.94019 25.64249,-11.68996 25.64249,-11.68996l2.2,-0.2c0,0 19.01124,-1.25023 25.64249,11.68996c10.82056,21.11518 13.35751,59.31004 13.35751,59.31004c0,0 -10.77265,-4.88203 -17.12936,-6.04448c-5.83123,-1.06635 -19.57064,-0.66684 -19.57064,-0.66684z" fill="url(#color-3)" stroke-linecap="round"/><path d="M194.92728,286.86656c0,0 -0.9927,-5.01691 -0.04594,-3.41761c1.44234,2.43646 5.27253,12.03887 7.3435,13.69566c3.56447,2.85158 13.70244,6.52195 13.70244,6.52195c0,0 -5.26501,0.005 -8.46314,-0.76696c-2.30157,-0.55555 -8.93686,-3.43304 -8.93686,-3.43304c0,0 -1.71267,-2.79435 -2.24151,-4.64528c-0.64712,-2.26493 -1.35849,-7.95472 -1.35849,-7.95472z" data-paper-data="{&quot;index&quot;:null}" fill="#aa6440" stroke-linecap="round"/><path d="M282.91366,295.22128c-0.52883,1.85093 -2.24151,4.64528 -2.24151,4.64528c0,0 -6.63529,2.87748 -8.93686,3.43303c-3.19814,0.77197 -8.46314,0.76697 -8.46314,0.76697c0,0 10.13797,-3.67037 13.70244,-6.52195c2.07098,-1.65679 5.90117,-11.25921 7.34351,-13.69566c0.94675,-1.59929 -0.04595,3.41761 -0.04595,3.41761c0,0 -0.71137,5.68979 -1.35849,7.95472z" data-paper-data="{&quot;index&quot;:null}" fill="#aa6440" stroke-linecap="round"/><path d="M209.12728,301.86656c0,0 19.69114,2.37549 30.19469,2.15133c11.30424,-0.24125 35.40531,-3.55133 35.40531,-3.55133l-6.8,3.2c0,0 -19.27649,3.2 -28.6,3.2c-8.45889,0 -25,-3.2 -25,-3.2z" fill="url(#color-4)" stroke-linecap="round"/><path d="M204.65581,166.96576c0.68089,9.3832 0.27483,47.62376 -0.26935,63.16454c-0.49886,14.24657 -6.36378,17.10383 -6.36378,17.10383l-2,-110.75c0,0 7.57269,15.86805 8.63313,30.48163z" fill="url(#color-5)" stroke-linecap="round"/><path d="M283.76329,134.98413l-2,110.75c0,0 -5.86492,-2.85726 -6.36378,-17.10382c-0.54417,-15.54078 -0.95024,-53.78133 -0.26935,-63.16454c1.06044,-14.61358 8.63313,-30.48164 8.63313,-30.48164z" data-paper-data="{&quot;index&quot;:null}" fill="url(#color-6)" stroke-linecap="round"/><path d="M194.77268,71.17281c0,0 2.31077,-8.41377 5.35179,-10.46927c4.97146,-3.36033 16.14821,-6.78073 16.14821,-6.78073c0,0 0.03302,0.83134 -1.76313,2.80577c-3.07303,3.37805 -10.34141,4.13851 -13.61093,7.83448c-1.89648,2.14385 -3.19484,8.09399 -4.86949,11.22968c-2.02697,3.79538 -3.00645,9.63007 -3.00645,9.63007z" fill="url(#color-7)" stroke-linecap="round"/><path d="M287.27272,85.92281c0,0 -0.97948,-5.83469 -3.00645,-9.63007c-1.67465,-3.13569 -2.97301,-9.08584 -4.86948,-11.22968c-3.26952,-3.69597 -10.53789,-4.45643 -13.61093,-7.83448c-1.79615,-1.97443 -1.76314,-2.80577 -1.76314,-2.80577c0,0 11.17675,3.42039 16.14821,6.78073c3.04102,2.05551 5.35179,10.46927 5.35179,10.46927z" data-paper-data="{&quot;index&quot;:null}" fill="url(#color-8)" stroke-linecap="round"/><path d="M201.97116,287.05878c0.6364,-6.31531 1.43986,-35.45655 6.49721,-45.53545c3.18792,-6.35327 28.15696,-0.19262 37.8324,-0.78945c6.53416,-0.40306 17.15712,-1.66714 21.61612,-2.21678c1.29839,-0.16005 2.27858,0.74504 2.61415,2.4173c1.28996,6.42846 4.51763,22.72417 5.51819,29.75275c1.04047,7.30896 0.97352,16.96581 0.97352,16.96581l-11.48513,9.13476c0,0 -17.46945,4.93781 -26.26316,4.88114c-8.70657,-0.05611 -26.24028,-5.21946 -26.24028,-5.21946c0,0 -11.71545,-2.9161 -11.06301,-9.39061z" data-paper-data="{&quot;index&quot;:null}" fill="url(#color-9)" stroke-linecap="round"/><path d="M239.17414,303.76933c0,0 -23.44081,0.21352 -32.42824,-3.18314c-6.60573,-2.49654 -7.37176,-11.41818 -7.37176,-11.41818h4.2c0,0 7.87714,2.17362 12.77641,2.61129c6.63367,0.59261 23.4236,0.62257 23.4236,0.62257h1.8c0,0 16.78993,-0.02996 23.4236,-0.62257c4.89927,-0.43767 12.77641,-2.61129 12.77641,-2.61129h4.2c0,0 -0.76604,8.92165 -7.37177,11.41818c-8.98743,3.39667 -32.42824,3.18314 -32.42824,3.18314z" fill="url(#color-10)" stroke-linecap="round"/><path d="M212.27268,100.14633l56,-0.27253l12.25,7.35825c0,0 0.07142,7.77879 -1.03835,13.66633c-1.06719,5.66168 -4.50981,18.78821 -5.88568,23.96648c-0.35791,1.34705 -1.40339,2.07611 -2.78824,1.94719c-4.75595,-0.44275 -16.08637,-1.461 -23.05568,-1.78567c-10.31979,-0.48075 -36.95169,4.48178 -40.35192,-0.63592c-5.39415,-8.11877 -6.25112,-31.59268 -6.9299,-36.67979c-0.69589,-5.21536 11.79977,-7.56434 11.79977,-7.56434z" fill="url(#color-11)" stroke-linecap="round"/></g></g></svg>