<svg id="root" viewBox="0 0 25 24" fill="none" xmlns="http://www.w3.org/2000/svg">
<path d="M19.0418 10.7331H12.5767C11.6435 10.7331 10.8871 11.4896 10.8871 12.4227V20.3798C10.8871 21.9706 12.8849 22.6798 13.888 21.4453L20.3531 13.4881C21.2503 12.384 20.4645 10.7331 19.0418 10.7331Z" fill="currentColor"/>
<path fill-rule="evenodd" clip-rule="evenodd" d="M14.4885 10.7344V11.838C14.4885 12.7199 13.7735 13.4349 12.8916 13.4349H10.8871V12.424C10.8871 11.4908 11.6436 10.7344 12.5767 10.7344H14.4885ZM14.4885 9.69189H12.5767C11.0678 9.69189 9.84464 10.9151 9.84464 12.424V13.4349H6.13919C4.7945 13.4349 4.05182 11.8746 4.89977 10.8309L11.6521 2.52033C12.6002 1.35344 14.4885 2.02385 14.4885 3.52736V9.69189Z" fill="currentColor"/>
</svg>
