<svg id="Layer_1" data-name="Layer 1" xmlns="http://www.w3.org/2000/svg" viewBox="0 0 157.9 158.8"><title>Turn-In_mark-black</title><polygon points="89.37 124.48 89.37 68.86 116.14 68.86 116.14 50.24 41.97 50.24 41.97 68.86 68.66 68.86 68.66 124.48 89.37 124.48"/><path d="M79,2.41A76.89,76.89,0,0,0,30.86,19.26L22.57,11,18.63,43.22l32.25-3.94L42.4,30.81a61,61,0,0,1,91.28,75.93l14.66,6.93A77.27,77.27,0,0,0,79,2.41Z"/><path d="M115.5,128.56A61,61,0,0,1,24.22,52.63L9.55,45.7A77.23,77.23,0,0,0,127,140.11l8.29,8.28,3.93-32.24L107,120.08Z"/></svg>