<?xml version="1.0" encoding="UTF-8" standalone="no"?><!DOCTYPE svg PUBLIC "-//W3C//DTD SVG 1.1//EN" "http://www.w3.org/Graphics/SVG/1.1/DTD/svg11.dtd"><svg width="100%" height="100%" viewBox="0 0 376 667" version="1.1" xmlns="http://www.w3.org/2000/svg" xmlns:xlink="http://www.w3.org/1999/xlink" xml:space="preserve" xmlns:serif="http://www.serif.com/" style="fill-rule:evenodd;clip-rule:evenodd;stroke-linejoin:round;stroke-miterlimit:1.41421;"><rect id="General-View" serif:id="General View" x="0.184" y="0" width="375" height="667" style="fill:none;"/><clipPath id="_clip1"><rect id="General-View1" serif:id="General View" x="0.184" y="0" width="375" height="667"/></clipPath><g clip-path="url(#_clip1)"><g id="front_row"><path id="_8" serif:id="8" d="M107.096,551.722l31.177,-18c2.867,-1.656 6.54,-0.672 8.196,2.196l6,10.392c1.655,2.868 0.671,6.541 -2.196,8.197l-31.177,18c-2.868,1.655 -6.541,0.671 -8.196,-2.197l-6,-10.392c-1.656,-2.868 -0.672,-6.54 2.196,-8.196Z" style="fill:#ddd;"/><path id="_9" serif:id="9" d="M107.096,511.329l31.177,-18c2.867,-1.655 6.54,-0.671 8.196,2.197l6,10.392c1.655,2.868 0.671,6.54 -2.196,8.196l-31.177,18c-2.868,1.656 -6.541,0.672 -8.196,-2.196l-6,-10.392c-1.656,-2.868 -0.672,-6.541 2.196,-8.197Z" style="fill:#ddd;"/><path id="_10" serif:id="10" d="M107.096,470.937l31.177,-18c2.867,-1.656 6.54,-0.672 8.196,2.196l6,10.392c1.655,2.868 0.671,6.541 -2.196,8.197l-31.177,18c-2.868,1.655 -6.541,0.671 -8.196,-2.197l-6,-10.392c-1.656,-2.868 -0.672,-6.54 2.196,-8.196Z" style="fill:#ddd;"/><path id="_11" serif:id="11" d="M107.096,430.545l31.177,-18c2.867,-1.656 6.54,-0.672 8.196,2.196l6,10.392c1.655,2.868 0.671,6.54 -2.196,8.196l-31.177,18c-2.868,1.656 -6.541,0.672 -8.196,-2.196l-6,-10.392c-1.656,-2.868 -0.672,-6.541 2.196,-8.196Z" style="fill:#ddd;"/><path id="_12" serif:id="12" d="M107.096,392.696l31.177,-18c2.867,-1.655 6.54,-0.671 8.196,2.197l6,10.392c1.655,2.868 0.671,6.54 -2.196,8.196l-31.177,18c-2.868,1.656 -6.541,0.672 -8.196,-2.196l-6,-10.392c-1.656,-2.868 -0.672,-6.541 2.196,-8.197Z" style="fill:#ddd;"/><path id="_13" serif:id="13" d="M107.096,352.304l31.177,-18c2.867,-1.656 6.54,-0.672 8.196,2.196l6,10.392c1.655,2.868 0.671,6.541 -2.196,8.197l-31.177,18c-2.868,1.655 -6.541,0.671 -8.196,-2.197l-6,-10.392c-1.656,-2.868 -0.672,-6.54 2.196,-8.196Z" style="fill:#ddd;"/><path id="_14" serif:id="14" d="M107.096,311.911l31.177,-18c2.867,-1.655 6.54,-0.671 8.196,2.197l6,10.392c1.655,2.868 0.671,6.54 -2.196,8.196l-31.177,18c-2.868,1.656 -6.541,0.672 -8.196,-2.196l-6,-10.392c-1.656,-2.868 -0.672,-6.541 2.196,-8.197Z" style="fill:#ddd;"/><path id="_15" serif:id="15" d="M107.096,271.519l31.177,-18c2.867,-1.656 6.54,-0.672 8.196,2.196l6,10.392c1.655,2.868 0.671,6.541 -2.196,8.197l-31.177,18c-2.868,1.655 -6.541,0.671 -8.196,-2.197l-6,-10.392c-1.656,-2.868 -0.672,-6.54 2.196,-8.196Z" style="fill:#ddd;"/><path id="_16" serif:id="16" d="M107.096,231.126l31.177,-18c2.867,-1.655 6.54,-0.671 8.196,2.197l6,10.392c1.655,2.868 0.671,6.54 -2.196,8.196l-31.177,18c-2.868,1.656 -6.541,0.672 -8.196,-2.196l-6,-10.392c-1.656,-2.868 -0.672,-6.541 2.196,-8.197Z" style="fill:#ddd;"/><path id="_17" serif:id="17" d="M107.096,193.278l31.177,-18c2.867,-1.655 6.54,-0.671 8.196,2.197l6,10.392c1.655,2.868 0.671,6.54 -2.196,8.196l-31.177,18c-2.868,1.656 -6.541,0.672 -8.196,-2.196l-6,-10.392c-1.656,-2.868 -0.672,-6.541 2.196,-8.197Z" style="fill:#ddd;"/><path id="_18" serif:id="18" d="M107.096,152.886l31.177,-18c2.867,-1.656 6.54,-0.672 8.196,2.196l6,10.392c1.655,2.868 0.671,6.541 -2.196,8.197l-31.177,18c-2.868,1.655 -6.541,0.671 -8.196,-2.197l-6,-10.392c-1.656,-2.868 -0.672,-6.54 2.196,-8.196Z" style="fill:#ddd;"/><path id="_19" serif:id="19" d="M107.096,112.493l31.177,-18c2.867,-1.655 6.54,-0.671 8.196,2.197l6,10.392c1.655,2.868 0.671,6.54 -2.196,8.196l-31.177,18c-2.868,1.656 -6.541,0.672 -8.196,-2.196l-6,-10.392c-1.656,-2.868 -0.672,-6.541 2.196,-8.197Z" style="fill:#ddd;"/><path id="_20" serif:id="20" d="M107.096,72.101l31.177,-18c2.867,-1.656 6.54,-0.672 8.196,2.196l6,10.392c1.655,2.868 0.671,6.541 -2.196,8.197l-31.177,18c-2.868,1.655 -6.541,0.671 -8.196,-2.197l-6,-10.392c-1.656,-2.868 -0.672,-6.54 2.196,-8.196Z" style="fill:#ddd;"/></g><g id="sidewalk"><path id="_7" serif:id="7" d="M29.934,161l0,-36c0,-3.311 2.689,-6 6,-6l12,0c3.312,0 6,2.689 6,6l0,36c0,3.311 -2.688,6 -6,6l-12,0c-3.311,0 -6,-2.689 -6,-6Z" style="fill:#ddd;"/><path id="_6" serif:id="6" d="M29.934,217l0,-36c0,-3.311 2.689,-6 6,-6l12,0c3.312,0 6,2.689 6,6l0,36c0,3.311 -2.688,6 -6,6l-12,0c-3.311,0 -6,-2.689 -6,-6Z" style="fill:#ddd;"/><path id="_5" serif:id="5" d="M29.934,273l0,-36c0,-3.311 2.689,-6 6,-6l12,0c3.312,0 6,2.689 6,6l0,36c0,3.311 -2.688,6 -6,6l-12,0c-3.311,0 -6,-2.689 -6,-6Z" style="fill:#ddd;"/><path id="_4" serif:id="4" d="M29.934,329l0,-36c0,-3.311 2.689,-6 6,-6l12,0c3.312,0 6,2.689 6,6l0,36c0,3.311 -2.688,6 -6,6l-12,0c-3.311,0 -6,-2.689 -6,-6Z" style="fill:#ddd;"/><path id="_3" serif:id="3" d="M29.934,385l0,-36c0,-3.311 2.689,-6 6,-6l12,0c3.312,0 6,2.689 6,6l0,36c0,3.311 -2.688,6 -6,6l-12,0c-3.311,0 -6,-2.689 -6,-6Z" style="fill:#ddd;"/><path id="_2" serif:id="2" d="M29.934,441l0,-36c0,-3.311 2.689,-6 6,-6l12,0c3.312,0 6,2.689 6,6l0,36c0,3.311 -2.688,6 -6,6l-12,0c-3.311,0 -6,-2.689 -6,-6Z" style="fill:#ddd;"/><path id="_1" serif:id="1" d="M29.934,497l0,-36c0,-3.311 2.689,-6 6,-6l12,0c3.312,0 6,2.689 6,6l0,36c0,3.311 -2.688,6 -6,6l-12,0c-3.311,0 -6,-2.689 -6,-6Z" style="fill:#ddd;"/></g><g id="back_row"><path id="_21" serif:id="21" d="M179.684,474.026l31.177,-18c2.868,-1.656 6.54,-0.672 8.196,2.196l6,10.392c1.656,2.868 0.672,6.541 -2.196,8.196l-31.177,18c-2.868,1.656 -6.54,0.672 -8.196,-2.196l-6,-10.392c-1.656,-2.868 -0.672,-6.541 2.196,-8.196Z" style="fill:#ddd;"/><path id="_22" serif:id="22" d="M179.684,433.633l31.177,-18c2.868,-1.655 6.54,-0.671 8.196,2.196l6,10.393c1.656,2.868 0.672,6.54 -2.196,8.196l-31.177,18c-2.868,1.656 -6.54,0.672 -8.196,-2.196l-6,-10.393c-1.656,-2.867 -0.672,-6.54 2.196,-8.196Z" style="fill:#ddd;"/><path id="_23" serif:id="23" d="M179.684,393.241l31.177,-18c2.868,-1.656 6.54,-0.672 8.196,2.196l6,10.392c1.656,2.868 0.672,6.541 -2.196,8.196l-31.177,18c-2.868,1.656 -6.54,0.672 -8.196,-2.196l-6,-10.392c-1.656,-2.868 -0.672,-6.54 2.196,-8.196Z" style="fill:#ddd;"/><path id="_24" serif:id="24" d="M179.684,352.848l31.177,-18c2.868,-1.655 6.54,-0.671 8.196,2.196l6,10.393c1.656,2.868 0.672,6.54 -2.196,8.196l-31.177,18c-2.868,1.656 -6.54,0.672 -8.196,-2.196l-6,-10.393c-1.656,-2.867 -0.672,-6.54 2.196,-8.196Z" style="fill:#ddd;"/><path id="_25" serif:id="25" d="M179.684,315l31.177,-18c2.868,-1.656 6.54,-0.672 8.196,2.196l6,10.393c1.656,2.868 0.672,6.54 -2.196,8.196l-31.177,18c-2.868,1.656 -6.54,0.671 -8.196,-2.196l-6,-10.393c-1.656,-2.868 -0.672,-6.54 2.196,-8.196Z" style="fill:#ddd;"/><path id="_26" serif:id="26" d="M179.684,274.608l31.177,-18c2.868,-1.656 6.54,-0.672 8.196,2.196l6,10.392c1.656,2.868 0.672,6.541 -2.196,8.196l-31.177,18c-2.868,1.656 -6.54,0.672 -8.196,-2.196l-6,-10.392c-1.656,-2.868 -0.672,-6.541 2.196,-8.196Z" style="fill:#ddd;"/><path id="_27" serif:id="27" d="M179.684,234.215l31.177,-18c2.868,-1.656 6.54,-0.672 8.196,2.196l6,10.393c1.656,2.868 0.672,6.54 -2.196,8.196l-31.177,18c-2.868,1.656 -6.54,0.672 -8.196,-2.196l-6,-10.393c-1.656,-2.867 -0.672,-6.54 2.196,-8.196Z" style="fill:#ddd;"/><path id="_28" serif:id="28" d="M179.684,193.823l31.177,-18c2.868,-1.656 6.54,-0.672 8.196,2.196l6,10.392c1.656,2.868 0.672,6.541 -2.196,8.196l-31.177,18c-2.868,1.656 -6.54,0.672 -8.196,-2.196l-6,-10.392c-1.656,-2.868 -0.672,-6.541 2.196,-8.196Z" style="fill:#ddd;"/></g></g></svg>