<svg id="map" xmlns="http://www.w3.org/2000/svg" height="80vh" viewBox="0 0 376 667" stroke-linejoin="round"><style>.a{fill:#ddd;}</style><rect id="General-View" x="0.2" width="375" height="667" fill="none"/><clipPath id="_clip1"><rect id="General-View1" x="0.2" width="375" height="667"/></clipPath><g clip-path="url(#_clip1)"><g id="front_row"><path id="_8" d="M107.1 551.7l31.2-18c2.9-1.7 6.5-0.7 8.2 2.2l6 10.4c1.7 2.9 0.7 6.5-2.2 8.2l-31.2 18c-2.9 1.7-6.5 0.7-8.2-2.2l-6-10.4c-1.7-2.9-0.7-6.5 2.2-8.2Z" class="a"/><path id="_9" d="M107.1 511.3l31.2-18c2.9-1.7 6.5-0.7 8.2 2.2l6 10.4c1.7 2.9 0.7 6.5-2.2 8.2l-31.2 18c-2.9 1.7-6.5 0.7-8.2-2.2l-6-10.4c-1.7-2.9-0.7-6.5 2.2-8.2Z" class="a"/><path id="_10" d="M107.1 470.9l31.2-18c2.9-1.7 6.5-0.7 8.2 2.2l6 10.4c1.7 2.9 0.7 6.5-2.2 8.2l-31.2 18c-2.9 1.7-6.5 0.7-8.2-2.2l-6-10.4c-1.7-2.9-0.7-6.5 2.2-8.2Z" class="a"/><path id="_11" d="M107.1 430.5l31.2-18c2.9-1.7 6.5-0.7 8.2 2.2l6 10.4c1.7 2.9 0.7 6.5-2.2 8.2l-31.2 18c-2.9 1.7-6.5 0.7-8.2-2.2l-6-10.4c-1.7-2.9-0.7-6.5 2.2-8.2Z" class="a"/><path id="_12" d="M107.1 392.7l31.2-18c2.9-1.7 6.5-0.7 8.2 2.2l6 10.4c1.7 2.9 0.7 6.5-2.2 8.2l-31.2 18c-2.9 1.7-6.5 0.7-8.2-2.2l-6-10.4c-1.7-2.9-0.7-6.5 2.2-8.2Z" class="a"/><path id="_13" d="M107.1 352.3l31.2-18c2.9-1.7 6.5-0.7 8.2 2.2l6 10.4c1.7 2.9 0.7 6.5-2.2 8.2l-31.2 18c-2.9 1.7-6.5 0.7-8.2-2.2l-6-10.4c-1.7-2.9-0.7-6.5 2.2-8.2Z" class="a"/><path id="_14" d="M107.1 311.9l31.2-18c2.9-1.7 6.5-0.7 8.2 2.2l6 10.4c1.7 2.9 0.7 6.5-2.2 8.2l-31.2 18c-2.9 1.7-6.5 0.7-8.2-2.2l-6-10.4c-1.7-2.9-0.7-6.5 2.2-8.2Z" class="a"/><path id="_15" d="M107.1 271.5l31.2-18c2.9-1.7 6.5-0.7 8.2 2.2l6 10.4c1.7 2.9 0.7 6.5-2.2 8.2l-31.2 18c-2.9 1.7-6.5 0.7-8.2-2.2l-6-10.4c-1.7-2.9-0.7-6.5 2.2-8.2Z" class="a"/><path id="_16" d="M107.1 231.1l31.2-18c2.9-1.7 6.5-0.7 8.2 2.2l6 10.4c1.7 2.9 0.7 6.5-2.2 8.2l-31.2 18c-2.9 1.7-6.5 0.7-8.2-2.2l-6-10.4c-1.7-2.9-0.7-6.5 2.2-8.2Z" class="a"/><path id="_17" d="M107.1 193.3l31.2-18c2.9-1.7 6.5-0.7 8.2 2.2l6 10.4c1.7 2.9 0.7 6.5-2.2 8.2l-31.2 18c-2.9 1.7-6.5 0.7-8.2-2.2l-6-10.4c-1.7-2.9-0.7-6.5 2.2-8.2Z" class="a"/><path id="_18" d="M107.1 152.9l31.2-18c2.9-1.7 6.5-0.7 8.2 2.2l6 10.4c1.7 2.9 0.7 6.5-2.2 8.2l-31.2 18c-2.9 1.7-6.5 0.7-8.2-2.2l-6-10.4c-1.7-2.9-0.7-6.5 2.2-8.2Z" class="a"/><path id="_19" d="M107.1 112.5l31.2-18c2.9-1.7 6.5-0.7 8.2 2.2l6 10.4c1.7 2.9 0.7 6.5-2.2 8.2l-31.2 18c-2.9 1.7-6.5 0.7-8.2-2.2l-6-10.4c-1.7-2.9-0.7-6.5 2.2-8.2Z" class="a"/><path id="_20" d="M107.1 72.1l31.2-18c2.9-1.7 6.5-0.7 8.2 2.2l6 10.4c1.7 2.9 0.7 6.5-2.2 8.2l-31.2 18c-2.9 1.7-6.5 0.7-8.2-2.2l-6-10.4c-1.7-2.9-0.7-6.5 2.2-8.2Z" class="a"/></g><g id="sidewalk"><path id="_7" d="M29.9 161l0-36c0-3.3 2.7-6 6-6l12 0c3.3 0 6 2.7 6 6l0 36c0 3.3-2.7 6-6 6l-12 0c-3.3 0-6-2.7-6-6Z" class="a"/><path id="_6" d="M29.9 217l0-36c0-3.3 2.7-6 6-6l12 0c3.3 0 6 2.7 6 6l0 36c0 3.3-2.7 6-6 6l-12 0c-3.3 0-6-2.7-6-6Z" class="a"/><path id="_5" d="M29.9 273l0-36c0-3.3 2.7-6 6-6l12 0c3.3 0 6 2.7 6 6l0 36c0 3.3-2.7 6-6 6l-12 0c-3.3 0-6-2.7-6-6Z" class="a"/><path id="_4" d="M29.9 329l0-36c0-3.3 2.7-6 6-6l12 0c3.3 0 6 2.7 6 6l0 36c0 3.3-2.7 6-6 6l-12 0c-3.3 0-6-2.7-6-6Z" class="a"/><path id="_3" d="M29.9 385l0-36c0-3.3 2.7-6 6-6l12 0c3.3 0 6 2.7 6 6l0 36c0 3.3-2.7 6-6 6l-12 0c-3.3 0-6-2.7-6-6Z" class="a"/><path id="_2" d="M29.9 441l0-36c0-3.3 2.7-6 6-6l12 0c3.3 0 6 2.7 6 6l0 36c0 3.3-2.7 6-6 6l-12 0c-3.3 0-6-2.7-6-6Z" class="a"/><path id="_1" d="M29.9 497l0-36c0-3.3 2.7-6 6-6l12 0c3.3 0 6 2.7 6 6l0 36c0 3.3-2.7 6-6 6l-12 0c-3.3 0-6-2.7-6-6Z" class="a"/></g><g id="back_row"><path id="_21" d="M179.7 474l31.2-18c2.9-1.7 6.5-0.7 8.2 2.2l6 10.4c1.7 2.9 0.7 6.5-2.2 8.2l-31.2 18c-2.9 1.7-6.5 0.7-8.2-2.2l-6-10.4c-1.7-2.9-0.7-6.5 2.2-8.2Z" class="a"/><path id="_22" d="M179.7 433.6l31.2-18c2.9-1.7 6.5-0.7 8.2 2.2l6 10.4c1.7 2.9 0.7 6.5-2.2 8.2l-31.2 18c-2.9 1.7-6.5 0.7-8.2-2.2l-6-10.4c-1.7-2.9-0.7-6.5 2.2-8.2Z" class="a"/><path id="_23" d="M179.7 393.2l31.2-18c2.9-1.7 6.5-0.7 8.2 2.2l6 10.4c1.7 2.9 0.7 6.5-2.2 8.2l-31.2 18c-2.9 1.7-6.5 0.7-8.2-2.2l-6-10.4c-1.7-2.9-0.7-6.5 2.2-8.2Z" class="a"/><path id="_24" d="M179.7 352.8l31.2-18c2.9-1.7 6.5-0.7 8.2 2.2l6 10.4c1.7 2.9 0.7 6.5-2.2 8.2l-31.2 18c-2.9 1.7-6.5 0.7-8.2-2.2l-6-10.4c-1.7-2.9-0.7-6.5 2.2-8.2Z" class="a"/><path id="_25" d="M179.7 315l31.2-18c2.9-1.7 6.5-0.7 8.2 2.2l6 10.4c1.7 2.9 0.7 6.5-2.2 8.2l-31.2 18c-2.9 1.7-6.5 0.7-8.2-2.2l-6-10.4c-1.7-2.9-0.7-6.5 2.2-8.2Z" class="a"/><path id="_26" d="M179.7 274.6l31.2-18c2.9-1.7 6.5-0.7 8.2 2.2l6 10.4c1.7 2.9 0.7 6.5-2.2 8.2l-31.2 18c-2.9 1.7-6.5 0.7-8.2-2.2l-6-10.4c-1.7-2.9-0.7-6.5 2.2-8.2Z" class="a"/><path id="_27" d="M179.7 234.2l31.2-18c2.9-1.7 6.5-0.7 8.2 2.2l6 10.4c1.7 2.9 0.7 6.5-2.2 8.2l-31.2 18c-2.9 1.7-6.5 0.7-8.2-2.2l-6-10.4c-1.7-2.9-0.7-6.5 2.2-8.2Z" class="a"/><path id="_28" d="M179.7 193.8l31.2-18c2.9-1.7 6.5-0.7 8.2 2.2l6 10.4c1.7 2.9 0.7 6.5-2.2 8.2l-31.2 18c-2.9 1.7-6.5 0.7-8.2-2.2l-6-10.4c-1.7-2.9-0.7-6.5 2.2-8.2Z" class="a"/></g></g></svg>
