<svg xmlns="http://www.w3.org/2000/svg" width="100" height="70vh" viewBox="0 0 253 667" stroke-linejoin="round"><style>.a{fill:#ddd;}</style><g id="front_row"><path id="_8" d="M99.4 639.3l40-23.1c3.7-2.1 8.4-0.9 10.5 2.8l7.7 13.3c2.1 3.7 0.9 8.4-2.8 10.5l-40 23.1c-3.7 2.1-8.4 0.9-10.5-2.8l-7.7-13.3c-2.1-3.7-0.9-8.4 2.8-10.5Z" class="a"/><path id="_9" d="M99.4 587.5l40-23.1c3.7-2.1 8.4-0.9 10.5 2.8l7.7 13.3c2.1 3.7 0.9 8.4-2.8 10.5l-40 23.1c-3.7 2.1-8.4 0.9-10.5-2.8l-7.7-13.3c-2.1-3.7-0.9-8.4 2.8-10.5Z" class="a"/><path id="_10" d="M99.4 535.7l40-23.1c3.7-2.1 8.4-0.9 10.5 2.8l7.7 13.3c2.1 3.7 0.9 8.4-2.8 10.5l-40 23.1c-3.7 2.1-8.4 0.9-10.5-2.8l-7.7-13.3c-2.1-3.7-0.9-8.4 2.8-10.5Z" class="a"/><path id="_11" d="M99.4 483.9l40-23.1c3.7-2.1 8.4-0.9 10.5 2.8l7.7 13.3c2.1 3.7 0.9 8.4-2.8 10.5l-40 23.1c-3.7 2.1-8.4 0.9-10.5-2.8l-7.7-13.3c-2.1-3.7-0.9-8.4 2.8-10.5Z" class="a"/><path id="_12" d="M99.4 435.3l40-23.1c3.7-2.1 8.4-0.9 10.5 2.8l7.7 13.3c2.1 3.7 0.9 8.4-2.8 10.5l-40 23.1c-3.7 2.1-8.4 0.9-10.5-2.8l-7.7-13.3c-2.1-3.7-0.9-8.4 2.8-10.5Z" class="a"/><path id="_13" d="M99.4 383.5l40-23.1c3.7-2.1 8.4-0.9 10.5 2.8l7.7 13.3c2.1 3.7 0.9 8.4-2.8 10.5l-40 23.1c-3.7 2.1-8.4 0.9-10.5-2.8l-7.7-13.3c-2.1-3.7-0.9-8.4 2.8-10.5Z" class="a"/><path id="_14" d="M99.4 331.7l40-23.1c3.7-2.1 8.4-0.9 10.5 2.8l7.7 13.3c2.1 3.7 0.9 8.4-2.8 10.5l-40 23.1c-3.7 2.1-8.4 0.9-10.5-2.8l-7.7-13.3c-2.1-3.7-0.9-8.4 2.8-10.5Z" class="a"/><path id="_15" d="M99.4 279.9l40-23.1c3.7-2.1 8.4-0.9 10.5 2.8l7.7 13.3c2.1 3.7 0.9 8.4-2.8 10.5l-40 23.1c-3.7 2.1-8.4 0.9-10.5-2.8l-7.7-13.3c-2.1-3.7-0.9-8.4 2.8-10.5Z" class="a"/><path id="_16" d="M99.4 228.1l40-23.1c3.7-2.1 8.4-0.9 10.5 2.8l7.7 13.3c2.1 3.7 0.9 8.4-2.8 10.5l-40 23.1c-3.7 2.1-8.4 0.9-10.5-2.8l-7.7-13.3c-2.1-3.7-0.9-8.4 2.8-10.5Z" class="a"/><path id="_17" d="M99.4 179.5l40-23.1c3.7-2.1 8.4-0.9 10.5 2.8l7.7 13.3c2.1 3.7 0.9 8.4-2.8 10.5l-40 23.1c-3.7 2.1-8.4 0.9-10.5-2.8l-7.7-13.3c-2.1-3.7-0.9-8.4 2.8-10.5Z" class="a"/><path id="_18" d="M99.4 127.7l40-23.1c3.7-2.1 8.4-0.9 10.5 2.8l7.7 13.3c2.1 3.7 0.9 8.4-2.8 10.5l-40 23.1c-3.7 2.1-8.4 0.9-10.5-2.8l-7.7-13.3c-2.1-3.7-0.9-8.4 2.8-10.5Z" class="a"/><path id="_19" d="M99.4 75.9l40-23.1c3.7-2.1 8.4-0.9 10.5 2.8l7.7 13.3c2.1 3.7 0.9 8.4-2.8 10.5l-40 23.1c-3.7 2.1-8.4 0.9-10.5-2.8l-7.7-13.3c-2.1-3.7-0.9-8.4 2.8-10.5Z" class="a"/><path id="_20" d="M99.4 24.1l40-23.1c3.7-2.1 8.4-0.9 10.5 2.8l7.7 13.3c2.1 3.7 0.9 8.4-2.8 10.5l-40 23.1c-3.7 2.1-8.4 0.9-10.5-2.8l-7.7-13.3c-2.1-3.7-0.9-8.4 2.8-10.5Z" class="a"/></g><g id="sidewalk"><path id="_7" d="M0.4 138.1l0-46.2c0-4.2 3.4-7.7 7.7-7.7l15.4 0c4.2 0 7.7 3.4 7.7 7.7l0 46.2c0 4.2-3.4 7.7-7.7 7.7l-15.4 0c-4.2 0-7.7-3.4-7.7-7.7Z" class="a"/><path id="_6" d="M0.4 210l0-46.2c0-4.2 3.4-7.7 7.7-7.7l15.4 0c4.2 0 7.7 3.4 7.7 7.7l0 46.2c0 4.2-3.4 7.7-7.7 7.7l-15.4 0c-4.2 0-7.7-3.4-7.7-7.7Z" class="a"/><path id="_5" d="M0.4 281.8l0-46.2c0-4.2 3.4-7.7 7.7-7.7l15.4 0c4.2 0 7.7 3.5 7.7 7.7l0 46.2c0 4.2-3.4 7.7-7.7 7.7l-15.4 0c-4.2 0-7.7-3.4-7.7-7.7Z" class="a"/><path id="_4" d="M0.4 353.6l0-46.2c0-4.2 3.4-7.7 7.7-7.7l15.4 0c4.2 0 7.7 3.4 7.7 7.7l0 46.2c0 4.2-3.4 7.7-7.7 7.7l-15.4 0c-4.2 0-7.7-3.4-7.7-7.7Z" class="a"/><path id="_3" d="M0.4 425.5l0-46.2c0-4.2 3.4-7.7 7.7-7.7l15.4 0c4.2 0 7.7 3.4 7.7 7.7l0 46.2c0 4.2-3.4 7.7-7.7 7.7l-15.4 0c-4.2 0-7.7-3.4-7.7-7.7Z" class="a"/><path id="_2" d="M0.4 497.3l0-46.2c0-4.2 3.4-7.7 7.7-7.7l15.4 0c4.2 0 7.7 3.4 7.7 7.7l0 46.2c0 4.2-3.4 7.7-7.7 7.7l-15.4 0c-4.2 0-7.7-3.4-7.7-7.7Z" class="a"/><path id="_1" d="M0.4 569.1l0-46.2c0-4.2 3.4-7.7 7.7-7.7l15.4 0c4.2 0 7.7 3.4 7.7 7.7l0 46.2c0 4.2-3.4 7.7-7.7 7.7l-15.4 0c-4.2 0-7.7-3.4-7.7-7.7Z" class="a"/></g><g id="back_row"><path id="_21" d="M193.8 593.5l40-23.1c3.7-2.1 8.4-0.9 10.5 2.8l7.7 13.3c2.1 3.7 0.9 8.4-2.8 10.5l-40 23.1c-3.7 2.1-8.4 0.9-10.5-2.8l-7.7-13.3c-2.1-3.7-0.9-8.4 2.8-10.5Z" class="a"/><path id="_22" d="M193.8 541.7l40-23.1c3.7-2.1 8.4-0.9 10.5 2.8l7.7 13.3c2.1 3.7 0.9 8.4-2.8 10.5l-40 23.1c-3.7 2.1-8.4 0.9-10.5-2.8l-7.7-13.3c-2.1-3.7-0.9-8.4 2.8-10.5Z" class="a"/><path id="_23" d="M193.8 489.9l40-23.1c3.7-2.1 8.4-0.9 10.5 2.8l7.7 13.3c2.1 3.7 0.9 8.4-2.8 10.5l-40 23.1c-3.7 2.1-8.4 0.9-10.5-2.8l-7.7-13.3c-2.1-3.7-0.9-8.4 2.8-10.5Z" class="a"/><path id="_24" d="M193.8 438.1l40-23.1c3.7-2.1 8.4-0.9 10.5 2.8l7.7 13.3c2.1 3.7 0.9 8.4-2.8 10.5l-40 23.1c-3.7 2.1-8.4 0.9-10.5-2.8l-7.7-13.3c-2.1-3.7-0.9-8.4 2.8-10.5Z" class="a"/><path id="_25" d="M193.8 389.5l40-23.1c3.7-2.1 8.4-0.9 10.5 2.8l7.7 13.3c2.1 3.7 0.9 8.4-2.8 10.5l-40 23.1c-3.7 2.1-8.4 0.9-10.5-2.8l-7.7-13.3c-2.1-3.7-0.9-8.4 2.8-10.5Z" class="a"/><path id="_26" d="M193.8 337.7l40-23.1c3.7-2.1 8.4-0.9 10.5 2.8l7.7 13.3c2.1 3.7 0.9 8.4-2.8 10.5l-40 23.1c-3.7 2.1-8.4 0.9-10.5-2.8l-7.7-13.3c-2.1-3.7-0.9-8.4 2.8-10.5Z" class="a"/><path id="_27" d="M193.8 285.9l40-23.1c3.7-2.1 8.4-0.9 10.5 2.8l7.7 13.3c2.1 3.7 0.9 8.4-2.8 10.5l-40 23.1c-3.7 2.1-8.4 0.9-10.5-2.8l-7.7-13.3c-2.1-3.7-0.9-8.4 2.8-10.5Z" class="a"/><path id="_28" d="M193.8 234.1l40-23.1c3.7-2.1 8.4-0.9 10.5 2.8l7.7 13.3c2.1 3.7 0.9 8.4-2.8 10.5l-40 23.1c-3.7 2.1-8.4 0.9-10.5-2.8l-7.7-13.3c-2.1-3.7-0.9-8.4 2.8-10.5Z" class="a"/></g></svg>
