<svg version="1.1" id="Layer_1" xmlns="http://www.w3.org/2000/svg" xmlns:xlink="http://www.w3.org/1999/xlink" x="0px" y="0px"
	 width="100%" viewBox="0 0 443 202" enable-background="new 0 0 443 202" xml:space="preserve">
<path fill="#1B1A1A" opacity="1.000000" stroke="none"
	d="
M398.993652,77.925293
	C404.974762,78.012962 410.462646,77.686142 415.899017,78.923706
	C425.376282,81.081161 431.378967,86.834038 432.972198,95.572487
	C435.246429,108.045860 431.875092,118.595970 423.339813,123.388885
	C420.015350,125.255692 420.326599,126.507240 421.935211,129.222534
	C425.744934,135.653305 429.284302,142.246582 432.845154,148.821732
	C435.350861,153.448578 433.837128,157.241974 428.484955,160.160934
	C423.503510,162.877701 419.462860,162.049271 417.051727,157.496811
	C412.465149,148.836853 407.799652,140.201645 403.688904,131.314713
	C401.939178,127.532082 399.238281,127.913101 396.357941,128.142960
	C392.630768,128.440384 394.446381,131.481369 394.391357,133.211807
	C394.169159,140.198013 394.372528,147.196457 394.268524,154.188156
	C394.198639,158.889221 391.221222,161.059891 385.323944,160.991898
	C379.575684,160.925629 376.769928,158.888382 376.757050,154.324356
	C376.691254,131.013809 376.747528,107.702950 376.705780,84.392288
	C376.697388,79.718521 378.975952,77.797050 383.510468,77.900612
	C388.503021,78.014641 393.500214,77.925774 398.993652,77.925293
z"/>
<path fill="#1C1B1B" opacity="1.000000" stroke="none"
	d="
M339.863678,88.170059
	C346.204834,108.892181 352.455963,129.228333 358.695190,149.568115
	C360.576416,155.700760 358.931793,158.456589 352.278748,160.404861
	C346.136871,162.203415 343.518768,160.703964 341.759186,154.380051
	C338.723358,143.469406 338.723358,143.469406 327.141418,143.469391
	C314.997681,143.469376 314.997681,143.469376 311.611877,155.118881
	C309.972595,160.759186 307.060272,162.186768 300.986603,160.327240
	C294.747742,158.417160 293.009979,155.719070 294.658447,150.275940
	C301.114349,128.958801 307.601379,107.651100 314.078125,86.340279
	C316.095520,79.702148 319.401733,77.247917 326.448273,77.150108
	C333.606354,77.050751 337.166718,79.628448 339.226257,86.387878
	C339.371521,86.864616 339.586517,87.320107 339.863678,88.170059
z"/>
<path fill="#1C1C1C" opacity="1.000000" stroke="none"
	d="
M189.453781,134.719910
	C186.453384,130.892441 182.468155,129.126205 178.614288,127.175087
	C174.462814,125.073303 170.109131,123.300507 166.177933,120.848297
	C157.205978,115.251755 153.621307,106.925255 155.051727,96.509697
	C156.346390,87.082588 162.655594,82.007156 171.042068,79.192406
	C180.523163,76.010254 190.117294,76.581245 199.522385,79.623619
	C204.983948,81.390343 206.941528,84.590889 206.127365,89.235886
	C205.020660,95.549858 201.226822,97.701668 195.363998,95.102341
	C189.899582,92.679649 184.388992,91.213562 178.421158,92.896828
	C175.527908,93.712883 173.116440,95.119888 172.639038,98.361633
	C172.181763,101.466629 174.185516,103.398773 176.536957,104.781174
	C183.123810,108.653580 190.504639,110.956467 196.913177,115.252045
	C203.925629,119.952415 207.710663,126.328812 208.322708,134.702942
	C209.326096,148.431717 202.134109,158.239395 188.643616,161.156067
	C179.237610,163.189682 170.098022,162.262650 161.436600,157.877823
	C158.748032,156.516708 156.249466,154.841003 154.451111,152.344940
	C151.780640,148.638428 152.374039,143.599686 155.826996,140.055557
	C159.351059,136.438431 162.852554,137.706177 165.993881,140.412979
	C170.928864,144.665344 176.383865,146.984116 182.954391,145.926559
	C189.494339,144.873947 191.725296,141.187622 189.453781,134.719910
z"/>
<path fill="#1B1A1A" opacity="1.000000" stroke="none"
	d="
M105.507996,163.940216
	C105.508011,153.294830 105.537811,143.139374 105.498161,132.984192
	C105.468277,125.332901 106.292229,126.377983 98.889679,126.319496
	C91.692604,126.262627 88.687958,122.190491 90.767975,115.388481
	C91.654678,112.488808 93.300804,110.900139 96.496216,110.944359
	C102.987732,111.034195 109.485100,110.843910 115.972725,111.027756
	C121.287056,111.178345 123.122604,113.179108 123.130928,118.396828
	C123.157501,135.044815 123.224739,151.693604 123.095078,168.340683
	C122.991074,181.694794 117.791168,189.446442 106.939293,193.027679
	C94.282906,197.204407 78.996277,193.638229 72.022758,184.868042
	C68.299149,180.185074 67.172394,174.788406 67.623360,168.934250
	C68.037277,163.561127 71.747627,162.700897 76.073532,162.625900
	C82.129410,162.520905 84.312561,163.982880 85.168182,168.702423
	C86.557343,176.364899 88.219398,178.515335 93.175346,179.062500
	C100.868065,179.911819 104.755020,176.697418 105.380424,168.920517
	C105.500298,167.429993 105.469322,165.927322 105.507996,163.940216
z"/>
<path fill="#1C1B1B" opacity="1.000000" stroke="none"
	d="
M42.218529,81.307007
	C42.251858,91.152992 42.253948,91.122482 51.559402,91.759895
	C53.191769,91.871712 54.866093,92.169174 56.402542,92.714668
	C59.467854,93.802956 60.720253,96.320984 60.607349,99.384323
	C60.485504,102.690269 58.798058,105.048744 55.477077,105.934357
	C54.360371,106.232155 53.182182,106.338356 52.023991,106.435539
	C42.188042,107.260834 42.167377,107.253998 42.093456,117.034981
	C42.050694,122.693001 41.912575,128.358261 42.130814,134.008163
	C42.375454,140.341476 44.866180,142.587830 51.161083,142.743591
	C52.159012,142.768295 53.159550,142.718048 54.156067,142.763748
	C57.400261,142.912537 60.776619,143.049088 61.272221,147.313141
	C61.740047,151.338272 61.072266,154.994781 56.868595,156.974106
	C40.960262,164.464630 23.314035,153.609818 23.133158,136.151031
	C23.048683,127.997292 23.047482,119.837845 23.271404,111.688202
	C23.360020,108.463036 22.928619,106.678513 19.119122,106.051575
	C14.136759,105.231621 12.164387,101.200966 13.445132,96.294235
	C14.196759,93.414642 15.763231,91.320976 18.993095,91.725197
	C22.880234,92.211662 23.179991,90.263397 23.116098,87.105690
	C22.960823,79.431259 26.117466,75.314819 32.624123,74.023178
	C38.547764,72.847267 41.211739,74.748764 42.218529,81.307007
z"/>
<path fill="#1E1D1D" opacity="1.000000" stroke="none"
	d="
M261.124329,98.168343
	C261.123993,116.788795 261.136108,134.927078 261.115997,153.065323
	C261.109711,158.743500 258.560059,161.000412 252.303467,160.996277
	C246.037582,160.992142 243.437988,158.724594 243.426270,153.015717
	C243.389053,134.877518 243.274475,116.737373 243.516434,98.602348
	C243.570465,94.551170 242.334244,93.434624 238.536560,93.803864
	C235.404510,94.108376 232.216171,93.952545 229.058212,93.843559
	C224.610214,93.690048 222.388046,90.920555 222.395187,85.755257
	C222.402390,80.546906 224.542572,77.956848 229.167664,77.940620
	C244.643234,77.886337 260.119293,77.879105 275.594757,77.946053
	C280.301208,77.966408 282.170898,80.393372 282.120728,85.912697
	C282.071259,91.356598 280.139130,93.709152 275.416138,93.844482
	C271.924438,93.944542 268.412750,94.065475 264.937561,93.806488
	C261.853271,93.576622 260.572998,94.597214 261.124329,98.168343
z"/>
<path fill="#0DA4DE" opacity="1.000000" stroke="none"
	d="
M130.710144,51.006199
	C128.760590,50.958508 127.257072,51.000511 125.769737,50.864922
	C122.038849,50.524815 118.400932,50.074528 120.911598,55.888481
	C121.482025,57.209427 120.630867,58.528439 119.095726,58.924046
	C117.560608,59.319653 116.433632,58.531410 115.936752,57.163906
	C114.530472,53.293533 113.252235,49.376633 112.146484,46.132137
	C123.228264,46.132137 134.163101,46.118649 145.097839,46.146927
	C146.706253,46.151085 148.116272,46.830208 148.610641,48.442986
	C149.154114,50.215900 147.833405,51.170918 146.555038,52.012005
	C142.669128,54.568707 138.877838,57.294266 134.842819,59.590553
	C132.122177,61.138851 131.813416,62.746159 132.714218,65.635590
	C135.380112,74.186630 137.648834,82.861076 140.109879,91.476685
	C140.711823,93.583916 141.768036,96.014580 138.751541,96.832970
	C135.657837,97.672302 135.471558,94.840652 134.891556,92.835922
	C132.124695,83.272354 129.573502,73.640732 126.542290,64.162292
	C125.439430,60.713684 125.766762,58.670811 129.090469,56.969093
	C131.695572,55.635296 134.019409,53.752167 137.531616,51.401318
	C134.593307,51.223091 132.878418,51.119072 130.710144,51.006199
z"/>
<path fill="#F6BB41" opacity="1.000000" stroke="none"
	d="
M93.978912,46.996346
	C97.251297,37.873722 100.416321,29.132387 103.609077,20.401197
	C104.286247,18.549362 104.765709,16.234205 107.286964,16.282810
	C109.911781,16.333410 110.026749,18.837950 110.603157,20.652323
	C111.708336,24.131176 113.076683,27.602964 113.562790,31.182663
	C114.176498,35.702015 116.878822,36.773083 120.696060,36.823822
	C128.011810,36.921062 135.327759,37.005966 142.643250,37.119534
	C144.304077,37.145309 145.971161,37.192944 147.621353,37.364899
	C149.396713,37.549904 151.054001,38.214256 150.856216,40.355812
	C150.666122,42.413857 149.016235,42.936859 147.192123,42.879215
	C139.556870,42.637917 131.899460,41.890404 124.293152,42.246513
	C114.770477,42.692345 106.634430,42.187424 108.241096,27.762503
	C105.673622,31.484838 101.696121,41.116253 101.357124,42.762196
	C100.784508,45.542480 102.850121,44.742241 104.115173,44.811497
	C106.138298,44.922245 108.613663,44.692936 108.531128,47.494133
	C108.450668,50.224682 105.978249,50.018887 103.956268,50.033039
	C101.129761,50.052822 98.301796,50.061886 95.477669,50.164249
	C93.069473,50.251537 93.115517,49.052128 93.978912,46.996346
z"/>
<path fill="#1CC28B" opacity="1.000000" stroke="none"
	d="
M92.918274,81.998688
	C94.347343,81.076050 95.427071,80.295303 96.562653,79.606659
	C99.169174,78.026001 101.817009,76.570496 97.145279,74.133469
	C95.456993,73.252769 94.865433,71.616760 96.141541,69.941025
	C97.451675,68.220589 99.003319,68.771622 100.503983,69.835159
	C103.603363,72.031731 106.720215,74.203636 110.430595,76.807205
	C100.810448,83.235306 91.595680,89.413307 82.351250,95.546600
	C81.008965,96.437149 79.473595,96.550461 78.210335,95.399063
	C77.057106,94.347946 77.388123,93.016830 77.883095,91.704659
	C79.639709,87.047928 81.213501,82.315338 83.155525,77.738350
	C84.124283,75.455177 83.687668,74.242569 81.743301,72.790497
	C74.419617,67.321037 67.223366,61.680099 60.014317,56.058601
	C58.367149,54.774170 55.804417,53.382610 57.586739,50.935513
	C59.652916,48.098686 61.667545,50.528374 63.436569,51.886620
	C71.214378,57.858368 78.838448,64.040710 86.785118,69.777000
	C89.923645,72.042542 90.780067,74.051468 89.071716,77.573868
	C87.965912,79.853882 86.705673,82.268005 86.776222,85.146774
	C89.373047,84.990776 90.783310,83.195786 92.918274,81.998688
z"/>
<path fill="#F57169" opacity="1.000000" stroke="none"
	d="
M78.139404,58.843018
	C74.403419,56.023376 70.875015,53.510994 67.527176,50.777458
	C65.989700,49.522095 63.230785,48.780350 64.150780,45.905609
	C65.069778,43.034027 67.650391,43.943535 69.683250,43.942440
	C73.843323,43.940189 78.017242,43.923496 82.158905,44.249794
	C85.037949,44.476616 86.241020,43.348846 87.106873,40.701004
	C89.894699,32.175606 92.960526,23.741306 95.894913,15.263491
	C96.613121,13.188502 97.154823,10.679424 100.157310,11.838560
	C102.831352,12.870894 101.743515,15.021762 101.083298,16.925798
	C97.654701,26.813681 94.144615,36.675339 90.895378,46.622070
	C89.991043,49.390476 88.567329,50.162701 85.829987,49.922653
	C82.865311,49.662666 79.860207,49.863750 75.200844,49.863750
	C80.089409,53.569302 83.863121,56.525688 87.744896,59.332642
	C89.753448,60.785042 89.770355,58.873051 90.149254,57.669384
	C90.814720,55.555328 91.526604,53.063126 94.436516,54.189983
	C97.004517,55.184433 95.891647,57.432041 95.370918,59.362568
	C92.523682,69.918266 92.538055,69.922882 83.954422,63.327183
	C82.107414,61.907940 80.265190,60.482487 78.139404,58.843018
z"/>
<path fill="#F58B3C" opacity="1.000000" stroke="none"
	d="
M126.476845,76.465408
	C128.058960,82.485687 129.548889,88.107285 130.914047,93.759018
	C131.294373,95.333496 131.728592,97.093483 129.952637,98.283447
	C128.091202,99.530670 126.850067,98.236259 125.572350,97.180702
	C122.110069,94.320366 118.513145,91.600800 115.254913,88.523346
	C113.010216,86.403198 111.233032,86.466667 108.767891,88.093819
	C101.413658,92.948051 93.931442,97.608955 86.479706,102.314507
	C84.562828,103.524971 82.286728,105.594246 80.492104,102.724350
	C78.821259,100.052383 81.673027,99.020058 83.385277,97.917297
	C91.914452,92.424187 100.556496,87.103378 109.010361,81.498032
	C111.688278,79.722427 113.500656,79.752045 115.900742,81.973579
	C117.878700,83.804382 119.764252,86.041267 123.057800,87.020866
	C122.697914,81.972527 121.163307,77.587631 119.902740,73.182442
	C119.104095,70.391457 117.497704,72.630394 116.513199,73.177895
	C114.636642,74.221458 112.714966,75.276108 111.349625,72.946350
	C110.126915,70.859985 111.983551,69.765488 113.505424,68.623405
	C122.629044,61.776585 122.616051,61.753674 125.546135,72.678589
	C125.847359,73.801727 126.075462,74.944473 126.476845,76.465408
z"/>
<path fill="#F58C3E" opacity="1.000000" stroke="none"
	d="
M107.556107,94.614014
	C110.344856,92.582962 112.817688,92.511940 114.994667,94.796036
	C116.612259,96.493233 117.086105,98.623619 115.969109,100.760124
	C114.435577,103.693336 111.913422,104.856903 108.930115,103.222160
	C105.309029,101.237938 104.922333,98.245743 107.556107,94.614014
z"/>
<path fill="#F6BB41" opacity="1.000000" stroke="none"
	d="
M122.122894,32.602043
	C119.112839,31.865988 117.214294,30.377621 117.049927,27.480347
	C116.913414,25.074005 118.193558,23.305683 120.333199,22.341591
	C122.303131,21.453972 124.276237,21.771320 125.943588,23.180523
	C127.438721,24.444183 128.222412,26.132156 127.761230,28.071453
	C127.116882,30.780975 125.288902,32.315506 122.122894,32.602043
z"/>
<path fill="#0CA4DE" opacity="1.000000" stroke="none"
	d="
M147.452621,63.801819
	C148.649612,67.426559 147.914658,69.987274 144.474106,71.307983
	C141.934097,72.282997 139.884674,71.344879 138.433456,69.302841
	C136.752747,66.937866 137.244064,64.441391 139.197021,62.566307
	C142.069412,59.808460 144.839127,60.589939 147.452621,63.801819
z"/>
<path fill="#1EC28C" opacity="1.000000" stroke="none"
	d="
M68.435966,75.817543
	C71.161362,72.441772 74.084518,72.362503 76.802460,74.871933
	C79.081520,76.976166 78.754280,79.712959 76.964401,82.031601
	C75.532372,83.886673 73.409988,84.483452 71.184502,83.540649
	C67.797676,82.105881 67.286308,79.384056 68.435966,75.817543
z"/>
<path fill="#F46F66" opacity="1.000000" stroke="none"
	d="
M73.524162,33.270382
	C74.500473,29.450520 76.565178,27.862112 80.205772,28.823347
	C83.060753,29.577150 84.312302,31.527168 84.042618,34.364689
	C83.770164,37.231476 82.029861,38.913055 79.178299,39.060921
	C75.488297,39.252262 73.796310,37.086170 73.524162,33.270382
z"/>
<path fill="#F2F2F4" opacity="1.000000" stroke="none"
	d="
M415.771973,106.458092
	C414.717896,112.482063 410.891541,114.242752 405.702972,114.517365
	C394.268860,115.122528 394.272400,115.189697 394.272400,103.814026
	C394.272400,92.695007 394.272400,92.695007 405.335144,93.248680
	C413.466461,93.655647 416.022552,96.773666 415.771973,106.458092
z"/>
<path fill="#F2F2F4" opacity="1.000000" stroke="none"
	d="
M328.807404,129.923111
	C318.388031,129.923111 318.379456,129.920792 320.948669,120.376602
	C322.713287,113.821312 324.505890,107.273567 326.619293,99.495888
	C328.282959,105.416252 329.663544,110.245605 330.994263,115.088654
	C332.306671,119.864975 333.568573,124.655167 334.982483,129.923111
	C332.826752,129.923111 331.049408,129.923111 328.807404,129.923111
z"/>
</svg>