<?xml version="1.0" standalone="no"?>
<!DOCTYPE svg PUBLIC "-//W3C//DTD SVG 20010904//EN"
 "http://www.w3.org/TR/2001/REC-SVG-20010904/DTD/svg10.dtd">
<svg version="1.0" xmlns="http://www.w3.org/2000/svg"
 width="688.000000pt" height="688.000000pt" viewBox="0 0 688.000000 688.000000"
 preserveAspectRatio="xMidYMid meet">
<metadata>
Created by potrace 1.14, written by Peter Selinger 2001-2017
</metadata>
<g transform="translate(0.000000,688.000000) scale(0.100000,-0.100000)"
fill="#000000" stroke="none">
<path d="M343 6002 c-42 -3 -58 -22 -33 -37 6 -4 19 -23 30 -43 11 -20 30 -53
43 -73 12 -20 48 -78 80 -130 32 -52 72 -116 89 -144 17 -27 85 -138 151 -245
66 -107 134 -217 152 -245 80 -127 96 -153 116 -190 12 -22 25 -42 29 -45 3
-3 21 -30 38 -60 18 -30 51 -84 72 -119 22 -34 40 -69 40 -77 0 -7 -18 -50
-39 -94 -22 -44 -37 -80 -34 -80 3 0 0 -6 -6 -14 -7 -8 -13 -22 -15 -32 -3
-11 -18 -54 -34 -96 -17 -43 -28 -78 -25 -78 3 0 0 -7 -7 -15 -7 -8 -10 -15
-7 -15 4 0 0 -19 -9 -41 -8 -23 -16 -51 -18 -63 -2 -12 -13 -66 -25 -121 -11
-55 -23 -122 -26 -150 -4 -27 -8 -61 -11 -75 -2 -14 -6 -96 -9 -182 -3 -86 -5
-161 -6 -165 -1 -4 0 -10 1 -13 1 -3 3 -36 5 -75 2 -66 10 -138 20 -195 2 -14
7 -42 10 -63 45 -320 192 -697 387 -994 122 -185 319 -410 468 -533 30 -25 57
-47 60 -50 34 -35 291 -210 355 -242 17 -8 71 -35 120 -61 209 -106 499 -199
722 -233 21 -3 49 -7 63 -10 41 -8 133 -15 315 -26 21 -1 291 13 315 17 14 2
48 6 75 9 28 4 95 16 150 27 120 25 110 23 165 38 25 7 52 15 60 17 21 5 161
52 180 61 8 3 17 7 20 8 53 18 184 79 283 132 315 169 583 396 810 686 127
162 234 342 326 549 32 72 117 316 125 358 2 14 5 25 6 25 1 0 3 8 5 19 2 10
8 39 14 65 14 59 20 96 27 146 2 22 7 46 9 53 26 74 26 601 0 702 -2 8 -6 35
-9 60 -11 80 -28 157 -70 310 -21 80 -91 270 -115 318 -5 9 -20 40 -34 68
l-25 51 54 84 c30 46 57 91 61 99 4 8 49 83 100 165 51 83 97 157 102 165 9
13 106 170 168 269 13 20 26 43 30 51 3 8 9 17 13 20 3 3 44 68 91 145 46 77
87 145 92 150 14 19 117 187 117 192 0 3 9 18 21 34 l20 29 -63 1 c-35 0 -103
0 -153 -1 -86 -2 -113 -1 -253 3 -34 1 -62 0 -62 -3 0 -6 -99 -2 -117 4 -7 3
-15 1 -18 -3 -3 -5 -20 -6 -37 -2 -18 4 -44 6 -58 4 -22 -2 -131 -3 -170 -2
-8 0 -55 0 -105 0 -49 0 -141 -1 -203 -1 -63 0 -118 -3 -123 -6 -5 -3 -9 0 -9
6 0 6 -4 9 -9 5 -8 -4 -61 -6 -166 -4 -16 1 -59 1 -95 0 -36 0 -72 0 -80 0 -8
0 -46 0 -85 0 -38 0 -77 0 -85 0 -22 1 -184 0 -265 -1 -68 -1 -99 -1 -233 3
-34 1 -62 0 -62 -3 0 -6 -99 -2 -117 4 -7 3 -15 1 -18 -5 -4 -5 -11 -6 -17 -3
-13 8 -346 7 -359 -1 -5 -4 -9 -3 -9 2 0 7 -54 7 -220 2 -8 0 -102 0 -208 1
-106 0 -197 -2 -202 -5 -6 -3 -10 -1 -10 5 0 6 -4 9 -9 5 -8 -4 -61 -6 -166
-4 -16 1 -59 1 -95 0 -120 -2 -265 -3 -315 -1 -27 1 -78 2 -113 3 -34 1 -62 0
-62 -3 0 -6 -99 -2 -117 4 -7 3 -15 1 -18 -3 -3 -5 -20 -6 -37 -2 -18 4 -44 6
-58 4 -22 -2 -131 -3 -170 -2 -8 0 -55 0 -105 0 -49 0 -141 -1 -203 -1 -63 0
-118 -3 -123 -6 -5 -3 -9 0 -9 6 0 6 -4 9 -9 5 -8 -4 -61 -6 -166 -4 -16 1
-59 1 -95 0 -36 0 -72 0 -80 0 -8 0 -46 0 -85 0 -38 0 -77 0 -85 0 -22 1 -183
0 -265 -1 -101 -2 -146 -1 -180 2 -16 2 -49 2 -72 0z m982 -482 c11 4 33 5 50
3 48 -6 175 -8 175 -3 0 6 98 3 116 -4 7 -3 16 -1 19 5 4 5 11 7 16 4 5 -4 37
-6 71 -6 141 2 158 1 158 -7 0 -4 -30 -29 -67 -57 -109 -82 -243 -209 -359
-340 l-61 -68 -64 104 c-35 57 -68 111 -74 121 -5 9 -42 69 -82 132 l-72 116
50 -1 c27 -1 52 1 55 4 3 3 16 2 28 -2 11 -5 30 -5 41 -1z m3833 -3 c39 -1 72
0 72 3 0 6 98 3 116 -4 7 -3 16 -1 19 3 3 5 20 6 37 2 18 -4 44 -5 58 -4 32 4
77 4 173 1 44 -2 79 1 81 7 3 6 5 0 5 -12 1 -12 -3 -24 -7 -27 -5 -3 -48 -69
-96 -148 -155 -254 -175 -283 -188 -280 -7 2 -17 10 -21 18 -32 56 -252 272
-377 369 -41 32 -79 62 -84 66 -5 4 10 7 32 6 23 -2 42 0 42 4 0 3 15 4 33 2
17 -2 65 -5 105 -6z m-1963 -60 c0 -26 2 -47 5 -47 3 0 3 -29 0 -65 -3 -36 -3
-65 1 -65 3 0 3 -20 -1 -45 -4 -24 -4 -49 0 -54 3 -6 3 -38 0 -71 -3 -34 -4
-63 -2 -65 4 -3 5 -134 2 -152 -2 -11 -1 -128 1 -139 1 -5 0 -13 -1 -19 -2
-12 -2 -128 1 -141 1 -5 0 -13 -1 -19 -2 -12 -2 -128 1 -141 1 -5 0 -13 -1
-19 -2 -12 -2 -128 1 -141 1 -5 0 -13 -1 -19 -2 -12 -2 -128 1 -141 1 -5 0
-13 -1 -19 -2 -12 -2 -128 1 -141 1 -5 0 -13 -1 -19 -2 -12 -2 -128 1 -141 1
-5 1 -13 0 -19 -2 -5 -2 -55 -1 -110 0 -55 1 -107 1 -115 0 -8 -1 -34 -1 -58
0 -23 2 -47 5 -52 4 -6 3 -10 -2 -10 -4 0 -8 -22 -8 -50 0 -27 2 -50 5 -50 3
0 3 -29 0 -65 -3 -36 -3 -65 1 -65 3 0 3 -20 -1 -45 -4 -24 -4 -49 0 -55 4 -7
4 -26 1 -43 -4 -18 -4 -49 0 -69 3 -21 4 -38 0 -38 -3 0 -6 -22 -6 -50 0 -27
2 -50 5 -50 3 0 3 -29 0 -65 -3 -36 -3 -65 1 -65 3 0 3 -20 -1 -45 -4 -24 -4
-49 0 -54 3 -6 3 -38 0 -71 -3 -34 -2 -64 2 -66 5 -3 6 -9 4 -13 -4 -6 -7 -73
-6 -121 2 -56 -5 -129 -12 -122 -7 7 -245 389 -275 442 -8 14 -39 63 -69 110
-30 47 -60 96 -66 110 -7 14 -19 31 -26 39 -8 8 -18 24 -23 35 -5 12 -17 33
-27 48 -18 29 -125 200 -145 233 -7 11 -29 46 -49 78 -21 32 -38 60 -38 62 0
8 -85 140 -92 143 -5 2 -8 10 -8 18 0 8 -4 14 -10 14 -5 0 -10 6 -10 13 0 10
-67 121 -121 199 -11 15 -19 30 -19 33 0 4 -12 25 -27 48 -16 23 -33 51 -40
62 -6 11 -47 76 -90 145 -43 69 -82 132 -88 142 -5 9 -26 42 -45 73 -19 31
-39 64 -45 73 -63 105 -90 148 -97 150 -4 2 -8 10 -8 17 0 8 -6 20 -13 27 -7
7 -18 26 -25 41 -12 27 -9 33 50 110 99 130 196 234 308 327 36 30 67 57 70
60 3 3 16 13 30 22 14 10 45 32 70 49 239 170 609 316 868 343 18 2 36 6 39
10 16 16 28 -4 28 -47z m555 39 c25 -3 56 -8 70 -11 14 -3 34 -7 45 -9 122
-24 327 -92 440 -146 34 -16 66 -30 70 -30 9 0 102 -56 212 -127 167 -108 348
-273 471 -429 35 -44 66 -84 71 -90 35 -44 34 -52 -18 -135 -28 -44 -51 -84
-51 -89 0 -6 -4 -10 -10 -10 -5 0 -10 -5 -10 -10 0 -6 -9 -23 -19 -38 -11 -15
-144 -229 -296 -477 -152 -247 -287 -466 -300 -485 -12 -19 -68 -109 -123
-200 -56 -91 -106 -170 -112 -177 -5 -7 -10 -14 -10 -16 0 -4 -220 -363 -274
-447 -13 -19 -23 -39 -24 -44 0 -5 -4 -12 -9 -15 -5 -3 -33 -46 -63 -96 -30
-49 -64 -103 -75 -120 -12 -16 -27 -42 -35 -57 -7 -16 -15 -27 -16 -25 -4 4
-7 214 -5 357 2 111 0 194 -5 201 -3 5 -2 9 3 9 4 0 7 46 5 102 -2 95 -3 200
-1 216 1 4 1 9 0 12 -5 13 -5 150 -1 150 4 0 4 88 0 235 0 22 -1 82 -1 134 1
51 -2 97 -5 102 -3 5 -2 9 3 9 4 0 7 46 5 102 -2 95 -3 200 -1 216 1 4 1 9 0
12 -5 13 -5 150 -1 150 5 0 5 75 0 131 -1 13 -1 29 0 34 1 6 1 53 0 105 -1
101 0 197 1 208 1 4 1 9 0 12 -5 13 -5 150 -1 150 4 0 4 88 0 235 0 22 -1 82
-1 134 1 51 -2 97 -5 102 -3 5 -2 9 3 9 4 0 7 38 6 84 -1 61 2 84 10 81 7 -2
32 -6 57 -9z m-2259 -1436 c8 -16 70 -120 139 -230 180 -287 207 -331 230
-370 11 -19 34 -55 50 -80 16 -25 35 -56 43 -70 23 -42 278 -453 298 -482 10
-15 19 -31 19 -37 0 -5 3 -11 8 -13 4 -1 27 -37 51 -78 25 -41 48 -76 53 -78
4 -2 8 -8 8 -14 0 -5 15 -33 33 -61 72 -112 87 -137 87 -142 0 -3 5 -11 11
-18 10 -12 206 -326 235 -377 33 -58 57 -96 75 -119 10 -13 19 -30 19 -37 0
-8 5 -14 10 -14 6 0 10 -4 10 -9 0 -5 17 -36 38 -68 20 -32 42 -67 49 -78 6
-11 50 -82 96 -157 47 -76 82 -140 78 -142 -4 -3 -25 -1 -47 4 -21 5 -50 11
-64 13 -114 21 -319 88 -426 138 -33 16 -64 29 -67 29 -24 0 -321 189 -373
237 -14 13 -27 23 -30 23 -18 0 -227 211 -305 308 -85 105 -249 362 -249 389
0 4 -14 36 -31 72 -17 36 -32 71 -33 76 -1 6 -4 15 -8 20 -8 14 -78 234 -77
243 1 4 0 10 -1 15 -9 27 -30 132 -35 172 -3 22 -7 51 -10 65 -4 19 -14 161
-17 235 -1 28 13 254 17 280 5 32 17 93 20 110 2 6 5 26 9 45 3 19 10 50 15
68 5 17 7 32 5 32 -3 0 -2 6 3 13 4 6 9 17 10 22 26 107 31 113 54 65z m3929
12 c0 -10 3 -22 7 -26 4 -3 8 -12 9 -19 1 -7 7 -32 15 -57 18 -65 23 -86 39
-185 5 -33 12 -76 16 -95 17 -102 11 -438 -11 -568 -4 -20 -8 -48 -10 -62 -3
-14 -7 -36 -10 -50 -3 -14 -8 -35 -10 -46 -49 -231 -209 -577 -352 -759 -13
-16 -27 -35 -31 -40 -65 -92 -316 -345 -342 -345 -5 0 -10 -4 -12 -9 -4 -12
-175 -132 -231 -161 -26 -14 -47 -28 -47 -32 0 -5 -5 -8 -10 -8 -6 0 -34 -12
-63 -26 -69 -34 -208 -95 -227 -99 -8 -2 -35 -11 -60 -20 -25 -9 -52 -18 -60
-20 -8 -2 -51 -13 -95 -24 -44 -11 -93 -22 -110 -25 -16 -3 -43 -8 -59 -12
l-28 -6 23 43 c13 24 30 50 37 57 6 7 12 17 12 22 0 5 22 41 48 82 27 40 84
132 127 203 44 72 83 132 87 133 4 2 8 8 8 13 0 9 131 224 150 246 5 7 10 17
10 22 0 5 6 16 13 23 7 7 28 38 45 68 40 68 47 80 95 153 20 32 37 61 37 64 0
3 10 20 23 37 13 17 45 68 73 114 27 45 61 101 76 125 15 23 41 67 59 97 18
30 40 66 50 80 32 48 189 302 189 306 0 3 9 17 19 32 10 15 67 106 127 202 59
96 155 252 213 345 58 94 115 187 126 208 21 40 35 48 35 19z"/>
</g>
</svg>
