<?xml version="1.0" encoding="UTF-8" standalone="no"?>
<svg
   width="336"
   height="84"
   viewBox="0 0 672 168"
   version="1.1"
   xml:space="preserve"
   style="clip-rule:evenodd;fill-rule:evenodd;stroke-linejoin:round;stroke-miterlimit:1.41421"
   id="svg3"
   sodipodi:docname="icons.svg"
   inkscape:version="1.3 (1:1.3+202307231459+0e150ed6c4)"
   xmlns:inkscape="http://www.inkscape.org/namespaces/inkscape"
   xmlns:sodipodi="http://sodipodi.sourceforge.net/DTD/sodipodi-0.dtd"
   xmlns="http://www.w3.org/2000/svg"
   xmlns:svg="http://www.w3.org/2000/svg"><defs
     id="defs3" /><sodipodi:namedview
     id="namedview3"
     pagecolor="#999999"
     bordercolor="#000000"
     borderopacity="0.25"
     inkscape:showpageshadow="2"
     inkscape:pageopacity="0.0"
     inkscape:pagecheckerboard="0"
     inkscape:deskcolor="#d1d1d1"
     inkscape:zoom="9.7433804"
     inkscape:cx="295.48266"
     inkscape:cy="35.973141"
     inkscape:window-width="1920"
     inkscape:window-height="1009"
     inkscape:window-x="0"
     inkscape:window-y="34"
     inkscape:window-maximized="1"
     inkscape:current-layer="svg3" /><path
     id="rect3490.-9"
     d="m 69.672,119.141 c -3.324,0 -6,2.676 -6,6 v 29.718 c 0,3.324 2.676,6 6,6 h 28.656 c 3.324,0 6,-2.676 6,-6 v -29.718 c 0,-3.324 -2.676,-6 -6,-6 z m 14.812,10.156 c 1.875,0 3.389,0.531 4.532,1.625 1.142,1.084 1.718,2.406 1.718,3.969 0,0.996 -0.254,1.882 -0.781,2.625 -0.517,0.732 -1.31,1.287 -2.375,1.687 1.318,0.43 2.317,1.137 3,2.094 0.693,0.957 1.031,2.078 1.031,3.406 0,1.836 -0.638,3.406 -1.937,4.656 -1.299,1.25 -3.006,1.875 -5.125,1.875 -2.119,0 -3.826,-0.625 -5.125,-1.875 -1.299,-1.259 -1.969,-2.843 -1.969,-4.718 0,-1.397 0.36,-2.563 1.063,-3.5 0.713,-0.948 1.722,-1.596 3.031,-1.938 -1.094,-0.4 -1.91,-0.976 -2.438,-1.719 -0.527,-0.742 -0.781,-1.621 -0.781,-2.656 0,-1.562 0.565,-2.873 1.688,-3.937 1.123,-1.065 2.603,-1.594 4.468,-1.594 z m 0.032,2.156 c -1.006,0 -1.836,0.324 -2.5,0.969 -0.664,0.644 -1,1.414 -1,2.312 0,1.016 0.345,1.856 1,2.5 0.654,0.645 1.486,0.969 2.531,0.969 1.015,0 1.855,-0.334 2.5,-0.969 0.654,-0.644 0.969,-1.416 0.969,-2.343 0,-0.967 -0.327,-1.784 -1,-2.438 -0.664,-0.664 -1.504,-1 -2.5,-1 z m -0.032,8.906 c -1.24,0 -2.273,0.399 -3.093,1.219 -0.811,0.82 -1.219,1.863 -1.219,3.094 0,0.752 0.18,1.453 0.531,2.156 0.361,0.703 0.891,1.266 1.594,1.656 0.703,0.381 1.471,0.563 2.281,0.563 1.26,0 2.274,-0.408 3.094,-1.219 0.82,-0.81 1.25,-1.844 1.25,-3.094 0,-1.269 -0.432,-2.295 -1.281,-3.125 -0.84,-0.83 -1.887,-1.25 -3.157,-1.25 z"
     style="fill:#ffffff;fill-rule:nonzero" /><path
     id="path3201"
     d="m 187.611,28 c -2.469,0.076 -4.488,1.051 -6.057,2.926 h -3.063 c -1.25,0 -2.301,-0.309 -3.155,-0.926 -0.853,-0.617 -1.28,-1.52 -1.28,-2.709 0,-5.379 0.945,-8.068 2.835,-8.068 0.091,0 0.423,0.16 0.994,0.48 0.572,0.32 1.314,0.643 2.229,0.971 0.914,0.328 1.821,0.491 2.72,0.491 1.021,0 2.034,-0.175 3.04,-0.525 -0.076,0.564 -0.114,1.066 -0.114,1.508 0,2.119 0.617,4.069 1.851,5.852 z m 24.481,14.56 c 0,1.829 -0.556,3.273 -1.669,4.332 -1.112,1.059 -2.59,1.589 -4.434,1.589 h -19.978 c -1.844,0 -3.322,-0.53 -4.434,-1.589 -1.113,-1.059 -1.669,-2.503 -1.669,-4.332 0,-0.807 0.027,-1.596 0.08,-2.365 0.053,-0.77 0.16,-1.6 0.32,-2.492 0.16,-0.891 0.362,-1.718 0.606,-2.48 0.244,-0.762 0.571,-1.505 0.983,-2.229 0.411,-0.723 0.883,-1.341 1.417,-1.851 0.533,-0.511 1.185,-0.918 1.954,-1.223 0.77,-0.305 1.619,-0.457 2.549,-0.457 0.152,0 0.48,0.164 0.983,0.491 0.503,0.328 1.059,0.694 1.668,1.098 0.61,0.403 1.425,0.769 2.446,1.097 1.021,0.327 2.05,0.491 3.086,0.491 1.036,0 2.065,-0.164 3.086,-0.491 1.021,-0.328 1.836,-0.694 2.446,-1.097 0.609,-0.404 1.165,-0.77 1.668,-1.098 0.503,-0.327 0.831,-0.491 0.983,-0.491 0.93,0 1.779,0.152 2.549,0.457 0.769,0.305 1.421,0.712 1.954,1.223 0.533,0.51 1.006,1.128 1.417,1.851 0.412,0.724 0.739,1.467 0.983,2.229 0.244,0.762 0.446,1.589 0.606,2.48 0.16,0.892 0.267,1.722 0.32,2.492 0.053,0.769 0.08,1.558 0.08,2.365 z M 188.685,13.371 c 0,1.615 -0.571,2.994 -1.714,4.137 -1.143,1.143 -2.522,1.715 -4.137,1.715 -1.615,0 -2.995,-0.572 -4.137,-1.715 -1.143,-1.143 -1.715,-2.522 -1.715,-4.137 0,-1.615 0.572,-2.994 1.715,-4.137 1.142,-1.143 2.522,-1.715 4.137,-1.715 1.615,0 2.994,0.572 4.137,1.715 1.143,1.143 1.714,2.522 1.714,4.137 z m 16.092,8.777 c 0,2.423 -0.857,4.492 -2.571,6.206 -1.714,1.715 -3.783,2.572 -6.206,2.572 -2.423,0 -4.492,-0.857 -6.206,-2.572 -1.714,-1.714 -2.571,-3.783 -2.571,-6.206 0,-2.423 0.857,-4.491 2.571,-6.206 1.714,-1.714 3.783,-2.571 6.206,-2.571 2.423,0 4.492,0.857 6.206,2.571 1.714,1.715 2.571,3.783 2.571,6.206 z m 13.167,5.143 c 0,1.189 -0.427,2.092 -1.281,2.709 -0.853,0.617 -1.904,0.926 -3.154,0.926 h -3.063 c -1.569,-1.875 -3.589,-2.85 -6.057,-2.926 1.234,-1.783 1.851,-3.733 1.851,-5.852 0,-0.442 -0.038,-0.944 -0.114,-1.508 1.006,0.35 2.019,0.525 3.04,0.525 0.899,0 1.806,-0.163 2.72,-0.491 0.915,-0.328 1.657,-0.651 2.229,-0.971 0.571,-0.32 0.903,-0.48 0.994,-0.48 1.89,0 2.835,2.689 2.835,8.068 z m -2.926,-13.92 c 0,1.615 -0.572,2.994 -1.715,4.137 -1.143,1.143 -2.522,1.715 -4.137,1.715 -1.615,0 -2.994,-0.572 -4.137,-1.715 -1.143,-1.143 -1.715,-2.522 -1.715,-4.137 0,-1.615 0.572,-2.994 1.715,-4.137 1.143,-1.143 2.522,-1.715 4.137,-1.715 1.615,0 2.994,0.572 4.137,1.715 1.143,1.143 1.715,2.522 1.715,4.137 z"
     style="fill:#464646;fill-rule:nonzero" /><path
     id="path3201.-4"
     d="m 187.611,84 c -2.469,0.076 -4.488,1.051 -6.057,2.926 h -3.063 c -1.25,0 -2.301,-0.309 -3.155,-0.926 -0.853,-0.617 -1.28,-1.52 -1.28,-2.709 0,-5.379 0.945,-8.068 2.835,-8.068 0.091,0 0.423,0.16 0.994,0.48 0.572,0.32 1.314,0.643 2.229,0.971 0.914,0.328 1.821,0.491 2.72,0.491 1.021,0 2.034,-0.175 3.04,-0.525 -0.076,0.564 -0.114,1.066 -0.114,1.508 0,2.119 0.617,4.069 1.851,5.852 z m 24.481,14.56 c 0,1.829 -0.556,3.273 -1.669,4.332 -1.112,1.059 -2.59,1.589 -4.434,1.589 h -19.978 c -1.844,0 -3.322,-0.53 -4.434,-1.589 -1.113,-1.059 -1.669,-2.503 -1.669,-4.332 0,-0.807 0.027,-1.596 0.08,-2.365 0.053,-0.77 0.16,-1.6 0.32,-2.492 0.16,-0.891 0.362,-1.718 0.606,-2.48 0.244,-0.762 0.571,-1.505 0.983,-2.229 0.411,-0.723 0.883,-1.341 1.417,-1.851 0.533,-0.511 1.185,-0.918 1.954,-1.223 0.77,-0.305 1.619,-0.457 2.549,-0.457 0.152,0 0.48,0.164 0.983,0.491 0.503,0.328 1.059,0.694 1.668,1.098 0.61,0.403 1.425,0.769 2.446,1.097 1.021,0.327 2.05,0.491 3.086,0.491 1.036,0 2.065,-0.164 3.086,-0.491 1.021,-0.328 1.836,-0.694 2.446,-1.097 0.609,-0.404 1.165,-0.77 1.668,-1.098 0.503,-0.327 0.831,-0.491 0.983,-0.491 0.93,0 1.779,0.152 2.549,0.457 0.769,0.305 1.421,0.712 1.954,1.223 0.533,0.51 1.006,1.128 1.417,1.851 0.412,0.724 0.739,1.467 0.983,2.229 0.244,0.762 0.446,1.589 0.606,2.48 0.16,0.892 0.267,1.722 0.32,2.492 0.053,0.769 0.08,1.558 0.08,2.365 z M 188.685,69.371 c 0,1.615 -0.571,2.994 -1.714,4.137 -1.143,1.143 -2.522,1.715 -4.137,1.715 -1.615,0 -2.995,-0.572 -4.137,-1.715 -1.143,-1.143 -1.715,-2.522 -1.715,-4.137 0,-1.615 0.572,-2.994 1.715,-4.137 1.142,-1.143 2.522,-1.715 4.137,-1.715 1.615,0 2.994,0.572 4.137,1.715 1.143,1.143 1.714,2.522 1.714,4.137 z m 16.092,8.777 c 0,2.423 -0.857,4.492 -2.571,6.206 -1.714,1.715 -3.783,2.572 -6.206,2.572 -2.423,0 -4.492,-0.857 -6.206,-2.572 -1.714,-1.714 -2.571,-3.783 -2.571,-6.206 0,-2.423 0.857,-4.491 2.571,-6.206 1.714,-1.714 3.783,-2.571 6.206,-2.571 2.423,0 4.492,0.857 6.206,2.571 1.714,1.715 2.571,3.783 2.571,6.206 z m 13.167,5.143 c 0,1.189 -0.427,2.092 -1.28,2.709 -0.854,0.617 -1.905,0.926 -3.155,0.926 h -3.063 c -1.569,-1.875 -3.589,-2.85 -6.057,-2.926 1.234,-1.783 1.851,-3.733 1.851,-5.852 0,-0.442 -0.038,-0.944 -0.114,-1.508 1.006,0.35 2.019,0.525 3.04,0.525 0.899,0 1.806,-0.163 2.72,-0.491 0.915,-0.328 1.657,-0.651 2.229,-0.971 0.571,-0.32 0.903,-0.48 0.994,-0.48 1.89,0 2.835,2.689 2.835,8.068 z m -2.926,-13.92 c 0,1.615 -0.572,2.994 -1.715,4.137 -1.143,1.143 -2.522,1.715 -4.137,1.715 -1.615,0 -2.994,-0.572 -4.137,-1.715 -1.143,-1.143 -1.715,-2.522 -1.715,-4.137 0,-1.615 0.572,-2.994 1.715,-4.137 1.143,-1.143 2.522,-1.715 4.137,-1.715 1.615,0 2.994,0.572 4.137,1.715 1.143,1.143 1.715,2.522 1.715,4.137 z"
     style="fill:#0055a4;fill-rule:nonzero" /><path
     id="path3282"
     d="m 330.999,30.938 c 0,0.505 -0.253,1.044 -0.759,1.615 l -8.225,9.694 c -0.702,0.833 -1.685,1.538 -2.95,2.118 -1.265,0.579 -2.436,0.869 -3.513,0.869 h -26.634 c -0.555,0 -1.048,-0.106 -1.481,-0.318 -0.432,-0.213 -0.649,-0.564 -0.649,-1.053 0,-0.506 0.253,-1.045 0.759,-1.616 l 8.225,-9.694 c 0.702,-0.832 1.685,-1.538 2.95,-2.117 1.265,-0.58 2.436,-0.869 3.513,-0.869 h 26.634 c 0.555,0 1.049,0.106 1.481,0.318 0.433,0.212 0.649,0.563 0.649,1.053 z m -8.397,-8.421 v 3.916 h -20.367 c -1.534,0 -3.142,0.388 -4.822,1.163 -1.681,0.775 -3.02,1.75 -4.015,2.925 l -8.25,9.694 -0.122,0.147 c 0,-0.065 -0.004,-0.167 -0.012,-0.306 -0.009,-0.138 -0.013,-0.24 -0.013,-0.306 v -23.5 c 0,-1.502 0.539,-2.791 1.616,-3.868 1.077,-1.077 2.366,-1.616 3.868,-1.616 h 7.833 c 1.502,0 2.791,0.539 3.868,1.616 1.077,1.077 1.616,2.366 1.616,3.868 v 0.783 h 13.317 c 1.501,0 2.79,0.539 3.867,1.616 1.078,1.077 1.616,2.366 1.616,3.868 z"
     style="fill:#464646;fill-rule:nonzero" /><path
     id="path3282.-8"
     d="m 330.999,86.938 c 0,0.505 -0.253,1.044 -0.759,1.615 l -8.225,9.694 c -0.702,0.833 -1.685,1.538 -2.95,2.118 -1.265,0.579 -2.436,0.869 -3.513,0.869 h -26.634 c -0.555,0 -1.049,-0.106 -1.481,-0.318 -0.432,-0.213 -0.649,-0.564 -0.649,-1.053 0,-0.506 0.253,-1.045 0.759,-1.616 l 8.225,-9.694 c 0.702,-0.832 1.685,-1.538 2.95,-2.117 1.265,-0.58 2.436,-0.869 3.513,-0.869 h 26.634 c 0.555,0 1.049,0.106 1.481,0.318 0.433,0.212 0.649,0.563 0.649,1.053 z m -8.397,-8.421 v 3.916 h -20.367 c -1.534,0 -3.142,0.388 -4.822,1.163 -1.681,0.775 -3.02,1.75 -4.015,2.925 l -8.25,9.694 -0.122,0.147 c 0,-0.065 -0.004,-0.167 -0.012,-0.306 -0.009,-0.138 -0.013,-0.24 -0.013,-0.306 v -23.5 c 0,-1.502 0.539,-2.791 1.616,-3.868 1.077,-1.077 2.366,-1.616 3.868,-1.616 h 7.833 c 1.502,0 2.791,0.539 3.868,1.616 1.077,1.077 1.616,2.366 1.616,3.868 v 0.783 h 13.317 c 1.501,0 2.79,0.539 3.867,1.616 1.078,1.077 1.616,2.366 1.616,3.868 z"
     style="fill:#0055a4;fill-rule:nonzero" /><path
     id="path3349"
     d="m 268.184,30.751 v 8.928 c 0,2.227 -0.79,4.131 -2.372,5.712 -1.581,1.582 -3.486,2.373 -5.713,2.373 h -23.357 c -2.227,0 -4.131,-0.791 -5.713,-2.373 -1.581,-1.581 -2.372,-3.485 -2.372,-5.712 V 16.321 c 0,-2.227 0.791,-4.131 2.372,-5.712 1.582,-1.582 3.486,-2.373 5.713,-2.373 h 23.357 c 1.179,0 2.274,0.234 3.285,0.702 0.281,0.131 0.449,0.346 0.505,0.646 0.056,0.318 -0.028,0.589 -0.253,0.814 l -1.375,1.376 c -0.187,0.187 -0.403,0.28 -0.646,0.28 -0.056,0 -0.14,-0.018 -0.253,-0.056 -0.43,-0.112 -0.851,-0.168 -1.263,-0.168 h -23.357 c -1.235,0 -2.293,0.44 -3.172,1.319 -0.88,0.88 -1.32,1.937 -1.32,3.172 v 23.358 c 0,1.235 0.44,2.292 1.32,3.172 0.879,0.879 1.937,1.319 3.172,1.319 h 23.357 c 1.235,0 2.293,-0.44 3.172,-1.319 0.88,-0.88 1.32,-1.937 1.32,-3.172 v -7.131 c 0,-0.243 0.084,-0.449 0.253,-0.618 l 1.796,-1.796 c 0.187,-0.188 0.403,-0.281 0.646,-0.281 0.112,0 0.225,0.028 0.337,0.084 0.374,0.15 0.561,0.421 0.561,0.814 z m 6.485,-13.728 -22.851,22.852 c -0.45,0.449 -0.983,0.674 -1.601,0.674 -0.617,0 -1.151,-0.225 -1.6,-0.674 L 236.546,27.803 c -0.45,-0.449 -0.674,-0.982 -0.674,-1.6 0,-0.617 0.224,-1.151 0.674,-1.6 l 3.088,-3.088 c 0.449,-0.449 0.982,-0.674 1.6,-0.674 0.617,0 1.151,0.225 1.6,0.674 l 7.383,7.383 18.164,-18.163 c 0.449,-0.449 0.982,-0.674 1.6,-0.674 0.618,0 1.151,0.225 1.6,0.674 l 3.088,3.088 c 0.449,0.449 0.674,0.982 0.674,1.6 0,0.618 -0.225,1.151 -0.674,1.6 z"
     style="fill:#464646;fill-rule:nonzero" /><path
     id="path3349.-6"
     d="m 268.184,86.751 v 8.928 c 0,2.227 -0.79,4.131 -2.372,5.712 -1.581,1.582 -3.486,2.373 -5.713,2.373 h -23.357 c -2.227,0 -4.131,-0.791 -5.713,-2.373 -1.581,-1.581 -2.372,-3.485 -2.372,-5.712 V 72.321 c 0,-2.227 0.791,-4.131 2.372,-5.712 1.582,-1.582 3.486,-2.373 5.713,-2.373 h 23.357 c 1.179,0 2.274,0.234 3.285,0.702 0.281,0.131 0.449,0.346 0.505,0.646 0.056,0.318 -0.028,0.589 -0.253,0.814 l -1.375,1.376 c -0.187,0.187 -0.403,0.28 -0.646,0.28 -0.056,0 -0.14,-0.018 -0.253,-0.056 -0.43,-0.112 -0.851,-0.168 -1.263,-0.168 h -23.357 c -1.235,0 -2.293,0.44 -3.172,1.319 -0.88,0.88 -1.32,1.937 -1.32,3.172 v 23.358 c 0,1.235 0.44,2.292 1.32,3.172 0.879,0.879 1.937,1.319 3.172,1.319 h 23.357 c 1.235,0 2.293,-0.44 3.172,-1.319 0.88,-0.88 1.32,-1.937 1.32,-3.172 v -7.131 c 0,-0.243 0.084,-0.449 0.253,-0.618 l 1.796,-1.796 c 0.187,-0.188 0.403,-0.281 0.646,-0.281 0.112,0 0.225,0.028 0.337,0.084 0.374,0.15 0.561,0.421 0.561,0.814 z m 6.485,-13.728 -22.851,22.852 c -0.45,0.449 -0.983,0.674 -1.601,0.674 -0.617,0 -1.151,-0.225 -1.6,-0.674 L 236.546,83.803 c -0.45,-0.449 -0.674,-0.982 -0.674,-1.6 0,-0.617 0.224,-1.151 0.674,-1.6 l 3.088,-3.088 c 0.449,-0.449 0.982,-0.674 1.6,-0.674 0.617,0 1.151,0.225 1.6,0.674 l 7.383,7.383 18.164,-18.163 c 0.449,-0.449 0.982,-0.674 1.6,-0.674 0.618,0 1.151,0.225 1.6,0.674 l 3.088,3.088 c 0.449,0.449 0.674,0.982 0.674,1.6 0,0.618 -0.225,1.151 -0.674,1.6 z"
     style="fill:#0055a4;fill-rule:nonzero" /><path
     id="path3415"
     d="m 13.494,33.44 c 0,-1.001 -0.355,-1.856 -1.063,-2.564 -0.708,-0.709 -1.563,-1.063 -2.564,-1.063 -1.001,0 -1.856,0.354 -2.564,1.063 -0.709,0.708 -1.063,1.563 -1.063,2.564 0,1.001 0.354,1.856 1.063,2.564 0.708,0.708 1.563,1.063 2.564,1.063 1.001,0 1.856,-0.355 2.564,-1.063 0.708,-0.708 1.063,-1.563 1.063,-2.564 z m 5.439,-12.693 c 0,-1.001 -0.354,-1.856 -1.062,-2.564 -0.708,-0.709 -1.563,-1.063 -2.564,-1.063 -1.001,0 -1.856,0.354 -2.564,1.063 -0.709,0.708 -1.063,1.563 -1.063,2.564 0,1.001 0.354,1.856 1.063,2.564 0.708,0.708 1.563,1.062 2.564,1.062 1.001,0 1.856,-0.354 2.564,-1.062 0.708,-0.708 1.062,-1.563 1.062,-2.564 z M 31.06,34.375 33.922,23.552 c 0.113,-0.491 0.042,-0.949 -0.213,-1.374 -0.255,-0.425 -0.618,-0.704 -1.091,-0.836 -0.472,-0.132 -0.925,-0.071 -1.36,0.184 -0.434,0.255 -0.717,0.628 -0.85,1.119 l -2.861,10.823 c -1.134,0.095 -2.144,0.506 -3.032,1.233 -0.888,0.727 -1.483,1.657 -1.785,2.791 -0.378,1.454 -0.189,2.833 0.567,4.136 0.755,1.303 1.86,2.144 3.315,2.522 1.454,0.378 2.833,0.189 4.136,-0.567 1.304,-0.755 2.144,-1.86 2.522,-3.315 0.302,-1.133 0.245,-2.238 -0.17,-3.315 -0.416,-1.076 -1.096,-1.936 -2.04,-2.578 z m 18.7,-0.935 c 0,-1.001 -0.354,-1.856 -1.063,-2.564 -0.708,-0.709 -1.563,-1.063 -2.564,-1.063 -1.001,0 -1.856,0.354 -2.564,1.063 -0.708,0.708 -1.063,1.563 -1.063,2.564 0,1.001 0.355,1.856 1.063,2.564 0.708,0.708 1.563,1.063 2.564,1.063 1.001,0 1.856,-0.355 2.564,-1.063 0.709,-0.708 1.063,-1.563 1.063,-2.564 z M 31.627,15.307 c 0,-1.001 -0.355,-1.856 -1.063,-2.564 C 29.856,12.034 29.001,11.68 28,11.68 c -1.001,0 -1.856,0.354 -2.564,1.063 -0.708,0.708 -1.063,1.563 -1.063,2.564 0,1.001 0.355,1.856 1.063,2.564 0.708,0.708 1.563,1.062 2.564,1.062 1.001,0 1.856,-0.354 2.564,-1.062 0.708,-0.708 1.063,-1.563 1.063,-2.564 z m 12.693,5.44 c 0,-1.001 -0.354,-1.856 -1.063,-2.564 -0.708,-0.709 -1.563,-1.063 -2.564,-1.063 -1.001,0 -1.856,0.354 -2.564,1.063 -0.708,0.708 -1.062,1.563 -1.062,2.564 0,1.001 0.354,1.856 1.062,2.564 0.708,0.708 1.563,1.062 2.564,1.062 1.001,0 1.856,-0.354 2.564,-1.062 0.709,-0.708 1.063,-1.563 1.063,-2.564 z m 9.066,12.693 c 0,4.93 -1.331,9.491 -3.995,13.685 -0.358,0.548 -0.868,0.821 -1.53,0.821 H 8.139 c -0.662,0 -1.172,-0.273 -1.53,-0.821 C 3.945,42.95 2.614,38.389 2.614,33.44 c 0,-3.438 0.67,-6.724 2.011,-9.86 1.341,-3.135 3.145,-5.837 5.412,-8.103 2.267,-2.267 4.968,-4.071 8.103,-5.412 3.136,-1.341 6.422,-2.011 9.86,-2.011 3.438,0 6.724,0.67 9.86,2.011 3.135,1.341 5.836,3.145 8.103,5.412 2.267,2.266 4.071,4.968 5.412,8.103 1.341,3.136 2.011,6.422 2.011,9.86 z"
     style="fill:#464646;fill-rule:nonzero" /><path
     id="path3415.-1"
     d="m 13.494,89.44 c 0,-1.001 -0.355,-1.856 -1.063,-2.564 -0.708,-0.709 -1.563,-1.063 -2.564,-1.063 -1.001,0 -1.856,0.354 -2.564,1.063 -0.709,0.708 -1.063,1.563 -1.063,2.564 0,1.001 0.354,1.856 1.063,2.564 0.708,0.708 1.563,1.063 2.564,1.063 1.001,0 1.856,-0.355 2.564,-1.063 0.708,-0.708 1.063,-1.563 1.063,-2.564 z m 5.439,-12.693 c 0,-1.001 -0.354,-1.856 -1.062,-2.564 -0.708,-0.709 -1.563,-1.063 -2.564,-1.063 -1.001,0 -1.856,0.354 -2.564,1.063 -0.709,0.708 -1.063,1.563 -1.063,2.564 0,1.001 0.354,1.856 1.063,2.564 0.708,0.708 1.563,1.062 2.564,1.062 1.001,0 1.856,-0.354 2.564,-1.062 0.708,-0.708 1.062,-1.563 1.062,-2.564 z M 31.06,90.375 33.922,79.552 c 0.113,-0.491 0.042,-0.949 -0.213,-1.374 -0.255,-0.425 -0.618,-0.704 -1.091,-0.836 -0.472,-0.132 -0.925,-0.071 -1.36,0.184 -0.434,0.255 -0.717,0.628 -0.85,1.119 l -2.861,10.823 c -1.134,0.095 -2.144,0.506 -3.032,1.233 -0.888,0.727 -1.483,1.657 -1.785,2.791 -0.378,1.454 -0.189,2.833 0.567,4.136 0.755,1.303 1.86,2.144 3.315,2.522 1.454,0.378 2.833,0.189 4.136,-0.567 1.304,-0.755 2.144,-1.86 2.522,-3.315 0.302,-1.133 0.245,-2.238 -0.17,-3.315 -0.416,-1.076 -1.096,-1.936 -2.04,-2.578 z m 18.7,-0.935 c 0,-1.001 -0.354,-1.856 -1.063,-2.564 -0.708,-0.709 -1.563,-1.063 -2.564,-1.063 -1.001,0 -1.856,0.354 -2.564,1.063 -0.708,0.708 -1.063,1.563 -1.063,2.564 0,1.001 0.355,1.856 1.063,2.564 0.708,0.708 1.563,1.063 2.564,1.063 1.001,0 1.856,-0.355 2.564,-1.063 0.709,-0.708 1.063,-1.563 1.063,-2.564 z M 31.627,71.307 c 0,-1.001 -0.355,-1.856 -1.063,-2.564 C 29.856,68.034 29.001,67.68 28,67.68 c -1.001,0 -1.856,0.354 -2.564,1.063 -0.708,0.708 -1.063,1.563 -1.063,2.564 0,1.001 0.355,1.856 1.063,2.564 0.708,0.708 1.563,1.062 2.564,1.062 1.001,0 1.856,-0.354 2.564,-1.062 0.708,-0.708 1.063,-1.563 1.063,-2.564 z m 12.693,5.44 c 0,-1.001 -0.354,-1.856 -1.063,-2.564 -0.708,-0.709 -1.563,-1.063 -2.564,-1.063 -1.001,0 -1.856,0.354 -2.564,1.063 -0.708,0.708 -1.062,1.563 -1.062,2.564 0,1.001 0.354,1.856 1.062,2.564 0.708,0.708 1.563,1.062 2.564,1.062 1.001,0 1.856,-0.354 2.564,-1.062 0.709,-0.708 1.063,-1.563 1.063,-2.564 z m 9.066,12.693 c 0,4.93 -1.331,9.491 -3.995,13.685 -0.358,0.548 -0.868,0.821 -1.53,0.821 H 8.139 c -0.662,0 -1.172,-0.273 -1.53,-0.821 C 3.945,98.95 2.614,94.389 2.614,89.44 c 0,-3.438 0.67,-6.724 2.011,-9.86 1.341,-3.135 3.145,-5.837 5.412,-8.103 2.267,-2.267 4.968,-4.071 8.103,-5.412 3.136,-1.341 6.422,-2.011 9.86,-2.011 3.438,0 6.724,0.67 9.86,2.011 3.135,1.341 5.836,3.145 8.103,5.412 2.267,2.266 4.071,4.968 5.412,8.103 1.341,3.136 2.011,6.422 2.011,9.86 z"
     style="fill:#0055a4;fill-rule:nonzero" /><path
     id="path3463"
     d="m 123.611,45.879 h 6.705 v -6.705 h -6.705 z m 8.194,0 h 7.45 v -6.705 h -7.45 z m -8.194,-8.195 h 6.705 v -7.449 h -6.705 z m 8.194,0 h 7.45 v -7.449 h -7.45 z m -8.194,-8.939 h 6.705 V 22.04 h -6.705 z m 17.134,17.134 h 7.45 v -6.705 h -7.45 z m -8.94,-17.134 h 7.45 V 22.04 h -7.45 z m 17.879,17.134 h 6.705 v -6.705 h -6.705 z m -8.939,-8.195 h 7.45 v -7.449 h -7.45 z M 132.55,17.571 v -6.705 c 0,-0.202 -0.073,-0.376 -0.221,-0.524 -0.147,-0.147 -0.322,-0.221 -0.524,-0.221 h -1.489 c -0.202,0 -0.377,0.074 -0.524,0.221 -0.148,0.148 -0.221,0.322 -0.221,0.524 v 6.705 c 0,0.201 0.073,0.376 0.221,0.523 0.147,0.148 0.322,0.222 0.524,0.222 h 1.489 c 0.202,0 0.377,-0.074 0.524,-0.222 0.148,-0.147 0.221,-0.322 0.221,-0.523 z m 17.134,20.113 h 6.705 v -7.449 h -6.705 z m -8.939,-8.939 h 7.45 V 22.04 h -7.45 z m 8.939,0 h 6.705 V 22.04 h -6.705 z m 0.745,-11.174 v -6.705 c 0,-0.202 -0.073,-0.376 -0.221,-0.524 -0.147,-0.147 -0.322,-0.221 -0.524,-0.221 h -1.489 c -0.202,0 -0.377,0.074 -0.524,0.221 -0.148,0.148 -0.221,0.322 -0.221,0.524 v 6.705 c 0,0.201 0.073,0.376 0.221,0.523 0.147,0.148 0.322,0.222 0.524,0.222 h 1.489 c 0.202,0 0.377,-0.074 0.524,-0.222 0.148,-0.147 0.221,-0.322 0.221,-0.523 z m 8.94,-1.49 v 29.798 c 0,0.807 -0.295,1.505 -0.885,2.095 -0.589,0.59 -1.288,0.885 -2.095,0.885 h -32.778 c -0.807,0 -1.506,-0.295 -2.095,-0.885 -0.59,-0.59 -0.885,-1.288 -0.885,-2.095 V 16.081 c 0,-0.807 0.295,-1.506 0.885,-2.096 0.589,-0.589 1.288,-0.884 2.095,-0.884 h 2.98 v -2.235 c 0,-1.024 0.364,-1.901 1.094,-2.631 0.729,-0.729 1.606,-1.094 2.631,-1.094 h 1.489 c 1.025,0 1.902,0.365 2.631,1.094 0.73,0.73 1.094,1.607 1.094,2.631 v 2.235 h 8.94 v -2.235 c 0,-1.024 0.364,-1.901 1.094,-2.631 0.729,-0.729 1.606,-1.094 2.631,-1.094 h 1.489 c 1.025,0 1.902,0.365 2.631,1.094 0.73,0.73 1.094,1.607 1.094,2.631 v 2.235 h 2.98 c 0.807,0 1.506,0.295 2.095,0.884 0.59,0.59 0.885,1.289 0.885,2.096 z"
     style="fill:#464646;fill-rule:nonzero" /><path
     id="path3463.-6"
     d="m 123.611,101.879 h 6.705 v -6.705 h -6.705 z m 8.194,0 h 7.45 v -6.705 h -7.45 z m -8.194,-8.195 h 6.705 v -7.449 h -6.705 z m 8.194,0 h 7.45 v -7.449 h -7.45 z m -8.194,-8.939 h 6.705 V 78.04 h -6.705 z m 17.134,17.134 h 7.45 v -6.705 h -7.45 z m -8.94,-17.134 h 7.45 V 78.04 h -7.45 z m 17.879,17.134 h 6.705 v -6.705 h -6.705 z m -8.939,-8.195 h 7.45 v -7.449 h -7.45 z M 132.55,73.571 v -6.705 c 0,-0.202 -0.073,-0.376 -0.221,-0.524 -0.147,-0.147 -0.322,-0.221 -0.524,-0.221 h -1.489 c -0.202,0 -0.377,0.074 -0.524,0.221 -0.148,0.148 -0.221,0.322 -0.221,0.524 v 6.705 c 0,0.201 0.073,0.376 0.221,0.523 0.147,0.148 0.322,0.222 0.524,0.222 h 1.489 c 0.202,0 0.377,-0.074 0.524,-0.222 0.148,-0.147 0.221,-0.322 0.221,-0.523 z m 17.134,20.113 h 6.705 v -7.449 h -6.705 z m -8.939,-8.939 h 7.45 V 78.04 h -7.45 z m 8.939,0 h 6.705 V 78.04 h -6.705 z m 0.745,-11.174 v -6.705 c 0,-0.202 -0.073,-0.376 -0.221,-0.524 -0.147,-0.147 -0.322,-0.221 -0.524,-0.221 h -1.489 c -0.202,0 -0.377,0.074 -0.524,0.221 -0.148,0.148 -0.221,0.322 -0.221,0.524 v 6.705 c 0,0.201 0.073,0.376 0.221,0.523 0.147,0.148 0.322,0.222 0.524,0.222 h 1.489 c 0.202,0 0.377,-0.074 0.524,-0.222 0.148,-0.147 0.221,-0.322 0.221,-0.523 z m 8.94,-1.49 v 29.798 c 0,0.807 -0.295,1.505 -0.885,2.095 -0.589,0.59 -1.288,0.885 -2.095,0.885 h -32.778 c -0.807,0 -1.506,-0.295 -2.095,-0.885 -0.59,-0.59 -0.885,-1.288 -0.885,-2.095 V 72.081 c 0,-0.807 0.295,-1.506 0.885,-2.096 0.589,-0.589 1.288,-0.884 2.095,-0.884 h 2.98 v -2.235 c 0,-1.024 0.364,-1.901 1.094,-2.631 0.729,-0.729 1.606,-1.094 2.631,-1.094 h 1.489 c 1.025,0 1.902,0.365 2.631,1.094 0.73,0.73 1.094,1.607 1.094,2.631 v 2.235 h 8.94 v -2.235 c 0,-1.024 0.364,-1.901 1.094,-2.631 0.729,-0.729 1.606,-1.094 2.631,-1.094 h 1.489 c 1.025,0 1.902,0.365 2.631,1.094 0.73,0.73 1.094,1.607 1.094,2.631 v 2.235 h 2.98 c 0.807,0 1.506,0.295 2.095,0.884 0.59,0.59 0.885,1.289 0.885,2.096 z"
     style="fill:#0055a4;fill-rule:nonzero" /><path
     id="rect3490"
     d="m 69.672,63.141 c -3.324,0 -6,2.676 -6,6 v 29.718 c 0,3.324 2.676,6 6,6 h 28.656 c 3.324,0 6,-2.676 6,-6 V 69.141 c 0,-3.324 -2.676,-6 -6,-6 z m 14.812,10.156 c 1.875,0 3.389,0.531 4.532,1.625 1.142,1.084 1.718,2.406 1.718,3.969 0,0.996 -0.254,1.882 -0.781,2.625 -0.517,0.732 -1.31,1.287 -2.375,1.687 1.318,0.43 2.317,1.137 3,2.094 0.693,0.957 1.031,2.078 1.031,3.406 0,1.836 -0.638,3.406 -1.937,4.656 -1.299,1.25 -3.006,1.875 -5.125,1.875 -2.119,0 -3.826,-0.625 -5.125,-1.875 -1.299,-1.259 -1.969,-2.843 -1.969,-4.718 0,-1.397 0.359,-2.563 1.063,-3.5 0.713,-0.948 1.722,-1.596 3.031,-1.938 -1.094,-0.4 -1.91,-0.976 -2.438,-1.719 -0.527,-0.742 -0.781,-1.621 -0.781,-2.656 0,-1.562 0.565,-2.873 1.688,-3.937 1.123,-1.065 2.603,-1.594 4.468,-1.594 z m 0.032,2.156 c -1.006,0 -1.836,0.324 -2.5,0.969 -0.664,0.644 -1,1.414 -1,2.312 0,1.016 0.345,1.856 1,2.5 0.654,0.645 1.486,0.969 2.531,0.969 1.015,0 1.855,-0.334 2.5,-0.969 0.654,-0.644 0.969,-1.416 0.969,-2.343 0,-0.967 -0.327,-1.784 -1,-2.438 -0.664,-0.664 -1.504,-1 -2.5,-1 z m -0.032,8.906 c -1.24,0 -2.273,0.399 -3.093,1.219 -0.811,0.82 -1.219,1.863 -1.219,3.094 0,0.752 0.18,1.453 0.531,2.156 0.361,0.703 0.891,1.266 1.594,1.656 0.703,0.381 1.471,0.563 2.281,0.563 1.26,0 2.274,-0.408 3.094,-1.219 0.82,-0.81 1.25,-1.844 1.25,-3.094 0,-1.269 -0.432,-2.295 -1.281,-3.125 -0.84,-0.83 -1.887,-1.25 -3.157,-1.25 z"
     style="fill:#0055a4;fill-rule:nonzero" /><path
     id="path3201.-4.-3"
     d="m 187.611,140 c -2.469,0.076 -4.488,1.051 -6.057,2.926 h -3.063 c -1.25,0 -2.301,-0.309 -3.155,-0.926 -0.853,-0.617 -1.28,-1.52 -1.28,-2.709 0,-5.379 0.945,-8.068 2.835,-8.068 0.091,0 0.423,0.16 0.994,0.48 0.572,0.32 1.314,0.643 2.229,0.971 0.914,0.328 1.821,0.491 2.72,0.491 1.021,0 2.034,-0.175 3.04,-0.525 -0.076,0.564 -0.114,1.066 -0.114,1.508 0,2.119 0.617,4.069 1.851,5.852 z m 24.481,14.56 c 0,1.829 -0.556,3.273 -1.669,4.332 -1.112,1.059 -2.59,1.589 -4.434,1.589 h -19.978 c -1.844,0 -3.322,-0.53 -4.434,-1.589 -1.113,-1.059 -1.669,-2.503 -1.669,-4.332 0,-0.807 0.027,-1.596 0.08,-2.365 0.053,-0.77 0.16,-1.6 0.32,-2.492 0.16,-0.891 0.362,-1.718 0.606,-2.48 0.244,-0.762 0.571,-1.505 0.983,-2.229 0.411,-0.723 0.883,-1.341 1.417,-1.851 0.533,-0.511 1.185,-0.918 1.954,-1.223 0.77,-0.305 1.619,-0.457 2.549,-0.457 0.152,0 0.48,0.164 0.983,0.491 0.503,0.328 1.059,0.694 1.668,1.098 0.61,0.403 1.425,0.769 2.446,1.097 1.021,0.327 2.05,0.491 3.086,0.491 1.036,0 2.065,-0.164 3.086,-0.491 1.021,-0.328 1.836,-0.694 2.446,-1.097 0.609,-0.404 1.165,-0.77 1.668,-1.098 0.503,-0.327 0.831,-0.491 0.983,-0.491 0.93,0 1.779,0.152 2.549,0.457 0.769,0.305 1.421,0.712 1.954,1.223 0.533,0.51 1.006,1.128 1.417,1.851 0.412,0.724 0.739,1.467 0.983,2.229 0.244,0.762 0.446,1.589 0.606,2.48 0.16,0.892 0.267,1.722 0.32,2.492 0.053,0.769 0.08,1.558 0.08,2.365 z m -23.407,-29.189 c 0,1.615 -0.571,2.994 -1.714,4.137 -1.143,1.143 -2.522,1.715 -4.137,1.715 -1.615,0 -2.995,-0.572 -4.137,-1.715 -1.143,-1.143 -1.715,-2.522 -1.715,-4.137 0,-1.615 0.572,-2.994 1.715,-4.137 1.142,-1.143 2.522,-1.715 4.137,-1.715 1.615,0 2.994,0.572 4.137,1.715 1.143,1.143 1.714,2.522 1.714,4.137 z m 16.092,8.777 c 0,2.423 -0.857,4.492 -2.571,6.206 -1.714,1.715 -3.783,2.572 -6.206,2.572 -2.423,0 -4.492,-0.857 -6.206,-2.572 -1.714,-1.714 -2.571,-3.783 -2.571,-6.206 0,-2.423 0.857,-4.491 2.571,-6.206 1.714,-1.714 3.783,-2.571 6.206,-2.571 2.423,0 4.492,0.857 6.206,2.571 1.714,1.715 2.571,3.783 2.571,6.206 z m 13.167,5.143 c 0,1.189 -0.427,2.092 -1.28,2.709 -0.854,0.617 -1.905,0.926 -3.155,0.926 h -3.063 c -1.569,-1.875 -3.589,-2.85 -6.057,-2.926 1.234,-1.783 1.851,-3.733 1.851,-5.852 0,-0.442 -0.038,-0.944 -0.114,-1.508 1.006,0.35 2.019,0.525 3.04,0.525 0.899,0 1.806,-0.163 2.72,-0.491 0.915,-0.328 1.657,-0.651 2.229,-0.971 0.571,-0.32 0.903,-0.48 0.994,-0.48 1.89,0 2.835,2.689 2.835,8.068 z m -2.926,-13.92 c 0,1.615 -0.572,2.994 -1.715,4.137 -1.143,1.143 -2.522,1.715 -4.137,1.715 -1.615,0 -2.994,-0.572 -4.137,-1.715 -1.143,-1.143 -1.715,-2.522 -1.715,-4.137 0,-1.615 0.572,-2.994 1.715,-4.137 1.143,-1.143 2.522,-1.715 4.137,-1.715 1.615,0 2.994,0.572 4.137,1.715 1.143,1.143 1.715,2.522 1.715,4.137 z"
     style="fill:#ffffff;fill-rule:nonzero" /><path
     id="path3282.-8.-7"
     d="m 330.999,142.938 c 0,0.505 -0.253,1.044 -0.759,1.615 l -8.225,9.694 c -0.702,0.833 -1.685,1.538 -2.95,2.118 -1.265,0.579 -2.436,0.869 -3.513,0.869 h -26.634 c -0.555,0 -1.049,-0.106 -1.481,-0.319 -0.432,-0.212 -0.649,-0.563 -0.649,-1.052 0,-0.506 0.253,-1.045 0.759,-1.616 l 8.225,-9.694 c 0.702,-0.832 1.685,-1.538 2.95,-2.117 1.265,-0.58 2.436,-0.869 3.513,-0.869 h 26.634 c 0.555,0 1.049,0.106 1.481,0.318 0.433,0.212 0.649,0.563 0.649,1.053 z m -8.397,-8.421 v 3.916 h -20.367 c -1.534,0 -3.142,0.388 -4.822,1.163 -1.681,0.775 -3.02,1.75 -4.015,2.925 l -8.25,9.694 -0.122,0.147 c 0,-0.065 -0.004,-0.167 -0.012,-0.306 -0.009,-0.138 -0.013,-0.24 -0.013,-0.306 v -23.5 c 0,-1.502 0.539,-2.791 1.616,-3.868 1.077,-1.077 2.366,-1.616 3.868,-1.616 h 7.833 c 1.502,0 2.791,0.539 3.868,1.616 1.077,1.077 1.616,2.366 1.616,3.868 v 0.783 h 13.317 c 1.501,0 2.79,0.539 3.867,1.616 1.078,1.077 1.616,2.366 1.616,3.868 z"
     style="fill:#ffffff;fill-rule:nonzero" /><path
     id="path3349.-6.-0"
     d="m 268.184,142.751 v 8.928 c 0,2.227 -0.79,4.131 -2.372,5.712 -1.581,1.582 -3.486,2.373 -5.713,2.373 h -23.357 c -2.227,0 -4.131,-0.791 -5.713,-2.373 -1.581,-1.581 -2.372,-3.485 -2.372,-5.712 v -23.358 c 0,-2.227 0.791,-4.131 2.372,-5.712 1.582,-1.582 3.486,-2.373 5.713,-2.373 h 23.357 c 1.179,0 2.274,0.234 3.285,0.702 0.281,0.131 0.449,0.346 0.505,0.646 0.056,0.318 -0.028,0.589 -0.253,0.814 l -1.375,1.376 c -0.187,0.187 -0.403,0.28 -0.646,0.28 -0.056,0 -0.14,-0.018 -0.253,-0.056 -0.43,-0.112 -0.851,-0.168 -1.263,-0.168 h -23.357 c -1.235,0 -2.293,0.439 -3.172,1.319 -0.88,0.88 -1.32,1.937 -1.32,3.172 v 23.357 c 0,1.236 0.44,2.293 1.32,3.173 0.879,0.879 1.937,1.319 3.172,1.319 h 23.357 c 1.235,0 2.293,-0.44 3.172,-1.319 0.88,-0.88 1.32,-1.937 1.32,-3.173 v -7.13 c 0,-0.243 0.084,-0.449 0.253,-0.618 l 1.796,-1.796 c 0.187,-0.188 0.403,-0.281 0.646,-0.281 0.112,0 0.225,0.028 0.337,0.084 0.374,0.15 0.561,0.421 0.561,0.814 z m 6.485,-13.728 -22.851,22.852 c -0.45,0.449 -0.983,0.674 -1.601,0.674 -0.617,0 -1.151,-0.225 -1.6,-0.674 l -12.071,-12.072 c -0.45,-0.449 -0.674,-0.982 -0.674,-1.6 0,-0.617 0.224,-1.151 0.674,-1.6 l 3.088,-3.088 c 0.449,-0.449 0.982,-0.674 1.6,-0.674 0.617,0 1.151,0.225 1.6,0.674 l 7.383,7.383 18.164,-18.163 c 0.449,-0.449 0.982,-0.674 1.6,-0.674 0.618,0 1.151,0.225 1.6,0.674 l 3.088,3.088 c 0.449,0.449 0.674,0.982 0.674,1.6 0,0.618 -0.225,1.151 -0.674,1.6 z"
     style="fill:#ffffff;fill-rule:nonzero" /><path
     id="path3415.-1.-0"
     d="m 13.493,145.44 c 0,-1.001 -0.354,-1.856 -1.062,-2.564 -0.708,-0.709 -1.563,-1.063 -2.564,-1.063 -1.001,0 -1.856,0.354 -2.564,1.063 -0.709,0.708 -1.063,1.563 -1.063,2.564 0,1.001 0.354,1.856 1.063,2.564 0.708,0.708 1.563,1.063 2.564,1.063 1.001,0 1.856,-0.355 2.564,-1.063 0.708,-0.708 1.062,-1.563 1.062,-2.564 z m 5.44,-12.693 c 0,-1.001 -0.354,-1.856 -1.062,-2.564 -0.708,-0.709 -1.563,-1.063 -2.564,-1.063 -1.001,0 -1.856,0.354 -2.564,1.063 -0.709,0.708 -1.063,1.563 -1.063,2.564 0,1.001 0.354,1.856 1.063,2.564 0.708,0.708 1.563,1.062 2.564,1.062 1.001,0 1.856,-0.354 2.564,-1.062 0.708,-0.708 1.062,-1.563 1.062,-2.564 z m 12.127,13.628 2.862,-10.823 c 0.113,-0.491 0.042,-0.949 -0.213,-1.374 -0.255,-0.425 -0.618,-0.704 -1.091,-0.836 -0.472,-0.132 -0.925,-0.071 -1.36,0.184 -0.434,0.255 -0.717,0.628 -0.85,1.119 l -2.861,10.823 c -1.134,0.095 -2.144,0.506 -3.032,1.233 -0.888,0.727 -1.483,1.657 -1.785,2.791 -0.378,1.454 -0.189,2.833 0.567,4.136 0.755,1.303 1.86,2.144 3.315,2.522 1.454,0.378 2.833,0.189 4.136,-0.567 1.304,-0.755 2.144,-1.86 2.522,-3.315 0.302,-1.133 0.245,-2.238 -0.17,-3.315 -0.416,-1.076 -1.096,-1.936 -2.04,-2.578 z m 18.7,-0.935 c 0,-1.001 -0.354,-1.856 -1.063,-2.564 -0.708,-0.709 -1.563,-1.063 -2.564,-1.063 -1.001,0 -1.856,0.354 -2.564,1.063 -0.708,0.708 -1.062,1.563 -1.062,2.564 0,1.001 0.354,1.856 1.062,2.564 0.708,0.708 1.563,1.063 2.564,1.063 1.001,0 1.856,-0.355 2.564,-1.063 0.709,-0.708 1.063,-1.563 1.063,-2.564 z M 31.627,127.307 c 0,-1.001 -0.355,-1.856 -1.063,-2.564 -0.708,-0.709 -1.563,-1.063 -2.564,-1.063 -1.001,0 -1.856,0.354 -2.564,1.063 -0.708,0.708 -1.063,1.563 -1.063,2.564 0,1.001 0.355,1.856 1.063,2.564 0.708,0.708 1.563,1.062 2.564,1.062 1.001,0 1.856,-0.354 2.564,-1.062 0.708,-0.708 1.063,-1.563 1.063,-2.564 z m 12.693,5.44 c 0,-1.001 -0.354,-1.856 -1.063,-2.564 -0.708,-0.709 -1.563,-1.063 -2.564,-1.063 -1.001,0 -1.856,0.354 -2.564,1.063 -0.708,0.708 -1.062,1.563 -1.062,2.564 0,1.001 0.354,1.856 1.062,2.564 0.708,0.708 1.563,1.062 2.564,1.062 1.001,0 1.856,-0.354 2.564,-1.062 0.709,-0.708 1.063,-1.563 1.063,-2.564 z m 9.066,12.693 c 0,4.93 -1.331,9.491 -3.995,13.685 -0.358,0.548 -0.868,0.821 -1.53,0.821 H 8.139 c -0.662,0 -1.172,-0.273 -1.53,-0.821 -2.664,-4.175 -3.995,-8.736 -3.995,-13.685 0,-3.438 0.67,-6.724 2.011,-9.86 1.341,-3.135 3.145,-5.837 5.412,-8.103 2.267,-2.267 4.968,-4.071 8.103,-5.412 3.136,-1.341 6.422,-2.011 9.86,-2.011 3.438,0 6.724,0.67 9.86,2.011 3.135,1.341 5.836,3.145 8.103,5.412 2.267,2.266 4.071,4.968 5.412,8.103 1.341,3.136 2.011,6.422 2.011,9.86 z"
     style="fill:#ffffff;fill-rule:nonzero" /><path
     id="path3463.-6.-3"
     d="m 123.611,157.879 h 6.705 v -6.705 h -6.705 z m 8.194,0 h 7.45 v -6.705 h -7.45 z m -8.194,-8.195 h 6.705 v -7.449 h -6.705 z m 8.194,0 h 7.45 v -7.449 h -7.45 z m -8.194,-8.939 h 6.705 v -6.705 h -6.705 z m 17.134,17.134 h 7.45 v -6.705 h -7.45 z m -8.94,-17.134 h 7.45 v -6.705 h -7.45 z m 17.879,17.134 h 6.705 v -6.705 h -6.705 z m -8.939,-8.195 h 7.45 v -7.449 h -7.45 z m -8.195,-20.113 v -6.705 c 0,-0.202 -0.073,-0.376 -0.221,-0.524 -0.147,-0.147 -0.322,-0.221 -0.524,-0.221 h -1.489 c -0.202,0 -0.377,0.074 -0.524,0.221 -0.148,0.148 -0.221,0.322 -0.221,0.524 v 6.705 c 0,0.201 0.073,0.376 0.221,0.523 0.147,0.148 0.322,0.222 0.524,0.222 h 1.489 c 0.202,0 0.377,-0.074 0.524,-0.222 0.148,-0.147 0.221,-0.322 0.221,-0.523 z m 17.134,20.113 h 6.705 v -7.449 h -6.705 z m -8.939,-8.939 h 7.45 v -6.705 h -7.45 z m 8.939,0 h 6.705 v -6.705 h -6.705 z m 0.745,-11.174 v -6.705 c 0,-0.202 -0.073,-0.376 -0.221,-0.524 -0.147,-0.147 -0.322,-0.221 -0.524,-0.221 h -1.489 c -0.202,0 -0.377,0.074 -0.524,0.221 -0.148,0.148 -0.221,0.322 -0.221,0.524 v 6.705 c 0,0.201 0.073,0.376 0.221,0.523 0.147,0.148 0.322,0.222 0.524,0.222 h 1.489 c 0.202,0 0.377,-0.074 0.524,-0.222 0.148,-0.147 0.221,-0.322 0.221,-0.523 z m 8.94,-1.49 v 29.798 c 0,0.807 -0.295,1.505 -0.885,2.095 -0.589,0.59 -1.288,0.885 -2.095,0.885 h -32.778 c -0.807,0 -1.506,-0.295 -2.095,-0.885 -0.59,-0.59 -0.885,-1.288 -0.885,-2.095 v -29.798 c 0,-0.807 0.295,-1.506 0.885,-2.096 0.589,-0.589 1.288,-0.884 2.095,-0.884 h 2.98 v -2.235 c 0,-1.024 0.364,-1.901 1.094,-2.631 0.729,-0.729 1.606,-1.094 2.631,-1.094 h 1.489 c 1.025,0 1.902,0.365 2.631,1.094 0.73,0.73 1.094,1.607 1.094,2.631 v 2.235 h 8.94 v -2.235 c 0,-1.024 0.364,-1.901 1.094,-2.631 0.729,-0.729 1.606,-1.094 2.631,-1.094 h 1.489 c 1.025,0 1.902,0.365 2.631,1.094 0.73,0.73 1.094,1.607 1.094,2.631 v 2.235 h 2.98 c 0.807,0 1.506,0.295 2.095,0.884 0.59,0.59 0.885,1.289 0.885,2.096 z"
     style="fill:#ffffff;fill-rule:nonzero" /><path
     id="rect3490.-1"
     d="m 69.672,7.141 c -3.324,0 -6,2.676 -6,6 v 29.718 c 0,3.324 2.676,6 6,6 h 28.656 c 3.324,0 6,-2.676 6,-6 V 13.141 c 0,-3.324 -2.676,-6 -6,-6 z m 14.812,10.156 c 1.875,0 3.389,0.531 4.532,1.625 1.142,1.084 1.718,2.406 1.718,3.969 0,0.996 -0.254,1.882 -0.781,2.625 -0.517,0.732 -1.31,1.287 -2.375,1.687 1.318,0.43 2.317,1.137 3,2.094 0.693,0.957 1.031,2.078 1.031,3.406 0,1.836 -0.638,3.406 -1.937,4.656 -1.299,1.25 -3.006,1.875 -5.125,1.875 -2.119,0 -3.826,-0.625 -5.125,-1.875 -1.299,-1.259 -1.969,-2.843 -1.969,-4.718 0,-1.397 0.36,-2.563 1.063,-3.5 0.713,-0.948 1.722,-1.596 3.031,-1.938 -1.094,-0.4 -1.91,-0.976 -2.438,-1.719 -0.527,-0.742 -0.781,-1.621 -0.781,-2.656 0,-1.562 0.565,-2.873 1.688,-3.937 1.123,-1.065 2.603,-1.594 4.468,-1.594 z m 0.032,2.156 c -1.006,0 -1.836,0.324 -2.5,0.969 -0.664,0.644 -1,1.414 -1,2.312 0,1.016 0.345,1.856 1,2.5 0.654,0.645 1.486,0.969 2.531,0.969 1.015,0 1.855,-0.334 2.5,-0.969 0.654,-0.644 0.969,-1.416 0.969,-2.343 0,-0.967 -0.327,-1.784 -1,-2.438 -0.665,-0.664 -1.504,-1 -2.5,-1 z m -0.032,8.906 c -1.24,0 -2.273,0.399 -3.093,1.219 -0.811,0.82 -1.219,1.863 -1.219,3.094 0,0.752 0.18,1.453 0.531,2.156 0.361,0.703 0.891,1.266 1.594,1.656 0.703,0.381 1.471,0.563 2.281,0.563 1.26,0 2.274,-0.408 3.094,-1.219 0.82,-0.81 1.25,-1.844 1.25,-3.094 0,-1.269 -0.432,-2.295 -1.281,-3.125 -0.84,-0.83 -1.887,-1.25 -3.157,-1.25 z"
     style="fill:#464646;fill-rule:nonzero" /><path
     id="path3082"
     d="m 367.397,40.74 v -5.096 c 0,-0.247 -0.079,-0.451 -0.238,-0.61 -0.16,-0.159 -0.363,-0.239 -0.611,-0.239 h -5.096 c -0.248,0 -0.451,0.08 -0.611,0.239 -0.159,0.159 -0.238,0.363 -0.238,0.61 v 5.096 c 0,0.248 0.079,0.452 0.238,0.611 0.16,0.159 0.363,0.239 0.611,0.239 h 5.096 c 0.248,0 0.451,-0.08 0.611,-0.239 0.159,-0.159 0.238,-0.363 0.238,-0.611 z m 6.795,-17.836 c 0,-1.557 -0.491,-2.999 -1.473,-4.327 -0.982,-1.327 -2.207,-2.353 -3.676,-3.079 -1.469,-0.725 -2.973,-1.088 -4.512,-1.088 -4.3,0 -7.582,1.885 -9.847,5.654 -0.266,0.424 -0.195,0.796 0.212,1.115 l 3.503,2.654 c 0.124,0.106 0.292,0.159 0.505,0.159 0.283,0 0.504,-0.106 0.663,-0.318 0.938,-1.204 1.699,-2.018 2.283,-2.442 0.602,-0.425 1.363,-0.637 2.283,-0.637 0.849,0 1.606,0.23 2.269,0.69 0.664,0.46 0.995,0.982 0.995,1.566 0,0.672 -0.177,1.212 -0.53,1.619 -0.354,0.407 -0.956,0.805 -1.805,1.194 -1.115,0.496 -2.137,1.261 -3.066,2.296 -0.929,1.035 -1.393,2.146 -1.393,3.331 v 0.956 c 0,0.248 0.079,0.451 0.238,0.61 0.16,0.16 0.363,0.239 0.611,0.239 h 5.096 c 0.248,0 0.451,-0.079 0.611,-0.239 0.159,-0.159 0.238,-0.362 0.238,-0.61 0,-0.336 0.191,-0.774 0.571,-1.314 0.381,-0.54 0.863,-0.978 1.447,-1.314 0.566,-0.318 0.999,-0.571 1.3,-0.756 0.301,-0.186 0.708,-0.496 1.221,-0.929 0.513,-0.434 0.907,-0.859 1.181,-1.274 0.275,-0.416 0.522,-0.952 0.744,-1.606 0.221,-0.655 0.331,-1.372 0.331,-2.15 z M 384.385,28 c 0,3.698 -0.912,7.109 -2.734,10.232 -1.823,3.123 -4.296,5.596 -7.419,7.419 -3.123,1.822 -6.534,2.734 -10.232,2.734 -3.698,0 -7.109,-0.912 -10.232,-2.734 -3.123,-1.823 -5.596,-4.296 -7.419,-7.419 -1.822,-3.123 -2.734,-6.534 -2.734,-10.232 0,-3.698 0.912,-7.109 2.734,-10.232 1.823,-3.123 4.296,-5.596 7.419,-7.419 3.123,-1.822 6.534,-2.734 10.232,-2.734 3.698,0 7.109,0.912 10.232,2.734 3.123,1.823 5.596,4.296 7.419,7.419 1.822,3.123 2.734,6.534 2.734,10.232 z"
     style="fill:#464646;fill-rule:nonzero" /><path
     id="path3082.-5"
     d="m 367.397,96.74 v -5.096 c 0,-0.247 -0.079,-0.451 -0.238,-0.61 -0.16,-0.159 -0.363,-0.239 -0.611,-0.239 h -5.096 c -0.248,0 -0.451,0.08 -0.611,0.239 -0.159,0.159 -0.238,0.363 -0.238,0.61 v 5.096 c 0,0.248 0.079,0.452 0.238,0.611 0.16,0.159 0.363,0.239 0.611,0.239 h 5.096 c 0.248,0 0.451,-0.08 0.611,-0.239 0.159,-0.159 0.238,-0.363 0.238,-0.611 z m 6.795,-17.836 c 0,-1.557 -0.491,-2.999 -1.473,-4.327 -0.982,-1.327 -2.207,-2.353 -3.676,-3.079 -1.469,-0.725 -2.973,-1.088 -4.512,-1.088 -4.3,0 -7.582,1.885 -9.847,5.654 -0.266,0.424 -0.195,0.796 0.212,1.115 l 3.503,2.654 c 0.124,0.106 0.292,0.159 0.505,0.159 0.283,0 0.504,-0.106 0.663,-0.318 0.938,-1.204 1.699,-2.018 2.283,-2.442 0.602,-0.425 1.363,-0.637 2.283,-0.637 0.849,0 1.606,0.23 2.269,0.69 0.664,0.46 0.995,0.982 0.995,1.566 0,0.672 -0.177,1.212 -0.53,1.619 -0.354,0.407 -0.956,0.805 -1.805,1.194 -1.115,0.496 -2.137,1.261 -3.066,2.296 -0.929,1.035 -1.393,2.146 -1.393,3.331 v 0.956 c 0,0.248 0.079,0.451 0.238,0.61 0.16,0.16 0.363,0.239 0.611,0.239 h 5.096 c 0.248,0 0.451,-0.079 0.611,-0.239 0.159,-0.159 0.238,-0.362 0.238,-0.61 0,-0.336 0.191,-0.774 0.571,-1.314 0.381,-0.54 0.863,-0.978 1.447,-1.314 0.566,-0.318 0.999,-0.571 1.3,-0.756 0.301,-0.186 0.708,-0.496 1.221,-0.929 0.513,-0.434 0.907,-0.859 1.181,-1.274 0.275,-0.416 0.522,-0.952 0.744,-1.606 0.221,-0.655 0.331,-1.372 0.331,-2.15 z M 384.385,84 c 0,3.698 -0.912,7.109 -2.734,10.232 -1.823,3.123 -4.296,5.596 -7.419,7.419 -3.123,1.822 -6.534,2.734 -10.232,2.734 -3.698,0 -7.109,-0.912 -10.232,-2.734 -3.123,-1.823 -5.596,-4.296 -7.419,-7.419 -1.822,-3.123 -2.734,-6.534 -2.734,-10.232 0,-3.698 0.912,-7.109 2.734,-10.232 1.823,-3.123 4.296,-5.596 7.419,-7.419 3.123,-1.822 6.534,-2.734 10.232,-2.734 3.698,0 7.109,0.912 10.232,2.734 3.123,1.823 5.596,4.296 7.419,7.419 1.822,3.123 2.734,6.534 2.734,10.232 z"
     style="fill:#0055a4;fill-rule:nonzero" /><path
     id="path3082.-5.-5"
     d="m 367.397,152.74 v -5.096 c 0,-0.247 -0.079,-0.451 -0.238,-0.61 -0.16,-0.159 -0.363,-0.239 -0.611,-0.239 h -5.096 c -0.248,0 -0.451,0.08 -0.611,0.239 -0.159,0.159 -0.238,0.363 -0.238,0.61 v 5.096 c 0,0.248 0.079,0.452 0.238,0.611 0.16,0.159 0.363,0.239 0.611,0.239 h 5.096 c 0.248,0 0.451,-0.08 0.611,-0.239 0.159,-0.159 0.238,-0.363 0.238,-0.611 z m 6.795,-17.836 c 0,-1.557 -0.491,-2.999 -1.473,-4.327 -0.982,-1.327 -2.207,-2.353 -3.676,-3.079 -1.469,-0.725 -2.973,-1.088 -4.512,-1.088 -4.3,0 -7.582,1.885 -9.847,5.654 -0.266,0.424 -0.195,0.796 0.212,1.115 l 3.503,2.654 c 0.124,0.106 0.292,0.159 0.505,0.159 0.283,0 0.504,-0.106 0.663,-0.318 0.938,-1.204 1.699,-2.018 2.283,-2.442 0.602,-0.425 1.363,-0.637 2.283,-0.637 0.849,0 1.606,0.23 2.269,0.69 0.664,0.46 0.995,0.982 0.995,1.566 0,0.672 -0.177,1.212 -0.53,1.619 -0.354,0.407 -0.956,0.805 -1.805,1.194 -1.115,0.496 -2.137,1.261 -3.066,2.296 -0.929,1.035 -1.393,2.146 -1.393,3.331 v 0.956 c 0,0.248 0.079,0.451 0.238,0.61 0.16,0.16 0.363,0.239 0.611,0.239 h 5.096 c 0.248,0 0.451,-0.079 0.611,-0.239 0.159,-0.159 0.238,-0.362 0.238,-0.61 0,-0.336 0.191,-0.774 0.571,-1.314 0.381,-0.54 0.863,-0.978 1.447,-1.314 0.566,-0.318 0.999,-0.571 1.3,-0.756 0.301,-0.186 0.708,-0.496 1.221,-0.929 0.513,-0.434 0.907,-0.859 1.181,-1.274 0.275,-0.416 0.522,-0.952 0.744,-1.606 0.221,-0.655 0.331,-1.372 0.331,-2.15 z M 384.385,140 c 0,3.698 -0.912,7.109 -2.734,10.232 -1.823,3.123 -4.296,5.596 -7.419,7.419 -3.123,1.822 -6.534,2.734 -10.232,2.734 -3.698,0 -7.109,-0.912 -10.232,-2.734 -3.123,-1.823 -5.596,-4.296 -7.419,-7.419 -1.822,-3.123 -2.734,-6.534 -2.734,-10.232 0,-3.698 0.912,-7.109 2.734,-10.232 1.823,-3.123 4.296,-5.596 7.419,-7.419 3.123,-1.822 6.534,-2.734 10.232,-2.734 3.698,0 7.109,0.912 10.232,2.734 3.123,1.823 5.596,4.296 7.419,7.419 1.822,3.123 2.734,6.534 2.734,10.232 z"
     style="fill:#ffffff;fill-rule:nonzero" /><path
     id="path3026"
     d="m 407.731,45.528 h 24.538 v -7.011 h -24.538 z m 0,-17.528 h 24.538 V 17.483 h -4.382 c -0.73,0 -1.351,-0.255 -1.862,-0.766 -0.511,-0.512 -0.767,-1.132 -0.767,-1.863 v -4.382 h -17.527 z m 31.549,1.753 c 0,-0.475 -0.173,-0.886 -0.52,-1.233 -0.347,-0.347 -0.758,-0.52 -1.232,-0.52 -0.475,0 -0.886,0.173 -1.233,0.52 -0.347,0.347 -0.52,0.758 -0.52,1.233 0,0.474 0.173,0.885 0.52,1.232 0.347,0.347 0.758,0.521 1.233,0.521 0.474,0 0.885,-0.174 1.232,-0.521 0.347,-0.347 0.52,-0.758 0.52,-1.232 z m 3.506,0 v 11.393 c 0,0.237 -0.087,0.442 -0.26,0.616 -0.174,0.173 -0.379,0.26 -0.617,0.26 h -6.134 v 4.382 c 0,0.73 -0.256,1.351 -0.767,1.862 -0.511,0.511 -1.132,0.767 -1.862,0.767 h -26.292 c -0.73,0 -1.351,-0.256 -1.862,-0.767 -0.511,-0.511 -0.767,-1.132 -0.767,-1.862 v -4.382 h -6.134 c -0.238,0 -0.443,-0.087 -0.617,-0.26 -0.173,-0.174 -0.26,-0.379 -0.26,-0.616 V 29.753 c 0,-1.443 0.516,-2.68 1.548,-3.711 1.031,-1.032 2.268,-1.548 3.71,-1.548 h 1.753 V 9.596 c 0,-0.73 0.256,-1.351 0.767,-1.862 0.511,-0.511 1.132,-0.767 1.862,-0.767 h 18.404 c 0.731,0 1.534,0.182 2.41,0.548 0.877,0.365 1.57,0.803 2.082,1.314 l 4.162,4.163 c 0.512,0.511 0.95,1.205 1.315,2.081 0.365,0.877 0.548,1.68 0.548,2.41 v 7.011 h 1.753 c 1.442,0 2.679,0.516 3.71,1.548 1.032,1.031 1.548,2.268 1.548,3.711 z"
     style="fill:#464646;fill-rule:nonzero" /><path
     id="path3026.-1"
     d="m 407.731,101.528 h 24.538 v -7.011 h -24.538 z m 0,-17.528 h 24.538 V 73.483 h -4.382 c -0.73,0 -1.351,-0.255 -1.862,-0.766 -0.511,-0.512 -0.767,-1.132 -0.767,-1.863 v -4.382 h -17.527 z m 31.549,1.753 c 0,-0.475 -0.173,-0.886 -0.52,-1.233 -0.347,-0.347 -0.758,-0.52 -1.232,-0.52 -0.475,0 -0.886,0.173 -1.233,0.52 -0.347,0.347 -0.52,0.758 -0.52,1.233 0,0.474 0.173,0.885 0.52,1.232 0.347,0.347 0.758,0.521 1.233,0.521 0.474,0 0.885,-0.174 1.232,-0.521 0.347,-0.347 0.52,-0.758 0.52,-1.232 z m 3.506,0 v 11.393 c 0,0.237 -0.087,0.442 -0.26,0.616 -0.174,0.173 -0.379,0.26 -0.617,0.26 h -6.134 v 4.382 c 0,0.73 -0.256,1.351 -0.767,1.862 -0.511,0.511 -1.132,0.767 -1.862,0.767 h -26.292 c -0.73,0 -1.351,-0.256 -1.862,-0.767 -0.511,-0.511 -0.767,-1.132 -0.767,-1.862 v -4.382 h -6.134 c -0.238,0 -0.443,-0.087 -0.617,-0.26 -0.173,-0.174 -0.26,-0.379 -0.26,-0.616 V 85.753 c 0,-1.443 0.516,-2.68 1.548,-3.711 1.031,-1.032 2.268,-1.548 3.71,-1.548 h 1.753 V 65.596 c 0,-0.73 0.256,-1.351 0.767,-1.862 0.511,-0.511 1.132,-0.767 1.862,-0.767 h 18.404 c 0.731,0 1.534,0.182 2.41,0.548 0.877,0.365 1.57,0.803 2.082,1.314 l 4.162,4.163 c 0.512,0.511 0.95,1.205 1.315,2.081 0.365,0.877 0.548,1.68 0.548,2.41 v 7.011 h 1.753 c 1.442,0 2.679,0.516 3.71,1.548 1.032,1.031 1.548,2.268 1.548,3.711 z"
     style="fill:#0055a4;fill-rule:nonzero" /><path
     id="path3026.-3"
     d="m 407.731,157.528 h 24.538 v -7.011 h -24.538 z m 0,-17.528 h 24.538 v -10.517 h -4.382 c -0.73,0 -1.351,-0.255 -1.862,-0.766 -0.511,-0.512 -0.767,-1.132 -0.767,-1.863 v -4.382 h -17.527 z m 31.549,1.753 c 0,-0.475 -0.173,-0.886 -0.52,-1.233 -0.347,-0.347 -0.758,-0.52 -1.232,-0.52 -0.475,0 -0.886,0.173 -1.233,0.52 -0.347,0.347 -0.52,0.758 -0.52,1.233 0,0.474 0.173,0.885 0.52,1.232 0.347,0.347 0.758,0.521 1.233,0.521 0.474,0 0.885,-0.174 1.232,-0.521 0.347,-0.347 0.52,-0.758 0.52,-1.232 z m 3.506,0 v 11.393 c 0,0.237 -0.087,0.442 -0.26,0.616 -0.174,0.173 -0.379,0.26 -0.617,0.26 h -6.134 v 4.382 c 0,0.73 -0.256,1.351 -0.767,1.862 -0.511,0.511 -1.132,0.767 -1.862,0.767 h -26.292 c -0.73,0 -1.351,-0.256 -1.862,-0.767 -0.511,-0.511 -0.767,-1.132 -0.767,-1.862 v -4.382 h -6.134 c -0.238,0 -0.443,-0.087 -0.617,-0.26 -0.173,-0.174 -0.26,-0.379 -0.26,-0.616 v -11.393 c 0,-1.443 0.516,-2.68 1.548,-3.711 1.031,-1.032 2.268,-1.548 3.71,-1.548 h 1.753 v -14.898 c 0,-0.73 0.256,-1.351 0.767,-1.862 0.511,-0.511 1.132,-0.767 1.862,-0.767 h 18.404 c 0.731,0 1.534,0.183 2.41,0.548 0.877,0.365 1.57,0.803 2.082,1.314 l 4.162,4.163 c 0.512,0.511 0.95,1.205 1.315,2.081 0.365,0.877 0.548,1.68 0.548,2.41 v 7.011 h 1.753 c 1.442,0 2.679,0.516 3.71,1.548 1.032,1.031 1.548,2.268 1.548,3.711 z"
     style="fill:#ffffff;fill-rule:nonzero" /><path
     id="path3066"
     d="M 482.824,40.796 V 36.53 c 0,-0.248 -0.08,-0.453 -0.24,-0.613 -0.16,-0.16 -0.364,-0.24 -0.613,-0.24 h -2.559 V 22.029 c 0,-0.249 -0.08,-0.453 -0.24,-0.613 -0.16,-0.16 -0.364,-0.24 -0.613,-0.24 h -8.53 c -0.249,0 -0.453,0.08 -0.613,0.24 -0.16,0.16 -0.24,0.364 -0.24,0.613 v 4.265 c 0,0.249 0.08,0.453 0.24,0.613 0.16,0.16 0.364,0.24 0.613,0.24 h 2.559 v 8.53 h -2.559 c -0.249,0 -0.453,0.08 -0.613,0.24 -0.16,0.16 -0.24,0.365 -0.24,0.613 v 4.266 c 0,0.248 0.08,0.453 0.24,0.613 0.16,0.16 0.364,0.24 0.613,0.24 h 11.942 c 0.249,0 0.453,-0.08 0.613,-0.24 0.16,-0.16 0.24,-0.365 0.24,-0.613 z M 479.412,16.91 v -4.265 c 0,-0.249 -0.08,-0.453 -0.24,-0.613 -0.16,-0.16 -0.364,-0.24 -0.613,-0.24 h -5.118 c -0.249,0 -0.453,0.08 -0.613,0.24 -0.16,0.16 -0.24,0.364 -0.24,0.613 v 4.265 c 0,0.249 0.08,0.454 0.24,0.614 0.16,0.16 0.364,0.239 0.613,0.239 h 5.118 c 0.249,0 0.453,-0.079 0.613,-0.239 0.16,-0.16 0.24,-0.365 0.24,-0.614 z M 496.473,28 c 0,3.714 -0.915,7.14 -2.746,10.276 -1.83,3.137 -4.314,5.621 -7.451,7.451 -3.136,1.831 -6.562,2.746 -10.276,2.746 -3.714,0 -7.14,-0.915 -10.276,-2.746 -3.137,-1.83 -5.621,-4.314 -7.451,-7.451 -1.831,-3.136 -2.746,-6.562 -2.746,-10.276 0,-3.714 0.915,-7.14 2.746,-10.277 1.83,-3.136 4.314,-5.62 7.451,-7.45 3.136,-1.831 6.562,-2.746 10.276,-2.746 3.714,0 7.14,0.915 10.276,2.746 3.137,1.83 5.621,4.314 7.451,7.45 1.831,3.137 2.746,6.563 2.746,10.277 z"
     style="fill:#464646;fill-rule:nonzero" /><path
     id="path3066.-6"
     d="M 482.824,96.796 V 92.53 c 0,-0.248 -0.08,-0.453 -0.24,-0.613 -0.16,-0.16 -0.364,-0.24 -0.613,-0.24 h -2.559 V 78.029 c 0,-0.249 -0.08,-0.453 -0.24,-0.613 -0.16,-0.16 -0.364,-0.24 -0.613,-0.24 h -8.53 c -0.249,0 -0.453,0.08 -0.613,0.24 -0.16,0.16 -0.24,0.364 -0.24,0.613 v 4.265 c 0,0.249 0.08,0.453 0.24,0.613 0.16,0.16 0.364,0.24 0.613,0.24 h 2.559 v 8.53 h -2.559 c -0.249,0 -0.453,0.08 -0.613,0.24 -0.16,0.16 -0.24,0.365 -0.24,0.613 v 4.266 c 0,0.248 0.08,0.453 0.24,0.613 0.16,0.16 0.364,0.24 0.613,0.24 h 11.942 c 0.249,0 0.453,-0.08 0.613,-0.24 0.16,-0.16 0.24,-0.365 0.24,-0.613 z M 479.412,72.91 v -4.265 c 0,-0.249 -0.08,-0.453 -0.24,-0.613 -0.16,-0.16 -0.364,-0.24 -0.613,-0.24 h -5.118 c -0.249,0 -0.453,0.08 -0.613,0.24 -0.16,0.16 -0.24,0.364 -0.24,0.613 v 4.265 c 0,0.249 0.08,0.454 0.24,0.614 0.16,0.159 0.364,0.239 0.613,0.239 h 5.118 c 0.249,0 0.453,-0.08 0.613,-0.239 0.16,-0.16 0.24,-0.365 0.24,-0.614 z M 496.473,84 c 0,3.714 -0.915,7.14 -2.746,10.276 -1.83,3.137 -4.314,5.621 -7.451,7.451 -3.136,1.831 -6.562,2.746 -10.276,2.746 -3.714,0 -7.14,-0.915 -10.276,-2.746 -3.137,-1.83 -5.621,-4.314 -7.451,-7.451 -1.831,-3.136 -2.746,-6.562 -2.746,-10.276 0,-3.714 0.915,-7.14 2.746,-10.277 1.83,-3.136 4.314,-5.62 7.451,-7.45 3.136,-1.831 6.562,-2.746 10.276,-2.746 3.714,0 7.14,0.915 10.276,2.746 3.137,1.83 5.621,4.314 7.451,7.45 1.831,3.137 2.746,6.563 2.746,10.277 z"
     style="fill:#0055a4;fill-rule:nonzero" /><path
     id="path3066.-6.-0"
     d="m 482.824,152.796 v -4.266 c 0,-0.248 -0.08,-0.453 -0.24,-0.613 -0.16,-0.16 -0.364,-0.24 -0.613,-0.24 h -2.559 v -13.648 c 0,-0.249 -0.08,-0.453 -0.24,-0.613 -0.16,-0.16 -0.364,-0.24 -0.613,-0.24 h -8.53 c -0.249,0 -0.453,0.08 -0.613,0.24 -0.16,0.16 -0.24,0.364 -0.24,0.613 v 4.265 c 0,0.249 0.08,0.453 0.24,0.613 0.16,0.16 0.364,0.24 0.613,0.24 h 2.559 v 8.53 h -2.559 c -0.249,0 -0.453,0.08 -0.613,0.24 -0.16,0.16 -0.24,0.365 -0.24,0.613 v 4.266 c 0,0.248 0.08,0.453 0.24,0.613 0.16,0.16 0.364,0.24 0.613,0.24 h 11.942 c 0.249,0 0.453,-0.08 0.613,-0.24 0.16,-0.16 0.24,-0.365 0.24,-0.613 z m -3.412,-23.886 v -4.265 c 0,-0.249 -0.08,-0.453 -0.24,-0.613 -0.16,-0.16 -0.364,-0.24 -0.613,-0.24 h -5.118 c -0.249,0 -0.453,0.08 -0.613,0.24 -0.16,0.16 -0.24,0.364 -0.24,0.613 v 4.265 c 0,0.249 0.08,0.454 0.24,0.614 0.16,0.159 0.364,0.239 0.613,0.239 h 5.118 c 0.249,0 0.453,-0.08 0.613,-0.239 0.16,-0.16 0.24,-0.365 0.24,-0.614 z M 496.473,140 c 0,3.714 -0.915,7.14 -2.746,10.276 -1.83,3.137 -4.314,5.621 -7.451,7.451 -3.136,1.831 -6.562,2.746 -10.276,2.746 -3.714,0 -7.14,-0.915 -10.276,-2.746 -3.137,-1.83 -5.621,-4.314 -7.451,-7.451 -1.831,-3.136 -2.746,-6.562 -2.746,-10.276 0,-3.714 0.915,-7.14 2.746,-10.277 1.83,-3.136 4.314,-5.62 7.451,-7.45 3.136,-1.831 6.562,-2.746 10.276,-2.746 3.714,0 7.14,0.915 10.276,2.746 3.137,1.83 5.621,4.314 7.451,7.45 1.831,3.137 2.746,6.563 2.746,10.277 z"
     style="fill:#ffffff;fill-rule:nonzero" /><path
     id="path3143"
     d="m 532.401,48.036 c 0,-0.267 -0.134,-0.401 -0.401,-0.401 -0.985,0 -1.832,-0.355 -2.542,-1.064 -0.71,-0.71 -1.064,-1.557 -1.064,-2.542 0,-0.268 -0.134,-0.401 -0.401,-0.401 -0.267,0 -0.401,0.133 -0.401,0.401 0,1.218 0.43,2.258 1.29,3.118 0.86,0.86 1.899,1.289 3.118,1.289 0.267,0 0.401,-0.133 0.401,-0.4 z m 20.436,-7.213 c 0,0.868 -0.317,1.619 -0.952,2.254 -0.634,0.634 -1.385,0.952 -2.254,0.952 h -11.22 c 0,1.769 -0.626,3.28 -1.878,4.533 -1.252,1.252 -2.763,1.878 -4.533,1.878 -1.77,0 -3.281,-0.626 -4.533,-1.878 -1.252,-1.253 -1.878,-2.764 -1.878,-4.533 h -11.22 c -0.869,0 -1.62,-0.318 -2.255,-0.952 -0.634,-0.635 -0.951,-1.386 -0.951,-2.254 0.835,-0.701 1.594,-1.436 2.279,-2.204 0.684,-0.768 1.394,-1.766 2.129,-2.993 0.734,-1.227 1.356,-2.55 1.865,-3.969 0.51,-1.42 0.927,-3.139 1.253,-5.16 0.325,-2.02 0.488,-4.19 0.488,-6.511 0,-2.538 0.977,-4.897 2.93,-7.075 1.954,-2.179 4.517,-3.503 7.689,-3.97 -0.134,-0.317 -0.2,-0.643 -0.2,-0.977 0,-0.668 0.233,-1.235 0.701,-1.703 0.467,-0.467 1.035,-0.701 1.703,-0.701 0.668,0 1.236,0.234 1.703,0.701 0.468,0.468 0.701,1.035 0.701,1.703 0,0.334 -0.067,0.66 -0.2,0.977 3.172,0.467 5.735,1.791 7.689,3.97 1.953,2.178 2.93,4.537 2.93,7.075 0,2.321 0.163,4.491 0.488,6.511 0.326,2.021 0.743,3.74 1.252,5.16 0.51,1.419 1.132,2.742 1.866,3.969 0.735,1.227 1.445,2.225 2.129,2.993 0.685,0.768 1.444,1.503 2.279,2.204 z"
     style="fill:#464646;fill-rule:nonzero" /><path
     id="path3143.-5"
     d="m 532.401,104.036 c 0,-0.267 -0.134,-0.401 -0.401,-0.401 -0.985,0 -1.832,-0.355 -2.542,-1.064 -0.71,-0.71 -1.064,-1.557 -1.064,-2.542 0,-0.268 -0.134,-0.401 -0.401,-0.401 -0.267,0 -0.401,0.133 -0.401,0.401 0,1.218 0.43,2.258 1.29,3.118 0.86,0.86 1.899,1.289 3.118,1.289 0.267,0 0.401,-0.133 0.401,-0.4 z m 20.436,-7.213 c 0,0.868 -0.317,1.619 -0.952,2.254 -0.634,0.634 -1.385,0.952 -2.254,0.952 h -11.22 c 0,1.769 -0.626,3.28 -1.878,4.533 -1.252,1.252 -2.763,1.878 -4.533,1.878 -1.77,0 -3.281,-0.626 -4.533,-1.878 -1.252,-1.253 -1.878,-2.764 -1.878,-4.533 h -11.22 c -0.869,0 -1.62,-0.318 -2.255,-0.952 -0.634,-0.635 -0.951,-1.386 -0.951,-2.254 0.835,-0.701 1.594,-1.436 2.279,-2.204 0.684,-0.768 1.394,-1.766 2.129,-2.993 0.734,-1.227 1.356,-2.55 1.865,-3.969 0.51,-1.42 0.927,-3.139 1.253,-5.16 0.325,-2.02 0.488,-4.19 0.488,-6.511 0,-2.538 0.977,-4.897 2.93,-7.075 1.954,-2.179 4.517,-3.503 7.689,-3.97 -0.134,-0.317 -0.2,-0.643 -0.2,-0.977 0,-0.668 0.233,-1.235 0.701,-1.703 0.467,-0.467 1.035,-0.701 1.703,-0.701 0.668,0 1.236,0.234 1.703,0.701 0.468,0.468 0.701,1.035 0.701,1.703 0,0.334 -0.067,0.66 -0.2,0.977 3.172,0.467 5.735,1.791 7.689,3.97 1.953,2.178 2.93,4.537 2.93,7.075 0,2.321 0.163,4.491 0.488,6.511 0.326,2.021 0.743,3.74 1.252,5.16 0.51,1.419 1.132,2.742 1.866,3.969 0.735,1.227 1.445,2.225 2.129,2.993 0.685,0.768 1.444,1.503 2.279,2.204 z"
     style="fill:#0055a4;fill-rule:nonzero" /><path
     id="path3143.-5.-1"
     d="m 532.401,160.036 c 0,-0.267 -0.134,-0.401 -0.401,-0.401 -0.985,0 -1.832,-0.355 -2.542,-1.064 -0.71,-0.71 -1.064,-1.557 -1.064,-2.542 0,-0.268 -0.134,-0.401 -0.401,-0.401 -0.267,0 -0.401,0.133 -0.401,0.401 0,1.218 0.43,2.258 1.29,3.118 0.86,0.86 1.899,1.289 3.118,1.289 0.267,0 0.401,-0.133 0.401,-0.4 z m 20.436,-7.213 c 0,0.868 -0.317,1.619 -0.951,2.254 -0.635,0.634 -1.386,0.952 -2.255,0.952 h -11.22 c 0,1.769 -0.626,3.28 -1.878,4.533 -1.252,1.252 -2.763,1.878 -4.533,1.878 -1.77,0 -3.281,-0.626 -4.533,-1.878 -1.252,-1.253 -1.878,-2.764 -1.878,-4.533 h -11.22 c -0.869,0 -1.62,-0.318 -2.255,-0.952 -0.634,-0.635 -0.951,-1.386 -0.951,-2.254 0.835,-0.701 1.594,-1.436 2.279,-2.204 0.684,-0.768 1.394,-1.766 2.129,-2.993 0.734,-1.227 1.356,-2.55 1.865,-3.969 0.51,-1.42 0.927,-3.139 1.253,-5.16 0.325,-2.02 0.488,-4.191 0.488,-6.511 0,-2.538 0.977,-4.897 2.93,-7.075 1.954,-2.179 4.517,-3.503 7.689,-3.97 -0.134,-0.317 -0.2,-0.643 -0.2,-0.977 0,-0.668 0.233,-1.235 0.701,-1.703 0.467,-0.467 1.035,-0.701 1.703,-0.701 0.668,0 1.236,0.234 1.703,0.701 0.468,0.468 0.701,1.035 0.701,1.703 0,0.334 -0.067,0.66 -0.2,0.977 3.172,0.467 5.735,1.791 7.689,3.97 1.953,2.178 2.93,4.537 2.93,7.075 0,2.32 0.163,4.491 0.488,6.511 0.326,2.021 0.743,3.74 1.252,5.16 0.51,1.419 1.132,2.742 1.866,3.969 0.735,1.227 1.445,2.225 2.129,2.993 0.685,0.768 1.444,1.503 2.279,2.204 z"
     style="fill:#ffffff;fill-rule:nonzero" /><path
     d="m 579.138,36.014 c 0,-0.885 -0.289,-1.64 -0.866,-2.266 -0.577,-0.626 -1.274,-0.939 -2.09,-0.939 -0.816,0 -1.512,0.313 -2.09,0.939 -0.577,0.626 -0.866,1.381 -0.866,2.266 0,0.885 0.289,1.641 0.866,2.267 0.578,0.626 1.274,0.939 2.09,0.939 0.816,0 1.513,-0.313 2.09,-0.939 0.577,-0.626 0.866,-1.382 0.866,-2.267 z m 23.646,0 c 0,-0.885 -0.288,-1.64 -0.865,-2.266 -0.578,-0.626 -1.274,-0.939 -2.09,-0.939 -0.816,0 -1.513,0.313 -2.09,0.939 -0.578,0.626 -0.866,1.381 -0.866,2.266 0,0.885 0.288,1.641 0.866,2.267 0.577,0.626 1.274,0.939 2.09,0.939 0.816,0 1.512,-0.313 2.09,-0.939 0.577,-0.626 0.865,-1.382 0.865,-2.267 z m -1.062,-9.917 -1.662,-9.618 c -0.077,-0.384 -0.251,-0.697 -0.52,-0.939 -0.269,-0.242 -0.581,-0.363 -0.935,-0.363 h -21.199 c -0.354,0 -0.666,0.121 -0.935,0.363 -0.27,0.242 -0.443,0.555 -0.52,0.939 l -1.663,9.618 c -0.076,0.5 0.031,0.943 0.324,1.327 0.292,0.384 0.669,0.576 1.131,0.576 h 24.524 c 0.462,0 0.839,-0.192 1.132,-0.576 0.292,-0.384 0.4,-0.827 0.323,-1.327 z m -5.219,-15.328 c 0,-0.334 -0.107,-0.618 -0.323,-0.851 -0.215,-0.234 -0.477,-0.351 -0.785,-0.351 h -14.779 c -0.308,0 -0.57,0.117 -0.785,0.351 -0.216,0.233 -0.324,0.517 -0.324,0.851 0,0.334 0.108,0.618 0.324,0.852 0.215,0.234 0.477,0.35 0.785,0.35 h 14.779 c 0.308,0 0.57,-0.116 0.785,-0.35 0.216,-0.234 0.323,-0.518 0.323,-0.852 z m 9.237,18.158 v 15.102 h -2.956 v 3.205 c 0,0.885 -0.288,1.641 -0.865,2.267 -0.578,0.626 -1.274,0.939 -2.09,0.939 -0.816,0 -1.513,-0.313 -2.09,-0.939 -0.578,-0.626 -0.866,-1.382 -0.866,-2.267 v -3.205 h -17.735 v 3.205 c 0,0.885 -0.289,1.641 -0.866,2.267 -0.577,0.626 -1.274,0.939 -2.09,0.939 -0.816,0 -1.512,-0.313 -2.09,-0.939 -0.577,-0.626 -0.866,-1.382 -0.866,-2.267 V 44.029 H 570.27 V 28.927 c 0,-1.87 0.193,-3.732 0.578,-5.585 l 2.378,-11.371 c 0.139,-1.302 0.889,-2.446 2.252,-3.431 1.362,-0.985 3.133,-1.728 5.311,-2.229 2.178,-0.501 4.584,-0.751 7.216,-0.751 2.633,0 5.038,0.25 7.217,0.751 2.178,0.501 3.949,1.244 5.311,2.229 1.362,0.985 2.113,2.129 2.251,3.431 l 2.425,11.371 c 0.354,1.703 0.531,3.564 0.531,5.585 z"
     style="fill:#464646;fill-rule:nonzero"
     id="path1" /><path
     d="m 579.143,92.009 c 0,-0.885 -0.288,-1.641 -0.866,-2.267 -0.577,-0.626 -1.274,-0.939 -2.09,-0.939 -0.815,0 -1.512,0.313 -2.089,0.939 -0.578,0.626 -0.866,1.382 -0.866,2.267 0,0.885 0.288,1.64 0.866,2.266 0.577,0.627 1.274,0.94 2.089,0.94 0.816,0 1.513,-0.313 2.09,-0.94 0.578,-0.626 0.866,-1.381 0.866,-2.266 z m 23.647,0 c 0,-0.885 -0.289,-1.641 -0.866,-2.267 -0.577,-0.626 -1.274,-0.939 -2.09,-0.939 -0.816,0 -1.513,0.313 -2.09,0.939 -0.577,0.626 -0.866,1.382 -0.866,2.267 0,0.885 0.289,1.64 0.866,2.266 0.577,0.627 1.274,0.94 2.09,0.94 0.816,0 1.513,-0.313 2.09,-0.94 0.577,-0.626 0.866,-1.381 0.866,-2.266 z m -1.062,-9.918 -1.663,-9.617 c -0.077,-0.384 -0.25,-0.697 -0.52,-0.939 -0.269,-0.242 -0.581,-0.363 -0.935,-0.363 h -21.199 c -0.354,0 -0.666,0.121 -0.935,0.363 -0.269,0.242 -0.443,0.555 -0.519,0.939 l -1.663,9.617 c -0.077,0.501 0.031,0.944 0.323,1.328 0.293,0.384 0.67,0.576 1.132,0.576 h 24.524 c 0.462,0 0.839,-0.192 1.131,-0.576 0.293,-0.384 0.401,-0.827 0.324,-1.328 z m -5.219,-15.327 c 0,-0.334 -0.108,-0.618 -0.324,-0.852 -0.215,-0.233 -0.477,-0.35 -0.785,-0.35 h -14.779 c -0.308,0 -0.569,0.117 -0.785,0.35 -0.216,0.234 -0.323,0.518 -0.323,0.852 0,0.334 0.107,0.618 0.323,0.851 0.216,0.234 0.477,0.351 0.785,0.351 H 595.4 c 0.308,0 0.57,-0.117 0.785,-0.351 0.216,-0.233 0.324,-0.517 0.324,-0.851 z m 9.237,18.157 v 15.102 h -2.956 v 3.206 c 0,0.885 -0.289,1.64 -0.866,2.266 -0.577,0.627 -1.274,0.94 -2.09,0.94 -0.816,0 -1.513,-0.313 -2.09,-0.94 -0.577,-0.626 -0.866,-1.381 -0.866,-2.266 v -3.206 h -17.735 v 3.206 c 0,0.885 -0.288,1.64 -0.866,2.266 -0.577,0.627 -1.274,0.94 -2.09,0.94 -0.815,0 -1.512,-0.313 -2.089,-0.94 -0.578,-0.626 -0.866,-1.381 -0.866,-2.266 v -3.206 h -2.956 V 84.921 c 0,-1.87 0.192,-3.731 0.577,-5.585 l 2.379,-11.37 c 0.138,-1.302 0.889,-2.446 2.251,-3.431 1.363,-0.985 3.133,-1.728 5.311,-2.229 2.179,-0.501 4.584,-0.751 7.217,-0.751 2.632,0 5.038,0.25 7.216,0.751 2.178,0.501 3.949,1.244 5.311,2.229 1.363,0.985 2.113,2.129 2.252,3.431 l 2.425,11.37 c 0.354,1.703 0.531,3.565 0.531,5.585 z"
     style="fill:#0055a4;fill-rule:nonzero"
     id="path2" /><path
     d="m 579.143,148.004 c 0,-0.885 -0.288,-1.641 -0.866,-2.267 -0.577,-0.626 -1.274,-0.939 -2.09,-0.939 -0.815,0 -1.512,0.313 -2.089,0.939 -0.578,0.626 -0.866,1.382 -0.866,2.267 0,0.884 0.288,1.64 0.866,2.266 0.577,0.626 1.274,0.939 2.089,0.939 0.816,0 1.513,-0.313 2.09,-0.939 0.578,-0.626 0.866,-1.382 0.866,-2.266 z m 23.647,0 c 0,-0.885 -0.289,-1.641 -0.866,-2.267 -0.577,-0.626 -1.274,-0.939 -2.09,-0.939 -0.816,0 -1.513,0.313 -2.09,0.939 -0.577,0.626 -0.866,1.382 -0.866,2.267 0,0.884 0.289,1.64 0.866,2.266 0.577,0.626 1.274,0.939 2.09,0.939 0.816,0 1.513,-0.313 2.09,-0.939 0.577,-0.626 0.866,-1.382 0.866,-2.266 z m -1.062,-9.918 -1.663,-9.617 c -0.077,-0.384 -0.25,-0.697 -0.52,-0.94 -0.269,-0.242 -0.581,-0.363 -0.935,-0.363 h -21.199 c -0.354,0 -0.666,0.121 -0.935,0.363 -0.269,0.243 -0.443,0.556 -0.519,0.94 l -1.663,9.617 c -0.077,0.501 0.031,0.943 0.323,1.327 0.293,0.384 0.67,0.576 1.132,0.576 h 24.524 c 0.462,0 0.839,-0.192 1.131,-0.576 0.293,-0.384 0.401,-0.826 0.324,-1.327 z m -5.219,-15.328 c 0,-0.333 -0.108,-0.617 -0.324,-0.851 -0.215,-0.234 -0.477,-0.351 -0.785,-0.351 h -14.779 c -0.308,0 -0.569,0.117 -0.785,0.351 -0.216,0.234 -0.323,0.518 -0.323,0.851 0,0.334 0.107,0.618 0.323,0.852 0.216,0.234 0.477,0.351 0.785,0.351 H 595.4 c 0.308,0 0.57,-0.117 0.785,-0.351 0.216,-0.234 0.324,-0.518 0.324,-0.852 z m 9.237,18.158 v 15.102 h -2.956 v 3.206 c 0,0.884 -0.289,1.64 -0.866,2.266 -0.577,0.626 -1.274,0.939 -2.09,0.939 -0.816,0 -1.513,-0.313 -2.09,-0.939 -0.577,-0.626 -0.866,-1.382 -0.866,-2.266 v -3.206 h -17.735 v 3.206 c 0,0.884 -0.288,1.64 -0.866,2.266 -0.577,0.626 -1.274,0.939 -2.09,0.939 -0.815,0 -1.512,-0.313 -2.089,-0.939 -0.578,-0.626 -0.866,-1.382 -0.866,-2.266 v -3.206 h -2.956 v -15.102 c 0,-1.87 0.192,-3.732 0.577,-5.585 l 2.379,-11.37 c 0.138,-1.303 0.889,-2.446 2.251,-3.432 1.363,-0.985 3.133,-1.728 5.311,-2.229 2.179,-0.5 4.584,-0.751 7.217,-0.751 2.632,0 5.038,0.251 7.216,0.751 2.178,0.501 3.949,1.244 5.311,2.229 1.363,0.986 2.113,2.129 2.252,3.432 l 2.425,11.37 c 0.354,1.703 0.531,3.565 0.531,5.585 z"
     style="fill:#ffffff;fill-rule:nonzero"
     id="path3" /><path
     d="M 633.14286,63 C 628.64731,63 625,66.647317 625,71.142857 v 27.142857 c 0,4.495526 3.64731,8.142846 8.14286,8.142846 h 24.42857 2.71428 c 1.50135,0 2.71429,-1.21295 2.71429,-2.71428 0,-1.50134 -1.21294,-2.71429 -2.71429,-2.71429 v -5.428561 c 1.50135,0 2.71429,-1.212942 2.71429,-2.714286 V 65.71429 C 663,64.212946 661.78706,63 660.28571,63 h -2.71428 z m 0,32.571429 h 21.71428 v 5.428561 h -21.71428 c -1.50135,0 -2.7143,-1.212933 -2.7143,-2.714276 0,-1.501339 1.21295,-2.714285 2.7143,-2.714285 z m 2.71428,-20.357139 c 0,-0.746433 0.61072,-1.357147 1.35715,-1.357147 H 653.5 c 0.74643,0 1.35714,0.610714 1.35714,1.357147 0,0.74642 -0.61071,1.357143 -1.35714,1.357143 h -16.28571 c -0.74643,0 -1.35715,-0.610723 -1.35715,-1.357143 z m 1.35715,4.07142 H 653.5 c 0.74643,0 1.35714,0.610723 1.35714,1.357147 C 654.85714,81.38929 654.24643,82 653.5,82 h -16.28571 c -0.74643,0 -1.35715,-0.61071 -1.35715,-1.357143 0,-0.746424 0.61072,-1.357147 1.35715,-1.357147 z"
     id="path1-1"
     style="fill:#0055a4;fill-opacity:1;stroke-width:0.084821" /><path
     d="M 633.14286,7 C 628.64731,7 625,10.647317 625,15.142857 V 42.28571 c 0,4.49553 3.64731,8.14285 8.14286,8.14285 h 24.42857 2.71428 c 1.50135,0 2.71429,-1.21295 2.71429,-2.71428 0,-1.50134 -1.21294,-2.71429 -2.71429,-2.71429 v -5.42856 c 1.50135,0 2.71429,-1.21294 2.71429,-2.714287 V 9.71429 C 663,8.212946 661.78706,7 660.28571,7 h -2.71428 z m 0,32.57143 h 21.71428 v 5.42856 h -21.71428 c -1.50135,0 -2.7143,-1.21293 -2.7143,-2.71428 0,-1.50134 1.21295,-2.71428 2.7143,-2.71428 z m 2.71428,-20.35714 c 0,-0.746433 0.61072,-1.357147 1.35715,-1.357147 H 653.5 c 0.74643,0 1.35714,0.610714 1.35714,1.357147 0,0.74642 -0.61071,1.357143 -1.35714,1.357143 h -16.28571 c -0.74643,0 -1.35715,-0.610723 -1.35715,-1.357143 z m 1.35715,4.07142 H 653.5 c 0.74643,0 1.35714,0.610723 1.35714,1.357147 C 654.85714,25.38929 654.24643,26 653.5,26 h -16.28571 c -0.74643,0 -1.35715,-0.61071 -1.35715,-1.357143 0,-0.746424 0.61072,-1.357147 1.35715,-1.357147 z"
     id="path1-1-2"
     style="clip-rule:evenodd;fill:#464646;fill-opacity:1;fill-rule:evenodd;stroke-width:0.084821;stroke-linejoin:round;stroke-miterlimit:1.41421" /><path
     d="M 633.14286,119 C 628.64731,119 625,122.64732 625,127.14286 v 27.14285 c 0,4.49553 3.64731,8.14285 8.14286,8.14285 h 24.42857 2.71428 c 1.50135,0 2.71429,-1.21295 2.71429,-2.71428 0,-1.50134 -1.21294,-2.71429 -2.71429,-2.71429 v -5.42856 c 1.50135,0 2.71429,-1.21294 2.71429,-2.71429 V 121.71429 C 663,120.21295 661.78706,119 660.28571,119 h -2.71428 z m 0,32.57143 h 21.71428 v 5.42856 h -21.71428 c -1.50135,0 -2.7143,-1.21293 -2.7143,-2.71428 0,-1.50134 1.21295,-2.71428 2.7143,-2.71428 z m 2.71428,-20.35714 c 0,-0.74643 0.61072,-1.35715 1.35715,-1.35715 H 653.5 c 0.74643,0 1.35714,0.61072 1.35714,1.35715 0,0.74642 -0.61071,1.35714 -1.35714,1.35714 h -16.28571 c -0.74643,0 -1.35715,-0.61072 -1.35715,-1.35714 z m 1.35715,4.07142 H 653.5 c 0.74643,0 1.35714,0.61072 1.35714,1.35715 0,0.74643 -0.61071,1.35714 -1.35714,1.35714 h -16.28571 c -0.74643,0 -1.35715,-0.61071 -1.35715,-1.35714 0,-0.74643 0.61072,-1.35715 1.35715,-1.35715 z"
     id="path1-1-7"
     style="clip-rule:evenodd;fill:#ffffff;fill-opacity:1;fill-rule:evenodd;stroke-width:0.084821;stroke-linejoin:round;stroke-miterlimit:1.41421" /></svg>
