<?xml version="1.0" encoding="UTF-8" standalone="no"?>
<svg
   xmlns:dc="http://purl.org/dc/elements/1.1/"
   xmlns:cc="http://creativecommons.org/ns#"
   xmlns:rdf="http://www.w3.org/1999/02/22-rdf-syntax-ns#"
   xmlns:svg="http://www.w3.org/2000/svg"
   xmlns="http://www.w3.org/2000/svg"
   id="svg3141"
   height="168"
   width="560"
   version="1.1">
  <defs
     id="defs3145" />
  <path
     d="m 69.671881,119.14063 c -3.324001,0 -6.000001,2.676 -6.000001,5.99999 l 0,29.71875 c 0,3.324 2.676,6 6.000001,6 l 28.656254,0 c 3.323995,0 5.999985,-2.676 5.999985,-6 l 0,-29.71875 c 0,-3.32399 -2.67599,-5.99999 -5.999985,-5.99999 l -28.656254,0 z m 14.8125,10.15624 c 1.87499,2e-5 3.38866,0.53127 4.53125,1.625 1.14256,1.084 1.71874,2.40627 1.71875,3.96875 -1e-5,0.99611 -0.25392,1.88283 -0.78125,2.625 -0.51759,0.73243 -1.31056,1.28712 -2.375,1.6875 1.31835,0.4297 2.31639,1.13673 3,2.09375 0.69334,0.95704 1.03123,2.07813 1.03125,3.40625 -2e-5,1.83594 -0.63869,3.40625 -1.9375,4.65625 -1.29884,1.25 -3.00587,1.875 -5.125,1.875 -2.11915,0 -3.82618,-0.625 -5.125,-1.875 -1.29883,-1.25977 -1.96875,-2.84375 -1.96875,-4.71875 0,-1.39648 0.35937,-2.56249 1.0625,-3.5 0.71289,-0.94726 1.72265,-1.59569 3.03125,-1.9375 -1.09375,-0.40038 -1.91016,-0.97655 -2.4375,-1.71875 -0.52735,-0.74218 -0.78125,-1.62108 -0.78125,-2.65625 0,-1.56248 0.56445,-2.87303 1.6875,-3.9375 1.12304,-1.06443 2.60351,-1.59373 4.46875,-1.59375 z m 0.0312,2.15625 c -1.00587,2e-5 -1.83594,0.32424 -2.5,0.96875 -0.66407,0.64455 -1.00001,1.41408 -1,2.3125 -1e-5,1.01564 0.3457,1.85548 1,2.5 0.65429,0.64454 1.48632,0.96876 2.53125,0.96875 1.01562,10e-6 1.85546,-0.33397 2.5,-0.96875 0.65428,-0.64452 0.96874,-1.416 0.96875,-2.34375 -1e-5,-0.96678 -0.32618,-1.78319 -1,-2.4375 -0.66407,-0.66405 -1.50392,-0.99998 -2.5,-1 z m -0.0312,8.90625 c -1.24024,10e-6 -2.27344,0.39845 -3.09375,1.21875 -0.81055,0.82032 -1.21875,1.86329 -1.21875,3.09375 0,0.75196 0.17968,1.45313 0.53125,2.15625 0.36132,0.70313 0.89062,1.26563 1.59375,1.65625 0.70312,0.38086 1.4707,0.5625 2.28125,0.5625 1.25976,0 2.27343,-0.4082 3.09375,-1.21875 0.8203,-0.81055 1.24999,-1.84375 1.25,-3.09375 -1e-5,-1.26953 -0.43165,-2.29492 -1.28125,-3.125 -0.83985,-0.83007 -1.88673,-1.24999 -3.15625,-1.25 z"
     id="rect3490-9"
     style="fill:#ffffff;fill-opacity:1" />
  <path
     d="m 187.61112,28 q -3.70297,0.114245 -6.05732,2.925806 h -3.06296 q -1.87435,0 -3.1544,-0.925742 -1.28003,-0.925743 -1.28003,-2.708658 0,-8.068826 2.83437,-8.068826 0.13715,0 0.99432,0.480008 0.85717,0.48002 2.22865,0.971464 1.37146,0.491445 2.72008,0.491445 1.53148,0 3.0401,-0.525742 -0.11425,0.845748 -0.11425,1.508619 0,3.177254 1.85149,5.851626 z m 24.48081,14.560462 q 0,2.742955 -1.66863,4.33157 -1.66864,1.588626 -4.43445,1.588626 h -19.97777 q -2.76581,0 -4.43443,-1.588626 -1.66863,-1.588615 -1.66863,-4.33157 0,-1.211463 0.08,-2.365779 0.08,-1.154328 0.32,-2.49152 0.24001,-1.337181 0.60574,-2.480073 0.36573,-1.142891 0.98289,-2.228649 0.61716,-1.085745 1.41719,-1.851486 0.80002,-0.76574 1.95434,-1.222899 1.15433,-0.457147 2.54867,-0.457147 0.22858,0 0.98287,0.491433 0.75432,0.491456 1.66863,1.097182 0.91431,0.605737 2.44578,1.097182 1.53148,0.491444 3.08582,0.491444 1.55435,0 3.08583,-0.491444 1.53148,-0.491445 2.44578,-1.097182 0.91431,-0.605726 1.66862,-1.097182 0.75434,-0.491433 0.98291,-0.491433 1.39432,0 2.54865,0.457147 1.15431,0.457159 1.95436,1.222899 0.80003,0.765741 1.41719,1.851486 0.61714,1.085758 0.98288,2.228649 0.36573,1.142892 0.60574,2.480073 0.24001,1.337192 0.31998,2.49152 0.08,1.154316 0.08,2.365779 z M 188.68544,13.370954 q 0,2.422938 -1.71433,4.137282 -1.71434,1.714344 -4.13728,1.714344 -2.42294,0 -4.13727,-1.714344 -1.71434,-1.714344 -1.71434,-4.137282 0,-2.422937 1.71434,-4.1372682 1.71433,-1.7143438 4.13727,-1.7143438 2.42294,0 4.13728,1.7143438 1.71433,1.7143312 1.71433,4.1372682 z m 16.09197,8.77742 q 0,3.634413 -2.57152,6.205917 -2.57152,2.571515 -6.20592,2.571515 -3.6344,0 -6.2059,-2.571515 -2.5715,-2.571504 -2.5715,-6.205917 0,-3.6344 2.5715,-6.205904 2.5715,-2.571516 6.2059,-2.571516 3.6344,0 6.20592,2.571516 2.57152,2.571504 2.57152,6.205904 z m 13.16612,5.143032 q 0,1.782915 -1.28003,2.708658 -1.28005,0.925742 -3.15438,0.925742 h -3.06296 Q 208.0918,28.114292 204.38881,28 q 1.85149,-2.674372 1.85149,-5.851626 0,-0.662871 -0.11425,-1.508619 1.50863,0.525742 3.0401,0.525742 1.34863,0 2.72008,-0.491445 1.37149,-0.491444 2.22867,-0.971464 0.85715,-0.480008 0.99431,-0.480008 2.83438,0 2.83438,8.068826 z m -2.9258,-13.920452 q 0,2.422938 -1.71436,4.137282 -1.71432,1.714344 -4.13727,1.714344 -2.42292,0 -4.13726,-1.714344 -1.71435,-1.714344 -1.71435,-4.137282 0,-2.422937 1.71435,-4.1372682 1.71434,-1.7143438 4.13726,-1.7143438 2.42295,0 4.13727,1.7143438 1.71436,1.7143312 1.71436,4.1372682 z"
     id="path3201"
     style="fill:#464646;fill-opacity:1" />
  <path
     d="m 187.61113,83.999999 q -3.70297,0.114244 -6.05733,2.925805 h -3.06296 q -1.87434,0 -3.1544,-0.925742 -1.28003,-0.925742 -1.28003,-2.708658 0,-8.068826 2.83437,-8.068826 0.13715,0 0.99432,0.480008 0.85717,0.48002 2.22865,0.971464 1.37146,0.491445 2.72008,0.491445 1.53148,0 3.0401,-0.525742 -0.11425,0.845747 -0.11425,1.508619 0,3.177254 1.85149,5.851626 z m 24.4808,14.560463 q 0,2.742948 -1.66863,4.331568 -1.66864,1.58863 -4.43445,1.58863 h -19.97777 q -2.7658,0 -4.43442,-1.58863 -1.66864,-1.58862 -1.66864,-4.331568 0,-1.211461 0.08,-2.36578 0.08,-1.154331 0.32,-2.49152 0.24001,-1.33718 0.60573,-2.480069 0.36574,-1.14289 0.98289,-2.228652 0.61717,-1.085745 1.4172,-1.851486 0.80001,-0.76574 1.95434,-1.222899 1.15432,-0.457147 2.54866,-0.457147 0.22858,0 0.98287,0.491433 0.75432,0.491456 1.66863,1.097182 0.91431,0.605737 2.44579,1.097182 1.53147,0.491444 3.08582,0.491444 1.55435,0 3.08583,-0.491444 1.53147,-0.491445 2.44578,-1.097182 0.91431,-0.605726 1.66862,-1.097182 0.75433,-0.491433 0.98291,-0.491433 1.39432,0 2.54864,0.457147 1.15431,0.457159 1.95436,1.222899 0.80003,0.765741 1.41719,1.851486 0.61714,1.085762 0.98288,2.228652 0.36573,1.142889 0.60574,2.480069 0.24001,1.337191 0.31999,2.49152 0.08,1.154319 0.08,2.36578 z M 188.68545,69.370953 q 0,2.422938 -1.71433,4.137281 -1.71434,1.714344 -4.13728,1.714344 -2.42295,0 -4.13727,-1.714344 -1.71434,-1.714343 -1.71434,-4.137281 0,-2.422937 1.71434,-4.137269 1.71432,-1.714344 4.13727,-1.714344 2.42294,0 4.13728,1.714344 1.71433,1.714332 1.71433,4.137269 z m 16.09197,8.777419 q 0,3.634413 -2.57152,6.205917 -2.57152,2.571516 -6.20592,2.571516 -3.6344,0 -6.20591,-2.571516 -2.5715,-2.571504 -2.5715,-6.205917 0,-3.634399 2.5715,-6.205904 2.57151,-2.571516 6.20591,-2.571516 3.6344,0 6.20592,2.571516 2.57152,2.571504 2.57152,6.205904 z m 13.16612,5.143033 q 0,1.782915 -1.28003,2.708658 -1.28005,0.925742 -3.15439,0.925742 h -3.06296 Q 208.09181,84.114292 204.38882,84 q 1.85149,-2.674373 1.85149,-5.851626 0,-0.662871 -0.11425,-1.508619 1.50862,0.525742 3.0401,0.525742 1.34862,0 2.72008,-0.491445 1.37149,-0.491444 2.22867,-0.971464 0.85714,-0.480008 0.99431,-0.480008 2.83437,0 2.83437,8.068826 z m -2.9258,-13.920452 q 0,2.422938 -1.71436,4.137282 -1.71432,1.714344 -4.13727,1.714344 -2.42293,0 -4.13726,-1.714344 -1.71435,-1.714344 -1.71435,-4.137282 0,-2.422937 1.71435,-4.137269 1.71433,-1.714344 4.13726,-1.714344 2.42295,0 4.13727,1.714344 1.71436,1.714332 1.71436,4.137269 z"
     id="path3201-4"
     style="fill:#0055a4;fill-opacity:1" />
  <path
     d="m 330.99873,30.93757 q 0,0.758871 -0.75887,1.615666 l -8.22519,9.69398 q -1.05264,1.248468 -2.94979,2.117502 -1.8972,0.869029 -3.51286,0.869029 h -26.63396 q -0.83231,0 -1.48103,-0.318239 -0.64871,-0.318233 -0.64871,-1.052628 0,-0.758873 0.75887,-1.615664 l 8.2252,-9.69398 q 1.05264,-1.248467 2.94981,-2.1175 1.89719,-0.869031 3.51285,-0.869031 h 26.63398 q 0.8323,0 1.48101,0.318235 0.64872,0.318238 0.64872,1.05263 z m -8.39654,-8.421036 v 3.91676 h -20.36717 q -2.3011,0 -4.82252,1.162788 -2.52141,1.162791 -4.01467,2.925334 l -8.24968,9.693983 -0.12241,0.146878 q 0,-0.09792 -0.0122,-0.305995 -0.0123,-0.208082 -0.0123,-0.306001 V 16.249715 q 0,-2.252135 1.61568,-3.867798 1.61565,-1.615664 3.86779,-1.615664 h 7.83352 q 2.25215,0 3.86782,1.615664 1.61566,1.615663 1.61566,3.867798 v 0.783354 h 13.317 q 2.25214,0 3.86777,1.615667 1.61568,1.615662 1.61568,3.867798 z"
     id="path3282"
     style="fill:#464646;fill-opacity:1" />
  <path
     d="m 330.99874,86.937575 q 0,0.758871 -0.75888,1.615666 l -8.22519,9.69398 q -1.05264,1.248468 -2.9498,2.117499 -1.89719,0.86902 -3.51286,0.86902 h -26.63397 q -0.83231,0 -1.48102,-0.31823 -0.64871,-0.31823 -0.64871,-1.05262 0,-0.758877 0.75887,-1.615668 l 8.22519,-9.69398 q 1.05264,-1.248467 2.94982,-2.1175 1.89719,-0.869032 3.51285,-0.869032 h 26.63398 q 0.8323,0 1.48101,0.318235 0.64872,0.318237 0.64872,1.052629 z m -8.39655,-8.421036 v 3.91676 h -20.36716 q -2.3011,0 -4.82252,1.162788 -2.52141,1.162791 -4.01467,2.925335 l -8.24968,9.693984 -0.12241,0.146878 q 0,-0.09792 -0.0122,-0.305995 -0.0123,-0.208082 -0.0123,-0.306001 V 72.24972 q 0,-2.252135 1.61568,-3.867797 1.61565,-1.615663 3.86779,-1.615663 h 7.83352 q 2.25215,0 3.86781,1.615663 1.61566,1.615662 1.61566,3.867797 v 0.783354 h 13.317 q 2.25213,0 3.86778,1.615667 1.61568,1.615662 1.61568,3.867798 z"
     id="path3282-8"
     style="fill:#0055a4;fill-opacity:1" />
  <path
     d="m 268.18433,30.751198 v 8.927349 q 0,3.34074 -2.37221,5.712942 -2.3722,2.372206 -5.71294,2.372206 h -23.35709 q -3.34073,0 -5.71294,-2.372206 -2.37221,-2.372202 -2.37221,-5.712942 V 16.321455 q 0,-3.340735 2.37221,-5.712942 2.37221,-2.372208 5.71294,-2.372208 h 23.35709 q 1.76862,0 3.28459,0.7018381 0.42111,0.196514 0.50532,0.6456899 0.0842,0.477249 -0.25266,0.814131 l -1.3756,1.375596 q -0.28074,0.280736 -0.64568,0.280736 -0.0842,0 -0.25266,-0.05615 -0.6457,-0.168438 -1.26331,-0.168438 h -23.35709 q -1.85285,0 -3.1723,1.319451 -1.31946,1.319451 -1.31946,3.172297 v 23.357092 q 0,1.852846 1.31946,3.172297 1.31945,1.319451 3.1723,1.319451 h 23.35709 q 1.85285,0 3.1723,-1.319451 1.31945,-1.319451 1.31945,-3.172297 v -7.130651 q 0,-0.364953 0.25266,-0.617613 l 1.7967,-1.7967 q 0.28073,-0.280736 0.64569,-0.280736 0.16843,0 0.33688,0.08422 0.56147,0.224586 0.56147,0.814131 z m 6.48496,-13.727909 -22.85177,22.851771 q -0.67377,0.673763 -1.60018,0.673763 -0.92643,0 -1.60019,-0.673763 L 236.54558,27.803486 q -0.67377,-0.673763 -0.67377,-1.600186 0,-0.926424 0.67377,-1.600182 l 3.08807,-3.088081 q 0.67376,-0.673758 1.60019,-0.673758 0.92641,0 1.60019,0.673758 l 7.38331,7.383315 18.1635,-18.163507 q 0.67376,-0.673763 1.60018,-0.673763 0.92643,0 1.60019,0.673763 l 3.08808,3.088076 q 0.67376,0.673763 0.67376,1.600187 0,0.926422 -0.67376,1.600181 z"
     id="path3349"
     style="fill:#464646;fill-opacity:1" />
  <path
     d="m 268.18433,86.751198 v 8.927352 q 0,3.340739 -2.37221,5.71294 -2.3722,2.3722 -5.71294,2.3722 h -23.35709 q -3.34073,0 -5.71294,-2.3722 -2.37221,-2.372199 -2.37221,-5.71294 V 72.321458 q 0,-3.340735 2.37221,-5.712942 2.37221,-2.372205 5.71294,-2.372205 h 23.35709 q 1.76862,0 3.28459,0.701837 0.42111,0.196514 0.50532,0.645688 0.0842,0.477249 -0.25266,0.814131 l -1.3756,1.375596 q -0.28074,0.280736 -0.64568,0.280736 -0.0842,0 -0.25266,-0.05615 -0.6457,-0.168437 -1.26331,-0.168437 h -23.35709 q -1.85285,0 -3.1723,1.31945 -1.31946,1.319452 -1.31946,3.172298 v 23.357091 q 0,1.852846 1.31946,3.172297 1.31945,1.319452 3.1723,1.319452 h 23.35709 q 1.85285,0 3.1723,-1.319452 1.31945,-1.319451 1.31945,-3.172297 v -7.130652 q 0,-0.364953 0.25266,-0.617613 l 1.7967,-1.7967 q 0.28073,-0.280736 0.64569,-0.280736 0.16843,0 0.33688,0.08422 0.56147,0.224586 0.56147,0.814131 z m 6.48496,-13.727907 -22.85177,22.85177 q -0.67377,0.673762 -1.60018,0.673762 -0.92643,0 -1.60019,-0.673762 L 236.54558,83.803488 q -0.67377,-0.673762 -0.67377,-1.600185 0,-0.926424 0.67377,-1.600182 l 3.08807,-3.088082 q 0.67376,-0.67376 1.60019,-0.67376 0.92641,0 1.60019,0.67376 l 7.38331,7.383314 18.1635,-18.163506 q 0.67376,-0.673762 1.60018,-0.673762 0.92643,0 1.60019,0.673762 l 3.08808,3.088077 q 0.67376,0.67376 0.67376,1.600187 0,0.926422 -0.67376,1.600181 z"
     id="path3349-6"
     style="fill:#0055a4;fill-opacity:1" />
  <path
     d="m 13.493505,33.439932 q 0,-1.50164 -1.062484,-2.56413 -1.062488,-1.06249 -2.5641416,-1.06249 -1.5016449,0 -2.5641339,1.06249 -1.062489,1.06249 -1.062489,2.56413 0,1.50166 1.062489,2.56414 1.062489,1.06249 2.5641339,1.06249 1.5016536,0 2.5641416,-1.06249 1.062484,-1.06248 1.062484,-2.56414 z m 5.439939,-12.693176 q 0,-1.501653 -1.062489,-2.564142 -1.062489,-1.062482 -2.564135,-1.062482 -1.501652,0 -2.564135,1.062482 -1.062489,1.062489 -1.062489,2.564142 0,1.501646 1.062489,2.564135 1.062483,1.062489 2.564135,1.062489 1.501646,0 2.564135,-1.062489 1.062489,-1.062489 1.062489,-2.564135 z m 12.126525,13.628166 2.861629,-10.823199 q 0.170001,-0.736657 -0.212493,-1.374152 -0.382495,-0.637495 -1.090821,-0.835827 -0.708325,-0.198325 -1.359982,0.18417 -0.651665,0.382494 -0.849996,1.119151 l -2.86163,10.823197 q -1.699984,0.14167 -3.031629,1.23249 -1.331652,1.09082 -1.784985,2.7908 -0.566657,2.18164 0.566664,4.13662 1.13332,1.95498 3.314961,2.52164 2.181642,0.56666 4.13662,-0.56666 1.954978,-1.13332 2.521634,-3.31496 0.453325,-1.69998 -0.17,-3.31496 -0.623326,-1.61499 -2.039971,-2.57831 z m 18.699779,-0.93499 q 0,-1.50164 -1.062489,-2.56413 -1.062483,-1.06249 -2.564136,-1.06249 -1.501645,0 -2.564134,1.06249 -1.06249,1.06249 -1.06249,2.56413 0,1.50166 1.06249,2.56414 1.062489,1.06249 2.564134,1.06249 1.501653,0 2.564136,-1.06249 1.062489,-1.06248 1.062489,-2.56414 z M 31.626626,15.306816 q 0,-1.501645 -1.06249,-2.564135 -1.062482,-1.062489 -2.564135,-1.062489 -1.501646,0 -2.564136,1.062489 -1.062489,1.06249 -1.062489,2.564135 0,1.501653 1.062489,2.564135 1.06249,1.062489 2.564136,1.062489 1.501653,0 2.564135,-1.062489 1.06249,-1.062482 1.06249,-2.564135 z m 12.693188,5.43994 q 0,-1.501653 -1.062489,-2.564142 -1.06249,-1.062482 -2.564135,-1.062482 -1.501653,0 -2.564142,1.062482 -1.062483,1.062489 -1.062483,2.564142 0,1.501646 1.062483,2.564135 1.062489,1.062489 2.564142,1.062489 1.501645,0 2.564135,-1.062489 1.062489,-1.062489 1.062489,-2.564135 z m 9.066554,12.693176 q 0,7.39491 -3.99495,13.68484 -0.53833,0.82166 -1.52998,0.82166 H 8.1385715 q -0.991657,0 -1.529983,-0.82166 -3.9949565,-6.26159 -3.9949565,-13.68484 0,-5.1566 2.0116475,-9.859878 2.01164,-4.703276 5.4116005,-8.103237 3.399961,-3.399962 8.103237,-5.411602 4.703275,-2.011647 9.859884,-2.011647 5.156608,0 9.859884,2.011647 4.703282,2.01164 8.103237,5.411602 3.399966,3.399961 5.411606,8.103237 2.01164,4.703278 2.01164,9.859878 z"
     id="path3415"
     style="fill:#464646;fill-opacity:1" />
  <path
     d="m 13.493505,89.439935 q 0,-1.50164 -1.062483,-2.564131 -1.062489,-1.062489 -2.5641423,-1.062489 -1.5016447,0 -2.5641347,1.062489 -1.062489,1.06249 -1.062489,2.564131 0,1.50166 1.062489,2.564139 1.06249,1.06249 2.5641347,1.06249 1.5016533,0 2.5641423,-1.06249 1.062483,-1.062479 1.062483,-2.564139 z m 5.439939,-12.693176 q 0,-1.501653 -1.062489,-2.564142 -1.062489,-1.062482 -2.564135,-1.062482 -1.501652,0 -2.564135,1.062482 -1.062489,1.062489 -1.062489,2.564142 0,1.501646 1.062489,2.564135 1.062483,1.062489 2.564135,1.062489 1.501646,0 2.564135,-1.062489 1.062489,-1.062489 1.062489,-2.564135 z m 12.126525,13.628166 2.861629,-10.823199 q 0.170001,-0.736657 -0.212493,-1.374152 -0.382495,-0.637495 -1.090821,-0.835827 -0.708326,-0.198325 -1.359983,0.18417 -0.651665,0.382493 -0.849995,1.119151 l -2.861629,10.823197 q -1.699984,0.14167 -3.03163,1.23249 -1.331651,1.09082 -1.784984,2.7908 -0.566657,2.18164 0.566664,4.13662 1.13332,1.95498 3.314961,2.521635 2.18164,0.56666 4.136619,-0.566655 1.954978,-1.13332 2.521634,-3.31496 0.453325,-1.69998 -0.17,-3.31496 -0.623326,-1.614991 -2.039972,-2.57831 z m 18.699779,-0.93499 q 0,-1.50164 -1.062489,-2.564131 -1.062483,-1.062489 -2.564136,-1.062489 -1.501645,0 -2.564134,1.062489 -1.06249,1.06249 -1.06249,2.564131 0,1.50166 1.06249,2.564139 1.062489,1.06249 2.564134,1.06249 1.501653,0 2.564136,-1.06249 1.062489,-1.062479 1.062489,-2.564139 z M 31.626626,71.306818 q 0,-1.501645 -1.06249,-2.564135 -1.062482,-1.062489 -2.564135,-1.062489 -1.501645,0 -2.564135,1.062489 -1.062489,1.06249 -1.062489,2.564135 0,1.501653 1.062489,2.564135 1.06249,1.062489 2.564135,1.062489 1.501653,0 2.564135,-1.062489 1.06249,-1.062482 1.06249,-2.564135 z m 12.693188,5.43994 q 0,-1.501653 -1.062489,-2.564142 -1.06249,-1.062482 -2.564135,-1.062482 -1.501653,0 -2.564142,1.062482 -1.062483,1.062489 -1.062483,2.564142 0,1.501646 1.062483,2.564135 1.062489,1.062489 2.564142,1.062489 1.501645,0 2.564135,-1.062489 1.062489,-1.062489 1.062489,-2.564135 z m 9.066554,12.693176 q 0,7.39491 -3.99495,13.684836 -0.53833,0.82166 -1.52998,0.82166 H 8.138572 q -0.991658,0 -1.529984,-0.82166 -3.994956,-6.261586 -3.994956,-13.684836 0,-5.1566 2.011647,-9.859878 2.01164,-4.703276 5.411602,-8.103237 3.399961,-3.399962 8.103237,-5.411602 4.703275,-2.011647 9.859884,-2.011647 5.156607,0 9.859883,2.011647 4.703282,2.01164 8.103237,5.411602 3.399966,3.399961 5.411606,8.103237 2.01164,4.703278 2.01164,9.859878 z"
     id="path3415-1"
     style="fill:#0055a4;fill-opacity:1" />
  <path
     d="m 123.61091,45.87899 h 6.70464 v -6.704623 h -6.70464 v 6.704623 z m 8.19455,0 h 7.44958 v -6.704623 h -7.44958 v 6.704623 z m -8.19454,-8.194543 h 6.70464 V 30.23487 h -6.70464 v 7.449577 z m 8.19454,0 h 7.44958 V 30.23487 h -7.44958 v 7.449577 z m -8.19454,-8.939488 h 6.70464 v -6.704623 h -6.70464 v 6.704623 z m 17.13402,17.134031 h 7.44959 v -6.704623 h -7.44959 v 6.704623 z m -8.93948,-17.134031 h 7.44958 v -6.704623 h -7.44958 v 6.704623 z m 17.879,17.134031 h 6.70462 v -6.704623 h -6.70462 v 6.704623 z m -8.93952,-8.194543 h 7.44959 V 30.23487 h -7.44959 v 7.449577 z m -8.19452,-20.113858 v -6.704616 q 0,-0.302644 -0.22116,-0.5238 -0.22116,-0.221164 -0.5238,-0.221164 h -1.48991 q -0.30264,0 -0.52381,0.221164 -0.22115,0.221156 -0.22115,0.5238 v 6.704616 q 0,0.302643 0.22115,0.523798 0.22117,0.221165 0.52381,0.221165 h 1.48991 q 0.30264,0 0.5238,-0.221165 0.22116,-0.221155 0.22116,-0.523798 z m 17.13403,20.113858 h 6.70462 V 30.23487 h -6.70462 v 7.449577 z m -8.93951,-8.939488 h 7.44959 v -6.704623 h -7.44959 v 6.704623 z m 8.93951,0 h 6.70462 v -6.704623 h -6.70462 v 6.704623 z m 0.74496,-11.17437 v -6.704616 q 0,-0.302644 -0.22116,-0.5238 -0.22116,-0.221164 -0.5238,-0.221164 h -1.48992 q -0.30263,0 -0.52379,0.221164 -0.22117,0.221156 -0.22117,0.5238 v 6.704616 q 0,0.302643 0.22117,0.523798 0.22116,0.221165 0.52379,0.221165 h 1.48992 q 0.30264,0 0.5238,-0.221165 0.22116,-0.221155 0.22116,-0.523798 z m 8.93949,-1.489911 V 45.87899 q 0,1.210558 -0.88463,2.095189 -0.88464,0.88464 -2.0952,0.88464 h -32.77816 q -1.21055,0 -2.09518,-0.88464 -0.88464,-0.884631 -0.88464,-2.095189 V 16.080678 q 0,-1.210559 0.88464,-2.095198 0.88463,-0.88464 2.09518,-0.88464 h 2.97985 v -2.234867 q 0,-1.5364761 1.09416,-2.6306346 1.09415,-1.0941574 2.63063,-1.0941574 h 1.48991 q 1.53648,0 2.63062,1.0941574 1.09417,1.0941585 1.09417,2.6306346 v 2.234867 h 8.9395 v -2.234867 q 0,-1.5364761 1.09415,-2.6306346 1.09416,-1.0941574 2.63063,-1.0941574 h 1.48993 q 1.53647,0 2.63062,1.0941574 1.09416,1.0941585 1.09416,2.6306346 v 2.234867 h 2.97983 q 1.21056,0 2.0952,0.88464 0.88463,0.884639 0.88463,2.095198 z"
     id="path3463"
     style="fill:#464646;fill-opacity:1" />
  <path
     d="m 123.61091,101.87899 h 6.70464 v -6.704625 h -6.70464 v 6.704625 z m 8.19455,0 h 7.44958 v -6.704625 h -7.44958 v 6.704625 z m -8.19454,-8.194545 h 6.70464 v -7.449577 h -6.70464 v 7.449577 z m 8.19454,0 h 7.44958 v -7.449577 h -7.44958 v 7.449577 z m -8.19454,-8.939488 h 6.70464 v -6.704623 h -6.70464 v 6.704623 z m 17.13402,17.134033 h 7.44959 v -6.704625 h -7.44959 v 6.704625 z m -8.93948,-17.134033 h 7.44958 v -6.704623 h -7.44958 v 6.704623 z m 17.879,17.134033 h 6.70462 v -6.704625 h -6.70462 v 6.704625 z m -8.93952,-8.194545 h 7.44959 v -7.449577 h -7.44959 v 7.449577 z m -8.19452,-20.113857 v -6.704615 q 0,-0.302644 -0.22116,-0.5238 -0.22116,-0.221164 -0.5238,-0.221164 h -1.48991 q -0.30264,0 -0.52381,0.221164 -0.22115,0.221156 -0.22115,0.5238 v 6.704615 q 0,0.302644 0.22115,0.523798 0.22117,0.221164 0.52381,0.221164 h 1.48991 q 0.30264,0 0.5238,-0.221164 0.22116,-0.221154 0.22116,-0.523798 z m 17.13403,20.113859 h 6.70462 V 86.23487 h -6.70462 v 7.449577 z m -8.93951,-8.939488 h 7.44959 v -6.704623 h -7.44959 v 6.704623 z m 8.93951,0 h 6.70462 v -6.704623 h -6.70462 v 6.704623 z m 0.74496,-11.17437 v -6.704614 q 0,-0.302644 -0.22116,-0.5238 -0.22116,-0.221164 -0.5238,-0.221164 h -1.48992 q -0.30263,0 -0.52379,0.221164 -0.22117,0.221156 -0.22117,0.5238 v 6.704614 q 0,0.302644 0.22117,0.523798 0.22116,0.221165 0.52379,0.221165 h 1.48992 q 0.30264,0 0.5238,-0.221165 0.22116,-0.221155 0.22116,-0.523798 z m 8.93949,-1.48991 v 29.798311 q 0,1.21056 -0.88463,2.09519 -0.88464,0.88464 -2.0952,0.88464 h -32.77816 q -1.21055,0 -2.09518,-0.88464 -0.88464,-0.88463 -0.88464,-2.09519 V 72.080677 q 0,-1.210558 0.88464,-2.095198 0.88463,-0.88464 2.09518,-0.88464 h 2.97985 v -2.234866 q 0,-1.536478 1.09416,-2.630636 1.09415,-1.094158 2.63063,-1.094158 h 1.48991 q 1.53648,0 2.63062,1.094158 1.09417,1.094158 1.09417,2.630636 v 2.234866 h 8.9395 v -2.234866 q 0,-1.536478 1.09415,-2.630636 1.09416,-1.094158 2.63063,-1.094158 h 1.48993 q 1.53647,0 2.63062,1.094158 1.09416,1.094158 1.09416,2.630636 v 2.234866 h 2.97983 q 1.21056,0 2.0952,0.88464 0.88463,0.884639 0.88463,2.095198 z"
     id="path3463-6"
     style="fill:#0055a4;fill-opacity:1" />
  <path
     d="m 69.671875,63.140629 c -3.324,0 -6,2.676 -6,6 l 0,29.71875 c 0,3.323991 2.676,5.999991 6,5.999991 l 28.656247,0 c 3.323998,0 6.000008,-2.676 6.000008,-5.999991 l 0,-29.71875 c 0,-3.324 -2.67601,-6 -6.000008,-6 l -28.656247,0 z m 14.8125,10.15625 c 1.87499,2.2e-5 3.38866,0.531271 4.53125,1.625 1.14256,1.084003 1.71874,2.406268 1.71875,3.96875 -1e-5,0.99611 -0.25392,1.882828 -0.78125,2.625 -0.51759,0.732434 -1.31056,1.287121 -2.375,1.6875 1.31835,0.429699 2.31639,1.13673 3,2.09375 0.69334,0.957041 1.03123,2.078132 1.03125,3.40625 -2e-5,1.835943 -0.63869,3.406254 -1.9375,4.65625 -1.29884,1.25 -3.00587,1.875 -5.125,1.875 -2.119147,0 -3.826176,-0.625 -5.125,-1.875 -1.29883,-1.259763 -1.968751,-2.843745 -1.96875,-4.71875 -10e-7,-1.396477 0.359373,-2.56249 1.0625,-3.5 0.712888,-0.947255 1.722652,-1.595692 3.03125,-1.9375 -1.093754,-0.400379 -1.91016,-0.97655 -2.4375,-1.71875 -0.527346,-0.742172 -0.781252,-1.621078 -0.78125,-2.65625 -2e-6,-1.562482 0.56445,-2.873028 1.6875,-3.9375 1.123042,-1.064431 2.603509,-1.593728 4.46875,-1.59375 z m 0.03125,2.15625 c -1.005867,1.9e-5 -1.835944,0.324238 -2.5,0.96875 -0.664068,0.644549 -1.000005,1.41408 -1,2.3125 -5e-6,1.015641 0.345698,1.855484 1,2.5 0.65429,0.644544 1.486321,0.968763 2.53125,0.96875 1.015616,1.3e-5 1.855459,-0.333971 2.5,-0.96875 0.65428,-0.644516 0.96874,-1.416 0.96875,-2.34375 -1e-5,-0.96678 -0.32618,-1.783185 -1,-2.4375 -0.664073,-0.664042 -1.503916,-0.99998 -2.5,-1 z m -0.03125,8.90625 c -1.240241,1.1e-5 -2.273443,0.398448 -3.09375,1.21875 -0.810551,0.820322 -1.218754,1.863289 -1.21875,3.09375 -4e-6,0.751959 0.179683,1.45313 0.53125,2.15625 0.361323,0.703129 0.89062,1.265629 1.59375,1.65625 0.703118,0.380861 1.470696,0.562502 2.28125,0.5625 1.259756,2e-6 2.27343,-0.408201 3.09375,-1.21875 0.8203,-0.810542 1.24999,-1.843745 1.25,-3.09375 -1e-5,-1.269524 -0.43165,-2.294912 -1.28125,-3.125 -0.839854,-0.830067 -1.886728,-1.249989 -3.15625,-1.25 z"
     id="rect3490"
     style="fill:#0055a4;fill-opacity:1" />
  <path
     d="m 187.61113,140 q -3.70297,0.11424 -6.05733,2.9258 h -3.06296 q -1.87434,0 -3.1544,-0.92574 -1.28003,-0.92574 -1.28003,-2.70866 0,-8.06882 2.83437,-8.06882 0.13715,0 0.99432,0.48001 0.85717,0.48002 2.22865,0.97146 1.37146,0.49144 2.72008,0.49144 1.53148,0 3.0401,-0.52574 -0.11425,0.84575 -0.11425,1.50862 0,3.17726 1.85149,5.85163 z m 24.4808,14.56046 q 0,2.74295 -1.66863,4.33157 -1.66864,1.58863 -4.43445,1.58863 h -19.97777 q -2.7658,0 -4.43442,-1.58863 -1.66864,-1.58862 -1.66864,-4.33157 0,-1.21146 0.08,-2.36578 0.08,-1.15433 0.32,-2.49152 0.24001,-1.33718 0.60573,-2.48007 0.36574,-1.14289 0.98289,-2.22865 0.61717,-1.08575 1.4172,-1.85149 0.80001,-0.76574 1.95434,-1.2229 1.15432,-0.45714 2.54866,-0.45714 0.22858,0 0.98287,0.49143 0.75432,0.49145 1.66863,1.09718 0.91431,0.60574 2.44579,1.09718 1.53147,0.49145 3.08582,0.49145 1.55435,0 3.08583,-0.49145 1.53147,-0.49144 2.44578,-1.09718 0.91431,-0.60573 1.66862,-1.09718 0.75433,-0.49143 0.98291,-0.49143 1.39432,0 2.54864,0.45714 1.15431,0.45716 1.95436,1.2229 0.80003,0.76574 1.41719,1.85149 0.61714,1.08576 0.98288,2.22865 0.36573,1.14289 0.60574,2.48007 0.24001,1.33719 0.31999,2.49152 0.08,1.15432 0.08,2.36578 z m -23.40648,-29.18951 q 0,2.42294 -1.71433,4.13728 -1.71434,1.71435 -4.13728,1.71435 -2.42295,0 -4.13727,-1.71435 -1.71434,-1.71434 -1.71434,-4.13728 0,-2.42294 1.71434,-4.13727 1.71432,-1.71434 4.13727,-1.71434 2.42294,0 4.13728,1.71434 1.71433,1.71433 1.71433,4.13727 z m 16.09197,8.77742 q 0,3.63441 -2.57152,6.20592 -2.57152,2.57151 -6.20592,2.57151 -3.6344,0 -6.20591,-2.57151 -2.5715,-2.57151 -2.5715,-6.20592 0,-3.6344 2.5715,-6.2059 2.57151,-2.57152 6.20591,-2.57152 3.6344,0 6.20592,2.57152 2.57152,2.5715 2.57152,6.2059 z m 13.16612,5.14303 q 0,1.78292 -1.28003,2.70866 -1.28005,0.92574 -3.15439,0.92574 h -3.06296 q -2.35436,-2.81151 -6.05735,-2.9258 1.85149,-2.67438 1.85149,-5.85163 0,-0.66287 -0.11425,-1.50862 1.50863,0.52574 3.0401,0.52574 1.34863,0 2.72008,-0.49144 1.37149,-0.49144 2.22867,-0.97146 0.85715,-0.48001 0.99431,-0.48001 2.83438,0 2.83438,8.06882 z m -2.9258,-13.92045 q 0,2.42294 -1.71436,4.13728 -1.71432,1.71435 -4.13727,1.71435 -2.42293,0 -4.13726,-1.71435 -1.71435,-1.71434 -1.71435,-4.13728 0,-2.42294 1.71435,-4.13727 1.71433,-1.71434 4.13726,-1.71434 2.42294,0 4.13727,1.71434 1.71436,1.71433 1.71436,4.13727 z"
     id="path3201-4-3"
     style="fill:#ffffff;fill-opacity:1" />
  <path
     d="m 330.99874,142.93757 q 0,0.75887 -0.75888,1.61566 l -8.22519,9.69398 q -1.05264,1.24847 -2.9498,2.1175 -1.89719,0.86903 -3.51286,0.86903 h -26.63397 q -0.83231,0 -1.48102,-0.31824 -0.64871,-0.31823 -0.64871,-1.05262 0,-0.75887 0.75887,-1.61567 l 8.22519,-9.69398 q 1.05264,-1.24846 2.94982,-2.1175 1.89719,-0.86903 3.51285,-0.86903 h 26.63398 q 0.8323,0 1.48101,0.31824 0.64872,0.31824 0.64872,1.05263 z m -8.39655,-8.42104 v 3.91676 h -20.36716 q -2.3011,0 -4.82252,1.16279 -2.52141,1.16279 -4.01467,2.92533 l -8.24968,9.69399 -0.12241,0.14688 q 0,-0.0979 -0.0122,-0.306 -0.0123,-0.20808 -0.0123,-0.306 v -23.50057 q 0,-2.25213 1.61568,-3.8678 1.61565,-1.61565 3.86779,-1.61565 h 7.83352 q 2.25215,0 3.86781,1.61565 1.61566,1.61567 1.61566,3.8678 v 0.78336 h 13.317 q 2.25213,0 3.86778,1.61566 1.61568,1.61567 1.61568,3.8678 z"
     id="path3282-8-7"
     style="fill:#ffffff;fill-opacity:1" />
  <path
     d="m 268.18433,142.7512 v 8.92735 q 0,3.34074 -2.37221,5.71294 -2.3722,2.3722 -5.71294,2.3722 h -23.35709 q -3.34073,0 -5.71294,-2.3722 -2.37221,-2.3722 -2.37221,-5.71294 v -23.35709 q 0,-3.34074 2.37221,-5.71295 2.37221,-2.3722 5.71294,-2.3722 h 23.35709 q 1.76862,0 3.28459,0.70184 0.42111,0.19651 0.50532,0.64568 0.0842,0.47725 -0.25266,0.81413 l -1.3756,1.3756 q -0.28074,0.28074 -0.64568,0.28074 -0.0842,0 -0.25266,-0.0562 -0.6457,-0.16844 -1.26331,-0.16844 h -23.35709 q -1.85285,0 -3.1723,1.31945 -1.31946,1.31945 -1.31946,3.1723 v 23.35709 q 0,1.85285 1.31946,3.1723 1.31945,1.31945 3.1723,1.31945 h 23.35709 q 1.85285,0 3.1723,-1.31945 1.31945,-1.31945 1.31945,-3.1723 v -7.13065 q 0,-0.36496 0.25266,-0.61762 l 1.7967,-1.7967 q 0.28073,-0.28073 0.64569,-0.28073 0.16843,0 0.33688,0.0842 0.56147,0.22458 0.56147,0.81413 z m 6.48496,-13.72791 -22.85177,22.85177 q -0.67377,0.67376 -1.60018,0.67376 -0.92643,0 -1.60019,-0.67376 l -12.07157,-12.07157 q -0.67377,-0.67377 -0.67377,-1.60019 0,-0.92642 0.67377,-1.60018 l 3.08807,-3.08808 q 0.67376,-0.67376 1.60019,-0.67376 0.92641,0 1.60019,0.67376 l 7.38331,7.38331 18.1635,-18.1635 q 0.67376,-0.67377 1.60018,-0.67377 0.92643,0 1.60019,0.67377 l 3.08808,3.08807 q 0.67376,0.67377 0.67376,1.60019 0,0.92642 -0.67376,1.60018 z"
     id="path3349-6-0"
     style="fill:#ffffff;fill-opacity:1" />
  <path
     d="m 13.4935,145.43993 q 0,-1.50164 -1.06248,-2.56413 -1.06249,-1.06249 -2.5641386,-1.06249 -1.5016485,0 -2.5641385,1.06249 -1.062489,1.06249 -1.062489,2.56413 0,1.50166 1.062489,2.56414 1.06249,1.06249 2.5641385,1.06249 1.5016486,0 2.5641386,-1.06249 1.06248,-1.06248 1.06248,-2.56414 z m 5.43994,-12.69317 q 0,-1.50166 -1.06249,-2.56415 -1.06249,-1.06248 -2.56413,-1.06248 -1.50165,0 -2.56414,1.06248 -1.06249,1.06249 -1.06249,2.56415 0,1.50164 1.06249,2.56413 1.06249,1.06249 2.56414,1.06249 1.50164,0 2.56413,-1.06249 1.06249,-1.06249 1.06249,-2.56413 z m 12.12653,13.62816 2.86163,-10.8232 q 0.17,-0.73665 -0.2125,-1.37415 -0.382489,-0.63749 -1.09082,-0.83583 -0.70832,-0.19832 -1.35998,0.18417 -0.651669,0.3825 -0.85,1.11916 l -2.86163,10.82319 q -1.699979,0.14167 -3.03163,1.23249 -1.331649,1.09082 -1.784979,2.7908 -0.56666,2.18164 0.566659,4.13662 1.13332,1.95498 3.31496,2.52164 2.18165,0.56666 4.13662,-0.56666 1.95498,-1.13332 2.52164,-3.31496 0.45332,-1.69998 -0.17,-3.31496 -0.62333,-1.61499 -2.03997,-2.57831 z m 18.699781,-0.93499 q 0,-1.50164 -1.06249,-2.56413 -1.06249,-1.06249 -2.56414,-1.06249 -1.50165,0 -2.56413,1.06249 -1.06249,1.06249 -1.06249,2.56413 0,1.50166 1.06249,2.56414 1.06248,1.06249 2.56413,1.06249 1.50165,0 2.56414,-1.06249 1.06249,-1.06248 1.06249,-2.56414 z m -18.13313,-18.13311 q 0,-1.50165 -1.062491,-2.56414 -1.06248,-1.06249 -2.56413,-1.06249 -1.501649,0 -2.56414,1.06249 -1.062489,1.06249 -1.062489,2.56414 0,1.50165 1.062489,2.56413 1.062491,1.06249 2.56414,1.06249 1.501651,0 2.56413,-1.06249 1.062491,-1.06248 1.062491,-2.56413 z m 12.693189,5.43994 q 0,-1.50166 -1.06249,-2.56415 -1.062489,-1.06248 -2.564129,-1.06248 -1.501661,0 -2.564141,1.06248 -1.062489,1.06249 -1.062489,2.56415 0,1.50164 1.062489,2.56413 1.06248,1.06249 2.564141,1.06249 1.50164,0 2.564129,-1.06249 1.06249,-1.06249 1.06249,-2.56413 z m 9.06656,12.69317 q 0,7.39491 -3.99495,13.68484 -0.53833,0.82166 -1.52998,0.82166 H 8.1385699 q -0.991658,0 -1.529984,-0.82166 Q 2.61363,152.86318 2.61363,145.43993 q 0,-5.1566 2.0116469,-9.85988 2.01164,-4.70327 5.4116041,-8.10323 3.39996,-3.39997 8.103239,-5.41161 4.70327,-2.01164 9.85988,-2.01164 5.15661,0 9.85988,2.01164 4.70328,2.01164 8.10324,5.41161 3.39997,3.39996 5.41161,8.10323 2.01164,4.70328 2.01164,9.85988 z"
     id="path3415-1-0"
     style="fill:#ffffff;fill-opacity:1" />
  <path
     d="m 123.61091,157.87899 h 6.70464 v -6.70462 h -6.70464 v 6.70462 z m 8.19455,0 h 7.44958 v -6.70462 h -7.44958 v 6.70462 z m -8.19454,-8.19454 h 6.70464 v -7.44958 h -6.70465 v 7.44958 z m 8.19454,0 h 7.44958 v -7.44958 h -7.44958 v 7.44958 z m -8.19454,-8.93949 h 6.70464 v -6.70463 h -6.70465 v 6.70463 z m 17.13402,17.13403 h 7.44959 v -6.70462 h -7.44959 v 6.70462 z m -8.93948,-17.13403 h 7.44958 v -6.70463 h -7.44958 v 6.70463 z m 17.879,17.13403 h 6.70462 v -6.70462 h -6.70462 v 6.70462 z m -8.93952,-8.19454 h 7.44959 v -7.44958 h -7.44959 v 7.44958 z m -8.19452,-20.11386 v -6.70462 q 0,-0.30264 -0.22116,-0.5238 -0.22116,-0.22116 -0.5238,-0.22116 h -1.48991 q -0.30264,0 -0.52381,0.22116 -0.22115,0.22116 -0.22115,0.5238 v 6.70462 q 0,0.30264 0.22115,0.5238 0.22117,0.22116 0.52381,0.22116 h 1.48991 q 0.30264,0 0.5238,-0.22116 0.22116,-0.22116 0.22116,-0.5238 z m 17.13403,20.11386 h 6.70462 v -7.44958 h -6.70462 v 7.44958 z m -8.93951,-8.93949 h 7.44959 v -6.70463 h -7.44959 v 6.70463 z m 8.93951,0 h 6.70462 v -6.70463 h -6.70462 v 6.70463 z m 0.74496,-11.17437 v -6.70462 q 0,-0.30264 -0.22116,-0.5238 -0.22116,-0.22116 -0.5238,-0.22116 h -1.48992 q -0.30263,0 -0.52379,0.22116 -0.22117,0.22116 -0.22117,0.5238 v 6.70462 q 0,0.30264 0.22117,0.5238 0.22116,0.22116 0.52379,0.22116 h 1.48992 q 0.30264,0 0.5238,-0.22116 0.22116,-0.22116 0.22116,-0.5238 z m 8.93949,-1.48991 v 29.79831 q 0,1.21056 -0.88463,2.09519 -0.88464,0.88464 -2.0952,0.88464 h -32.77816 q -1.21055,0 -2.09518,-0.88464 -0.88464,-0.88463 -0.88464,-2.09519 v -29.79831 q 0,-1.21056 0.88464,-2.0952 0.88463,-0.88464 2.09518,-0.88464 h 2.97985 v -2.23487 q 0,-1.53647 1.09416,-2.63063 1.09415,-1.09416 2.63063,-1.09416 h 1.48991 q 1.53648,0 2.63062,1.09416 1.09417,1.09416 1.09417,2.63063 v 2.23487 h 8.9395 v -2.23487 q 0,-1.53647 1.09415,-2.63063 1.09416,-1.09416 2.63063,-1.09416 h 1.48993 q 1.53647,0 2.63062,1.09416 1.09416,1.09416 1.09416,2.63063 v 2.23487 h 2.97983 q 1.21056,0 2.0952,0.88464 0.88463,0.88464 0.88463,2.0952 z"
     id="path3463-6-3"
     style="fill:#ffffff;fill-opacity:1" />
  <path
     d="m 69.671875,7.140625 c -3.324,0 -6,2.6759998 -6,6 l 0,29.71875 c 0,3.324 2.676,6 6,6 l 28.656248,0 c 3.323997,0 6.000007,-2.676 6.000007,-6 l 0,-29.71875 c 0,-3.3240002 -2.67602,-6 -6.000007,-6 l -28.656248,0 z m 14.812492,10.15625 c 1.87499,2.2e-5 3.38866,0.531271 4.53125,1.625 1.14257,1.084003 1.71874,2.406268 1.71875,3.96875 -1e-5,0.996109 -0.25392,1.882827 -0.78125,2.625 -0.51759,0.732434 -1.31055,1.287121 -2.375,1.6875 1.31835,0.429699 2.3164,1.136729 3,2.09375 0.69335,0.95704 1.03124,2.078132 1.03125,3.40625 -1e-5,1.835942 -0.63868,3.406253 -1.9375,4.65625 -1.29884,1.25 -3.00587,1.875 -5.125,1.875 -2.119137,0 -3.826167,-0.625 -5.124997,-1.875 -1.29883,-1.259763 -1.96875,-2.843746 -1.96875,-4.71875 0,-1.396477 0.35938,-2.562491 1.0625,-3.5 0.71289,-0.947255 1.72266,-1.595692 3.03125,-1.9375 -1.09375,-0.400379 -1.91016,-0.97655 -2.4375,-1.71875 -0.52734,-0.742173 -0.78125,-1.621079 -0.78125,-2.65625 0,-1.562482 0.56445,-2.873028 1.6875,-3.9375 1.12305,-1.064432 2.60351,-1.593728 4.468747,-1.59375 z m 0.0312,2.15625 c -1.005857,1.9e-5 -1.835937,0.324238 -2.499997,0.96875 -0.66406,0.644549 -1,1.41408 -1,2.3125 0,1.01564 0.3457,1.855483 1,2.5 0.65429,0.644544 1.48633,0.968763 2.531247,0.96875 1.01562,1.3e-5 1.85546,-0.333971 2.5,-0.96875 0.65429,-0.644517 0.96874,-1.416001 0.96875,-2.34375 -1e-5,-0.96678 -0.32618,-1.783185 -1,-2.4375 -0.66407,-0.664043 -1.50391,-0.999981 -2.5,-1 z m -0.0312,8.90625 c -1.240237,1.1e-5 -2.273437,0.398448 -3.093747,1.21875 -0.81055,0.820321 -1.21875,1.863289 -1.21875,3.09375 0,0.751959 0.17969,1.45313 0.53125,2.15625 0.36133,0.703128 0.89062,1.265628 1.59375,1.65625 0.70312,0.380861 1.4707,0.562502 2.281247,0.5625 1.25976,2e-6 2.27343,-0.408201 3.09375,-1.21875 0.8203,-0.810543 1.24999,-1.843745 1.25,-3.09375 -1e-5,-1.269524 -0.43165,-2.294913 -1.28125,-3.125 -0.83985,-0.830068 -1.88672,-1.249989 -3.15625,-1.25 z"
     id="rect3490-1"
     style="fill:#464646;fill-opacity:1" />
  <path
     id="path3082"
     d="m 367.39745,40.740442 v -5.09617 q 0,-0.3716 -0.23888,-0.61048 -0.23888,-0.23889 -0.61048,-0.23889 h -5.09618 q -0.3716,0 -0.61048,0.23889 -0.23888,0.23888 -0.23888,0.61048 v 5.09617 q 0,0.3716 0.23888,0.61048 0.2389,0.23889 0.61048,0.23889 h 5.09618 q 0.3716,0 0.61048,-0.23889 0.23888,-0.23888 0.23888,-0.61048 z m 6.79491,-17.83662 q 0,-2.33574 -1.47312,-4.32644 -1.47311,-1.99069 -3.67615,-3.07894 -2.20303,-1.08824 -4.51225,-1.08824 -6.44983,0 -9.8473,5.65357 -0.39814,0.63702 0.21234,1.11479 l 3.50362,2.65425 q 0.1858,0.15926 0.50432,0.15926 0.42469,0 0.66356,-0.31851 1.40677,-1.8049 2.28267,-2.44192 0.90245,-0.63702 2.28267,-0.63702 1.27404,0 2.26939,0.69011 0.99534,0.6901 0.99534,1.56601 0,1.00862 -0.53085,1.6191 -0.53085,0.61048 -1.80489,1.19441 -1.67219,0.7432 -3.06567,2.29594 -1.39349,1.55274 -1.39349,3.33109 v 0.95554 q 0,0.37159 0.23888,0.61047 0.2389,0.23889 0.61048,0.23889 h 5.09618 q 0.3716,0 0.61048,-0.23889 0.23888,-0.23888 0.23888,-0.61047 0,-0.50431 0.57067,-1.31386 0.57065,-0.80955 1.44657,-1.31386 0.84936,-0.47777 1.30059,-0.75646 0.45121,-0.2787 1.22096,-0.929 0.76972,-0.65029 1.18115,-1.27404 0.4114,-0.62375 0.74319,-1.60583 0.33179,-0.98207 0.33179,-2.14995 z m 10.19234,5.09618 q 0,5.5474 -2.73388,10.23217 -2.73388,4.68477 -7.41865,7.41865 -4.68478,2.73389 -10.23217,2.73389 -5.5474,0 -10.23217,-2.73389 -4.68476,-2.73388 -7.41866,-7.41865 -2.73388,-4.68477 -2.73388,-10.23217 0,-5.5474 2.73388,-10.23217 2.73389,-4.68476 7.41866,-7.41865 Q 358.4526,7.615288 364,7.615288 q 5.54739,0 10.23217,2.733894 4.68477,2.73389 7.41865,7.41865 2.73388,4.68477 2.73388,10.23217 z"
     style="fill:#464646;fill-opacity:1" />
  <path
     id="path3082-5"
     d="m 367.39745,96.740439 v -5.09617 q 0,-0.3716 -0.23888,-0.61048 -0.23888,-0.23889 -0.61048,-0.23889 h -5.09618 q -0.3716,0 -0.61048,0.23889 -0.23888,0.23888 -0.23888,0.61048 v 5.09617 q 0,0.3716 0.23888,0.61048 0.2389,0.23889 0.61048,0.23889 h 5.09618 q 0.3716,0 0.61048,-0.23889 0.23888,-0.23888 0.23888,-0.61048 z m 6.79491,-17.83662 q 0,-2.33574 -1.47312,-4.326439 -1.47311,-1.99069 -3.67615,-3.078941 -2.20303,-1.088239 -4.51225,-1.088239 -6.44983,0 -9.8473,5.65357 -0.39814,0.637019 0.21234,1.11479 l 3.50362,2.65425 q 0.1858,0.15926 0.50432,0.15926 0.42469,0 0.66356,-0.31851 1.40677,-1.8049 2.28267,-2.44192 0.90245,-0.63702 2.28267,-0.63702 1.27404,0 2.26939,0.69011 0.99534,0.6901 0.99534,1.56601 0,1.00862 -0.53085,1.6191 -0.53085,0.61048 -1.80489,1.19441 -1.67219,0.7432 -3.06567,2.29594 -1.39349,1.55274 -1.39349,3.33109 v 0.95554 q 0,0.37159 0.23888,0.61047 0.2389,0.23889 0.61048,0.23889 h 5.09618 q 0.3716,0 0.61048,-0.23889 0.23888,-0.23888 0.23888,-0.61047 0,-0.50431 0.57067,-1.31386 0.57065,-0.80955 1.44657,-1.31386 0.84936,-0.47777 1.30059,-0.75646 0.45121,-0.2787 1.22096,-0.929 0.76972,-0.65029 1.18115,-1.27404 0.4114,-0.62375 0.74319,-1.60583 0.33179,-0.98207 0.33179,-2.14995 z M 384.3847,84 q 0,5.547399 -2.73388,10.232169 -2.73388,4.68477 -7.41865,7.418651 -4.68478,2.73389 -10.23217,2.73389 -5.5474,0 -10.23217,-2.73389 -4.68476,-2.733881 -7.41866,-7.418651 Q 343.61529,89.547399 343.61529,84 q 0,-5.5474 2.73388,-10.23217 2.73389,-4.68476 7.41866,-7.41865 4.68477,-2.73389 10.23217,-2.73389 5.54739,0 10.23217,2.73389 4.68477,2.73389 7.41865,7.41865 Q 384.3847,78.4526 384.3847,84 z"
     style="fill:#0055a4;fill-opacity:1" />
  <path
     id="path3082-5-5"
     d="m 367.39745,152.74043 v -5.09617 q 0,-0.3716 -0.23888,-0.61048 -0.23888,-0.23889 -0.61048,-0.23889 h -5.09618 q -0.3716,0 -0.61048,0.23889 -0.23888,0.23888 -0.23888,0.61048 v 5.09617 q 0,0.3716 0.23888,0.61048 0.2389,0.23889 0.61048,0.23889 h 5.09618 q 0.3716,0 0.61048,-0.23889 0.23888,-0.23888 0.23888,-0.61048 z m 6.79491,-17.83662 q 0,-2.33574 -1.47312,-4.32644 -1.47311,-1.99069 -3.67615,-3.07894 -2.20303,-1.08824 -4.51225,-1.08824 -6.44983,0 -9.8473,5.65357 -0.39814,0.63702 0.21234,1.11479 l 3.50362,2.65425 q 0.1858,0.15926 0.50432,0.15926 0.42469,0 0.66356,-0.31851 1.40677,-1.8049 2.28267,-2.44192 0.90245,-0.63702 2.28267,-0.63702 1.27404,0 2.26939,0.69011 0.99534,0.6901 0.99534,1.56601 0,1.00862 -0.53085,1.6191 -0.53085,0.61048 -1.80489,1.19441 -1.67219,0.7432 -3.06567,2.29594 -1.39349,1.55274 -1.39349,3.33109 v 0.95554 q 0,0.37159 0.23888,0.61047 0.2389,0.23889 0.61048,0.23889 h 5.09618 q 0.3716,0 0.61048,-0.23889 0.23888,-0.23888 0.23888,-0.61047 0,-0.50431 0.57067,-1.31386 0.57065,-0.80955 1.44657,-1.31386 0.84936,-0.47777 1.30059,-0.75646 0.45121,-0.2787 1.22096,-0.929 0.76972,-0.65029 1.18115,-1.27404 0.4114,-0.62375 0.74319,-1.60583 0.33179,-0.98207 0.33179,-2.14995 z m 10.19234,5.09618 q 0,5.5474 -2.73388,10.23217 -2.73388,4.68477 -7.41865,7.41865 -4.68478,2.73389 -10.23217,2.73389 -5.5474,0 -10.23217,-2.73389 -4.68476,-2.73388 -7.41866,-7.41865 -2.73388,-4.68477 -2.73388,-10.23217 0,-5.5474 2.73388,-10.23217 2.73389,-4.68476 7.41866,-7.41864 4.68477,-2.73388 10.23217,-2.73388 5.54739,0 10.23217,2.73388 4.68477,2.73388 7.41865,7.41864 2.73388,4.68477 2.73388,10.23217 z"
     style="fill:#ffffff;fill-opacity:1" />
  <path
     id="path3026"
     d="m 407.73072,45.527569 h 24.53856 v -7.011023 h -24.53856 v 7.011023 z m 0,-17.527568 h 24.53856 V 17.483467 h -4.38188 q -1.09546,0 -1.86231,-0.766833 -0.76684,-0.766833 -0.76684,-1.862309 v -4.381893 h -17.52753 v 17.527569 z m 31.5496,1.752761 q 0,-0.712059 -0.52033,-1.23241 -0.52033,-0.520351 -1.2324,-0.520351 -0.71206,0 -1.23245,0.520351 -0.52033,0.520351 -0.52033,1.23241 0,0.712049 0.52033,1.2324 0.52039,0.520351 1.23245,0.520351 0.71206,0 1.2324,-0.520351 0.52033,-0.520351 0.52033,-1.2324 z m 3.50552,0 v 11.392915 q 0,0.35603 -0.26017,0.616205 -0.26018,0.260176 -0.6162,0.260176 h -6.13466 v 4.381892 q 0,1.095465 -0.76686,1.862298 -0.7668,0.766833 -1.8623,0.766833 h -26.29132 q -1.0955,0 -1.86228,-0.766833 -0.76686,-0.766833 -0.76686,-1.862298 v -4.381892 h -6.13466 q -0.35602,0 -0.61622,-0.260176 -0.26015,-0.260175 -0.26015,-0.616205 V 29.752762 q 0,-2.163564 1.54735,-3.710923 1.54734,-1.547349 3.71089,-1.547349 h 1.75278 V 9.5960545 q 0,-1.0954738 0.76686,-1.8623046 0.76679,-0.7668309 1.86229,-0.7668309 h 18.40391 q 1.09551,0 2.41006,0.5477337 1.31455,0.5477399 2.0814,1.3145708 l 4.16279,4.1627935 q 0.76685,0.766833 1.3146,2.081403 0.54771,1.314571 0.54771,2.410047 v 7.011023 h 1.75278 q 2.16355,0 3.7109,1.547349 1.54735,1.547359 1.54735,3.710923 z"
     style="fill:#464646;fill-opacity:1" />
  <path
     id="path3026-1"
     d="m 407.73071,101.52757 h 24.53857 v -7.011025 h -24.53857 v 7.011025 z m 0,-17.52757 h 24.53857 V 73.483467 h -4.38188 q -1.09545,0 -1.86231,-0.766834 -0.76684,-0.766834 -0.76684,-1.862309 V 66.472431 H 407.73071 V 84 z m 31.54961,1.752762 q 0,-0.712058 -0.52033,-1.23241 Q 438.23965,84 437.52759,84 q -0.71206,0 -1.23245,0.520352 -0.52033,0.520352 -0.52033,1.23241 0,0.712048 0.52033,1.2324 0.52039,0.520352 1.23244,0.520352 0.71207,0 1.2324,-0.520352 0.52033,-0.520352 0.52033,-1.2324 z m 3.50552,0 v 11.392915 q 0,0.356031 -0.26017,0.616204 -0.26018,0.260182 -0.6162,0.260182 h -6.13466 v 4.381887 q 0,1.09546 -0.76686,1.86229 -0.7668,0.76684 -1.8623,0.76684 h -26.29132 q -1.0955,0 -1.86228,-0.76684 -0.76686,-0.76683 -0.76686,-1.86229 v -4.381887 h -6.13466 q -0.35603,0 -0.61622,-0.260182 -0.26015,-0.260175 -0.26015,-0.616204 V 85.752762 q 0,-2.163564 1.54735,-3.710923 1.54734,-1.547349 3.71089,-1.547349 h 1.75278 V 65.596054 q 0,-1.095474 0.76686,-1.862304 0.76679,-0.766831 1.86229,-0.766831 h 18.40391 q 1.09551,0 2.41006,0.547733 1.31455,0.54774 2.0814,1.314571 l 4.16279,4.162792 q 0.76685,0.766833 1.3146,2.081403 0.54771,1.314571 0.54771,2.410048 v 7.011023 h 1.75278 q 2.16355,0 3.7109,1.547349 1.54735,1.547359 1.54735,3.710923 z"
     style="fill:#0055a4;fill-opacity:1" />
  <path
     id="path3026-3"
     d="m 407.73071,157.52757 h 24.53857 v -7.01102 h -24.53857 v 7.01102 z m 0,-17.52756 h 24.53857 v -10.51654 h -4.38188 q -1.09545,0 -1.86231,-0.76683 -0.76684,-0.76684 -0.76684,-1.86231 v -4.38189 h -17.52754 v 17.52757 z m 31.54961,1.75276 q 0,-0.71206 -0.52033,-1.23241 -0.52034,-0.52035 -1.2324,-0.52035 -0.71206,0 -1.23245,0.52035 -0.52033,0.52035 -0.52033,1.23241 0,0.71205 0.52033,1.2324 0.52039,0.52035 1.23244,0.52035 0.71207,0 1.2324,-0.52035 0.52033,-0.52035 0.52033,-1.2324 z m 3.50552,0 v 11.39291 q 0,0.35603 -0.26017,0.61621 -0.26018,0.26017 -0.6162,0.26017 h -6.13466 v 4.38189 q 0,1.09547 -0.76686,1.8623 -0.7668,0.76683 -1.8623,0.76683 h -26.29132 q -1.0955,0 -1.86228,-0.76683 -0.76686,-0.76683 -0.76686,-1.8623 v -4.38189 h -6.13466 q -0.35603,0 -0.61622,-0.26017 -0.26015,-0.26018 -0.26015,-0.61621 v -11.39291 q 0,-2.16357 1.54735,-3.71093 1.54734,-1.54735 3.71089,-1.54735 h 1.75278 v -14.89843 q 0,-1.09547 0.76686,-1.86231 0.76679,-0.76683 1.86229,-0.76683 h 18.40391 q 1.09551,0 2.41006,0.54774 1.31455,0.54774 2.0814,1.31457 l 4.16279,4.16279 q 0.76685,0.76683 1.3146,2.0814 0.54771,1.31457 0.54771,2.41005 v 7.01102 h 1.75278 q 2.16355,0 3.7109,1.54735 1.54735,1.54736 1.54735,3.71093 z"
     style="fill:#ffffff;fill-opacity:1" />
  <path
     id="path3066"
     d="m 482.82436,40.795636 v -4.265199 q 0,-0.373206 -0.23994,-0.613128 -0.23989,-0.239919 -0.61309,-0.239919 h -2.55915 V 22.028692 q 0,-0.373206 -0.23994,-0.613123 -0.23989,-0.239918 -0.61311,-0.239918 h -8.53041 q -0.3732,0 -0.61315,0.239918 -0.2399,0.239917 -0.2399,0.613123 v 4.265221 q 0,0.373205 0.2399,0.613123 0.23995,0.239918 0.61315,0.239918 h 2.5591 v 8.530436 h -2.5591 q -0.3732,0 -0.61315,0.239919 -0.2399,0.239922 -0.2399,0.613128 v 4.265199 q 0,0.373211 0.2399,0.613149 0.23995,0.239898 0.61315,0.239898 h 11.94261 q 0.3732,0 0.61309,-0.239898 0.23994,-0.239938 0.23994,-0.613149 z M 479.41217,16.91043 v -4.265217 q 0,-0.373206 -0.23994,-0.613128 -0.23989,-0.239917 -0.61311,-0.239917 h -5.11827 q -0.3732,0 -0.61311,0.239917 -0.23993,0.239922 -0.23993,0.613128 v 4.265217 q 0,0.373205 0.23993,0.613124 0.23991,0.239922 0.61311,0.239922 h 5.11827 q 0.37322,0 0.61311,-0.239922 0.23994,-0.239919 0.23994,-0.613124 z m 17.06088,11.089569 q 0,5.57144 -2.74575,10.276491 -2.74574,4.705074 -7.45081,7.450816 -4.70503,2.745743 -10.27649,2.745743 -5.57142,0 -10.2765,-2.745743 -4.70507,-2.745742 -7.45083,-7.450816 -2.74573,-4.705051 -2.74573,-10.276491 0,-5.571442 2.74573,-10.276513 2.74575,-4.705067 7.45083,-7.4508 4.70508,-2.745735 10.2765,-2.745735 5.57146,0 10.27649,2.745735 4.70507,2.745733 7.45081,7.4508 2.74575,4.705071 2.74575,10.276513 z" 
     style="fill:#464646;fill-opacity:1" />
  <path
     id="path3066-6"
     d="m 482.82436,96.795633 v -4.265199 q 0,-0.373205 -0.23994,-0.613128 -0.23989,-0.239919 -0.61309,-0.239919 h -2.55915 V 78.028689 q 0,-0.373205 -0.23994,-0.613123 -0.23989,-0.239918 -0.61311,-0.239918 h -8.53041 q -0.3732,0 -0.61315,0.239918 -0.2399,0.239918 -0.2399,0.613123 v 4.265221 q 0,0.373205 0.2399,0.613123 0.23995,0.239918 0.61315,0.239918 h 2.5591 v 8.530436 h -2.5591 q -0.3732,0 -0.61315,0.239919 -0.2399,0.239923 -0.2399,0.613128 v 4.265199 q 0,0.373211 0.2399,0.61315 0.23995,0.239897 0.61315,0.239897 h 11.94261 q 0.3732,0 0.61309,-0.239897 0.23994,-0.239937 0.23994,-0.61315 z m -3.41219,-23.885206 v -4.265216 q 0,-0.373206 -0.23994,-0.613128 -0.23989,-0.239918 -0.61311,-0.239918 h -5.11827 q -0.3732,0 -0.61311,0.239918 -0.23993,0.239922 -0.23993,0.613128 v 4.265216 q 0,0.373205 0.23993,0.613124 0.23991,0.239923 0.61311,0.239923 h 5.11827 q 0.37322,0 0.61311,-0.239923 0.23994,-0.239919 0.23994,-0.613124 z m 17.06088,11.089569 q 0,5.57144 -2.74575,10.276492 -2.74574,4.705073 -7.45081,7.450812 -4.70503,2.74575 -10.27649,2.74575 -5.57142,0 -10.2765,-2.74575 -4.70507,-2.745739 -7.45083,-7.450812 -2.74573,-4.70505 -2.74573,-10.27649 0,-5.571442 2.74573,-10.276513 2.74575,-4.705067 7.45083,-7.4508 4.70508,-2.745735 10.2765,-2.745735 5.57146,0 10.27649,2.745735 4.70507,2.745733 7.45081,7.4508 2.74575,4.705071 2.74575,10.276513 z" 
     style="fill:#0055a4;fill-opacity:1" />
  <path
     id="path3066-6-0"
     d="m 482.82436,152.79563 v -4.2652 q 0,-0.3732 -0.23994,-0.61312 -0.23989,-0.23992 -0.61309,-0.23992 h -2.55915 v -13.6487 q 0,-0.37321 -0.23994,-0.61312 -0.23989,-0.23992 -0.61311,-0.23992 h -8.53041 q -0.3732,0 -0.61315,0.23992 -0.2399,0.23991 -0.2399,0.61312 v 4.26522 q 0,0.37321 0.2399,0.61312 0.23995,0.23992 0.61315,0.23992 h 2.5591 v 8.53044 h -2.5591 q -0.3732,0 -0.61315,0.23992 -0.2399,0.23992 -0.2399,0.61312 v 4.2652 q 0,0.37321 0.2399,0.61315 0.23995,0.2399 0.61315,0.2399 h 11.94261 q 0.3732,0 0.61309,-0.2399 0.23994,-0.23994 0.23994,-0.61315 z m -3.41219,-23.8852 v -4.26522 q 0,-0.37321 -0.23994,-0.61313 -0.23989,-0.23991 -0.61311,-0.23991 h -5.11827 q -0.3732,0 -0.61311,0.23991 -0.23993,0.23992 -0.23993,0.61313 v 4.26522 q 0,0.3732 0.23993,0.61312 0.23991,0.23992 0.61311,0.23992 h 5.11827 q 0.37322,0 0.61311,-0.23992 0.23994,-0.23992 0.23994,-0.61312 z M 496.47305,140 q 0,5.57144 -2.74575,10.27649 -2.74574,4.70507 -7.45081,7.45081 -4.70503,2.74575 -10.27649,2.74575 -5.57142,0 -10.2765,-2.74575 -4.70507,-2.74574 -7.45083,-7.45081 -2.74573,-4.70505 -2.74573,-10.27649 0,-5.57145 2.74573,-10.27652 2.74575,-4.70506 7.45083,-7.4508 4.70508,-2.74573 10.2765,-2.74573 5.57146,0 10.27649,2.74573 4.70507,2.74574 7.45081,7.4508 2.74575,4.70507 2.74575,10.27652 z" 
     style="fill:#ffffff;fill-opacity:1" />
  <path
     id="path3143"
     d="m 532.4007,48.035775 q 0,-0.40072 -0.40073,-0.40072 -1.4776,0 -2.54203,-1.0644 -1.06437,-1.0644 -1.06437,-2.54203 0,-0.40072 -0.40074,-0.40072 -0.40074,0 -0.40074,0.40072 0,1.82826 1.28985,3.11806 1.28978,1.28981 3.11803,1.28981 0.40073,0 0.40073,-0.40072 z m 20.43649,-7.21288 q 0,1.30232 -0.95169,2.25402 -0.95169,0.95171 -2.25403,0.95171 h -11.22006 q 0,2.65473 -1.87834,4.53308 -1.87834,1.87836 -4.5331,1.87836 -2.65471,0 -4.53305,-1.87836 -1.8784,-1.87835 -1.8784,-4.53308 h -11.22 q -1.30233,0 -2.25403,-0.95171 -0.95169,-0.9517 -0.95169,-2.25402 1.25225,-1.05188 2.27908,-2.20393 1.02683,-1.15207 2.1288,-2.99285 1.10197,-1.84078 1.86578,-3.96959 0.76388,-2.1288 1.25225,-5.15921 0.48837,-3.03041 0.48837,-6.51162 0,-3.8068 2.93027,-7.07514 2.93022,-3.26833 7.68868,-3.96958 -0.20031,-0.47585 -0.20031,-0.97675 0,-1.00178 0.70123,-1.70304 0.70123,-0.70125 1.70302,-0.70125 1.00178,0 1.70307,0.70125 0.70123,0.70126 0.70123,1.70304 0,0.5009 -0.20037,0.97675 4.75852,0.70125 7.68875,3.96958 2.9302,3.26834 2.9302,7.07514 0,3.48121 0.48838,6.51162 0.48843,3.03041 1.25225,5.15921 0.76387,2.12881 1.86584,3.96959 1.10197,1.84078 2.1288,2.99285 1.02683,1.15205 2.27908,2.20393 z" 
     style="fill:#464646;fill-opacity:1" />
  <path
     id="path3143-5"
     d="m 532.4007,104.03577 q 0,-0.40072 -0.40073,-0.40072 -1.4776,0 -2.54203,-1.0644 -1.06437,-1.0644 -1.06437,-2.54202 0,-0.400722 -0.40074,-0.400722 -0.40074,0 -0.40074,0.400722 0,1.82825 1.28985,3.11805 1.28978,1.28981 3.11803,1.28981 0.40073,0 0.40073,-0.40072 z m 20.43649,-7.21287 q 0,1.302319 -0.95169,2.25402 -0.95169,0.95171 -2.25403,0.95171 h -11.22006 q 0,2.65472 -1.87834,4.53307 -1.87834,1.87836 -4.5331,1.87836 -2.65471,0 -4.53305,-1.87836 -1.8784,-1.87835 -1.8784,-4.53307 h -11.22 q -1.30233,0 -2.25403,-0.95171 -0.95169,-0.951701 -0.95169,-2.25402 1.25225,-1.05188 2.27908,-2.20393 1.02683,-1.15207 2.1288,-2.99285 1.10197,-1.84078 1.86578,-3.96959 0.76388,-2.1288 1.25225,-5.15921 0.48837,-3.030411 0.48837,-6.51162 0,-3.8068 2.93027,-7.07514 2.93022,-3.268331 7.68868,-3.96958 -0.20031,-0.47585 -0.20031,-0.97675 0,-1.00178 0.70123,-1.70304 0.70123,-0.70125 1.70302,-0.70125 1.00178,0 1.70307,0.70125 0.70123,0.70126 0.70123,1.70304 0,0.5009 -0.20037,0.97675 4.75852,0.70125 7.68875,3.96958 2.9302,3.268339 2.9302,7.07514 0,3.48121 0.48838,6.51162 0.48843,3.03041 1.25225,5.15921 0.76387,2.12881 1.86584,3.96959 1.10197,1.840779 2.1288,2.99285 1.02683,1.15205 2.27908,2.20393 z" 
     style="fill:#0055a4;fill-opacity:1" />
  <path
     id="path3143-5-1"
     d="m 532.40071,160.03577 q 0,-0.40072 -0.40073,-0.40072 -1.47761,0 -2.54203,-1.0644 -1.06437,-1.0644 -1.06437,-2.54203 0,-0.40072 -0.40074,-0.40072 -0.40075,0 -0.40075,0.40072 0,1.82826 1.28985,3.11806 1.28978,1.28981 3.11803,1.28981 0.40073,0 0.40073,-0.40072 z m 20.43649,-7.21288 q 0,1.30232 -0.95169,2.25402 -0.95169,0.95171 -2.25403,0.95171 h -11.22006 q 0,2.65473 -1.87834,4.53308 -1.87834,1.87836 -4.5331,1.87836 -2.65471,0 -4.53305,-1.87836 -1.87841,-1.87835 -1.87841,-4.53308 h -11.22 q -1.30233,0 -2.25403,-0.95171 -0.95169,-0.9517 -0.95169,-2.25402 1.25225,-1.05188 2.27908,-2.20393 1.02683,-1.15207 2.1288,-2.99285 1.10197,-1.84078 1.86578,-3.96959 0.76388,-2.1288 1.25225,-5.15921 0.48837,-3.03041 0.48837,-6.51162 0,-3.8068 2.93027,-7.07514 2.93022,-3.26832 7.68868,-3.96957 -0.20031,-0.47585 -0.20031,-0.97675 0,-1.00178 0.70123,-1.70304 0.70123,-0.70125 1.70302,-0.70125 1.00178,0 1.70307,0.70125 0.70123,0.70126 0.70123,1.70304 0,0.5009 -0.20037,0.97675 4.75852,0.70125 7.68875,3.96957 2.9302,3.26834 2.9302,7.07514 0,3.48121 0.48838,6.51162 0.48843,3.03041 1.25225,5.15921 0.76387,2.12881 1.86584,3.96959 1.10197,1.84078 2.1288,2.99285 1.02683,1.15205 2.27908,2.20393 z" 
     style="fill:#ffffff;fill-opacity:1" />
</svg>
