<?xml version="1.0" encoding="UTF-8" standalone="no"?>
<svg
   xmlns:dc="http://purl.org/dc/elements/1.1/"
   xmlns:cc="http://creativecommons.org/ns#"
   xmlns:rdf="http://www.w3.org/1999/02/22-rdf-syntax-ns#"
   xmlns:svg="http://www.w3.org/2000/svg"
   xmlns="http://www.w3.org/2000/svg"
   version="1.1"
   width="336"
   height="168"
   id="svg3141">
  <metadata
     id="metadata3147">
    <rdf:RDF>
      <cc:Work
         rdf:about="">
        <dc:format>image/svg+xml</dc:format>
        <dc:type
           rdf:resource="http://purl.org/dc/dcmitype/StillImage" />
        <dc:title />
      </cc:Work>
    </rdf:RDF>
  </metadata>
  <defs
     id="defs3145" />
  <path
     d="m 69.462573,119.79179 c -3.324,0 -6,2.676 -6,6 l 0,29.71875 c 0,3.324 2.676,6 6,6 l 28.65625,0 c 3.323997,0 5.999997,-2.676 5.999997,-6 l 0,-29.71875 c 0,-3.324 -2.676,-6 -5.999997,-6 l -28.65625,0 z m 14.8125,10.15625 c 1.87499,2e-5 3.38866,0.53127 4.53125,1.625 1.142564,1.084 1.718736,2.40627 1.71875,3.96875 -1.4e-5,0.99611 -0.25392,1.88283 -0.78125,2.625 -0.517591,0.73243 -1.310559,1.28712 -2.375,1.6875 1.318347,0.4297 2.316393,1.13673 3,2.09375 0.693344,0.95704 1.031235,2.07813 1.03125,3.40625 -1.5e-5,1.83594 -0.638687,3.40625 -1.9375,4.65625 -1.29884,1.25 -3.00587,1.875 -5.125,1.875 -2.119147,0 -3.826176,-0.625 -5.125,-1.875 -1.29883,-1.25977 -1.968751,-2.84375 -1.96875,-4.71875 -1e-6,-1.39648 0.359373,-2.56249 1.0625,-3.5 0.712888,-0.94726 1.722652,-1.59569 3.03125,-1.9375 -1.093754,-0.40038 -1.91016,-0.97655 -2.4375,-1.71875 -0.527346,-0.74218 -0.781252,-1.62108 -0.78125,-2.65625 -2e-6,-1.56248 0.56445,-2.87303 1.6875,-3.9375 1.123042,-1.06443 2.603509,-1.59373 4.46875,-1.59375 z m 0.03125,2.15625 c -1.005867,2e-5 -1.835944,0.32424 -2.5,0.96875 -0.664068,0.64455 -1.000005,1.41408 -1,2.3125 -5e-6,1.01564 0.345698,1.85548 1,2.5 0.65429,0.64454 1.486321,0.96876 2.53125,0.96875 1.015616,1e-5 1.855459,-0.33397 2.5,-0.96875 0.654285,-0.64452 0.968738,-1.416 0.96875,-2.34375 -1.2e-5,-0.96678 -0.326183,-1.78319 -1,-2.4375 -0.664073,-0.66405 -1.503916,-0.99998 -2.5,-1 z m -0.03125,8.90625 c -1.240241,1e-5 -2.273443,0.39845 -3.09375,1.21875 -0.810551,0.82032 -1.218754,1.86329 -1.21875,3.09375 -4e-6,0.75196 0.179683,1.45313 0.53125,2.15625 0.361323,0.70313 0.89062,1.26563 1.59375,1.65625 0.703118,0.38086 1.470696,0.5625 2.28125,0.5625 1.259756,0 2.273427,-0.4082 3.09375,-1.21875 0.8203,-0.81055 1.249987,-1.84375 1.25,-3.09375 -1.3e-5,-1.26953 -0.431653,-2.29492 -1.28125,-3.125 -0.839854,-0.83007 -1.886728,-1.24999 -3.15625,-1.25 z"
     id="rect3490-9"
     style="fill:#ffffff;fill-opacity:1" />
  <path
     d="m 187.80495,28.1663 q -3.70297,0.114245 -6.05732,2.925806 h -3.06296 q -1.87435,0 -3.1544,-0.925742 -1.28003,-0.925743 -1.28003,-2.708658 0,-8.068826 2.83437,-8.068826 0.13715,0 0.99432,0.480008 0.85717,0.48002 2.22865,0.971464 1.37146,0.491445 2.72008,0.491445 1.53148,0 3.0401,-0.525742 -0.11425,0.845748 -0.11425,1.508619 0,3.177254 1.85149,5.851626 z m 24.48081,14.560462 q 0,2.742955 -1.66863,4.33157 -1.66864,1.588626 -4.43445,1.588626 h -19.97777 q -2.76581,0 -4.43443,-1.588626 -1.66863,-1.588615 -1.66863,-4.33157 0,-1.211463 0.08,-2.365779 0.08,-1.154328 0.32,-2.49152 0.24001,-1.337181 0.60574,-2.480073 0.36573,-1.142891 0.98289,-2.228649 0.61716,-1.085745 1.41719,-1.851486 0.80002,-0.76574 1.95434,-1.222899 1.15433,-0.457147 2.54867,-0.457147 0.22858,0 0.98287,0.491433 0.75432,0.491456 1.66863,1.097182 0.91431,0.605737 2.44578,1.097182 1.53148,0.491444 3.08582,0.491444 1.55435,0 3.08583,-0.491444 1.53148,-0.491445 2.44578,-1.097182 0.91431,-0.605726 1.66862,-1.097182 0.75433,-0.491433 0.98291,-0.491433 1.39432,0 2.54864,0.457147 1.15431,0.457159 1.95436,1.222899 0.80003,0.765741 1.41719,1.851486 0.61714,1.085758 0.98288,2.228649 0.36573,1.142892 0.60574,2.480073 0.24001,1.337192 0.31999,2.49152 0.08,1.154316 0.08,2.365779 z M 188.87927,13.537254 q 0,2.422938 -1.71433,4.137282 -1.71434,1.714344 -4.13728,1.714344 -2.42294,0 -4.13727,-1.714344 -1.71434,-1.714344 -1.71434,-4.137282 0,-2.422937 1.71434,-4.1372691 1.71433,-1.7143438 4.13727,-1.7143438 2.42294,0 4.13728,1.7143438 1.71433,1.7143321 1.71433,4.1372691 z m 16.09197,8.77742 q 0,3.634413 -2.57152,6.205917 -2.57152,2.571515 -6.20592,2.571515 -3.6344,0 -6.20591,-2.571515 -2.5715,-2.571504 -2.5715,-6.205917 0,-3.6344 2.5715,-6.205904 2.57151,-2.571516 6.20591,-2.571516 3.6344,0 6.20592,2.571516 2.57152,2.571504 2.57152,6.205904 z m 13.16612,5.143032 q 0,1.782915 -1.28003,2.708658 -1.28005,0.925742 -3.15438,0.925742 h -3.06296 q -2.35436,-2.811514 -6.05735,-2.925806 1.85149,-2.674372 1.85149,-5.851626 0,-0.662871 -0.11425,-1.508619 1.50862,0.525742 3.0401,0.525742 1.34862,0 2.72008,-0.491445 1.37149,-0.491444 2.22867,-0.971464 0.85715,-0.480008 0.99431,-0.480008 2.83437,0 2.83437,8.068826 z m -2.9258,-13.920452 q 0,2.422938 -1.71436,4.137282 -1.71432,1.714344 -4.13727,1.714344 -2.42292,0 -4.13726,-1.714344 -1.71435,-1.714344 -1.71435,-4.137282 0,-2.422937 1.71435,-4.1372691 1.71434,-1.7143438 4.13726,-1.7143438 2.42295,0 4.13727,1.7143438 1.71436,1.7143321 1.71436,4.1372691 z"
     id="path3201"
     style="fill:#464646;fill-opacity:1" />
  <path
     d="m 187.44595,84.305207 q -3.70297,0.114245 -6.05732,2.925806 h -3.06296 q -1.87435,0 -3.1544,-0.925742 -1.28003,-0.925743 -1.28003,-2.708658 0,-8.068826 2.83437,-8.068826 0.13715,0 0.99432,0.480008 0.85717,0.48002 2.22865,0.971464 1.37146,0.491445 2.72008,0.491445 1.53148,0 3.0401,-0.525742 -0.11425,0.845748 -0.11425,1.508619 0,3.177254 1.85149,5.851626 z m 24.48081,14.560463 q 0,2.74295 -1.66863,4.33157 -1.66864,1.58863 -4.43445,1.58863 h -19.97777 q -2.76581,0 -4.43443,-1.58863 -1.66863,-1.58862 -1.66863,-4.33157 0,-1.21146 0.08,-2.36578 0.08,-1.15433 0.32,-2.49152 0.24001,-1.33718 0.60574,-2.48007 0.36573,-1.14289 0.98289,-2.228652 0.61716,-1.085745 1.41719,-1.851486 0.80002,-0.76574 1.95434,-1.222899 1.15433,-0.457147 2.54867,-0.457147 0.22858,0 0.98287,0.491433 0.75432,0.491456 1.66863,1.097182 0.91431,0.605737 2.44578,1.097182 1.53148,0.491444 3.08582,0.491444 1.55435,0 3.08583,-0.491444 1.53148,-0.491445 2.44578,-1.097182 0.91431,-0.605726 1.66862,-1.097182 0.75433,-0.491433 0.98291,-0.491433 1.39432,0 2.54864,0.457147 1.15431,0.457159 1.95436,1.222899 0.80003,0.765741 1.41719,1.851486 0.61714,1.085762 0.98288,2.228652 0.36573,1.14289 0.60574,2.48007 0.24001,1.33719 0.31999,2.49152 0.08,1.15432 0.08,2.36578 z M 188.52027,69.676161 q 0,2.422938 -1.71433,4.137282 -1.71434,1.714344 -4.13728,1.714344 -2.42294,0 -4.13727,-1.714344 -1.71434,-1.714344 -1.71434,-4.137282 0,-2.422937 1.71434,-4.137269 1.71433,-1.714344 4.13727,-1.714344 2.42294,0 4.13728,1.714344 1.71433,1.714332 1.71433,4.137269 z m 16.09197,8.77742 q 0,3.634413 -2.57152,6.205917 -2.57152,2.571515 -6.20592,2.571515 -3.6344,0 -6.20591,-2.571515 -2.5715,-2.571504 -2.5715,-6.205917 0,-3.6344 2.5715,-6.205904 2.57151,-2.571516 6.20591,-2.571516 3.6344,0 6.20592,2.571516 2.57152,2.571504 2.57152,6.205904 z m 13.16612,5.143032 q 0,1.782915 -1.28003,2.708658 -1.28005,0.925742 -3.15438,0.925742 h -3.06296 q -2.35436,-2.811514 -6.05735,-2.925806 1.85149,-2.674372 1.85149,-5.851626 0,-0.662871 -0.11425,-1.508619 1.50862,0.525742 3.0401,0.525742 1.34862,0 2.72008,-0.491445 1.37149,-0.491444 2.22867,-0.971464 0.85715,-0.480008 0.99431,-0.480008 2.83437,0 2.83437,8.068826 z m -2.9258,-13.920452 q 0,2.422938 -1.71436,4.137282 -1.71432,1.714344 -4.13727,1.714344 -2.42292,0 -4.13726,-1.714344 -1.71435,-1.714344 -1.71435,-4.137282 0,-2.422937 1.71435,-4.137269 1.71434,-1.714344 4.13726,-1.714344 2.42295,0 4.13727,1.714344 1.71436,1.714332 1.71436,4.137269 z"
     id="path3201-4"
     style="fill:#0055a4;fill-opacity:1" />
  <path
     d="m 330.85124,30.388095 q 0,0.758871 -0.75888,1.615666 l -8.22519,9.69398 q -1.05264,1.248468 -2.9498,2.117502 -1.89719,0.869029 -3.51286,0.869029 h -26.63397 q -0.83231,0 -1.48103,-0.318239 -0.64871,-0.318233 -0.64871,-1.052628 0,-0.758873 0.75887,-1.615664 l 8.2252,-9.69398 q 1.05264,-1.248467 2.94981,-2.1175 1.89719,-0.869031 3.51285,-0.869031 h 26.63398 q 0.8323,0 1.48101,0.318235 0.64872,0.318238 0.64872,1.05263 z m -8.39655,-8.421036 v 3.91676 h -20.36716 q -2.3011,0 -4.82252,1.162788 -2.52141,1.162791 -4.01467,2.925334 l -8.24968,9.693983 -0.12241,0.146878 q 0,-0.09792 -0.0122,-0.305995 -0.0123,-0.208082 -0.0123,-0.306001 V 15.70024 q 0,-2.252135 1.61568,-3.867798 1.61565,-1.615664 3.86779,-1.615664 h 7.83352 q 2.25215,0 3.86781,1.615664 1.61566,1.615663 1.61566,3.867798 v 0.783354 h 13.317 q 2.25213,0 3.86778,1.615667 1.61568,1.615662 1.61568,3.867798 z"
     id="path3282"
     style="fill:#464646;fill-opacity:1" />
  <path
     d="m 330.91616,85.846008 q 0,0.758871 -0.75888,1.615666 l -8.22519,9.69398 q -1.05264,1.248468 -2.9498,2.117498 -1.89719,0.869028 -3.51286,0.869028 h -26.63397 q -0.83231,0 -1.48103,-0.318238 -0.64871,-0.31823 -0.64871,-1.05262 0,-0.758877 0.75887,-1.615668 l 8.2252,-9.69398 q 1.05264,-1.248467 2.94981,-2.1175 1.89719,-0.869031 3.51285,-0.869031 h 26.63398 q 0.8323,0 1.48101,0.318235 0.64872,0.318238 0.64872,1.05263 z m -8.39655,-8.421036 v 3.91676 h -20.36716 q -2.3011,0 -4.82252,1.162788 -2.52141,1.162791 -4.01467,2.925334 l -8.24968,9.693983 -0.12241,0.146878 q 0,-0.09792 -0.0122,-0.305995 -0.0123,-0.208082 -0.0123,-0.306001 V 71.158153 q 0,-2.252135 1.61568,-3.867798 1.61565,-1.615664 3.86779,-1.615664 h 7.83352 q 2.25215,0 3.86781,1.615664 1.61566,1.615663 1.61566,3.867798 v 0.783354 h 13.317 q 2.25213,0 3.86778,1.615667 1.61568,1.615662 1.61568,3.867798 z"
     id="path3282-8"
     style="fill:#0055a4;fill-opacity:1" />
  <path
     d="m 267.64731,31.173235 v 8.927349 q 0,3.34074 -2.37221,5.712942 -2.3722,2.372206 -5.71294,2.372206 h -23.35709 q -3.34073,0 -5.71294,-2.372206 -2.37221,-2.372202 -2.37221,-5.712942 V 16.743492 q 0,-3.340735 2.37221,-5.712942 2.37221,-2.3722058 5.71294,-2.3722058 h 23.35709 q 1.76862,0 3.28459,0.7018381 0.42111,0.196514 0.50532,0.6456877 0.0842,0.477249 -0.25266,0.814131 l -1.3756,1.375596 q -0.28074,0.280736 -0.64568,0.280736 -0.0842,0 -0.25266,-0.05615 -0.6457,-0.168438 -1.26331,-0.168438 h -23.35709 q -1.85285,0 -3.1723,1.319451 -1.31946,1.319451 -1.31946,3.172297 v 23.357092 q 0,1.852846 1.31946,3.172297 1.31945,1.319451 3.1723,1.319451 h 23.35709 q 1.85285,0 3.1723,-1.319451 1.31945,-1.319451 1.31945,-3.172297 v -7.130651 q 0,-0.364953 0.25266,-0.617613 l 1.7967,-1.7967 q 0.28073,-0.280736 0.64569,-0.280736 0.16843,0 0.33688,0.08422 0.56147,0.224586 0.56147,0.814131 z m 6.48496,-13.727909 -22.85177,22.851771 q -0.67377,0.673763 -1.60018,0.673763 -0.92643,0 -1.60019,-0.673763 L 236.00856,28.225523 q -0.67377,-0.673763 -0.67377,-1.600186 0,-0.926424 0.67377,-1.600182 l 3.08807,-3.088081 q 0.67376,-0.673758 1.60019,-0.673758 0.92641,0 1.60019,0.673758 l 7.38331,7.383315 18.1635,-18.163507 q 0.67376,-0.673763 1.60018,-0.673763 0.92643,0 1.60019,0.673763 l 3.08808,3.088076 q 0.67376,0.673763 0.67376,1.600187 0,0.926422 -0.67376,1.600181 z"
     id="path3349"
     style="fill:#464646;fill-opacity:1" />
  <path
     d="m 267.7439,86.758139 v 8.927349 q 0,3.34074 -2.37221,5.712942 -2.3722,2.3722 -5.71294,2.3722 h -23.35709 q -3.34073,0 -5.71294,-2.3722 -2.37221,-2.372202 -2.37221,-5.712942 V 72.328396 q 0,-3.340735 2.37221,-5.712942 2.37221,-2.372206 5.71294,-2.372206 h 23.35709 q 1.76862,0 3.28459,0.701838 0.42111,0.196514 0.50532,0.645688 0.0842,0.477249 -0.25266,0.814131 l -1.3756,1.375596 q -0.28074,0.280736 -0.64568,0.280736 -0.0842,0 -0.25266,-0.05615 -0.6457,-0.168438 -1.26331,-0.168438 h -23.35709 q -1.85285,0 -3.1723,1.319451 -1.31946,1.319451 -1.31946,3.172297 v 23.357092 q 0,1.852846 1.31946,3.172297 1.31945,1.319454 3.1723,1.319454 h 23.35709 q 1.85285,0 3.1723,-1.319454 1.31945,-1.319451 1.31945,-3.172297 v -7.130651 q 0,-0.364953 0.25266,-0.617613 l 1.7967,-1.7967 q 0.28073,-0.280736 0.64569,-0.280736 0.16843,0 0.33688,0.08422 0.56147,0.224586 0.56147,0.814131 z m 6.48496,-13.727909 -22.85177,22.851771 q -0.67377,0.673763 -1.60018,0.673763 -0.92643,0 -1.60019,-0.673763 L 236.10515,83.810427 q -0.67377,-0.673763 -0.67377,-1.600186 0,-0.926424 0.67377,-1.600182 l 3.08807,-3.088081 q 0.67376,-0.673758 1.60019,-0.673758 0.92641,0 1.60019,0.673758 l 7.38331,7.383315 18.1635,-18.163507 q 0.67376,-0.673763 1.60018,-0.673763 0.92643,0 1.60019,0.673763 l 3.08808,3.088076 q 0.67376,0.673763 0.67376,1.600187 0,0.926422 -0.67376,1.600181 z"
     id="path3349-6"
     style="fill:#0055a4;fill-opacity:1" />
  <path
     d="m 13.236807,33.64027 q 0,-1.50164 -1.062483,-2.56413 -1.062489,-1.06249 -2.564142,-1.06249 -1.501645,0 -2.5641348,1.06249 -1.062489,1.06249 -1.062489,2.56413 0,1.50166 1.062489,2.56414 1.0624898,1.06249 2.5641348,1.06249 1.501653,0 2.564142,-1.06249 1.062483,-1.06248 1.062483,-2.56414 z m 5.439939,-12.693176 q 0,-1.501653 -1.062489,-2.564142 -1.062489,-1.062482 -2.564135,-1.062482 -1.501652,0 -2.564135,1.062482 -1.062489,1.062489 -1.062489,2.564142 0,1.501646 1.062489,2.564135 1.062483,1.062489 2.564135,1.062489 1.501646,0 2.564135,-1.062489 1.062489,-1.062489 1.062489,-2.564135 z M 30.803271,34.57526 33.6649,23.752061 q 0.17,-0.736657 -0.212494,-1.374152 -0.382494,-0.637495 -1.09082,-0.835827 -0.708326,-0.198325 -1.359983,0.18417 -0.651665,0.382494 -0.849996,1.119151 L 27.289978,33.6686 q -1.699984,0.14167 -3.031629,1.23249 -1.331652,1.09082 -1.784985,2.7908 -0.566657,2.18164 0.566664,4.13662 1.13332,1.95498 3.314961,2.52164 2.181641,0.56666 4.136619,-0.56666 1.954978,-1.13332 2.521635,-3.31496 0.453325,-1.69998 -0.170001,-3.31496 -0.623326,-1.61499 -2.039971,-2.57831 z M 49.50305,33.64027 q 0,-1.50164 -1.06249,-2.56413 -1.062483,-1.06249 -2.564136,-1.06249 -1.501645,0 -2.564134,1.06249 -1.06249,1.06249 -1.06249,2.56413 0,1.50166 1.06249,2.56414 1.062489,1.06249 2.564134,1.06249 1.501653,0 2.564136,-1.06249 1.06249,-1.06248 1.06249,-2.56414 z M 31.369928,15.507154 q 0,-1.501645 -1.06249,-2.564135 -1.062482,-1.062489 -2.564135,-1.062489 -1.501645,0 -2.564135,1.062489 -1.062489,1.06249 -1.062489,2.564135 0,1.501653 1.062489,2.564135 1.06249,1.062489 2.564135,1.062489 1.501653,0 2.564135,-1.062489 1.06249,-1.062482 1.06249,-2.564135 z m 12.693188,5.43994 q 0,-1.501653 -1.062489,-2.564142 -1.06249,-1.062482 -2.564135,-1.062482 -1.501653,0 -2.564142,1.062482 -1.062483,1.062489 -1.062483,2.564142 0,1.501646 1.062483,2.564135 1.062489,1.062489 2.564142,1.062489 1.501645,0 2.564135,-1.062489 1.062489,-1.062489 1.062489,-2.564135 z M 53.12967,33.64027 q 0,7.39491 -3.99495,13.68484 -0.53833,0.82166 -1.52998,0.82166 H 7.8818742 q -0.991658,0 -1.529984,-0.82166 -3.994956,-6.26159 -3.994956,-13.68484 0,-5.1566 2.011647,-9.859878 2.01164,-4.703276 5.4116018,-8.103237 3.399961,-3.399962 8.103237,-5.411602 4.703275,-2.011647 9.859883,-2.011647 5.156608,0 9.859884,2.011647 4.703282,2.01164 8.103237,5.411602 3.399966,3.399961 5.411606,8.103237 2.01164,4.703278 2.01164,9.859878 z"
     id="path3415"
     style="fill:#464646;fill-opacity:1" />
  <path
     d="m 13.243505,89.439932 q 0,-1.50164 -1.062483,-2.56413 -1.062489,-1.06249 -2.564142,-1.06249 -1.501645,0 -2.564135,1.06249 -1.062489,1.06249 -1.062489,2.56413 0,1.50166 1.062489,2.56414 1.06249,1.06249 2.564135,1.06249 1.501653,0 2.564142,-1.06249 1.062483,-1.06248 1.062483,-2.56414 z m 5.439939,-12.693176 q 0,-1.501653 -1.062489,-2.564142 -1.062489,-1.062482 -2.564135,-1.062482 -1.501652,0 -2.564135,1.062482 -1.062489,1.062489 -1.062489,2.564142 0,1.501646 1.062489,2.564135 1.062483,1.062489 2.564135,1.062489 1.501646,0 2.564135,-1.062489 1.062489,-1.062489 1.062489,-2.564135 z m 12.126525,13.628166 2.861629,-10.823199 q 0.17,-0.736657 -0.212494,-1.374152 -0.382494,-0.637495 -1.09082,-0.835827 -0.708326,-0.198325 -1.359983,0.18417 -0.651665,0.382494 -0.849996,1.119151 l -2.861629,10.823197 q -1.699984,0.14167 -3.031629,1.23249 -1.331652,1.09082 -1.784985,2.7908 -0.566657,2.18164 0.566664,4.13662 1.13332,1.95498 3.314961,2.521638 2.181641,0.56666 4.136619,-0.566658 1.954978,-1.13332 2.521635,-3.31496 0.453325,-1.69998 -0.170001,-3.31496 -0.623326,-1.61499 -2.039971,-2.57831 z m 18.699779,-0.93499 q 0,-1.50164 -1.06249,-2.56413 -1.062483,-1.06249 -2.564136,-1.06249 -1.501645,0 -2.564134,1.06249 -1.06249,1.06249 -1.06249,2.56413 0,1.50166 1.06249,2.56414 1.062489,1.06249 2.564134,1.06249 1.501653,0 2.564136,-1.06249 1.06249,-1.06248 1.06249,-2.56414 z M 31.376626,71.306816 q 0,-1.501645 -1.06249,-2.564135 -1.062482,-1.062489 -2.564135,-1.062489 -1.501645,0 -2.564135,1.062489 -1.062489,1.06249 -1.062489,2.564135 0,1.501653 1.062489,2.564135 1.06249,1.062489 2.564135,1.062489 1.501653,0 2.564135,-1.062489 1.06249,-1.062482 1.06249,-2.564135 z m 12.693188,5.43994 q 0,-1.501653 -1.062489,-2.564142 -1.06249,-1.062482 -2.564135,-1.062482 -1.501653,0 -2.564142,1.062482 -1.062483,1.062489 -1.062483,2.564142 0,1.501646 1.062483,2.564135 1.062489,1.062489 2.564142,1.062489 1.501645,0 2.564135,-1.062489 1.062489,-1.062489 1.062489,-2.564135 z m 9.066554,12.693176 q 0,7.39491 -3.99495,13.684838 -0.53833,0.82166 -1.52998,0.82166 H 7.888572 q -0.991658,0 -1.529984,-0.82166 -3.994956,-6.261588 -3.994956,-13.684838 0,-5.1566 2.011647,-9.859878 2.01164,-4.703276 5.411602,-8.103237 3.399961,-3.399962 8.103237,-5.411602 4.703275,-2.011647 9.859883,-2.011647 5.156608,0 9.859884,2.011647 4.703282,2.01164 8.103237,5.411602 3.399966,3.399961 5.411606,8.103237 2.01164,4.703278 2.01164,9.859878 z"
     id="path3415-1"
     style="fill:#0055a4;fill-opacity:1" />
  <path
     d="m 123.45395,45.852914 h 6.70464 v -6.704623 h -6.70464 v 6.704623 z m 8.19455,0 h 7.44958 v -6.704623 h -7.44958 v 6.704623 z m -8.19455,-8.194543 h 6.70464 v -7.449577 h -6.70464 v 7.449577 z m 8.19455,0 h 7.44958 v -7.449577 h -7.44958 v 7.449577 z m -8.19455,-8.939488 h 6.70464 V 22.01426 h -6.70464 v 6.704623 z m 17.13403,17.134031 h 7.44959 v -6.704623 h -7.44959 v 6.704623 z M 131.6485,28.718883 h 7.44958 V 22.01426 h -7.44958 v 6.704623 z m 17.87899,17.134031 h 6.70462 v -6.704623 h -6.70462 v 6.704623 z m -8.93951,-8.194543 h 7.44959 v -7.449577 h -7.44959 v 7.449577 z m -8.19452,-20.113858 v -6.704615 q 0,-0.302644 -0.22116,-0.5238 -0.22116,-0.221164 -0.5238,-0.221164 h -1.48991 q -0.30264,0 -0.52381,0.221164 -0.22115,0.221156 -0.22115,0.5238 v 6.704615 q 0,0.302643 0.22115,0.523798 0.22117,0.221165 0.52381,0.221165 h 1.48991 q 0.30264,0 0.5238,-0.221165 0.22116,-0.221155 0.22116,-0.523798 z m 17.13403,20.113858 h 6.70462 v -7.449577 h -6.70462 v 7.449577 z m -8.93951,-8.939488 h 7.44959 V 22.01426 h -7.44959 v 6.704623 z m 8.93951,0 h 6.70462 V 22.01426 h -6.70462 v 6.704623 z m 0.74496,-11.17437 v -6.704615 q 0,-0.302644 -0.22116,-0.5238 -0.22116,-0.221164 -0.5238,-0.221164 h -1.48992 q -0.30263,0 -0.52379,0.221164 -0.22117,0.221156 -0.22117,0.5238 v 6.704615 q 0,0.302643 0.22117,0.523798 0.22116,0.221165 0.52379,0.221165 h 1.48992 q 0.30264,0 0.5238,-0.221165 0.22116,-0.221155 0.22116,-0.523798 z m 8.93949,-1.489911 v 29.798312 q 0,1.210558 -0.88463,2.095189 -0.88464,0.88464 -2.0952,0.88464 h -32.77816 q -1.21055,0 -2.09518,-0.88464 -0.88464,-0.884631 -0.88464,-2.095189 V 16.054602 q 0,-1.210559 0.88464,-2.095198 0.88463,-0.88464 2.09518,-0.88464 h 2.97985 v -2.234866 q 0,-1.5364773 1.09416,-2.6306358 1.09415,-1.0941574 2.63063,-1.0941574 h 1.48991 q 1.53648,0 2.63062,1.0941574 1.09417,1.0941585 1.09417,2.6306358 v 2.234866 h 8.9395 v -2.234866 q 0,-1.5364773 1.09415,-2.6306358 1.09416,-1.0941574 2.63063,-1.0941574 h 1.48992 q 1.53647,0 2.63063,1.0941574 1.09416,1.0941585 1.09416,2.6306358 v 2.234866 h 2.97983 q 1.21056,0 2.0952,0.88464 0.88463,0.884639 0.88463,2.095198 z"
     id="path3463"
     style="fill:#464646;fill-opacity:1" />
  <path
     d="m 123.43087,101.50447 h 6.70464 v -6.704625 h -6.70464 v 6.704625 z m 8.19455,0 h 7.44958 v -6.704625 h -7.44958 v 6.704625 z m -8.19455,-8.194545 h 6.70464 v -7.449577 h -6.70464 v 7.449577 z m 8.19455,0 h 7.44958 v -7.449577 h -7.44958 v 7.449577 z m -8.19455,-8.939488 h 6.70464 v -6.704623 h -6.70464 v 6.704623 z m 17.13403,17.134033 h 7.44959 v -6.704625 h -7.44959 v 6.704625 z m -8.93948,-17.134033 h 7.44958 v -6.704623 h -7.44958 v 6.704623 z m 17.87899,17.134033 h 6.70462 v -6.704625 h -6.70462 v 6.704625 z m -8.93951,-8.194545 h 7.44959 v -7.449577 h -7.44959 v 7.449577 z m -8.19452,-20.113858 v -6.704614 q 0,-0.302644 -0.22116,-0.5238 -0.22116,-0.221164 -0.5238,-0.221164 h -1.48991 q -0.30264,0 -0.52381,0.221164 -0.22115,0.221156 -0.22115,0.5238 v 6.704614 q 0,0.302643 0.22115,0.523798 0.22117,0.221165 0.52381,0.221165 h 1.48991 q 0.30264,0 0.5238,-0.221165 0.22116,-0.221155 0.22116,-0.523798 z m 17.13403,20.113858 h 6.70462 v -7.449577 h -6.70462 v 7.449577 z m -8.93951,-8.939488 h 7.44959 v -6.704623 h -7.44959 v 6.704623 z m 8.93951,0 h 6.70462 v -6.704623 h -6.70462 v 6.704623 z m 0.74496,-11.17437 v -6.704614 q 0,-0.302644 -0.22116,-0.5238 -0.22116,-0.221164 -0.5238,-0.221164 h -1.48992 q -0.30263,0 -0.52379,0.221164 -0.22117,0.221156 -0.22117,0.5238 v 6.704614 q 0,0.302643 0.22117,0.523798 0.22116,0.221165 0.52379,0.221165 h 1.48992 q 0.30264,0 0.5238,-0.221165 0.22116,-0.221155 0.22116,-0.523798 z m 8.93949,-1.48991 v 29.798313 q 0,1.21056 -0.88463,2.09519 -0.88464,0.88464 -2.0952,0.88464 h -32.77816 q -1.21055,0 -2.09518,-0.88464 -0.88464,-0.88463 -0.88464,-2.09519 V 71.706157 q 0,-1.210559 0.88464,-2.095198 0.88463,-0.88464 2.09518,-0.88464 h 2.97985 v -2.234866 q 0,-1.536478 1.09416,-2.630636 1.09415,-1.094158 2.63063,-1.094158 h 1.48991 q 1.53648,0 2.63062,1.094158 1.09417,1.094158 1.09417,2.630636 v 2.234866 h 8.9395 v -2.234866 q 0,-1.536478 1.09415,-2.630636 1.09416,-1.094158 2.63063,-1.094158 h 1.48992 q 1.53647,0 2.63063,1.094158 1.09416,1.094158 1.09416,2.630636 v 2.234866 h 2.97983 q 1.21056,0 2.0952,0.88464 0.88463,0.884639 0.88463,2.095198 z"
     id="path3463-6"
     style="fill:#0055a4;fill-opacity:1" />
  <path
     d="m 69.46875,63.0625 c -3.324,0 -6,2.676 -6,6 l 0,29.71875 c 0,3.324 2.676,6 6,6 l 28.65625,0 c 3.324,0 6,-2.676 6,-6 l 0,-29.71875 c 0,-3.324 -2.676,-6 -6,-6 l -28.65625,0 z m 14.8125,10.15625 c 1.87499,2.2e-5 3.38866,0.531271 4.53125,1.625 1.142564,1.084003 1.718736,2.406268 1.71875,3.96875 -1.4e-5,0.996109 -0.25392,1.882827 -0.78125,2.625 -0.517591,0.732434 -1.310559,1.287121 -2.375,1.6875 1.318347,0.429699 2.316393,1.136729 3,2.09375 0.693344,0.95704 1.031235,2.078132 1.03125,3.40625 -1.5e-5,1.835942 -0.638687,3.406253 -1.9375,4.65625 -1.29884,1.25 -3.00587,1.875 -5.125,1.875 -2.119147,0 -3.826176,-0.625 -5.125,-1.875 -1.29883,-1.259763 -1.968751,-2.843746 -1.96875,-4.71875 -10e-7,-1.396477 0.359373,-2.562491 1.0625,-3.5 0.712888,-0.947255 1.722652,-1.595692 3.03125,-1.9375 -1.093754,-0.400379 -1.91016,-0.97655 -2.4375,-1.71875 C 78.378904,80.664077 78.124998,79.785171 78.125,78.75 c -2e-6,-1.562482 0.56445,-2.873028 1.6875,-3.9375 1.123042,-1.064432 2.603509,-1.593728 4.46875,-1.59375 z M 84.3125,75.375 c -1.005867,1.9e-5 -1.835944,0.324238 -2.5,0.96875 -0.664068,0.644549 -1.000005,1.41408 -1,2.3125 -5e-6,1.01564 0.345698,1.855483 1,2.5 0.65429,0.644544 1.486321,0.968763 2.53125,0.96875 1.015616,1.3e-5 1.855459,-0.333971 2.5,-0.96875 0.654285,-0.644517 0.968738,-1.416001 0.96875,-2.34375 -1.2e-5,-0.96678 -0.326183,-1.783185 -1,-2.4375 -0.664073,-0.664043 -1.503916,-0.999981 -2.5,-1 z m -0.03125,8.90625 c -1.240241,1.1e-5 -2.273443,0.398448 -3.09375,1.21875 -0.810551,0.820321 -1.218754,1.863289 -1.21875,3.09375 -4e-6,0.751959 0.179683,1.45313 0.53125,2.15625 0.361323,0.703128 0.89062,1.265628 1.59375,1.65625 0.703118,0.380861 1.470696,0.562502 2.28125,0.5625 1.259756,2e-6 2.273427,-0.408201 3.09375,-1.21875 0.8203,-0.810543 1.249987,-1.843745 1.25,-3.09375 -1.3e-5,-1.269524 -0.431653,-2.294913 -1.28125,-3.125 -0.839854,-0.830068 -1.886728,-1.249989 -3.15625,-1.25 z"
     id="rect3490"
     style="fill:#0055a4;fill-opacity:1" />
  <path
     d="m 187.83937,140.86852 q -3.70297,0.11424 -6.05732,2.9258 h -3.06296 q -1.87435,0 -3.1544,-0.92574 -1.28003,-0.92574 -1.28003,-2.70866 0,-8.06882 2.83437,-8.06882 0.13715,0 0.99432,0.48001 0.85717,0.48002 2.22865,0.97146 1.37146,0.49144 2.72008,0.49144 1.53148,0 3.0401,-0.52574 -0.11425,0.84575 -0.11425,1.50862 0,3.17726 1.85149,5.85163 z m 24.48081,14.56046 q 0,2.74295 -1.66863,4.33157 -1.66864,1.58863 -4.43445,1.58863 h -19.97777 q -2.76581,0 -4.43443,-1.58863 -1.66863,-1.58862 -1.66863,-4.33157 0,-1.21146 0.08,-2.36578 0.08,-1.15433 0.32,-2.49152 0.24001,-1.33718 0.60574,-2.48007 0.36573,-1.14289 0.98289,-2.22865 0.61716,-1.08575 1.41719,-1.85149 0.80002,-0.76574 1.95434,-1.2229 1.15433,-0.45714 2.54867,-0.45714 0.22858,0 0.98287,0.49143 0.75432,0.49145 1.66863,1.09718 0.91431,0.60574 2.44578,1.09718 1.53148,0.49145 3.08582,0.49145 1.55435,0 3.08583,-0.49145 1.53148,-0.49144 2.44578,-1.09718 0.91431,-0.60573 1.66862,-1.09718 0.75433,-0.49143 0.98291,-0.49143 1.39432,0 2.54864,0.45714 1.15431,0.45716 1.95436,1.2229 0.80003,0.76574 1.41719,1.85149 0.61714,1.08576 0.98288,2.22865 0.36573,1.14289 0.60574,2.48007 0.24001,1.33719 0.31999,2.49152 0.08,1.15432 0.08,2.36578 z m -23.40649,-29.18951 q 0,2.42294 -1.71433,4.13728 -1.71434,1.71435 -4.13728,1.71435 -2.42294,0 -4.13727,-1.71435 -1.71434,-1.71434 -1.71434,-4.13728 0,-2.42294 1.71434,-4.13727 1.71433,-1.71434 4.13727,-1.71434 2.42294,0 4.13728,1.71434 1.71433,1.71433 1.71433,4.13727 z m 16.09197,8.77742 q 0,3.63441 -2.57152,6.20592 -2.57152,2.57151 -6.20592,2.57151 -3.6344,0 -6.20591,-2.57151 -2.5715,-2.57151 -2.5715,-6.20592 0,-3.6344 2.5715,-6.2059 2.57151,-2.57152 6.20591,-2.57152 3.6344,0 6.20592,2.57152 2.57152,2.5715 2.57152,6.2059 z m 13.16612,5.14303 q 0,1.78292 -1.28003,2.70866 -1.28005,0.92574 -3.15438,0.92574 h -3.06296 q -2.35436,-2.81151 -6.05735,-2.9258 1.85149,-2.67438 1.85149,-5.85163 0,-0.66287 -0.11425,-1.50862 1.50862,0.52574 3.0401,0.52574 1.34862,0 2.72008,-0.49144 1.37149,-0.49144 2.22867,-0.97146 0.85715,-0.48001 0.99431,-0.48001 2.83437,0 2.83437,8.06882 z m -2.9258,-13.92045 q 0,2.42294 -1.71436,4.13728 -1.71432,1.71435 -4.13727,1.71435 -2.42292,0 -4.13726,-1.71435 -1.71435,-1.71434 -1.71435,-4.13728 0,-2.42294 1.71435,-4.13727 1.71434,-1.71434 4.13726,-1.71434 2.42295,0 4.13727,1.71434 1.71436,1.71433 1.71436,4.13727 z"
     id="path3201-4-3"
     style="fill:#ffffff;fill-opacity:1" />
  <path
     d="m 331.30958,142.40932 q 0,0.75887 -0.75888,1.61566 l -8.22519,9.69398 q -1.05264,1.24847 -2.9498,2.1175 -1.89719,0.86903 -3.51286,0.86903 h -26.63397 q -0.83231,0 -1.48103,-0.31824 -0.64871,-0.31823 -0.64871,-1.05262 0,-0.75887 0.75887,-1.61567 l 8.2252,-9.69398 q 1.05264,-1.24846 2.94981,-2.1175 1.89719,-0.86903 3.51285,-0.86903 h 26.63398 q 0.8323,0 1.48101,0.31824 0.64872,0.31824 0.64872,1.05263 z m -8.39655,-8.42104 v 3.91676 h -20.36716 q -2.3011,0 -4.82252,1.16279 -2.52141,1.16279 -4.01467,2.92533 l -8.24968,9.69399 -0.12241,0.14688 q 0,-0.0979 -0.0122,-0.306 -0.0123,-0.20808 -0.0123,-0.306 v -23.50057 q 0,-2.25213 1.61568,-3.8678 1.61565,-1.61566 3.86779,-1.61566 h 7.83352 q 2.25215,0 3.86781,1.61566 1.61566,1.61567 1.61566,3.8678 v 0.78336 h 13.317 q 2.25213,0 3.86778,1.61566 1.61568,1.61567 1.61568,3.8678 z"
     id="path3282-8-7"
     style="fill:#ffffff;fill-opacity:1" />
  <path
     d="m 268.13732,143.32145 v 8.92735 q 0,3.34074 -2.37221,5.71294 -2.3722,2.3722 -5.71294,2.3722 h -23.35709 q -3.34073,0 -5.71294,-2.3722 -2.37221,-2.3722 -2.37221,-5.71294 v -23.35709 q 0,-3.34074 2.37221,-5.71295 2.37221,-2.3722 5.71294,-2.3722 h 23.35709 q 1.76862,0 3.28459,0.70184 0.42111,0.19651 0.50532,0.64568 0.0842,0.47725 -0.25266,0.81413 l -1.3756,1.3756 q -0.28074,0.28074 -0.64568,0.28074 -0.0842,0 -0.25266,-0.0562 -0.6457,-0.16844 -1.26331,-0.16844 h -23.35709 q -1.85285,0 -3.1723,1.31945 -1.31946,1.31945 -1.31946,3.1723 v 23.35709 q 0,1.85285 1.31946,3.1723 1.31945,1.31945 3.1723,1.31945 h 23.35709 q 1.85285,0 3.1723,-1.31945 1.31945,-1.31945 1.31945,-3.1723 v -7.13065 q 0,-0.36496 0.25266,-0.61762 l 1.7967,-1.7967 q 0.28073,-0.28073 0.64569,-0.28073 0.16843,0 0.33688,0.0842 0.56147,0.22458 0.56147,0.81413 z m 6.48496,-13.72791 -22.85177,22.85177 q -0.67377,0.67376 -1.60018,0.67376 -0.92643,0 -1.60019,-0.67376 l -12.07157,-12.07157 q -0.67377,-0.67377 -0.67377,-1.60019 0,-0.92642 0.67377,-1.60018 l 3.08807,-3.08808 q 0.67376,-0.67376 1.60019,-0.67376 0.92641,0 1.60019,0.67376 l 7.38331,7.38331 18.1635,-18.1635 q 0.67376,-0.67377 1.60018,-0.67377 0.92643,0 1.60019,0.67377 l 3.08808,3.08807 q 0.67376,0.67377 0.67376,1.60019 0,0.92642 -0.67376,1.60018 z"
     id="path3349-6-0"
     style="fill:#ffffff;fill-opacity:1" />
  <path
     d="m 13.63692,146.00324 q 0,-1.50164 -1.06248,-2.56413 -1.06249,-1.06249 -2.56414,-1.06249 -1.501648,0 -2.564138,1.06249 -1.062489,1.06249 -1.062489,2.56413 0,1.50166 1.062489,2.56414 1.06249,1.06249 2.564138,1.06249 1.50165,0 2.56414,-1.06249 1.06248,-1.06248 1.06248,-2.56414 z m 5.43994,-12.69317 q 0,-1.50166 -1.06249,-2.56415 -1.06249,-1.06248 -2.56413,-1.06248 -1.50165,0 -2.56414,1.06248 -1.06249,1.06249 -1.06249,2.56415 0,1.50164 1.06249,2.56413 1.06249,1.06249 2.56414,1.06249 1.50164,0 2.56413,-1.06249 1.06249,-1.06249 1.06249,-2.56413 z m 12.12653,13.62816 2.86163,-10.8232 q 0.17,-0.73665 -0.2125,-1.37415 -0.38249,-0.63749 -1.09082,-0.83583 -0.70832,-0.19832 -1.35998,0.18417 -0.65167,0.3825 -0.85,1.11916 l -2.86163,10.82319 q -1.69998,0.14167 -3.03163,1.23249 -1.33165,1.09082 -1.78498,2.7908 -0.56666,2.18164 0.56666,4.13662 1.13332,1.95498 3.31496,2.52164 2.18165,0.56666 4.13662,-0.56666 1.95498,-1.13332 2.52164,-3.31496 0.45332,-1.69998 -0.17,-3.31496 -0.62333,-1.61499 -2.03997,-2.57831 z m 18.69978,-0.93499 q 0,-1.50164 -1.06249,-2.56413 -1.06249,-1.06249 -2.56414,-1.06249 -1.50165,0 -2.56413,1.06249 -1.06249,1.06249 -1.06249,2.56413 0,1.50166 1.06249,2.56414 1.06248,1.06249 2.56413,1.06249 1.50165,0 2.56414,-1.06249 1.06249,-1.06248 1.06249,-2.56414 z M 31.77004,127.87013 q 0,-1.50165 -1.06249,-2.56414 -1.06248,-1.06249 -2.56413,-1.06249 -1.50165,0 -2.56414,1.06249 -1.06249,1.06249 -1.06249,2.56414 0,1.50165 1.06249,2.56413 1.06249,1.06249 2.56414,1.06249 1.50165,0 2.56413,-1.06249 1.06249,-1.06248 1.06249,-2.56413 z m 12.69319,5.43994 q 0,-1.50166 -1.06249,-2.56415 -1.06249,-1.06248 -2.56413,-1.06248 -1.50166,0 -2.56414,1.06248 -1.06249,1.06249 -1.06249,2.56415 0,1.50164 1.06249,2.56413 1.06248,1.06249 2.56414,1.06249 1.50164,0 2.56413,-1.06249 1.06249,-1.06249 1.06249,-2.56413 z m 9.06656,12.69317 q 0,7.39491 -3.99495,13.68484 -0.53833,0.82166 -1.52998,0.82166 H 8.281989 q -0.991658,0 -1.529984,-0.82166 -3.994956,-6.26159 -3.994956,-13.68484 0,-5.1566 2.011647,-9.85988 2.01164,-4.70327 5.411604,-8.10323 3.39996,-3.39997 8.10324,-5.41161 4.70327,-2.01164 9.85988,-2.01164 5.15661,0 9.85988,2.01164 4.70328,2.01164 8.10324,5.41161 3.39997,3.39996 5.41161,8.10323 2.01164,4.70328 2.01164,9.85988 z"
     id="path3415-1-0"
     style="fill:#ffffff;fill-opacity:1" />
  <path
     d="m 123.82429,158.06778 h 6.70464 v -6.70462 h -6.70464 v 6.70462 z m 8.19455,0 h 7.44958 v -6.70462 h -7.44958 v 6.70462 z m -8.19455,-8.19454 h 6.70464 v -7.44958 h -6.70464 v 7.44958 z m 8.19455,0 h 7.44958 v -7.44958 h -7.44958 v 7.44958 z m -8.19455,-8.93949 h 6.70464 v -6.70463 h -6.70464 v 6.70463 z m 17.13403,17.13403 h 7.44959 v -6.70462 h -7.44959 v 6.70462 z m -8.93948,-17.13403 h 7.44958 v -6.70463 h -7.44958 v 6.70463 z m 17.87899,17.13403 h 6.70462 v -6.70462 h -6.70462 v 6.70462 z m -8.93951,-8.19454 h 7.44959 v -7.44958 h -7.44959 v 7.44958 z m -8.19452,-20.11386 v -6.70462 q 0,-0.30264 -0.22116,-0.5238 -0.22116,-0.22116 -0.5238,-0.22116 h -1.48991 q -0.30264,0 -0.52381,0.22116 -0.22115,0.22116 -0.22115,0.5238 v 6.70462 q 0,0.30264 0.22115,0.5238 0.22117,0.22116 0.52381,0.22116 h 1.48991 q 0.30264,0 0.5238,-0.22116 0.22116,-0.22116 0.22116,-0.5238 z m 17.13403,20.11386 h 6.70462 v -7.44958 h -6.70462 v 7.44958 z m -8.93951,-8.93949 h 7.44959 v -6.70463 h -7.44959 v 6.70463 z m 8.93951,0 h 6.70462 v -6.70463 h -6.70462 v 6.70463 z m 0.74496,-11.17437 v -6.70462 q 0,-0.30264 -0.22116,-0.5238 -0.22116,-0.22116 -0.5238,-0.22116 h -1.48992 q -0.30263,0 -0.52379,0.22116 -0.22117,0.22116 -0.22117,0.5238 v 6.70462 q 0,0.30264 0.22117,0.5238 0.22116,0.22116 0.52379,0.22116 h 1.48992 q 0.30264,0 0.5238,-0.22116 0.22116,-0.22116 0.22116,-0.5238 z m 8.93949,-1.48991 v 29.79831 q 0,1.21056 -0.88463,2.09519 -0.88464,0.88464 -2.0952,0.88464 h -32.77816 q -1.21055,0 -2.09518,-0.88464 -0.88464,-0.88463 -0.88464,-2.09519 v -29.79831 q 0,-1.21056 0.88464,-2.0952 0.88463,-0.88464 2.09518,-0.88464 h 2.97985 v -2.23487 q 0,-1.53647 1.09416,-2.63063 1.09415,-1.09416 2.63063,-1.09416 h 1.48991 q 1.53648,0 2.63062,1.09416 1.09417,1.09416 1.09417,2.63063 v 2.23487 h 8.9395 v -2.23487 q 0,-1.53647 1.09415,-2.63063 1.09416,-1.09416 2.63063,-1.09416 h 1.48992 q 1.53647,0 2.63063,1.09416 1.09416,1.09416 1.09416,2.63063 v 2.23487 h 2.97983 q 1.21056,0 2.0952,0.88464 0.88463,0.88464 0.88463,2.0952 z"
     id="path3463-6-3"
     style="fill:#ffffff;fill-opacity:1" />
  <path
     d="m 69.462573,7.059229 c -3.324,0 -6,2.676 -6,6 l 0,29.71875 c 0,3.324 2.676,6 6,6 l 28.656245,0 c 3.324002,0 6.000002,-2.676 6.000002,-6 l 0,-29.71875 c 0,-3.324 -2.676,-6 -6.000002,-6 l -28.656245,0 z m 14.812495,10.15625 c 1.87499,2.2e-5 3.38866,0.531271 4.53125,1.625 1.14257,1.084003 1.71874,2.406268 1.71875,3.96875 -1e-5,0.996109 -0.25392,1.882827 -0.78125,2.625 -0.51759,0.732434 -1.31055,1.287121 -2.375,1.6875 1.31835,0.429699 2.3164,1.136729 3,2.09375 0.69335,0.95704 1.03124,2.078132 1.03125,3.40625 -1e-5,1.835942 -0.63868,3.406253 -1.9375,4.65625 -1.29884,1.25 -3.00587,1.875 -5.125,1.875 -2.11914,0 -3.82617,-0.625 -5.125,-1.875 -1.29883,-1.259763 -1.96875,-2.843746 -1.96875,-4.71875 0,-1.396477 0.35938,-2.562491 1.0625,-3.5 0.71289,-0.947255 1.72266,-1.595692 3.03125,-1.9375 -1.09375,-0.400379 -1.91016,-0.97655 -2.4375,-1.71875 -0.52734,-0.742173 -0.78125,-1.621079 -0.78125,-2.65625 0,-1.562482 0.56445,-2.873028 1.6875,-3.9375 1.12305,-1.064432 2.60351,-1.593728 4.46875,-1.59375 z m 0.0312,2.15625 c -1.00586,1.9e-5 -1.83594,0.324238 -2.5,0.96875 -0.66406,0.644549 -1,1.41408 -1,2.3125 0,1.01564 0.3457,1.855483 1,2.5 0.65429,0.644544 1.48633,0.968763 2.53125,0.96875 1.01562,1.3e-5 1.85546,-0.333971 2.5,-0.96875 0.65429,-0.644517 0.96874,-1.416001 0.96875,-2.34375 -1e-5,-0.96678 -0.32618,-1.783185 -1,-2.4375 -0.66407,-0.664043 -1.50391,-0.999981 -2.5,-1 z m -0.0312,8.90625 c -1.24024,1.1e-5 -2.27344,0.398448 -3.09375,1.21875 -0.81055,0.820321 -1.21875,1.863289 -1.21875,3.09375 0,0.751959 0.17969,1.45313 0.53125,2.15625 0.36133,0.703128 0.89062,1.265628 1.59375,1.65625 0.70312,0.380861 1.4707,0.562502 2.28125,0.5625 1.25976,2e-6 2.27343,-0.408201 3.09375,-1.21875 0.8203,-0.810543 1.24999,-1.843745 1.25,-3.09375 -1e-5,-1.269524 -0.43165,-2.294913 -1.28125,-3.125 -0.83985,-0.830068 -1.88672,-1.249989 -3.15625,-1.25 z"
     id="rect3490-1"
     style="fill:#464646;fill-opacity:1" />
</svg>
