<?xml version="1.0" encoding="UTF-8" standalone="no"?><!DOCTYPE svg PUBLIC "-//W3C//DTD SVG 1.1//EN" "http://www.w3.org/Graphics/SVG/1.1/DTD/svg11.dtd"><svg width="100%" height="100%" viewBox="0 0 616 168" version="1.1" xmlns="http://www.w3.org/2000/svg" xmlns:xlink="http://www.w3.org/1999/xlink" xml:space="preserve" style="fill-rule:evenodd;clip-rule:evenodd;stroke-linejoin:round;stroke-miterlimit:1.41421;"><path id="rect3490.-9" d="M69.672,119.141c-3.324,0 -6,2.676 -6,6l0,29.718c0,3.324 2.676,6 6,6l28.656,0c3.324,0 6,-2.676 6,-6l0,-29.718c0,-3.324 -2.676,-6 -6,-6l-28.656,0l0,0Zm14.812,10.156c1.875,0 3.389,0.531 4.532,1.625c1.142,1.084 1.718,2.406 1.718,3.969c0,0.996 -0.254,1.882 -0.781,2.625c-0.517,0.732 -1.31,1.287 -2.375,1.687c1.318,0.43 2.317,1.137 3,2.094c0.693,0.957 1.031,2.078 1.031,3.406c0,1.836 -0.638,3.406 -1.937,4.656c-1.299,1.25 -3.006,1.875 -5.125,1.875c-2.119,0 -3.826,-0.625 -5.125,-1.875c-1.299,-1.259 -1.969,-2.843 -1.969,-4.718c0,-1.397 0.36,-2.563 1.063,-3.5c0.713,-0.948 1.722,-1.596 3.031,-1.938c-1.094,-0.4 -1.91,-0.976 -2.438,-1.719c-0.527,-0.742 -0.781,-1.621 -0.781,-2.656c0,-1.562 0.565,-2.873 1.688,-3.937c1.123,-1.065 2.603,-1.594 4.468,-1.594Zm0.032,2.156c-1.006,0 -1.836,0.324 -2.5,0.969c-0.664,0.644 -1,1.414 -1,2.312c0,1.016 0.345,1.856 1,2.5c0.654,0.645 1.486,0.969 2.531,0.969c1.015,0 1.855,-0.334 2.5,-0.969c0.654,-0.644 0.969,-1.416 0.969,-2.343c0,-0.967 -0.327,-1.784 -1,-2.438c-0.664,-0.664 -1.504,-1 -2.5,-1Zm-0.032,8.906c-1.24,0 -2.273,0.399 -3.093,1.219c-0.811,0.82 -1.219,1.863 -1.219,3.094c0,0.752 0.18,1.453 0.531,2.156c0.361,0.703 0.891,1.266 1.594,1.656c0.703,0.381 1.471,0.563 2.281,0.563c1.26,0 2.274,-0.408 3.094,-1.219c0.82,-0.81 1.25,-1.844 1.25,-3.094c0,-1.269 -0.432,-2.295 -1.281,-3.125c-0.84,-0.83 -1.887,-1.25 -3.157,-1.25Z" style="fill:#fff;fill-rule:nonzero;"/><path id="path3201" d="M187.611,28c-2.469,0.076 -4.488,1.051 -6.057,2.926l-3.063,0c-1.25,0 -2.301,-0.309 -3.155,-0.926c-0.853,-0.617 -1.28,-1.52 -1.28,-2.709c0,-5.379 0.945,-8.068 2.835,-8.068c0.091,0 0.423,0.16 0.994,0.48c0.572,0.32 1.314,0.643 2.229,0.971c0.914,0.328 1.821,0.491 2.72,0.491c1.021,0 2.034,-0.175 3.04,-0.525c-0.076,0.564 -0.114,1.066 -0.114,1.508c0,2.119 0.617,4.069 1.851,5.852l0,0Zm24.481,14.56c0,1.829 -0.556,3.273 -1.669,4.332c-1.112,1.059 -2.59,1.589 -4.434,1.589l-19.978,0c-1.844,0 -3.322,-0.53 -4.434,-1.589c-1.113,-1.059 -1.669,-2.503 -1.669,-4.332c0,-0.807 0.027,-1.596 0.08,-2.365c0.053,-0.77 0.16,-1.6 0.32,-2.492c0.16,-0.891 0.362,-1.718 0.606,-2.48c0.244,-0.762 0.571,-1.505 0.983,-2.229c0.411,-0.723 0.883,-1.341 1.417,-1.851c0.533,-0.511 1.185,-0.918 1.954,-1.223c0.77,-0.305 1.619,-0.457 2.549,-0.457c0.152,0 0.48,0.164 0.983,0.491c0.503,0.328 1.059,0.694 1.668,1.098c0.61,0.403 1.425,0.769 2.446,1.097c1.021,0.327 2.05,0.491 3.086,0.491c1.036,0 2.065,-0.164 3.086,-0.491c1.021,-0.328 1.836,-0.694 2.446,-1.097c0.609,-0.404 1.165,-0.77 1.668,-1.098c0.503,-0.327 0.831,-0.491 0.983,-0.491c0.93,0 1.779,0.152 2.549,0.457c0.769,0.305 1.421,0.712 1.954,1.223c0.533,0.51 1.006,1.128 1.417,1.851c0.412,0.724 0.739,1.467 0.983,2.229c0.244,0.762 0.446,1.589 0.606,2.48c0.16,0.892 0.267,1.722 0.32,2.492c0.053,0.769 0.08,1.558 0.08,2.365l0,0Zm-23.407,-29.189c0,1.615 -0.571,2.994 -1.714,4.137c-1.143,1.143 -2.522,1.715 -4.137,1.715c-1.615,0 -2.995,-0.572 -4.137,-1.715c-1.143,-1.143 -1.715,-2.522 -1.715,-4.137c0,-1.615 0.572,-2.994 1.715,-4.137c1.142,-1.143 2.522,-1.715 4.137,-1.715c1.615,0 2.994,0.572 4.137,1.715c1.143,1.143 1.714,2.522 1.714,4.137l0,0Zm16.092,8.777c0,2.423 -0.857,4.492 -2.571,6.206c-1.714,1.715 -3.783,2.572 -6.206,2.572c-2.423,0 -4.492,-0.857 -6.206,-2.572c-1.714,-1.714 -2.571,-3.783 -2.571,-6.206c0,-2.423 0.857,-4.491 2.571,-6.206c1.714,-1.714 3.783,-2.571 6.206,-2.571c2.423,0 4.492,0.857 6.206,2.571c1.714,1.715 2.571,3.783 2.571,6.206Zm13.167,5.143c0,1.189 -0.427,2.092 -1.281,2.709c-0.853,0.617 -1.904,0.926 -3.154,0.926l-3.063,0c-1.569,-1.875 -3.589,-2.85 -6.057,-2.926c1.234,-1.783 1.851,-3.733 1.851,-5.852c0,-0.442 -0.038,-0.944 -0.114,-1.508c1.006,0.35 2.019,0.525 3.04,0.525c0.899,0 1.806,-0.163 2.72,-0.491c0.915,-0.328 1.657,-0.651 2.229,-0.971c0.571,-0.32 0.903,-0.48 0.994,-0.48c1.89,0 2.835,2.689 2.835,8.068l0,0Zm-2.926,-13.92c0,1.615 -0.572,2.994 -1.715,4.137c-1.143,1.143 -2.522,1.715 -4.137,1.715c-1.615,0 -2.994,-0.572 -4.137,-1.715c-1.143,-1.143 -1.715,-2.522 -1.715,-4.137c0,-1.615 0.572,-2.994 1.715,-4.137c1.143,-1.143 2.522,-1.715 4.137,-1.715c1.615,0 2.994,0.572 4.137,1.715c1.143,1.143 1.715,2.522 1.715,4.137l0,0Z" style="fill:#464646;fill-rule:nonzero;"/><path id="path3201.-4" d="M187.611,84c-2.469,0.076 -4.488,1.051 -6.057,2.926l-3.063,0c-1.25,0 -2.301,-0.309 -3.155,-0.926c-0.853,-0.617 -1.28,-1.52 -1.28,-2.709c0,-5.379 0.945,-8.068 2.835,-8.068c0.091,0 0.423,0.16 0.994,0.48c0.572,0.32 1.314,0.643 2.229,0.971c0.914,0.328 1.821,0.491 2.72,0.491c1.021,0 2.034,-0.175 3.04,-0.525c-0.076,0.564 -0.114,1.066 -0.114,1.508c0,2.119 0.617,4.069 1.851,5.852l0,0Zm24.481,14.56c0,1.829 -0.556,3.273 -1.669,4.332c-1.112,1.059 -2.59,1.589 -4.434,1.589l-19.978,0c-1.844,0 -3.322,-0.53 -4.434,-1.589c-1.113,-1.059 -1.669,-2.503 -1.669,-4.332c0,-0.807 0.027,-1.596 0.08,-2.365c0.053,-0.77 0.16,-1.6 0.32,-2.492c0.16,-0.891 0.362,-1.718 0.606,-2.48c0.244,-0.762 0.571,-1.505 0.983,-2.229c0.411,-0.723 0.883,-1.341 1.417,-1.851c0.533,-0.511 1.185,-0.918 1.954,-1.223c0.77,-0.305 1.619,-0.457 2.549,-0.457c0.152,0 0.48,0.164 0.983,0.491c0.503,0.328 1.059,0.694 1.668,1.098c0.61,0.403 1.425,0.769 2.446,1.097c1.021,0.327 2.05,0.491 3.086,0.491c1.036,0 2.065,-0.164 3.086,-0.491c1.021,-0.328 1.836,-0.694 2.446,-1.097c0.609,-0.404 1.165,-0.77 1.668,-1.098c0.503,-0.327 0.831,-0.491 0.983,-0.491c0.93,0 1.779,0.152 2.549,0.457c0.769,0.305 1.421,0.712 1.954,1.223c0.533,0.51 1.006,1.128 1.417,1.851c0.412,0.724 0.739,1.467 0.983,2.229c0.244,0.762 0.446,1.589 0.606,2.48c0.16,0.892 0.267,1.722 0.32,2.492c0.053,0.769 0.08,1.558 0.08,2.365l0,0Zm-23.407,-29.189c0,1.615 -0.571,2.994 -1.714,4.137c-1.143,1.143 -2.522,1.715 -4.137,1.715c-1.615,0 -2.995,-0.572 -4.137,-1.715c-1.143,-1.143 -1.715,-2.522 -1.715,-4.137c0,-1.615 0.572,-2.994 1.715,-4.137c1.142,-1.143 2.522,-1.715 4.137,-1.715c1.615,0 2.994,0.572 4.137,1.715c1.143,1.143 1.714,2.522 1.714,4.137Zm16.092,8.777c0,2.423 -0.857,4.492 -2.571,6.206c-1.714,1.715 -3.783,2.572 -6.206,2.572c-2.423,0 -4.492,-0.857 -6.206,-2.572c-1.714,-1.714 -2.571,-3.783 -2.571,-6.206c0,-2.423 0.857,-4.491 2.571,-6.206c1.714,-1.714 3.783,-2.571 6.206,-2.571c2.423,0 4.492,0.857 6.206,2.571c1.714,1.715 2.571,3.783 2.571,6.206Zm13.167,5.143c0,1.189 -0.427,2.092 -1.28,2.709c-0.854,0.617 -1.905,0.926 -3.155,0.926l-3.063,0c-1.569,-1.875 -3.589,-2.85 -6.057,-2.926c1.234,-1.783 1.851,-3.733 1.851,-5.852c0,-0.442 -0.038,-0.944 -0.114,-1.508c1.006,0.35 2.019,0.525 3.04,0.525c0.899,0 1.806,-0.163 2.72,-0.491c0.915,-0.328 1.657,-0.651 2.229,-0.971c0.571,-0.32 0.903,-0.48 0.994,-0.48c1.89,0 2.835,2.689 2.835,8.068l0,0Zm-2.926,-13.92c0,1.615 -0.572,2.994 -1.715,4.137c-1.143,1.143 -2.522,1.715 -4.137,1.715c-1.615,0 -2.994,-0.572 -4.137,-1.715c-1.143,-1.143 -1.715,-2.522 -1.715,-4.137c0,-1.615 0.572,-2.994 1.715,-4.137c1.143,-1.143 2.522,-1.715 4.137,-1.715c1.615,0 2.994,0.572 4.137,1.715c1.143,1.143 1.715,2.522 1.715,4.137Z" style="fill:#0055a4;fill-rule:nonzero;"/><path id="path3282" d="M330.999,30.938c0,0.505 -0.253,1.044 -0.759,1.615l-8.225,9.694c-0.702,0.833 -1.685,1.538 -2.95,2.118c-1.265,0.579 -2.436,0.869 -3.513,0.869l-26.634,0c-0.555,0 -1.048,-0.106 -1.481,-0.318c-0.432,-0.213 -0.649,-0.564 -0.649,-1.053c0,-0.506 0.253,-1.045 0.759,-1.616l8.225,-9.694c0.702,-0.832 1.685,-1.538 2.95,-2.117c1.265,-0.58 2.436,-0.869 3.513,-0.869l26.634,0c0.555,0 1.049,0.106 1.481,0.318c0.433,0.212 0.649,0.563 0.649,1.053l0,0Zm-8.397,-8.421l0,3.916l-20.367,0c-1.534,0 -3.142,0.388 -4.822,1.163c-1.681,0.775 -3.02,1.75 -4.015,2.925l-8.25,9.694l-0.122,0.147c0,-0.065 -0.004,-0.167 -0.012,-0.306c-0.009,-0.138 -0.013,-0.24 -0.013,-0.306l0,-23.5c0,-1.502 0.539,-2.791 1.616,-3.868c1.077,-1.077 2.366,-1.616 3.868,-1.616l7.833,0c1.502,0 2.791,0.539 3.868,1.616c1.077,1.077 1.616,2.366 1.616,3.868l0,0.783l13.317,0c1.501,0 2.79,0.539 3.867,1.616c1.078,1.077 1.616,2.366 1.616,3.868l0,0Z" style="fill:#464646;fill-rule:nonzero;"/><path id="path3282.-8" d="M330.999,86.938c0,0.505 -0.253,1.044 -0.759,1.615l-8.225,9.694c-0.702,0.833 -1.685,1.538 -2.95,2.118c-1.265,0.579 -2.436,0.869 -3.513,0.869l-26.634,0c-0.555,0 -1.049,-0.106 -1.481,-0.318c-0.432,-0.213 -0.649,-0.564 -0.649,-1.053c0,-0.506 0.253,-1.045 0.759,-1.616l8.225,-9.694c0.702,-0.832 1.685,-1.538 2.95,-2.117c1.265,-0.58 2.436,-0.869 3.513,-0.869l26.634,0c0.555,0 1.049,0.106 1.481,0.318c0.433,0.212 0.649,0.563 0.649,1.053l0,0Zm-8.397,-8.421l0,3.916l-20.367,0c-1.534,0 -3.142,0.388 -4.822,1.163c-1.681,0.775 -3.02,1.75 -4.015,2.925l-8.25,9.694l-0.122,0.147c0,-0.065 -0.004,-0.167 -0.012,-0.306c-0.009,-0.138 -0.013,-0.24 -0.013,-0.306l0,-23.5c0,-1.502 0.539,-2.791 1.616,-3.868c1.077,-1.077 2.366,-1.616 3.868,-1.616l7.833,0c1.502,0 2.791,0.539 3.868,1.616c1.077,1.077 1.616,2.366 1.616,3.868l0,0.783l13.317,0c1.501,0 2.79,0.539 3.867,1.616c1.078,1.077 1.616,2.366 1.616,3.868l0,0Z" style="fill:#0055a4;fill-rule:nonzero;"/><path id="path3349" d="M268.184,30.751l0,8.928c0,2.227 -0.79,4.131 -2.372,5.712c-1.581,1.582 -3.486,2.373 -5.713,2.373l-23.357,0c-2.227,0 -4.131,-0.791 -5.713,-2.373c-1.581,-1.581 -2.372,-3.485 -2.372,-5.712l0,-23.358c0,-2.227 0.791,-4.131 2.372,-5.712c1.582,-1.582 3.486,-2.373 5.713,-2.373l23.357,0c1.179,0 2.274,0.234 3.285,0.702c0.281,0.131 0.449,0.346 0.505,0.646c0.056,0.318 -0.028,0.589 -0.253,0.814l-1.375,1.376c-0.187,0.187 -0.403,0.28 -0.646,0.28c-0.056,0 -0.14,-0.018 -0.253,-0.056c-0.43,-0.112 -0.851,-0.168 -1.263,-0.168l-23.357,0c-1.235,0 -2.293,0.44 -3.172,1.319c-0.88,0.88 -1.32,1.937 -1.32,3.172l0,23.358c0,1.235 0.44,2.292 1.32,3.172c0.879,0.879 1.937,1.319 3.172,1.319l23.357,0c1.235,0 2.293,-0.44 3.172,-1.319c0.88,-0.88 1.32,-1.937 1.32,-3.172l0,-7.131c0,-0.243 0.084,-0.449 0.253,-0.618l1.796,-1.796c0.187,-0.188 0.403,-0.281 0.646,-0.281c0.112,0 0.225,0.028 0.337,0.084c0.374,0.15 0.561,0.421 0.561,0.814l0,0Zm6.485,-13.728l-22.851,22.852c-0.45,0.449 -0.983,0.674 -1.601,0.674c-0.617,0 -1.151,-0.225 -1.6,-0.674l-12.071,-12.072c-0.45,-0.449 -0.674,-0.982 -0.674,-1.6c0,-0.617 0.224,-1.151 0.674,-1.6l3.088,-3.088c0.449,-0.449 0.982,-0.674 1.6,-0.674c0.617,0 1.151,0.225 1.6,0.674l7.383,7.383l18.164,-18.163c0.449,-0.449 0.982,-0.674 1.6,-0.674c0.618,0 1.151,0.225 1.6,0.674l3.088,3.088c0.449,0.449 0.674,0.982 0.674,1.6c0,0.618 -0.225,1.151 -0.674,1.6l0,0Z" style="fill:#464646;fill-rule:nonzero;"/><path id="path3349.-6" d="M268.184,86.751l0,8.928c0,2.227 -0.79,4.131 -2.372,5.712c-1.581,1.582 -3.486,2.373 -5.713,2.373l-23.357,0c-2.227,0 -4.131,-0.791 -5.713,-2.373c-1.581,-1.581 -2.372,-3.485 -2.372,-5.712l0,-23.358c0,-2.227 0.791,-4.131 2.372,-5.712c1.582,-1.582 3.486,-2.373 5.713,-2.373l23.357,0c1.179,0 2.274,0.234 3.285,0.702c0.281,0.131 0.449,0.346 0.505,0.646c0.056,0.318 -0.028,0.589 -0.253,0.814l-1.375,1.376c-0.187,0.187 -0.403,0.28 -0.646,0.28c-0.056,0 -0.14,-0.018 -0.253,-0.056c-0.43,-0.112 -0.851,-0.168 -1.263,-0.168l-23.357,0c-1.235,0 -2.293,0.44 -3.172,1.319c-0.88,0.88 -1.32,1.937 -1.32,3.172l0,23.358c0,1.235 0.44,2.292 1.32,3.172c0.879,0.879 1.937,1.319 3.172,1.319l23.357,0c1.235,0 2.293,-0.44 3.172,-1.319c0.88,-0.88 1.32,-1.937 1.32,-3.172l0,-7.131c0,-0.243 0.084,-0.449 0.253,-0.618l1.796,-1.796c0.187,-0.188 0.403,-0.281 0.646,-0.281c0.112,0 0.225,0.028 0.337,0.084c0.374,0.15 0.561,0.421 0.561,0.814l0,0Zm6.485,-13.728l-22.851,22.852c-0.45,0.449 -0.983,0.674 -1.601,0.674c-0.617,0 -1.151,-0.225 -1.6,-0.674l-12.071,-12.072c-0.45,-0.449 -0.674,-0.982 -0.674,-1.6c0,-0.617 0.224,-1.151 0.674,-1.6l3.088,-3.088c0.449,-0.449 0.982,-0.674 1.6,-0.674c0.617,0 1.151,0.225 1.6,0.674l7.383,7.383l18.164,-18.163c0.449,-0.449 0.982,-0.674 1.6,-0.674c0.618,0 1.151,0.225 1.6,0.674l3.088,3.088c0.449,0.449 0.674,0.982 0.674,1.6c0,0.618 -0.225,1.151 -0.674,1.6l0,0Z" style="fill:#0055a4;fill-rule:nonzero;"/><path id="path3415" d="M13.494,33.44c0,-1.001 -0.355,-1.856 -1.063,-2.564c-0.708,-0.709 -1.563,-1.063 -2.564,-1.063c-1.001,0 -1.856,0.354 -2.564,1.063c-0.709,0.708 -1.063,1.563 -1.063,2.564c0,1.001 0.354,1.856 1.063,2.564c0.708,0.708 1.563,1.063 2.564,1.063c1.001,0 1.856,-0.355 2.564,-1.063c0.708,-0.708 1.063,-1.563 1.063,-2.564Zm5.439,-12.693c0,-1.001 -0.354,-1.856 -1.062,-2.564c-0.708,-0.709 -1.563,-1.063 -2.564,-1.063c-1.001,0 -1.856,0.354 -2.564,1.063c-0.709,0.708 -1.063,1.563 -1.063,2.564c0,1.001 0.354,1.856 1.063,2.564c0.708,0.708 1.563,1.062 2.564,1.062c1.001,0 1.856,-0.354 2.564,-1.062c0.708,-0.708 1.062,-1.563 1.062,-2.564Zm12.127,13.628l2.862,-10.823c0.113,-0.491 0.042,-0.949 -0.213,-1.374c-0.255,-0.425 -0.618,-0.704 -1.091,-0.836c-0.472,-0.132 -0.925,-0.071 -1.36,0.184c-0.434,0.255 -0.717,0.628 -0.85,1.119l-2.861,10.823c-1.134,0.095 -2.144,0.506 -3.032,1.233c-0.888,0.727 -1.483,1.657 -1.785,2.791c-0.378,1.454 -0.189,2.833 0.567,4.136c0.755,1.303 1.86,2.144 3.315,2.522c1.454,0.378 2.833,0.189 4.136,-0.567c1.304,-0.755 2.144,-1.86 2.522,-3.315c0.302,-1.133 0.245,-2.238 -0.17,-3.315c-0.416,-1.076 -1.096,-1.936 -2.04,-2.578l0,0Zm18.7,-0.935c0,-1.001 -0.354,-1.856 -1.063,-2.564c-0.708,-0.709 -1.563,-1.063 -2.564,-1.063c-1.001,0 -1.856,0.354 -2.564,1.063c-0.708,0.708 -1.063,1.563 -1.063,2.564c0,1.001 0.355,1.856 1.063,2.564c0.708,0.708 1.563,1.063 2.564,1.063c1.001,0 1.856,-0.355 2.564,-1.063c0.709,-0.708 1.063,-1.563 1.063,-2.564Zm-18.133,-18.133c0,-1.001 -0.355,-1.856 -1.063,-2.564c-0.708,-0.709 -1.563,-1.063 -2.564,-1.063c-1.001,0 -1.856,0.354 -2.564,1.063c-0.708,0.708 -1.063,1.563 -1.063,2.564c0,1.001 0.355,1.856 1.063,2.564c0.708,0.708 1.563,1.062 2.564,1.062c1.001,0 1.856,-0.354 2.564,-1.062c0.708,-0.708 1.063,-1.563 1.063,-2.564l0,0Zm12.693,5.44c0,-1.001 -0.354,-1.856 -1.063,-2.564c-0.708,-0.709 -1.563,-1.063 -2.564,-1.063c-1.001,0 -1.856,0.354 -2.564,1.063c-0.708,0.708 -1.062,1.563 -1.062,2.564c0,1.001 0.354,1.856 1.062,2.564c0.708,0.708 1.563,1.062 2.564,1.062c1.001,0 1.856,-0.354 2.564,-1.062c0.709,-0.708 1.063,-1.563 1.063,-2.564Zm9.066,12.693c0,4.93 -1.331,9.491 -3.995,13.685c-0.358,0.548 -0.868,0.821 -1.53,0.821l-39.722,0c-0.662,0 -1.172,-0.273 -1.53,-0.821c-2.664,-4.175 -3.995,-8.736 -3.995,-13.685c0,-3.438 0.67,-6.724 2.011,-9.86c1.341,-3.135 3.145,-5.837 5.412,-8.103c2.267,-2.267 4.968,-4.071 8.103,-5.412c3.136,-1.341 6.422,-2.011 9.86,-2.011c3.438,0 6.724,0.67 9.86,2.011c3.135,1.341 5.836,3.145 8.103,5.412c2.267,2.266 4.071,4.968 5.412,8.103c1.341,3.136 2.011,6.422 2.011,9.86l0,0Z" style="fill:#464646;fill-rule:nonzero;"/><path id="path3415.-1" d="M13.494,89.44c0,-1.001 -0.355,-1.856 -1.063,-2.564c-0.708,-0.709 -1.563,-1.063 -2.564,-1.063c-1.001,0 -1.856,0.354 -2.564,1.063c-0.709,0.708 -1.063,1.563 -1.063,2.564c0,1.001 0.354,1.856 1.063,2.564c0.708,0.708 1.563,1.063 2.564,1.063c1.001,0 1.856,-0.355 2.564,-1.063c0.708,-0.708 1.063,-1.563 1.063,-2.564Zm5.439,-12.693c0,-1.001 -0.354,-1.856 -1.062,-2.564c-0.708,-0.709 -1.563,-1.063 -2.564,-1.063c-1.001,0 -1.856,0.354 -2.564,1.063c-0.709,0.708 -1.063,1.563 -1.063,2.564c0,1.001 0.354,1.856 1.063,2.564c0.708,0.708 1.563,1.062 2.564,1.062c1.001,0 1.856,-0.354 2.564,-1.062c0.708,-0.708 1.062,-1.563 1.062,-2.564Zm12.127,13.628l2.862,-10.823c0.113,-0.491 0.042,-0.949 -0.213,-1.374c-0.255,-0.425 -0.618,-0.704 -1.091,-0.836c-0.472,-0.132 -0.925,-0.071 -1.36,0.184c-0.434,0.255 -0.717,0.628 -0.85,1.119l-2.861,10.823c-1.134,0.095 -2.144,0.506 -3.032,1.233c-0.888,0.727 -1.483,1.657 -1.785,2.791c-0.378,1.454 -0.189,2.833 0.567,4.136c0.755,1.303 1.86,2.144 3.315,2.522c1.454,0.378 2.833,0.189 4.136,-0.567c1.304,-0.755 2.144,-1.86 2.522,-3.315c0.302,-1.133 0.245,-2.238 -0.17,-3.315c-0.416,-1.076 -1.096,-1.936 -2.04,-2.578l0,0Zm18.7,-0.935c0,-1.001 -0.354,-1.856 -1.063,-2.564c-0.708,-0.709 -1.563,-1.063 -2.564,-1.063c-1.001,0 -1.856,0.354 -2.564,1.063c-0.708,0.708 -1.063,1.563 -1.063,2.564c0,1.001 0.355,1.856 1.063,2.564c0.708,0.708 1.563,1.063 2.564,1.063c1.001,0 1.856,-0.355 2.564,-1.063c0.709,-0.708 1.063,-1.563 1.063,-2.564Zm-18.133,-18.133c0,-1.001 -0.355,-1.856 -1.063,-2.564c-0.708,-0.709 -1.563,-1.063 -2.564,-1.063c-1.001,0 -1.856,0.354 -2.564,1.063c-0.708,0.708 -1.063,1.563 -1.063,2.564c0,1.001 0.355,1.856 1.063,2.564c0.708,0.708 1.563,1.062 2.564,1.062c1.001,0 1.856,-0.354 2.564,-1.062c0.708,-0.708 1.063,-1.563 1.063,-2.564Zm12.693,5.44c0,-1.001 -0.354,-1.856 -1.063,-2.564c-0.708,-0.709 -1.563,-1.063 -2.564,-1.063c-1.001,0 -1.856,0.354 -2.564,1.063c-0.708,0.708 -1.062,1.563 -1.062,2.564c0,1.001 0.354,1.856 1.062,2.564c0.708,0.708 1.563,1.062 2.564,1.062c1.001,0 1.856,-0.354 2.564,-1.062c0.709,-0.708 1.063,-1.563 1.063,-2.564Zm9.066,12.693c0,4.93 -1.331,9.491 -3.995,13.685c-0.358,0.548 -0.868,0.821 -1.53,0.821l-39.722,0c-0.662,0 -1.172,-0.273 -1.53,-0.821c-2.664,-4.175 -3.995,-8.736 -3.995,-13.685c0,-3.438 0.67,-6.724 2.011,-9.86c1.341,-3.135 3.145,-5.837 5.412,-8.103c2.267,-2.267 4.968,-4.071 8.103,-5.412c3.136,-1.341 6.422,-2.011 9.86,-2.011c3.438,0 6.724,0.67 9.86,2.011c3.135,1.341 5.836,3.145 8.103,5.412c2.267,2.266 4.071,4.968 5.412,8.103c1.341,3.136 2.011,6.422 2.011,9.86l0,0Z" style="fill:#0055a4;fill-rule:nonzero;"/><path id="path3463" d="M123.611,45.879l6.705,0l0,-6.705l-6.705,0l0,6.705Zm8.194,0l7.45,0l0,-6.705l-7.45,0l0,6.705Zm-8.194,-8.195l6.705,0l0,-7.449l-6.705,0l0,7.449Zm8.194,0l7.45,0l0,-7.449l-7.45,0l0,7.449Zm-8.194,-8.939l6.705,0l0,-6.705l-6.705,0l0,6.705Zm17.134,17.134l7.45,0l0,-6.705l-7.45,0l0,6.705Zm-8.94,-17.134l7.45,0l0,-6.705l-7.45,0l0,6.705Zm17.879,17.134l6.705,0l0,-6.705l-6.705,0l0,6.705Zm-8.939,-8.195l7.45,0l0,-7.449l-7.45,0l0,7.449Zm-8.195,-20.113l0,-6.705c0,-0.202 -0.073,-0.376 -0.221,-0.524c-0.147,-0.147 -0.322,-0.221 -0.524,-0.221l-1.489,0c-0.202,0 -0.377,0.074 -0.524,0.221c-0.148,0.148 -0.221,0.322 -0.221,0.524l0,6.705c0,0.201 0.073,0.376 0.221,0.523c0.147,0.148 0.322,0.222 0.524,0.222l1.489,0c0.202,0 0.377,-0.074 0.524,-0.222c0.148,-0.147 0.221,-0.322 0.221,-0.523Zm17.134,20.113l6.705,0l0,-7.449l-6.705,0l0,7.449Zm-8.939,-8.939l7.45,0l0,-6.705l-7.45,0l0,6.705Zm8.939,0l6.705,0l0,-6.705l-6.705,0l0,6.705Zm0.745,-11.174l0,-6.705c0,-0.202 -0.073,-0.376 -0.221,-0.524c-0.147,-0.147 -0.322,-0.221 -0.524,-0.221l-1.489,0c-0.202,0 -0.377,0.074 -0.524,0.221c-0.148,0.148 -0.221,0.322 -0.221,0.524l0,6.705c0,0.201 0.073,0.376 0.221,0.523c0.147,0.148 0.322,0.222 0.524,0.222l1.489,0c0.202,0 0.377,-0.074 0.524,-0.222c0.148,-0.147 0.221,-0.322 0.221,-0.523Zm8.94,-1.49l0,29.798c0,0.807 -0.295,1.505 -0.885,2.095c-0.589,0.59 -1.288,0.885 -2.095,0.885l-32.778,0c-0.807,0 -1.506,-0.295 -2.095,-0.885c-0.59,-0.59 -0.885,-1.288 -0.885,-2.095l0,-29.798c0,-0.807 0.295,-1.506 0.885,-2.096c0.589,-0.589 1.288,-0.884 2.095,-0.884l2.98,0l0,-2.235c0,-1.024 0.364,-1.901 1.094,-2.631c0.729,-0.729 1.606,-1.094 2.631,-1.094l1.489,0c1.025,0 1.902,0.365 2.631,1.094c0.73,0.73 1.094,1.607 1.094,2.631l0,2.235l8.94,0l0,-2.235c0,-1.024 0.364,-1.901 1.094,-2.631c0.729,-0.729 1.606,-1.094 2.631,-1.094l1.489,0c1.025,0 1.902,0.365 2.631,1.094c0.73,0.73 1.094,1.607 1.094,2.631l0,2.235l2.98,0c0.807,0 1.506,0.295 2.095,0.884c0.59,0.59 0.885,1.289 0.885,2.096l0,0Z" style="fill:#464646;fill-rule:nonzero;"/><path id="path3463.-6" d="M123.611,101.879l6.705,0l0,-6.705l-6.705,0l0,6.705Zm8.194,0l7.45,0l0,-6.705l-7.45,0l0,6.705Zm-8.194,-8.195l6.705,0l0,-7.449l-6.705,0l0,7.449Zm8.194,0l7.45,0l0,-7.449l-7.45,0l0,7.449Zm-8.194,-8.939l6.705,0l0,-6.705l-6.705,0l0,6.705Zm17.134,17.134l7.45,0l0,-6.705l-7.45,0l0,6.705Zm-8.94,-17.134l7.45,0l0,-6.705l-7.45,0l0,6.705Zm17.879,17.134l6.705,0l0,-6.705l-6.705,0l0,6.705Zm-8.939,-8.195l7.45,0l0,-7.449l-7.45,0l0,7.449Zm-8.195,-20.113l0,-6.705c0,-0.202 -0.073,-0.376 -0.221,-0.524c-0.147,-0.147 -0.322,-0.221 -0.524,-0.221l-1.489,0c-0.202,0 -0.377,0.074 -0.524,0.221c-0.148,0.148 -0.221,0.322 -0.221,0.524l0,6.705c0,0.201 0.073,0.376 0.221,0.523c0.147,0.148 0.322,0.222 0.524,0.222l1.489,0c0.202,0 0.377,-0.074 0.524,-0.222c0.148,-0.147 0.221,-0.322 0.221,-0.523Zm17.134,20.113l6.705,0l0,-7.449l-6.705,0l0,7.449Zm-8.939,-8.939l7.45,0l0,-6.705l-7.45,0l0,6.705Zm8.939,0l6.705,0l0,-6.705l-6.705,0l0,6.705Zm0.745,-11.174l0,-6.705c0,-0.202 -0.073,-0.376 -0.221,-0.524c-0.147,-0.147 -0.322,-0.221 -0.524,-0.221l-1.489,0c-0.202,0 -0.377,0.074 -0.524,0.221c-0.148,0.148 -0.221,0.322 -0.221,0.524l0,6.705c0,0.201 0.073,0.376 0.221,0.523c0.147,0.148 0.322,0.222 0.524,0.222l1.489,0c0.202,0 0.377,-0.074 0.524,-0.222c0.148,-0.147 0.221,-0.322 0.221,-0.523Zm8.94,-1.49l0,29.798c0,0.807 -0.295,1.505 -0.885,2.095c-0.589,0.59 -1.288,0.885 -2.095,0.885l-32.778,0c-0.807,0 -1.506,-0.295 -2.095,-0.885c-0.59,-0.59 -0.885,-1.288 -0.885,-2.095l0,-29.798c0,-0.807 0.295,-1.506 0.885,-2.096c0.589,-0.589 1.288,-0.884 2.095,-0.884l2.98,0l0,-2.235c0,-1.024 0.364,-1.901 1.094,-2.631c0.729,-0.729 1.606,-1.094 2.631,-1.094l1.489,0c1.025,0 1.902,0.365 2.631,1.094c0.73,0.73 1.094,1.607 1.094,2.631l0,2.235l8.94,0l0,-2.235c0,-1.024 0.364,-1.901 1.094,-2.631c0.729,-0.729 1.606,-1.094 2.631,-1.094l1.489,0c1.025,0 1.902,0.365 2.631,1.094c0.73,0.73 1.094,1.607 1.094,2.631l0,2.235l2.98,0c0.807,0 1.506,0.295 2.095,0.884c0.59,0.59 0.885,1.289 0.885,2.096l0,0Z" style="fill:#0055a4;fill-rule:nonzero;"/><path id="rect3490" d="M69.672,63.141c-3.324,0 -6,2.676 -6,6l0,29.718c0,3.324 2.676,6 6,6l28.656,0c3.324,0 6,-2.676 6,-6l0,-29.718c0,-3.324 -2.676,-6 -6,-6l-28.656,0l0,0Zm14.812,10.156c1.875,0 3.389,0.531 4.532,1.625c1.142,1.084 1.718,2.406 1.718,3.969c0,0.996 -0.254,1.882 -0.781,2.625c-0.517,0.732 -1.31,1.287 -2.375,1.687c1.318,0.43 2.317,1.137 3,2.094c0.693,0.957 1.031,2.078 1.031,3.406c0,1.836 -0.638,3.406 -1.937,4.656c-1.299,1.25 -3.006,1.875 -5.125,1.875c-2.119,0 -3.826,-0.625 -5.125,-1.875c-1.299,-1.259 -1.969,-2.843 -1.969,-4.718c0,-1.397 0.359,-2.563 1.063,-3.5c0.713,-0.948 1.722,-1.596 3.031,-1.938c-1.094,-0.4 -1.91,-0.976 -2.438,-1.719c-0.527,-0.742 -0.781,-1.621 -0.781,-2.656c0,-1.562 0.565,-2.873 1.688,-3.937c1.123,-1.065 2.603,-1.594 4.468,-1.594Zm0.032,2.156c-1.006,0 -1.836,0.324 -2.5,0.969c-0.664,0.644 -1,1.414 -1,2.312c0,1.016 0.345,1.856 1,2.5c0.654,0.645 1.486,0.969 2.531,0.969c1.015,0 1.855,-0.334 2.5,-0.969c0.654,-0.644 0.969,-1.416 0.969,-2.343c0,-0.967 -0.327,-1.784 -1,-2.438c-0.664,-0.664 -1.504,-1 -2.5,-1Zm-0.032,8.906c-1.24,0 -2.273,0.399 -3.093,1.219c-0.811,0.82 -1.219,1.863 -1.219,3.094c0,0.752 0.18,1.453 0.531,2.156c0.361,0.703 0.891,1.266 1.594,1.656c0.703,0.381 1.471,0.563 2.281,0.563c1.26,0 2.274,-0.408 3.094,-1.219c0.82,-0.81 1.25,-1.844 1.25,-3.094c0,-1.269 -0.432,-2.295 -1.281,-3.125c-0.84,-0.83 -1.887,-1.25 -3.157,-1.25Z" style="fill:#0055a4;fill-rule:nonzero;"/><path id="path3201.-4.-3" d="M187.611,140c-2.469,0.076 -4.488,1.051 -6.057,2.926l-3.063,0c-1.25,0 -2.301,-0.309 -3.155,-0.926c-0.853,-0.617 -1.28,-1.52 -1.28,-2.709c0,-5.379 0.945,-8.068 2.835,-8.068c0.091,0 0.423,0.16 0.994,0.48c0.572,0.32 1.314,0.643 2.229,0.971c0.914,0.328 1.821,0.491 2.72,0.491c1.021,0 2.034,-0.175 3.04,-0.525c-0.076,0.564 -0.114,1.066 -0.114,1.508c0,2.119 0.617,4.069 1.851,5.852l0,0Zm24.481,14.56c0,1.829 -0.556,3.273 -1.669,4.332c-1.112,1.059 -2.59,1.589 -4.434,1.589l-19.978,0c-1.844,0 -3.322,-0.53 -4.434,-1.589c-1.113,-1.059 -1.669,-2.503 -1.669,-4.332c0,-0.807 0.027,-1.596 0.08,-2.365c0.053,-0.77 0.16,-1.6 0.32,-2.492c0.16,-0.891 0.362,-1.718 0.606,-2.48c0.244,-0.762 0.571,-1.505 0.983,-2.229c0.411,-0.723 0.883,-1.341 1.417,-1.851c0.533,-0.511 1.185,-0.918 1.954,-1.223c0.77,-0.305 1.619,-0.457 2.549,-0.457c0.152,0 0.48,0.164 0.983,0.491c0.503,0.328 1.059,0.694 1.668,1.098c0.61,0.403 1.425,0.769 2.446,1.097c1.021,0.327 2.05,0.491 3.086,0.491c1.036,0 2.065,-0.164 3.086,-0.491c1.021,-0.328 1.836,-0.694 2.446,-1.097c0.609,-0.404 1.165,-0.77 1.668,-1.098c0.503,-0.327 0.831,-0.491 0.983,-0.491c0.93,0 1.779,0.152 2.549,0.457c0.769,0.305 1.421,0.712 1.954,1.223c0.533,0.51 1.006,1.128 1.417,1.851c0.412,0.724 0.739,1.467 0.983,2.229c0.244,0.762 0.446,1.589 0.606,2.48c0.16,0.892 0.267,1.722 0.32,2.492c0.053,0.769 0.08,1.558 0.08,2.365l0,0Zm-23.407,-29.189c0,1.615 -0.571,2.994 -1.714,4.137c-1.143,1.143 -2.522,1.715 -4.137,1.715c-1.615,0 -2.995,-0.572 -4.137,-1.715c-1.143,-1.143 -1.715,-2.522 -1.715,-4.137c0,-1.615 0.572,-2.994 1.715,-4.137c1.142,-1.143 2.522,-1.715 4.137,-1.715c1.615,0 2.994,0.572 4.137,1.715c1.143,1.143 1.714,2.522 1.714,4.137l0,0Zm16.092,8.777c0,2.423 -0.857,4.492 -2.571,6.206c-1.714,1.715 -3.783,2.572 -6.206,2.572c-2.423,0 -4.492,-0.857 -6.206,-2.572c-1.714,-1.714 -2.571,-3.783 -2.571,-6.206c0,-2.423 0.857,-4.491 2.571,-6.206c1.714,-1.714 3.783,-2.571 6.206,-2.571c2.423,0 4.492,0.857 6.206,2.571c1.714,1.715 2.571,3.783 2.571,6.206Zm13.167,5.143c0,1.189 -0.427,2.092 -1.28,2.709c-0.854,0.617 -1.905,0.926 -3.155,0.926l-3.063,0c-1.569,-1.875 -3.589,-2.85 -6.057,-2.926c1.234,-1.783 1.851,-3.733 1.851,-5.852c0,-0.442 -0.038,-0.944 -0.114,-1.508c1.006,0.35 2.019,0.525 3.04,0.525c0.899,0 1.806,-0.163 2.72,-0.491c0.915,-0.328 1.657,-0.651 2.229,-0.971c0.571,-0.32 0.903,-0.48 0.994,-0.48c1.89,0 2.835,2.689 2.835,8.068l0,0Zm-2.926,-13.92c0,1.615 -0.572,2.994 -1.715,4.137c-1.143,1.143 -2.522,1.715 -4.137,1.715c-1.615,0 -2.994,-0.572 -4.137,-1.715c-1.143,-1.143 -1.715,-2.522 -1.715,-4.137c0,-1.615 0.572,-2.994 1.715,-4.137c1.143,-1.143 2.522,-1.715 4.137,-1.715c1.615,0 2.994,0.572 4.137,1.715c1.143,1.143 1.715,2.522 1.715,4.137l0,0Z" style="fill:#fff;fill-rule:nonzero;"/><path id="path3282.-8.-7" d="M330.999,142.938c0,0.505 -0.253,1.044 -0.759,1.615l-8.225,9.694c-0.702,0.833 -1.685,1.538 -2.95,2.118c-1.265,0.579 -2.436,0.869 -3.513,0.869l-26.634,0c-0.555,0 -1.049,-0.106 -1.481,-0.319c-0.432,-0.212 -0.649,-0.563 -0.649,-1.052c0,-0.506 0.253,-1.045 0.759,-1.616l8.225,-9.694c0.702,-0.832 1.685,-1.538 2.95,-2.117c1.265,-0.58 2.436,-0.869 3.513,-0.869l26.634,0c0.555,0 1.049,0.106 1.481,0.318c0.433,0.212 0.649,0.563 0.649,1.053l0,0Zm-8.397,-8.421l0,3.916l-20.367,0c-1.534,0 -3.142,0.388 -4.822,1.163c-1.681,0.775 -3.02,1.75 -4.015,2.925l-8.25,9.694l-0.122,0.147c0,-0.065 -0.004,-0.167 -0.012,-0.306c-0.009,-0.138 -0.013,-0.24 -0.013,-0.306l0,-23.5c0,-1.502 0.539,-2.791 1.616,-3.868c1.077,-1.077 2.366,-1.616 3.868,-1.616l7.833,0c1.502,0 2.791,0.539 3.868,1.616c1.077,1.077 1.616,2.366 1.616,3.868l0,0.783l13.317,0c1.501,0 2.79,0.539 3.867,1.616c1.078,1.077 1.616,2.366 1.616,3.868l0,0Z" style="fill:#fff;fill-rule:nonzero;"/><path id="path3349.-6.-0" d="M268.184,142.751l0,8.928c0,2.227 -0.79,4.131 -2.372,5.712c-1.581,1.582 -3.486,2.373 -5.713,2.373l-23.357,0c-2.227,0 -4.131,-0.791 -5.713,-2.373c-1.581,-1.581 -2.372,-3.485 -2.372,-5.712l0,-23.358c0,-2.227 0.791,-4.131 2.372,-5.712c1.582,-1.582 3.486,-2.373 5.713,-2.373l23.357,0c1.179,0 2.274,0.234 3.285,0.702c0.281,0.131 0.449,0.346 0.505,0.646c0.056,0.318 -0.028,0.589 -0.253,0.814l-1.375,1.376c-0.187,0.187 -0.403,0.28 -0.646,0.28c-0.056,0 -0.14,-0.018 -0.253,-0.056c-0.43,-0.112 -0.851,-0.168 -1.263,-0.168l-23.357,0c-1.235,0 -2.293,0.439 -3.172,1.319c-0.88,0.88 -1.32,1.937 -1.32,3.172l0,23.357c0,1.236 0.44,2.293 1.32,3.173c0.879,0.879 1.937,1.319 3.172,1.319l23.357,0c1.235,0 2.293,-0.44 3.172,-1.319c0.88,-0.88 1.32,-1.937 1.32,-3.173l0,-7.13c0,-0.243 0.084,-0.449 0.253,-0.618l1.796,-1.796c0.187,-0.188 0.403,-0.281 0.646,-0.281c0.112,0 0.225,0.028 0.337,0.084c0.374,0.15 0.561,0.421 0.561,0.814l0,0Zm6.485,-13.728l-22.851,22.852c-0.45,0.449 -0.983,0.674 -1.601,0.674c-0.617,0 -1.151,-0.225 -1.6,-0.674l-12.071,-12.072c-0.45,-0.449 -0.674,-0.982 -0.674,-1.6c0,-0.617 0.224,-1.151 0.674,-1.6l3.088,-3.088c0.449,-0.449 0.982,-0.674 1.6,-0.674c0.617,0 1.151,0.225 1.6,0.674l7.383,7.383l18.164,-18.163c0.449,-0.449 0.982,-0.674 1.6,-0.674c0.618,0 1.151,0.225 1.6,0.674l3.088,3.088c0.449,0.449 0.674,0.982 0.674,1.6c0,0.618 -0.225,1.151 -0.674,1.6Z" style="fill:#fff;fill-rule:nonzero;"/><path id="path3415.-1.-0" d="M13.493,145.44c0,-1.001 -0.354,-1.856 -1.062,-2.564c-0.708,-0.709 -1.563,-1.063 -2.564,-1.063c-1.001,0 -1.856,0.354 -2.564,1.063c-0.709,0.708 -1.063,1.563 -1.063,2.564c0,1.001 0.354,1.856 1.063,2.564c0.708,0.708 1.563,1.063 2.564,1.063c1.001,0 1.856,-0.355 2.564,-1.063c0.708,-0.708 1.062,-1.563 1.062,-2.564Zm5.44,-12.693c0,-1.001 -0.354,-1.856 -1.062,-2.564c-0.708,-0.709 -1.563,-1.063 -2.564,-1.063c-1.001,0 -1.856,0.354 -2.564,1.063c-0.709,0.708 -1.063,1.563 -1.063,2.564c0,1.001 0.354,1.856 1.063,2.564c0.708,0.708 1.563,1.062 2.564,1.062c1.001,0 1.856,-0.354 2.564,-1.062c0.708,-0.708 1.062,-1.563 1.062,-2.564Zm12.127,13.628l2.862,-10.823c0.113,-0.491 0.042,-0.949 -0.213,-1.374c-0.255,-0.425 -0.618,-0.704 -1.091,-0.836c-0.472,-0.132 -0.925,-0.071 -1.36,0.184c-0.434,0.255 -0.717,0.628 -0.85,1.119l-2.861,10.823c-1.134,0.095 -2.144,0.506 -3.032,1.233c-0.888,0.727 -1.483,1.657 -1.785,2.791c-0.378,1.454 -0.189,2.833 0.567,4.136c0.755,1.303 1.86,2.144 3.315,2.522c1.454,0.378 2.833,0.189 4.136,-0.567c1.304,-0.755 2.144,-1.86 2.522,-3.315c0.302,-1.133 0.245,-2.238 -0.17,-3.315c-0.416,-1.076 -1.096,-1.936 -2.04,-2.578l0,0Zm18.7,-0.935c0,-1.001 -0.354,-1.856 -1.063,-2.564c-0.708,-0.709 -1.563,-1.063 -2.564,-1.063c-1.001,0 -1.856,0.354 -2.564,1.063c-0.708,0.708 -1.062,1.563 -1.062,2.564c0,1.001 0.354,1.856 1.062,2.564c0.708,0.708 1.563,1.063 2.564,1.063c1.001,0 1.856,-0.355 2.564,-1.063c0.709,-0.708 1.063,-1.563 1.063,-2.564Zm-18.133,-18.133c0,-1.001 -0.355,-1.856 -1.063,-2.564c-0.708,-0.709 -1.563,-1.063 -2.564,-1.063c-1.001,0 -1.856,0.354 -2.564,1.063c-0.708,0.708 -1.063,1.563 -1.063,2.564c0,1.001 0.355,1.856 1.063,2.564c0.708,0.708 1.563,1.062 2.564,1.062c1.001,0 1.856,-0.354 2.564,-1.062c0.708,-0.708 1.063,-1.563 1.063,-2.564l0,0Zm12.693,5.44c0,-1.001 -0.354,-1.856 -1.063,-2.564c-0.708,-0.709 -1.563,-1.063 -2.564,-1.063c-1.001,0 -1.856,0.354 -2.564,1.063c-0.708,0.708 -1.062,1.563 -1.062,2.564c0,1.001 0.354,1.856 1.062,2.564c0.708,0.708 1.563,1.062 2.564,1.062c1.001,0 1.856,-0.354 2.564,-1.062c0.709,-0.708 1.063,-1.563 1.063,-2.564Zm9.066,12.693c0,4.93 -1.331,9.491 -3.995,13.685c-0.358,0.548 -0.868,0.821 -1.53,0.821l-39.722,0c-0.662,0 -1.172,-0.273 -1.53,-0.821c-2.664,-4.175 -3.995,-8.736 -3.995,-13.685c0,-3.438 0.67,-6.724 2.011,-9.86c1.341,-3.135 3.145,-5.837 5.412,-8.103c2.267,-2.267 4.968,-4.071 8.103,-5.412c3.136,-1.341 6.422,-2.011 9.86,-2.011c3.438,0 6.724,0.67 9.86,2.011c3.135,1.341 5.836,3.145 8.103,5.412c2.267,2.266 4.071,4.968 5.412,8.103c1.341,3.136 2.011,6.422 2.011,9.86l0,0Z" style="fill:#fff;fill-rule:nonzero;"/><path id="path3463.-6.-3" d="M123.611,157.879l6.705,0l0,-6.705l-6.705,0l0,6.705Zm8.194,0l7.45,0l0,-6.705l-7.45,0l0,6.705Zm-8.194,-8.195l6.705,0l0,-7.449l-6.705,0l0,7.449l0,0Zm8.194,0l7.45,0l0,-7.449l-7.45,0l0,7.449Zm-8.194,-8.939l6.705,0l0,-6.705l-6.705,0l0,6.705l0,0Zm17.134,17.134l7.45,0l0,-6.705l-7.45,0l0,6.705Zm-8.94,-17.134l7.45,0l0,-6.705l-7.45,0l0,6.705Zm17.879,17.134l6.705,0l0,-6.705l-6.705,0l0,6.705Zm-8.939,-8.195l7.45,0l0,-7.449l-7.45,0l0,7.449Zm-8.195,-20.113l0,-6.705c0,-0.202 -0.073,-0.376 -0.221,-0.524c-0.147,-0.147 -0.322,-0.221 -0.524,-0.221l-1.489,0c-0.202,0 -0.377,0.074 -0.524,0.221c-0.148,0.148 -0.221,0.322 -0.221,0.524l0,6.705c0,0.201 0.073,0.376 0.221,0.523c0.147,0.148 0.322,0.222 0.524,0.222l1.489,0c0.202,0 0.377,-0.074 0.524,-0.222c0.148,-0.147 0.221,-0.322 0.221,-0.523Zm17.134,20.113l6.705,0l0,-7.449l-6.705,0l0,7.449Zm-8.939,-8.939l7.45,0l0,-6.705l-7.45,0l0,6.705Zm8.939,0l6.705,0l0,-6.705l-6.705,0l0,6.705Zm0.745,-11.174l0,-6.705c0,-0.202 -0.073,-0.376 -0.221,-0.524c-0.147,-0.147 -0.322,-0.221 -0.524,-0.221l-1.489,0c-0.202,0 -0.377,0.074 -0.524,0.221c-0.148,0.148 -0.221,0.322 -0.221,0.524l0,6.705c0,0.201 0.073,0.376 0.221,0.523c0.147,0.148 0.322,0.222 0.524,0.222l1.489,0c0.202,0 0.377,-0.074 0.524,-0.222c0.148,-0.147 0.221,-0.322 0.221,-0.523Zm8.94,-1.49l0,29.798c0,0.807 -0.295,1.505 -0.885,2.095c-0.589,0.59 -1.288,0.885 -2.095,0.885l-32.778,0c-0.807,0 -1.506,-0.295 -2.095,-0.885c-0.59,-0.59 -0.885,-1.288 -0.885,-2.095l0,-29.798c0,-0.807 0.295,-1.506 0.885,-2.096c0.589,-0.589 1.288,-0.884 2.095,-0.884l2.98,0l0,-2.235c0,-1.024 0.364,-1.901 1.094,-2.631c0.729,-0.729 1.606,-1.094 2.631,-1.094l1.489,0c1.025,0 1.902,0.365 2.631,1.094c0.73,0.73 1.094,1.607 1.094,2.631l0,2.235l8.94,0l0,-2.235c0,-1.024 0.364,-1.901 1.094,-2.631c0.729,-0.729 1.606,-1.094 2.631,-1.094l1.489,0c1.025,0 1.902,0.365 2.631,1.094c0.73,0.73 1.094,1.607 1.094,2.631l0,2.235l2.98,0c0.807,0 1.506,0.295 2.095,0.884c0.59,0.59 0.885,1.289 0.885,2.096l0,0Z" style="fill:#fff;fill-rule:nonzero;"/><path id="rect3490.-1" d="M69.672,7.141c-3.324,0 -6,2.676 -6,6l0,29.718c0,3.324 2.676,6 6,6l28.656,0c3.324,0 6,-2.676 6,-6l0,-29.718c0,-3.324 -2.676,-6 -6,-6l-28.656,0Zm14.812,10.156c1.875,0 3.389,0.531 4.532,1.625c1.142,1.084 1.718,2.406 1.718,3.969c0,0.996 -0.254,1.882 -0.781,2.625c-0.517,0.732 -1.31,1.287 -2.375,1.687c1.318,0.43 2.317,1.137 3,2.094c0.693,0.957 1.031,2.078 1.031,3.406c0,1.836 -0.638,3.406 -1.937,4.656c-1.299,1.25 -3.006,1.875 -5.125,1.875c-2.119,0 -3.826,-0.625 -5.125,-1.875c-1.299,-1.259 -1.969,-2.843 -1.969,-4.718c0,-1.397 0.36,-2.563 1.063,-3.5c0.713,-0.948 1.722,-1.596 3.031,-1.938c-1.094,-0.4 -1.91,-0.976 -2.438,-1.719c-0.527,-0.742 -0.781,-1.621 -0.781,-2.656c0,-1.562 0.565,-2.873 1.688,-3.937c1.123,-1.065 2.603,-1.594 4.468,-1.594Zm0.032,2.156c-1.006,0 -1.836,0.324 -2.5,0.969c-0.664,0.644 -1,1.414 -1,2.312c0,1.016 0.345,1.856 1,2.5c0.654,0.645 1.486,0.969 2.531,0.969c1.015,0 1.855,-0.334 2.5,-0.969c0.654,-0.644 0.969,-1.416 0.969,-2.343c0,-0.967 -0.327,-1.784 -1,-2.438c-0.665,-0.664 -1.504,-1 -2.5,-1Zm-0.032,8.906c-1.24,0 -2.273,0.399 -3.093,1.219c-0.811,0.82 -1.219,1.863 -1.219,3.094c0,0.752 0.18,1.453 0.531,2.156c0.361,0.703 0.891,1.266 1.594,1.656c0.703,0.381 1.471,0.563 2.281,0.563c1.26,0 2.274,-0.408 3.094,-1.219c0.82,-0.81 1.25,-1.844 1.25,-3.094c0,-1.269 -0.432,-2.295 -1.281,-3.125c-0.84,-0.83 -1.887,-1.25 -3.157,-1.25Z" style="fill:#464646;fill-rule:nonzero;"/><path id="path3082" d="M367.397,40.74l0,-5.096c0,-0.247 -0.079,-0.451 -0.238,-0.61c-0.16,-0.159 -0.363,-0.239 -0.611,-0.239l-5.096,0c-0.248,0 -0.451,0.08 -0.611,0.239c-0.159,0.159 -0.238,0.363 -0.238,0.61l0,5.096c0,0.248 0.079,0.452 0.238,0.611c0.16,0.159 0.363,0.239 0.611,0.239l5.096,0c0.248,0 0.451,-0.08 0.611,-0.239c0.159,-0.159 0.238,-0.363 0.238,-0.611Zm6.795,-17.836c0,-1.557 -0.491,-2.999 -1.473,-4.327c-0.982,-1.327 -2.207,-2.353 -3.676,-3.079c-1.469,-0.725 -2.973,-1.088 -4.512,-1.088c-4.3,0 -7.582,1.885 -9.847,5.654c-0.266,0.424 -0.195,0.796 0.212,1.115l3.503,2.654c0.124,0.106 0.292,0.159 0.505,0.159c0.283,0 0.504,-0.106 0.663,-0.318c0.938,-1.204 1.699,-2.018 2.283,-2.442c0.602,-0.425 1.363,-0.637 2.283,-0.637c0.849,0 1.606,0.23 2.269,0.69c0.664,0.46 0.995,0.982 0.995,1.566c0,0.672 -0.177,1.212 -0.53,1.619c-0.354,0.407 -0.956,0.805 -1.805,1.194c-1.115,0.496 -2.137,1.261 -3.066,2.296c-0.929,1.035 -1.393,2.146 -1.393,3.331l0,0.956c0,0.248 0.079,0.451 0.238,0.61c0.16,0.16 0.363,0.239 0.611,0.239l5.096,0c0.248,0 0.451,-0.079 0.611,-0.239c0.159,-0.159 0.238,-0.362 0.238,-0.61c0,-0.336 0.191,-0.774 0.571,-1.314c0.381,-0.54 0.863,-0.978 1.447,-1.314c0.566,-0.318 0.999,-0.571 1.3,-0.756c0.301,-0.186 0.708,-0.496 1.221,-0.929c0.513,-0.434 0.907,-0.859 1.181,-1.274c0.275,-0.416 0.522,-0.952 0.744,-1.606c0.221,-0.655 0.331,-1.372 0.331,-2.15l0,0Zm10.193,5.096c0,3.698 -0.912,7.109 -2.734,10.232c-1.823,3.123 -4.296,5.596 -7.419,7.419c-3.123,1.822 -6.534,2.734 -10.232,2.734c-3.698,0 -7.109,-0.912 -10.232,-2.734c-3.123,-1.823 -5.596,-4.296 -7.419,-7.419c-1.822,-3.123 -2.734,-6.534 -2.734,-10.232c0,-3.698 0.912,-7.109 2.734,-10.232c1.823,-3.123 4.296,-5.596 7.419,-7.419c3.123,-1.822 6.534,-2.734 10.232,-2.734c3.698,0 7.109,0.912 10.232,2.734c3.123,1.823 5.596,4.296 7.419,7.419c1.822,3.123 2.734,6.534 2.734,10.232l0,0Z" style="fill:#464646;fill-rule:nonzero;"/><path id="path3082.-5" d="M367.397,96.74l0,-5.096c0,-0.247 -0.079,-0.451 -0.238,-0.61c-0.16,-0.159 -0.363,-0.239 -0.611,-0.239l-5.096,0c-0.248,0 -0.451,0.08 -0.611,0.239c-0.159,0.159 -0.238,0.363 -0.238,0.61l0,5.096c0,0.248 0.079,0.452 0.238,0.611c0.16,0.159 0.363,0.239 0.611,0.239l5.096,0c0.248,0 0.451,-0.08 0.611,-0.239c0.159,-0.159 0.238,-0.363 0.238,-0.611Zm6.795,-17.836c0,-1.557 -0.491,-2.999 -1.473,-4.327c-0.982,-1.327 -2.207,-2.353 -3.676,-3.079c-1.469,-0.725 -2.973,-1.088 -4.512,-1.088c-4.3,0 -7.582,1.885 -9.847,5.654c-0.266,0.424 -0.195,0.796 0.212,1.115l3.503,2.654c0.124,0.106 0.292,0.159 0.505,0.159c0.283,0 0.504,-0.106 0.663,-0.318c0.938,-1.204 1.699,-2.018 2.283,-2.442c0.602,-0.425 1.363,-0.637 2.283,-0.637c0.849,0 1.606,0.23 2.269,0.69c0.664,0.46 0.995,0.982 0.995,1.566c0,0.672 -0.177,1.212 -0.53,1.619c-0.354,0.407 -0.956,0.805 -1.805,1.194c-1.115,0.496 -2.137,1.261 -3.066,2.296c-0.929,1.035 -1.393,2.146 -1.393,3.331l0,0.956c0,0.248 0.079,0.451 0.238,0.61c0.16,0.16 0.363,0.239 0.611,0.239l5.096,0c0.248,0 0.451,-0.079 0.611,-0.239c0.159,-0.159 0.238,-0.362 0.238,-0.61c0,-0.336 0.191,-0.774 0.571,-1.314c0.381,-0.54 0.863,-0.978 1.447,-1.314c0.566,-0.318 0.999,-0.571 1.3,-0.756c0.301,-0.186 0.708,-0.496 1.221,-0.929c0.513,-0.434 0.907,-0.859 1.181,-1.274c0.275,-0.416 0.522,-0.952 0.744,-1.606c0.221,-0.655 0.331,-1.372 0.331,-2.15l0,0Zm10.193,5.096c0,3.698 -0.912,7.109 -2.734,10.232c-1.823,3.123 -4.296,5.596 -7.419,7.419c-3.123,1.822 -6.534,2.734 -10.232,2.734c-3.698,0 -7.109,-0.912 -10.232,-2.734c-3.123,-1.823 -5.596,-4.296 -7.419,-7.419c-1.822,-3.123 -2.734,-6.534 -2.734,-10.232c0,-3.698 0.912,-7.109 2.734,-10.232c1.823,-3.123 4.296,-5.596 7.419,-7.419c3.123,-1.822 6.534,-2.734 10.232,-2.734c3.698,0 7.109,0.912 10.232,2.734c3.123,1.823 5.596,4.296 7.419,7.419c1.822,3.123 2.734,6.534 2.734,10.232Z" style="fill:#0055a4;fill-rule:nonzero;"/><path id="path3082.-5.-5" d="M367.397,152.74l0,-5.096c0,-0.247 -0.079,-0.451 -0.238,-0.61c-0.16,-0.159 -0.363,-0.239 -0.611,-0.239l-5.096,0c-0.248,0 -0.451,0.08 -0.611,0.239c-0.159,0.159 -0.238,0.363 -0.238,0.61l0,5.096c0,0.248 0.079,0.452 0.238,0.611c0.16,0.159 0.363,0.239 0.611,0.239l5.096,0c0.248,0 0.451,-0.08 0.611,-0.239c0.159,-0.159 0.238,-0.363 0.238,-0.611Zm6.795,-17.836c0,-1.557 -0.491,-2.999 -1.473,-4.327c-0.982,-1.327 -2.207,-2.353 -3.676,-3.079c-1.469,-0.725 -2.973,-1.088 -4.512,-1.088c-4.3,0 -7.582,1.885 -9.847,5.654c-0.266,0.424 -0.195,0.796 0.212,1.115l3.503,2.654c0.124,0.106 0.292,0.159 0.505,0.159c0.283,0 0.504,-0.106 0.663,-0.318c0.938,-1.204 1.699,-2.018 2.283,-2.442c0.602,-0.425 1.363,-0.637 2.283,-0.637c0.849,0 1.606,0.23 2.269,0.69c0.664,0.46 0.995,0.982 0.995,1.566c0,0.672 -0.177,1.212 -0.53,1.619c-0.354,0.407 -0.956,0.805 -1.805,1.194c-1.115,0.496 -2.137,1.261 -3.066,2.296c-0.929,1.035 -1.393,2.146 -1.393,3.331l0,0.956c0,0.248 0.079,0.451 0.238,0.61c0.16,0.16 0.363,0.239 0.611,0.239l5.096,0c0.248,0 0.451,-0.079 0.611,-0.239c0.159,-0.159 0.238,-0.362 0.238,-0.61c0,-0.336 0.191,-0.774 0.571,-1.314c0.381,-0.54 0.863,-0.978 1.447,-1.314c0.566,-0.318 0.999,-0.571 1.3,-0.756c0.301,-0.186 0.708,-0.496 1.221,-0.929c0.513,-0.434 0.907,-0.859 1.181,-1.274c0.275,-0.416 0.522,-0.952 0.744,-1.606c0.221,-0.655 0.331,-1.372 0.331,-2.15l0,0Zm10.193,5.096c0,3.698 -0.912,7.109 -2.734,10.232c-1.823,3.123 -4.296,5.596 -7.419,7.419c-3.123,1.822 -6.534,2.734 -10.232,2.734c-3.698,0 -7.109,-0.912 -10.232,-2.734c-3.123,-1.823 -5.596,-4.296 -7.419,-7.419c-1.822,-3.123 -2.734,-6.534 -2.734,-10.232c0,-3.698 0.912,-7.109 2.734,-10.232c1.823,-3.123 4.296,-5.596 7.419,-7.419c3.123,-1.822 6.534,-2.734 10.232,-2.734c3.698,0 7.109,0.912 10.232,2.734c3.123,1.823 5.596,4.296 7.419,7.419c1.822,3.123 2.734,6.534 2.734,10.232Z" style="fill:#fff;fill-rule:nonzero;"/><path id="path3026" d="M407.731,45.528l24.538,0l0,-7.011l-24.538,0l0,7.011Zm0,-17.528l24.538,0l0,-10.517l-4.382,0c-0.73,0 -1.351,-0.255 -1.862,-0.766c-0.511,-0.512 -0.767,-1.132 -0.767,-1.863l0,-4.382l-17.527,0l0,17.528Zm31.549,1.753c0,-0.475 -0.173,-0.886 -0.52,-1.233c-0.347,-0.347 -0.758,-0.52 -1.232,-0.52c-0.475,0 -0.886,0.173 -1.233,0.52c-0.347,0.347 -0.52,0.758 -0.52,1.233c0,0.474 0.173,0.885 0.52,1.232c0.347,0.347 0.758,0.521 1.233,0.521c0.474,0 0.885,-0.174 1.232,-0.521c0.347,-0.347 0.52,-0.758 0.52,-1.232Zm3.506,0l0,11.393c0,0.237 -0.087,0.442 -0.26,0.616c-0.174,0.173 -0.379,0.26 -0.617,0.26l-6.134,0l0,4.382c0,0.73 -0.256,1.351 -0.767,1.862c-0.511,0.511 -1.132,0.767 -1.862,0.767l-26.292,0c-0.73,0 -1.351,-0.256 -1.862,-0.767c-0.511,-0.511 -0.767,-1.132 -0.767,-1.862l0,-4.382l-6.134,0c-0.238,0 -0.443,-0.087 -0.617,-0.26c-0.173,-0.174 -0.26,-0.379 -0.26,-0.616l0,-11.393c0,-1.443 0.516,-2.68 1.548,-3.711c1.031,-1.032 2.268,-1.548 3.71,-1.548l1.753,0l0,-14.898c0,-0.73 0.256,-1.351 0.767,-1.862c0.511,-0.511 1.132,-0.767 1.862,-0.767l18.404,0c0.731,0 1.534,0.182 2.41,0.548c0.877,0.365 1.57,0.803 2.082,1.314l4.162,4.163c0.512,0.511 0.95,1.205 1.315,2.081c0.365,0.877 0.548,1.68 0.548,2.41l0,7.011l1.753,0c1.442,0 2.679,0.516 3.71,1.548c1.032,1.031 1.548,2.268 1.548,3.711l0,0Z" style="fill:#464646;fill-rule:nonzero;"/><path id="path3026.-1" d="M407.731,101.528l24.538,0l0,-7.011l-24.538,0l0,7.011Zm0,-17.528l24.538,0l0,-10.517l-4.382,0c-0.73,0 -1.351,-0.255 -1.862,-0.766c-0.511,-0.512 -0.767,-1.132 -0.767,-1.863l0,-4.382l-17.527,0l0,17.528Zm31.549,1.753c0,-0.475 -0.173,-0.886 -0.52,-1.233c-0.347,-0.347 -0.758,-0.52 -1.232,-0.52c-0.475,0 -0.886,0.173 -1.233,0.52c-0.347,0.347 -0.52,0.758 -0.52,1.233c0,0.474 0.173,0.885 0.52,1.232c0.347,0.347 0.758,0.521 1.233,0.521c0.474,0 0.885,-0.174 1.232,-0.521c0.347,-0.347 0.52,-0.758 0.52,-1.232l0,0Zm3.506,0l0,11.393c0,0.237 -0.087,0.442 -0.26,0.616c-0.174,0.173 -0.379,0.26 -0.617,0.26l-6.134,0l0,4.382c0,0.73 -0.256,1.351 -0.767,1.862c-0.511,0.511 -1.132,0.767 -1.862,0.767l-26.292,0c-0.73,0 -1.351,-0.256 -1.862,-0.767c-0.511,-0.511 -0.767,-1.132 -0.767,-1.862l0,-4.382l-6.134,0c-0.238,0 -0.443,-0.087 -0.617,-0.26c-0.173,-0.174 -0.26,-0.379 -0.26,-0.616l0,-11.393c0,-1.443 0.516,-2.68 1.548,-3.711c1.031,-1.032 2.268,-1.548 3.71,-1.548l1.753,0l0,-14.898c0,-0.73 0.256,-1.351 0.767,-1.862c0.511,-0.511 1.132,-0.767 1.862,-0.767l18.404,0c0.731,0 1.534,0.182 2.41,0.548c0.877,0.365 1.57,0.803 2.082,1.314l4.162,4.163c0.512,0.511 0.95,1.205 1.315,2.081c0.365,0.877 0.548,1.68 0.548,2.41l0,7.011l1.753,0c1.442,0 2.679,0.516 3.71,1.548c1.032,1.031 1.548,2.268 1.548,3.711l0,0Z" style="fill:#0055a4;fill-rule:nonzero;"/><path id="path3026.-3" d="M407.731,157.528l24.538,0l0,-7.011l-24.538,0l0,7.011Zm0,-17.528l24.538,0l0,-10.517l-4.382,0c-0.73,0 -1.351,-0.255 -1.862,-0.766c-0.511,-0.512 -0.767,-1.132 -0.767,-1.863l0,-4.382l-17.527,0l0,17.528Zm31.549,1.753c0,-0.475 -0.173,-0.886 -0.52,-1.233c-0.347,-0.347 -0.758,-0.52 -1.232,-0.52c-0.475,0 -0.886,0.173 -1.233,0.52c-0.347,0.347 -0.52,0.758 -0.52,1.233c0,0.474 0.173,0.885 0.52,1.232c0.347,0.347 0.758,0.521 1.233,0.521c0.474,0 0.885,-0.174 1.232,-0.521c0.347,-0.347 0.52,-0.758 0.52,-1.232l0,0Zm3.506,0l0,11.393c0,0.237 -0.087,0.442 -0.26,0.616c-0.174,0.173 -0.379,0.26 -0.617,0.26l-6.134,0l0,4.382c0,0.73 -0.256,1.351 -0.767,1.862c-0.511,0.511 -1.132,0.767 -1.862,0.767l-26.292,0c-0.73,0 -1.351,-0.256 -1.862,-0.767c-0.511,-0.511 -0.767,-1.132 -0.767,-1.862l0,-4.382l-6.134,0c-0.238,0 -0.443,-0.087 -0.617,-0.26c-0.173,-0.174 -0.26,-0.379 -0.26,-0.616l0,-11.393c0,-1.443 0.516,-2.68 1.548,-3.711c1.031,-1.032 2.268,-1.548 3.71,-1.548l1.753,0l0,-14.898c0,-0.73 0.256,-1.351 0.767,-1.862c0.511,-0.511 1.132,-0.767 1.862,-0.767l18.404,0c0.731,0 1.534,0.183 2.41,0.548c0.877,0.365 1.57,0.803 2.082,1.314l4.162,4.163c0.512,0.511 0.95,1.205 1.315,2.081c0.365,0.877 0.548,1.68 0.548,2.41l0,7.011l1.753,0c1.442,0 2.679,0.516 3.71,1.548c1.032,1.031 1.548,2.268 1.548,3.711l0,0Z" style="fill:#fff;fill-rule:nonzero;"/><path id="path3066" d="M482.824,40.796l0,-4.266c0,-0.248 -0.08,-0.453 -0.24,-0.613c-0.16,-0.16 -0.364,-0.24 -0.613,-0.24l-2.559,0l0,-13.648c0,-0.249 -0.08,-0.453 -0.24,-0.613c-0.16,-0.16 -0.364,-0.24 -0.613,-0.24l-8.53,0c-0.249,0 -0.453,0.08 -0.613,0.24c-0.16,0.16 -0.24,0.364 -0.24,0.613l0,4.265c0,0.249 0.08,0.453 0.24,0.613c0.16,0.16 0.364,0.24 0.613,0.24l2.559,0l0,8.53l-2.559,0c-0.249,0 -0.453,0.08 -0.613,0.24c-0.16,0.16 -0.24,0.365 -0.24,0.613l0,4.266c0,0.248 0.08,0.453 0.24,0.613c0.16,0.16 0.364,0.24 0.613,0.24l11.942,0c0.249,0 0.453,-0.08 0.613,-0.24c0.16,-0.16 0.24,-0.365 0.24,-0.613l0,0Zm-3.412,-23.886l0,-4.265c0,-0.249 -0.08,-0.453 -0.24,-0.613c-0.16,-0.16 -0.364,-0.24 -0.613,-0.24l-5.118,0c-0.249,0 -0.453,0.08 -0.613,0.24c-0.16,0.16 -0.24,0.364 -0.24,0.613l0,4.265c0,0.249 0.08,0.454 0.24,0.614c0.16,0.16 0.364,0.239 0.613,0.239l5.118,0c0.249,0 0.453,-0.079 0.613,-0.239c0.16,-0.16 0.24,-0.365 0.24,-0.614Zm17.061,11.09c0,3.714 -0.915,7.14 -2.746,10.276c-1.83,3.137 -4.314,5.621 -7.451,7.451c-3.136,1.831 -6.562,2.746 -10.276,2.746c-3.714,0 -7.14,-0.915 -10.276,-2.746c-3.137,-1.83 -5.621,-4.314 -7.451,-7.451c-1.831,-3.136 -2.746,-6.562 -2.746,-10.276c0,-3.714 0.915,-7.14 2.746,-10.277c1.83,-3.136 4.314,-5.62 7.451,-7.45c3.136,-1.831 6.562,-2.746 10.276,-2.746c3.714,0 7.14,0.915 10.276,2.746c3.137,1.83 5.621,4.314 7.451,7.45c1.831,3.137 2.746,6.563 2.746,10.277l0,0Z" style="fill:#464646;fill-rule:nonzero;"/><path id="path3066.-6" d="M482.824,96.796l0,-4.266c0,-0.248 -0.08,-0.453 -0.24,-0.613c-0.16,-0.16 -0.364,-0.24 -0.613,-0.24l-2.559,0l0,-13.648c0,-0.249 -0.08,-0.453 -0.24,-0.613c-0.16,-0.16 -0.364,-0.24 -0.613,-0.24l-8.53,0c-0.249,0 -0.453,0.08 -0.613,0.24c-0.16,0.16 -0.24,0.364 -0.24,0.613l0,4.265c0,0.249 0.08,0.453 0.24,0.613c0.16,0.16 0.364,0.24 0.613,0.24l2.559,0l0,8.53l-2.559,0c-0.249,0 -0.453,0.08 -0.613,0.24c-0.16,0.16 -0.24,0.365 -0.24,0.613l0,4.266c0,0.248 0.08,0.453 0.24,0.613c0.16,0.16 0.364,0.24 0.613,0.24l11.942,0c0.249,0 0.453,-0.08 0.613,-0.24c0.16,-0.16 0.24,-0.365 0.24,-0.613Zm-3.412,-23.886l0,-4.265c0,-0.249 -0.08,-0.453 -0.24,-0.613c-0.16,-0.16 -0.364,-0.24 -0.613,-0.24l-5.118,0c-0.249,0 -0.453,0.08 -0.613,0.24c-0.16,0.16 -0.24,0.364 -0.24,0.613l0,4.265c0,0.249 0.08,0.454 0.24,0.614c0.16,0.159 0.364,0.239 0.613,0.239l5.118,0c0.249,0 0.453,-0.08 0.613,-0.239c0.16,-0.16 0.24,-0.365 0.24,-0.614Zm17.061,11.09c0,3.714 -0.915,7.14 -2.746,10.276c-1.83,3.137 -4.314,5.621 -7.451,7.451c-3.136,1.831 -6.562,2.746 -10.276,2.746c-3.714,0 -7.14,-0.915 -10.276,-2.746c-3.137,-1.83 -5.621,-4.314 -7.451,-7.451c-1.831,-3.136 -2.746,-6.562 -2.746,-10.276c0,-3.714 0.915,-7.14 2.746,-10.277c1.83,-3.136 4.314,-5.62 7.451,-7.45c3.136,-1.831 6.562,-2.746 10.276,-2.746c3.714,0 7.14,0.915 10.276,2.746c3.137,1.83 5.621,4.314 7.451,7.45c1.831,3.137 2.746,6.563 2.746,10.277l0,0Z" style="fill:#0055a4;fill-rule:nonzero;"/><path id="path3066.-6.-0" d="M482.824,152.796l0,-4.266c0,-0.248 -0.08,-0.453 -0.24,-0.613c-0.16,-0.16 -0.364,-0.24 -0.613,-0.24l-2.559,0l0,-13.648c0,-0.249 -0.08,-0.453 -0.24,-0.613c-0.16,-0.16 -0.364,-0.24 -0.613,-0.24l-8.53,0c-0.249,0 -0.453,0.08 -0.613,0.24c-0.16,0.16 -0.24,0.364 -0.24,0.613l0,4.265c0,0.249 0.08,0.453 0.24,0.613c0.16,0.16 0.364,0.24 0.613,0.24l2.559,0l0,8.53l-2.559,0c-0.249,0 -0.453,0.08 -0.613,0.24c-0.16,0.16 -0.24,0.365 -0.24,0.613l0,4.266c0,0.248 0.08,0.453 0.24,0.613c0.16,0.16 0.364,0.24 0.613,0.24l11.942,0c0.249,0 0.453,-0.08 0.613,-0.24c0.16,-0.16 0.24,-0.365 0.24,-0.613l0,0Zm-3.412,-23.886l0,-4.265c0,-0.249 -0.08,-0.453 -0.24,-0.613c-0.16,-0.16 -0.364,-0.24 -0.613,-0.24l-5.118,0c-0.249,0 -0.453,0.08 -0.613,0.24c-0.16,0.16 -0.24,0.364 -0.24,0.613l0,4.265c0,0.249 0.08,0.454 0.24,0.614c0.16,0.159 0.364,0.239 0.613,0.239l5.118,0c0.249,0 0.453,-0.08 0.613,-0.239c0.16,-0.16 0.24,-0.365 0.24,-0.614Zm17.061,11.09c0,3.714 -0.915,7.14 -2.746,10.276c-1.83,3.137 -4.314,5.621 -7.451,7.451c-3.136,1.831 -6.562,2.746 -10.276,2.746c-3.714,0 -7.14,-0.915 -10.276,-2.746c-3.137,-1.83 -5.621,-4.314 -7.451,-7.451c-1.831,-3.136 -2.746,-6.562 -2.746,-10.276c0,-3.714 0.915,-7.14 2.746,-10.277c1.83,-3.136 4.314,-5.62 7.451,-7.45c3.136,-1.831 6.562,-2.746 10.276,-2.746c3.714,0 7.14,0.915 10.276,2.746c3.137,1.83 5.621,4.314 7.451,7.45c1.831,3.137 2.746,6.563 2.746,10.277Z" style="fill:#fff;fill-rule:nonzero;"/><path id="path3143" d="M532.401,48.036c0,-0.267 -0.134,-0.401 -0.401,-0.401c-0.985,0 -1.832,-0.355 -2.542,-1.064c-0.71,-0.71 -1.064,-1.557 -1.064,-2.542c0,-0.268 -0.134,-0.401 -0.401,-0.401c-0.267,0 -0.401,0.133 -0.401,0.401c0,1.218 0.43,2.258 1.29,3.118c0.86,0.86 1.899,1.289 3.118,1.289c0.267,0 0.401,-0.133 0.401,-0.4l0,0Zm20.436,-7.213c0,0.868 -0.317,1.619 -0.952,2.254c-0.634,0.634 -1.385,0.952 -2.254,0.952l-11.22,0c0,1.769 -0.626,3.28 -1.878,4.533c-1.252,1.252 -2.763,1.878 -4.533,1.878c-1.77,0 -3.281,-0.626 -4.533,-1.878c-1.252,-1.253 -1.878,-2.764 -1.878,-4.533l-11.22,0c-0.869,0 -1.62,-0.318 -2.255,-0.952c-0.634,-0.635 -0.951,-1.386 -0.951,-2.254c0.835,-0.701 1.594,-1.436 2.279,-2.204c0.684,-0.768 1.394,-1.766 2.129,-2.993c0.734,-1.227 1.356,-2.55 1.865,-3.969c0.51,-1.42 0.927,-3.139 1.253,-5.16c0.325,-2.02 0.488,-4.19 0.488,-6.511c0,-2.538 0.977,-4.897 2.93,-7.075c1.954,-2.179 4.517,-3.503 7.689,-3.97c-0.134,-0.317 -0.2,-0.643 -0.2,-0.977c0,-0.668 0.233,-1.235 0.701,-1.703c0.467,-0.467 1.035,-0.701 1.703,-0.701c0.668,0 1.236,0.234 1.703,0.701c0.468,0.468 0.701,1.035 0.701,1.703c0,0.334 -0.067,0.66 -0.2,0.977c3.172,0.467 5.735,1.791 7.689,3.97c1.953,2.178 2.93,4.537 2.93,7.075c0,2.321 0.163,4.491 0.488,6.511c0.326,2.021 0.743,3.74 1.252,5.16c0.51,1.419 1.132,2.742 1.866,3.969c0.735,1.227 1.445,2.225 2.129,2.993c0.685,0.768 1.444,1.503 2.279,2.204l0,0Z" style="fill:#464646;fill-rule:nonzero;"/><path id="path3143.-5" d="M532.401,104.036c0,-0.267 -0.134,-0.401 -0.401,-0.401c-0.985,0 -1.832,-0.355 -2.542,-1.064c-0.71,-0.71 -1.064,-1.557 -1.064,-2.542c0,-0.268 -0.134,-0.401 -0.401,-0.401c-0.267,0 -0.401,0.133 -0.401,0.401c0,1.218 0.43,2.258 1.29,3.118c0.86,0.86 1.899,1.289 3.118,1.289c0.267,0 0.401,-0.133 0.401,-0.4l0,0Zm20.436,-7.213c0,0.868 -0.317,1.619 -0.952,2.254c-0.634,0.634 -1.385,0.952 -2.254,0.952l-11.22,0c0,1.769 -0.626,3.28 -1.878,4.533c-1.252,1.252 -2.763,1.878 -4.533,1.878c-1.77,0 -3.281,-0.626 -4.533,-1.878c-1.252,-1.253 -1.878,-2.764 -1.878,-4.533l-11.22,0c-0.869,0 -1.62,-0.318 -2.255,-0.952c-0.634,-0.635 -0.951,-1.386 -0.951,-2.254c0.835,-0.701 1.594,-1.436 2.279,-2.204c0.684,-0.768 1.394,-1.766 2.129,-2.993c0.734,-1.227 1.356,-2.55 1.865,-3.969c0.51,-1.42 0.927,-3.139 1.253,-5.16c0.325,-2.02 0.488,-4.19 0.488,-6.511c0,-2.538 0.977,-4.897 2.93,-7.075c1.954,-2.179 4.517,-3.503 7.689,-3.97c-0.134,-0.317 -0.2,-0.643 -0.2,-0.977c0,-0.668 0.233,-1.235 0.701,-1.703c0.467,-0.467 1.035,-0.701 1.703,-0.701c0.668,0 1.236,0.234 1.703,0.701c0.468,0.468 0.701,1.035 0.701,1.703c0,0.334 -0.067,0.66 -0.2,0.977c3.172,0.467 5.735,1.791 7.689,3.97c1.953,2.178 2.93,4.537 2.93,7.075c0,2.321 0.163,4.491 0.488,6.511c0.326,2.021 0.743,3.74 1.252,5.16c0.51,1.419 1.132,2.742 1.866,3.969c0.735,1.227 1.445,2.225 2.129,2.993c0.685,0.768 1.444,1.503 2.279,2.204l0,0Z" style="fill:#0055a4;fill-rule:nonzero;"/><path id="path3143.-5.-1" d="M532.401,160.036c0,-0.267 -0.134,-0.401 -0.401,-0.401c-0.985,0 -1.832,-0.355 -2.542,-1.064c-0.71,-0.71 -1.064,-1.557 -1.064,-2.542c0,-0.268 -0.134,-0.401 -0.401,-0.401c-0.267,0 -0.401,0.133 -0.401,0.401c0,1.218 0.43,2.258 1.29,3.118c0.86,0.86 1.899,1.289 3.118,1.289c0.267,0 0.401,-0.133 0.401,-0.4l0,0Zm20.436,-7.213c0,0.868 -0.317,1.619 -0.951,2.254c-0.635,0.634 -1.386,0.952 -2.255,0.952l-11.22,0c0,1.769 -0.626,3.28 -1.878,4.533c-1.252,1.252 -2.763,1.878 -4.533,1.878c-1.77,0 -3.281,-0.626 -4.533,-1.878c-1.252,-1.253 -1.878,-2.764 -1.878,-4.533l-11.22,0c-0.869,0 -1.62,-0.318 -2.255,-0.952c-0.634,-0.635 -0.951,-1.386 -0.951,-2.254c0.835,-0.701 1.594,-1.436 2.279,-2.204c0.684,-0.768 1.394,-1.766 2.129,-2.993c0.734,-1.227 1.356,-2.55 1.865,-3.969c0.51,-1.42 0.927,-3.139 1.253,-5.16c0.325,-2.02 0.488,-4.191 0.488,-6.511c0,-2.538 0.977,-4.897 2.93,-7.075c1.954,-2.179 4.517,-3.503 7.689,-3.97c-0.134,-0.317 -0.2,-0.643 -0.2,-0.977c0,-0.668 0.233,-1.235 0.701,-1.703c0.467,-0.467 1.035,-0.701 1.703,-0.701c0.668,0 1.236,0.234 1.703,0.701c0.468,0.468 0.701,1.035 0.701,1.703c0,0.334 -0.067,0.66 -0.2,0.977c3.172,0.467 5.735,1.791 7.689,3.97c1.953,2.178 2.93,4.537 2.93,7.075c0,2.32 0.163,4.491 0.488,6.511c0.326,2.021 0.743,3.74 1.252,5.16c0.51,1.419 1.132,2.742 1.866,3.969c0.735,1.227 1.445,2.225 2.129,2.993c0.685,0.768 1.444,1.503 2.279,2.204Z" style="fill:#fff;fill-rule:nonzero;"/><path d="M579.138,36.014c0,-0.885 -0.289,-1.64 -0.866,-2.266c-0.577,-0.626 -1.274,-0.939 -2.09,-0.939c-0.816,0 -1.512,0.313 -2.09,0.939c-0.577,0.626 -0.866,1.381 -0.866,2.266c0,0.885 0.289,1.641 0.866,2.267c0.578,0.626 1.274,0.939 2.09,0.939c0.816,0 1.513,-0.313 2.09,-0.939c0.577,-0.626 0.866,-1.382 0.866,-2.267Zm23.646,0c0,-0.885 -0.288,-1.64 -0.865,-2.266c-0.578,-0.626 -1.274,-0.939 -2.09,-0.939c-0.816,0 -1.513,0.313 -2.09,0.939c-0.578,0.626 -0.866,1.381 -0.866,2.266c0,0.885 0.288,1.641 0.866,2.267c0.577,0.626 1.274,0.939 2.09,0.939c0.816,0 1.512,-0.313 2.09,-0.939c0.577,-0.626 0.865,-1.382 0.865,-2.267Zm-1.062,-9.917l-1.662,-9.618c-0.077,-0.384 -0.251,-0.697 -0.52,-0.939c-0.269,-0.242 -0.581,-0.363 -0.935,-0.363l-21.199,0c-0.354,0 -0.666,0.121 -0.935,0.363c-0.27,0.242 -0.443,0.555 -0.52,0.939l-1.663,9.618c-0.076,0.5 0.031,0.943 0.324,1.327c0.292,0.384 0.669,0.576 1.131,0.576l24.524,0c0.462,0 0.839,-0.192 1.132,-0.576c0.292,-0.384 0.4,-0.827 0.323,-1.327Zm-5.219,-15.328c0,-0.334 -0.107,-0.618 -0.323,-0.851c-0.215,-0.234 -0.477,-0.351 -0.785,-0.351l-14.779,0c-0.308,0 -0.57,0.117 -0.785,0.351c-0.216,0.233 -0.324,0.517 -0.324,0.851c0,0.334 0.108,0.618 0.324,0.852c0.215,0.234 0.477,0.35 0.785,0.35l14.779,0c0.308,0 0.57,-0.116 0.785,-0.35c0.216,-0.234 0.323,-0.518 0.323,-0.852Zm9.237,18.158l0,15.102l-2.956,0l0,3.205c0,0.885 -0.288,1.641 -0.865,2.267c-0.578,0.626 -1.274,0.939 -2.09,0.939c-0.816,0 -1.513,-0.313 -2.09,-0.939c-0.578,-0.626 -0.866,-1.382 -0.866,-2.267l0,-3.205l-17.735,0l0,3.205c0,0.885 -0.289,1.641 -0.866,2.267c-0.577,0.626 -1.274,0.939 -2.09,0.939c-0.816,0 -1.512,-0.313 -2.09,-0.939c-0.577,-0.626 -0.866,-1.382 -0.866,-2.267l0,-3.205l-2.956,0l0,-15.102c0,-1.87 0.193,-3.732 0.578,-5.585l2.378,-11.371c0.139,-1.302 0.889,-2.446 2.252,-3.431c1.362,-0.985 3.133,-1.728 5.311,-2.229c2.178,-0.501 4.584,-0.751 7.216,-0.751c2.633,0 5.038,0.25 7.217,0.751c2.178,0.501 3.949,1.244 5.311,2.229c1.362,0.985 2.113,2.129 2.251,3.431l2.425,11.371c0.354,1.703 0.531,3.564 0.531,5.585Z" style="fill:#464646;fill-rule:nonzero;"/><path d="M579.143,92.009c0,-0.885 -0.288,-1.641 -0.866,-2.267c-0.577,-0.626 -1.274,-0.939 -2.09,-0.939c-0.815,0 -1.512,0.313 -2.089,0.939c-0.578,0.626 -0.866,1.382 -0.866,2.267c0,0.885 0.288,1.64 0.866,2.266c0.577,0.627 1.274,0.94 2.089,0.94c0.816,0 1.513,-0.313 2.09,-0.94c0.578,-0.626 0.866,-1.381 0.866,-2.266Zm23.647,0c0,-0.885 -0.289,-1.641 -0.866,-2.267c-0.577,-0.626 -1.274,-0.939 -2.09,-0.939c-0.816,0 -1.513,0.313 -2.09,0.939c-0.577,0.626 -0.866,1.382 -0.866,2.267c0,0.885 0.289,1.64 0.866,2.266c0.577,0.627 1.274,0.94 2.09,0.94c0.816,0 1.513,-0.313 2.09,-0.94c0.577,-0.626 0.866,-1.381 0.866,-2.266Zm-1.062,-9.918l-1.663,-9.617c-0.077,-0.384 -0.25,-0.697 -0.52,-0.939c-0.269,-0.242 -0.581,-0.363 -0.935,-0.363l-21.199,0c-0.354,0 -0.666,0.121 -0.935,0.363c-0.269,0.242 -0.443,0.555 -0.519,0.939l-1.663,9.617c-0.077,0.501 0.031,0.944 0.323,1.328c0.293,0.384 0.67,0.576 1.132,0.576l24.524,0c0.462,0 0.839,-0.192 1.131,-0.576c0.293,-0.384 0.401,-0.827 0.324,-1.328Zm-5.219,-15.327c0,-0.334 -0.108,-0.618 -0.324,-0.852c-0.215,-0.233 -0.477,-0.35 -0.785,-0.35l-14.779,0c-0.308,0 -0.569,0.117 -0.785,0.35c-0.216,0.234 -0.323,0.518 -0.323,0.852c0,0.334 0.107,0.618 0.323,0.851c0.216,0.234 0.477,0.351 0.785,0.351l14.779,0c0.308,0 0.57,-0.117 0.785,-0.351c0.216,-0.233 0.324,-0.517 0.324,-0.851Zm9.237,18.157l0,15.102l-2.956,0l0,3.206c0,0.885 -0.289,1.64 -0.866,2.266c-0.577,0.627 -1.274,0.94 -2.09,0.94c-0.816,0 -1.513,-0.313 -2.09,-0.94c-0.577,-0.626 -0.866,-1.381 -0.866,-2.266l0,-3.206l-17.735,0l0,3.206c0,0.885 -0.288,1.64 -0.866,2.266c-0.577,0.627 -1.274,0.94 -2.09,0.94c-0.815,0 -1.512,-0.313 -2.089,-0.94c-0.578,-0.626 -0.866,-1.381 -0.866,-2.266l0,-3.206l-2.956,0l0,-15.102c0,-1.87 0.192,-3.731 0.577,-5.585l2.379,-11.37c0.138,-1.302 0.889,-2.446 2.251,-3.431c1.363,-0.985 3.133,-1.728 5.311,-2.229c2.179,-0.501 4.584,-0.751 7.217,-0.751c2.632,0 5.038,0.25 7.216,0.751c2.178,0.501 3.949,1.244 5.311,2.229c1.363,0.985 2.113,2.129 2.252,3.431l2.425,11.37c0.354,1.703 0.531,3.565 0.531,5.585Z" style="fill:#0055a4;fill-rule:nonzero;"/><path d="M579.143,148.004c0,-0.885 -0.288,-1.641 -0.866,-2.267c-0.577,-0.626 -1.274,-0.939 -2.09,-0.939c-0.815,0 -1.512,0.313 -2.089,0.939c-0.578,0.626 -0.866,1.382 -0.866,2.267c0,0.884 0.288,1.64 0.866,2.266c0.577,0.626 1.274,0.939 2.089,0.939c0.816,0 1.513,-0.313 2.09,-0.939c0.578,-0.626 0.866,-1.382 0.866,-2.266Zm23.647,0c0,-0.885 -0.289,-1.641 -0.866,-2.267c-0.577,-0.626 -1.274,-0.939 -2.09,-0.939c-0.816,0 -1.513,0.313 -2.09,0.939c-0.577,0.626 -0.866,1.382 -0.866,2.267c0,0.884 0.289,1.64 0.866,2.266c0.577,0.626 1.274,0.939 2.09,0.939c0.816,0 1.513,-0.313 2.09,-0.939c0.577,-0.626 0.866,-1.382 0.866,-2.266Zm-1.062,-9.918l-1.663,-9.617c-0.077,-0.384 -0.25,-0.697 -0.52,-0.94c-0.269,-0.242 -0.581,-0.363 -0.935,-0.363l-21.199,0c-0.354,0 -0.666,0.121 -0.935,0.363c-0.269,0.243 -0.443,0.556 -0.519,0.94l-1.663,9.617c-0.077,0.501 0.031,0.943 0.323,1.327c0.293,0.384 0.67,0.576 1.132,0.576l24.524,0c0.462,0 0.839,-0.192 1.131,-0.576c0.293,-0.384 0.401,-0.826 0.324,-1.327Zm-5.219,-15.328c0,-0.333 -0.108,-0.617 -0.324,-0.851c-0.215,-0.234 -0.477,-0.351 -0.785,-0.351l-14.779,0c-0.308,0 -0.569,0.117 -0.785,0.351c-0.216,0.234 -0.323,0.518 -0.323,0.851c0,0.334 0.107,0.618 0.323,0.852c0.216,0.234 0.477,0.351 0.785,0.351l14.779,0c0.308,0 0.57,-0.117 0.785,-0.351c0.216,-0.234 0.324,-0.518 0.324,-0.852Zm9.237,18.158l0,15.102l-2.956,0l0,3.206c0,0.884 -0.289,1.64 -0.866,2.266c-0.577,0.626 -1.274,0.939 -2.09,0.939c-0.816,0 -1.513,-0.313 -2.09,-0.939c-0.577,-0.626 -0.866,-1.382 -0.866,-2.266l0,-3.206l-17.735,0l0,3.206c0,0.884 -0.288,1.64 -0.866,2.266c-0.577,0.626 -1.274,0.939 -2.09,0.939c-0.815,0 -1.512,-0.313 -2.089,-0.939c-0.578,-0.626 -0.866,-1.382 -0.866,-2.266l0,-3.206l-2.956,0l0,-15.102c0,-1.87 0.192,-3.732 0.577,-5.585l2.379,-11.37c0.138,-1.303 0.889,-2.446 2.251,-3.432c1.363,-0.985 3.133,-1.728 5.311,-2.229c2.179,-0.5 4.584,-0.751 7.217,-0.751c2.632,0 5.038,0.251 7.216,0.751c2.178,0.501 3.949,1.244 5.311,2.229c1.363,0.986 2.113,2.129 2.252,3.432l2.425,11.37c0.354,1.703 0.531,3.565 0.531,5.585Z" style="fill:#fff;fill-rule:nonzero;"/></svg>